<svg width="92" height="25" viewBox="0 0 92 25" fill="none" xmlns="http://www.w3.org/2000/svg">
<g clip-path="url(#clip0_51_72360)">
<path d="M25.7812 5.94387V5.9111C25.7812 5.02639 26.3929 4.40381 27.2121 4.40381C27.8893 4.40381 28.4135 4.7424 28.4791 5.43598H27.922C27.862 5.04277 27.6435 4.8407 27.2175 4.8407C26.6987 4.8407 26.3601 5.24483 26.3601 5.90564V5.93841C26.3601 6.60467 26.6769 6.99242 27.223 6.99242C27.6326 6.99242 27.922 6.78489 27.9767 6.36984H28.5118C28.4245 7.0798 27.922 7.44024 27.223 7.44024C26.3001 7.44024 25.7812 6.85043 25.7812 5.94387Z" fill="#C0CAC3"/>
<path d="M29.0645 5.94426V5.9115C29.0645 5.04863 29.6816 4.40967 30.5554 4.40967C31.4292 4.40967 32.0408 5.03224 32.0408 5.89511V5.92788C32.0408 6.79075 31.451 7.43517 30.5554 7.43517C29.6543 7.44063 29.0645 6.79621 29.0645 5.94426ZM31.4728 5.9388V5.90604C31.4728 5.29984 31.1342 4.85203 30.5554 4.85203C29.9765 4.85203 29.6379 5.278 29.6379 5.9115V5.94426C29.6379 6.58869 30.0311 7.00374 30.5663 7.00374C31.1233 6.99828 31.4728 6.57776 31.4728 5.9388Z" fill="#C0CAC3"/>
<path d="M32.7129 4.45312H33.3682L34.6079 6.58299V4.45312H35.1049V7.40217H34.5369L33.2099 5.14124V7.40217H32.7129V4.45312Z" fill="#C0CAC3"/>
<path d="M35.8086 6.48483H36.3383C36.3766 6.77974 36.4967 7.03095 36.9937 7.03095C37.3213 7.03095 37.5507 6.85073 37.5507 6.57767C37.5507 6.30461 37.4142 6.20085 36.9391 6.12439C36.2346 6.03155 35.9014 5.81311 35.9014 5.26152C35.9014 4.78094 36.311 4.41504 36.9281 4.41504C37.5616 4.41504 37.9439 4.70448 37.9985 5.26699H37.4961C37.4415 4.9557 37.2667 4.82463 36.9281 4.82463C36.5895 4.82463 36.4202 4.983 36.4202 5.21237C36.4202 5.45267 36.5185 5.57281 37.0319 5.64381C37.7255 5.73665 38.0859 5.93871 38.0859 6.52852C38.0859 7.04188 37.6545 7.44054 36.9991 7.44054C36.1854 7.44054 35.8468 7.04188 35.8086 6.48483Z" fill="#C0CAC3"/>
<path d="M38.791 4.45312H40.6369V4.88456H39.3426V5.69282H40.3802V6.10787H39.3426V6.97074H40.7079V7.40217H38.7965L38.791 4.45312Z" fill="#C0CAC3"/>
<path d="M41.4082 4.45312H42.0635L43.3032 6.58299V4.45312H43.8002V7.40217H43.2322L41.9052 5.14124V7.40217H41.4082V4.45312Z" fill="#C0CAC3"/>
<path d="M44.5039 6.48483H45.0336C45.0719 6.77974 45.192 7.03095 45.689 7.03095C46.0167 7.03095 46.246 6.85073 46.246 6.57767C46.246 6.30461 46.1095 6.20085 45.6344 6.12439C44.9299 6.03155 44.5967 5.81311 44.5967 5.26152C44.5967 4.78094 45.0063 4.41504 45.6235 4.41504C46.257 4.41504 46.6392 4.70448 46.6938 5.26699H46.1914C46.1368 4.9557 45.962 4.82463 45.6235 4.82463C45.2849 4.82463 45.1156 4.983 45.1156 5.21237C45.1156 5.45267 45.2139 5.57281 45.7272 5.64381C46.4208 5.73665 46.7758 5.93871 46.7758 6.52852C46.7758 7.04188 46.3443 7.44054 45.6944 7.44054C44.8807 7.44054 44.5421 7.04188 44.5039 6.48483Z" fill="#C0CAC3"/>
<path d="M48.0537 6.12425L47.0762 4.45312H47.6824L48.3486 5.67097L48.9931 4.45312H49.5283L48.6053 6.12425V7.39671H48.0537V6.12425Z" fill="#C0CAC3"/>
<path d="M49.834 6.48483H50.3637C50.4019 6.77974 50.5221 7.03095 51.0191 7.03095C51.3467 7.03095 51.5761 6.85073 51.5761 6.57767C51.5761 6.30461 51.4396 6.20085 50.9645 6.12439C50.26 6.03155 49.9268 5.81311 49.9268 5.26152C49.9268 4.78094 50.3364 4.41504 50.9535 4.41504C51.587 4.41504 51.9693 4.70448 52.0239 5.26699H51.5215C51.4669 4.9557 51.2921 4.82463 50.9535 4.82463C50.6149 4.82463 50.4456 4.983 50.4456 5.21237C50.4456 5.45267 50.5439 5.57281 51.0573 5.64381C51.7509 5.73665 52.1113 5.93871 52.1113 6.52852C52.1113 7.04188 51.6799 7.44054 51.0245 7.44054C50.2163 7.44054 49.8777 7.04188 49.834 6.48483Z" fill="#C0CAC3"/>
<path d="M26.0078 9.80504C26.0078 9.7122 26.0843 9.63574 26.1771 9.63574H29.6723C33.6043 9.63574 35.5431 11.7656 35.5431 15.1133V15.2389C35.5431 18.5921 33.588 20.8312 29.6559 20.8312H26.1771C26.0843 20.8312 26.0078 20.7547 26.0078 20.6619V9.80504ZM29.5794 18.8542C31.8349 18.8542 32.8998 17.5872 32.8998 15.2717V15.1461C32.8998 12.8469 31.9114 11.6072 29.5521 11.6072H28.5473V18.8542H29.5794Z" fill="#C0CAC3"/>
<path d="M36.3281 10.2914C36.3281 9.58686 36.8906 9.05713 37.6115 9.05713C38.3488 9.05713 38.9113 9.59233 38.9113 10.2914C38.9113 10.9904 38.3488 11.5256 37.6115 11.5256C36.8906 11.5311 36.3281 10.9959 36.3281 10.2914ZM36.6667 12.6397H38.5836C38.6764 12.6397 38.7529 12.7161 38.7529 12.809V20.6622C38.7529 20.755 38.6764 20.8315 38.5836 20.8315H36.6667C36.5739 20.8315 36.4974 20.755 36.4974 20.6622V12.809C36.4974 12.7161 36.5739 12.6397 36.6667 12.6397Z" fill="#C0CAC3"/>
<path d="M40.517 8.93164H42.4338C42.5267 8.93164 42.6031 9.0081 42.6031 9.10094V20.6623C42.6031 20.7551 42.5267 20.8316 42.4338 20.8316H40.517C40.4241 20.8316 40.3477 20.7551 40.3477 20.6623V9.10094C40.3477 9.0081 40.4241 8.93164 40.517 8.93164Z" fill="#C0CAC3"/>
<path d="M44.0117 10.2914C44.0117 9.58686 44.5742 9.05713 45.2951 9.05713C46.0324 9.05713 46.5949 9.59233 46.5949 10.2914C46.5949 10.9904 46.0324 11.5256 45.2951 11.5256C44.5742 11.5311 44.0117 10.9959 44.0117 10.2914ZM44.3503 12.6397H46.2672C46.36 12.6397 46.4365 12.7161 46.4365 12.809V20.6622C46.4365 20.755 46.36 20.8315 46.2672 20.8315H44.3503C44.2575 20.8315 44.181 20.755 44.181 20.6622V12.809C44.1865 12.7161 44.2575 12.6397 44.3503 12.6397Z" fill="#C0CAC3"/>
<path d="M47.7813 21.0004H49.7036C49.7801 21.0004 49.8456 21.0495 49.8674 21.126C50.0422 21.7759 50.5665 22.1909 51.6533 22.1909C53.0295 22.1909 53.7176 21.4701 53.7176 20.1867V18.9524C53.1715 19.8863 52.1721 20.4652 51.0853 20.4707C49.0974 20.4707 47.5137 18.9852 47.5137 16.555V16.4457C47.5137 14.0974 49.081 12.4536 51.1126 12.4536C52.4451 12.4536 53.2425 13.0325 53.7121 13.8626V12.8086C53.7121 12.7158 53.7886 12.6393 53.8814 12.6393H55.7983C55.8912 12.6393 55.9676 12.7158 55.9676 12.8086V20.1867C55.9512 22.6114 54.3402 23.8511 51.6478 23.8511C49.1083 23.8511 47.896 22.7807 47.6065 21.2025C47.5901 21.1096 47.6502 21.0222 47.743 21.0059C47.7594 21.0004 47.7703 21.0004 47.7813 21.0004ZM53.7831 16.5222V16.413C53.7831 15.0204 53.0459 14.1739 51.8116 14.1739C50.5446 14.1739 49.8401 15.0805 49.8401 16.4294V16.555C49.8401 17.9148 50.6375 18.7613 51.7679 18.7613C52.953 18.7613 53.7831 17.9148 53.7831 16.5222Z" fill="#C0CAC3"/>
<path d="M56.7734 16.839V16.7133C56.7734 14.1302 58.6029 12.4536 60.984 12.4536C63.0975 12.4536 64.9762 13.6878 64.9762 16.6205V17.0792C64.9762 17.1721 64.8997 17.2485 64.8069 17.2485H59.0726C59.1381 18.6084 59.8699 19.3948 61.1096 19.3948C62.0926 19.3948 62.6115 18.9961 62.7862 18.3736C62.8081 18.3026 62.8736 18.2534 62.9446 18.2534H64.7577C64.8506 18.2534 64.927 18.3299 64.927 18.4227C64.927 18.4336 64.927 18.4445 64.9216 18.4555C64.583 20.0938 63.1958 21.0059 61.0441 21.0059C58.5702 21.0004 56.7734 19.4494 56.7734 16.839ZM62.7644 15.8505C62.6879 14.6162 62.0599 14.021 60.9786 14.021C59.9628 14.021 59.2747 14.6927 59.0999 15.8505H62.7644Z" fill="#C0CAC3"/>
<path d="M65.972 12.6393H67.9053C67.9981 12.6393 68.0746 12.7158 68.0746 12.8086V13.9391C68.4787 13.1253 69.3744 12.4536 70.7342 12.4536C72.3452 12.4536 73.4921 13.4257 73.4921 15.6156V20.6618C73.4921 20.7546 73.4156 20.8311 73.3228 20.8311H71.3895C71.2967 20.8311 71.2202 20.7546 71.2202 20.6618V15.9488C71.2202 14.8347 70.7833 14.305 69.7785 14.305C68.8064 14.305 68.0746 14.9002 68.0746 16.1072V20.6673C68.0746 20.7601 67.9981 20.8366 67.9053 20.8366H65.972C65.8792 20.8366 65.8027 20.7601 65.8027 20.6673V12.8086C65.8027 12.7158 65.8792 12.6393 65.972 12.6393Z" fill="#C0CAC3"/>
<path d="M74.2129 16.839V16.7133C74.2129 14.0701 76.1079 12.4536 78.4399 12.4536C80.2803 12.4536 81.9896 13.24 82.2736 15.4409C82.2845 15.5337 82.219 15.6211 82.1262 15.632C82.1207 15.632 82.1098 15.632 82.1043 15.632H80.2857C80.2093 15.632 80.1383 15.5774 80.1219 15.501C79.9362 14.6381 79.3683 14.2394 78.489 14.2394C77.3148 14.2394 76.5339 15.1187 76.5339 16.6806V16.8062C76.5339 18.45 77.2712 19.2965 78.5382 19.2965C79.4065 19.2965 80.1164 18.8104 80.2748 17.8547C80.2857 17.7728 80.3567 17.7182 80.4387 17.7182H82.1589C82.2518 17.7182 82.3282 17.7947 82.3282 17.8875C82.3282 17.893 82.3282 17.8984 82.3282 17.9039C82.1262 19.7443 80.7336 21.0059 78.4289 21.0059C76.0315 21.0004 74.2129 19.5149 74.2129 16.839Z" fill="#C0CAC3"/>
<path d="M82.9004 16.839V16.7133C82.9004 14.1302 84.7299 12.4536 87.111 12.4536C89.2245 12.4536 91.1031 13.6878 91.1031 16.6205V17.0792C91.1031 17.1721 91.0267 17.2485 90.9338 17.2485H85.1996C85.2651 18.6084 85.9969 19.3948 87.2366 19.3948C88.2196 19.3948 88.7384 18.9961 88.9132 18.3736C88.935 18.3026 89.0005 18.2479 89.077 18.2534H90.8901C90.983 18.2534 91.0594 18.3299 91.0594 18.4227C91.0594 18.4336 91.0594 18.4445 91.054 18.4555C90.7154 20.0938 89.3282 21.0059 87.1765 21.0059C84.7026 21.0004 82.9004 19.4494 82.9004 16.839ZM88.8968 15.8505C88.8203 14.6162 88.1923 14.021 87.111 14.021C86.0952 14.021 85.4071 14.6927 85.2323 15.8505H88.8968Z" fill="#C0CAC3"/>
<path d="M11.8235 0.723145C5.29736 0.723145 0 6.02051 0 12.5466C0 19.0728 5.29736 24.3756 11.8235 24.3756C18.3496 24.3756 23.6525 19.0782 23.6525 12.5466C23.6525 6.01505 18.3551 0.723145 11.8235 0.723145ZM8.74884 19.0236C8.74884 19.0837 8.69969 19.1328 8.63962 19.1328H6.33499C6.27492 19.1328 6.22577 19.0837 6.22577 19.0236V10.0836C6.22577 10.0236 6.27492 9.97442 6.33499 9.97442H8.63962C8.69969 9.97442 8.74884 10.0236 8.74884 10.0836V19.0236ZM7.48184 8.72926C6.67905 8.72926 6.04555 8.13399 6.04555 7.34758C6.04555 6.56117 6.67905 5.9659 7.48184 5.9659C8.30648 5.9659 8.93452 6.56117 8.93452 7.34758C8.93452 8.13399 8.30648 8.72926 7.48184 8.72926ZM13.1178 19.0182C13.1178 19.0782 13.0687 19.1274 13.0086 19.1274H10.704C10.6439 19.1274 10.5947 19.0782 10.5947 19.0182V6.07512C10.5947 6.01505 10.6439 5.9659 10.704 5.9659H13.0086C13.0687 5.9659 13.1178 6.01505 13.1178 6.07512V19.0182ZM17.4813 19.0236C17.4813 19.0837 17.4321 19.1328 17.3721 19.1328H15.0729C15.0128 19.1328 14.9637 19.0837 14.9637 19.0236V10.0836C14.9637 10.0236 15.0128 9.97442 15.0729 9.97442H17.3775C17.4376 9.97442 17.4868 10.0236 17.4868 10.0836V19.0236H17.4813ZM17.6069 8.6255C17.6069 8.68557 17.5578 8.73472 17.4977 8.73472H14.9528C14.8927 8.73472 14.8435 8.68557 14.8435 8.6255V6.07512C14.8435 6.01505 14.8927 5.9659 14.9528 5.9659H17.4977C17.5578 5.9659 17.6069 6.01505 17.6069 6.07512V8.6255Z" fill="#C0CAC3"/>
</g>
<defs>
<clipPath id="clip0_51_72360">
<rect width="91.1037" height="23.6525" fill="white" transform="translate(0 0.723145)"/>
</clipPath>
</defs>
</svg>
