<svg width="94" height="22" viewBox="0 0 94 22" fill="none" xmlns="http://www.w3.org/2000/svg">
<path fill-rule="evenodd" clip-rule="evenodd" d="M5.23515 8.97656L11.7214 15.5793L18.1385 9.04709L23.3999 14.4029L17.2868 20.6258L15.7142 19.0676L20.2966 14.4029L18.1385 12.2061L11.7214 18.7383L5.23515 12.1356L3.10333 14.3057L7.7554 19.0413L6.18279 20.5995L0 14.3057L5.23515 8.97656Z" fill="#C0CAC3"/>
<path fill-rule="evenodd" clip-rule="evenodd" d="M18.1647 12.136L11.6784 5.53331L5.26146 12.0655L0 6.70962L6.11309 0.486816L7.6857 2.04501L3.10333 6.70962L5.26146 8.9065L11.6784 2.37426L18.1647 8.97698L20.2966 6.80684L15.6445 2.07128L17.2171 0.513084L23.3999 6.80684L18.1647 12.136Z" fill="#C0CAC3"/>
<path fill-rule="evenodd" clip-rule="evenodd" d="M10.7109 20.471V16.311H12.8291V20.471H10.7109Z" fill="#C0CAC3"/>
<path fill-rule="evenodd" clip-rule="evenodd" d="M10.7109 4.80156V0.641602H12.8291V4.80156H10.7109Z" fill="#C0CAC3"/>
<path d="M30.5364 5.39795H28.4258V16.0248H30.5364V5.39795Z" fill="#C0CAC3"/>
<path d="M41.2435 8.20215C40.2841 8.20215 39.3691 8.61545 38.9115 9.51579C38.4392 8.61545 37.5537 8.20215 36.5205 8.20215C35.5906 8.20215 34.8822 8.55638 34.5132 9.19106L34.2918 8.34978H32.373V16.0247H34.4394V11.7297C34.4394 10.5932 35.0298 10.0471 35.9006 10.0471C36.7271 10.0471 37.288 10.5637 37.288 11.8182V16.0247H39.2805V11.7739C39.31 10.5784 39.9299 10.0471 40.7417 10.0471C41.583 10.0471 42.1291 10.5637 42.1291 11.7149V16.0394H44.2102V11.3017C44.2102 9.17628 42.7785 8.20215 41.2435 8.20215Z" fill="#C0CAC3"/>
<path d="M54.7201 8.20215C53.7605 8.20215 52.8456 8.61545 52.3882 9.51579C51.9157 8.61545 51.03 8.20215 49.997 8.20215C49.0672 8.20215 48.3587 8.55638 47.9897 9.19106L47.7683 8.34978H45.8496V16.0247H47.9159V11.7297C47.9159 10.5932 48.5063 10.0471 49.3771 10.0471C50.2037 10.0471 50.7646 10.5637 50.7646 11.8182V16.0247H52.7572V11.7739C52.7863 10.5784 53.4066 10.0471 54.2184 10.0471C55.0594 10.0471 55.6058 10.5637 55.6058 11.7149V16.0394H57.6869V11.3017C57.6869 9.17628 56.2553 8.20215 54.7201 8.20215Z" fill="#C0CAC3"/>
<path d="M64.3586 8.34961V12.556C64.3586 13.6925 63.8273 14.3714 62.8089 14.3862C61.8347 14.4157 61.2149 13.8401 61.2149 12.6446V8.34961H59.252V12.9103C59.252 14.8733 60.388 16.1721 62.3514 16.1721C63.2663 16.1721 63.9303 15.7588 64.329 15.1832L64.4325 16.0245H66.3216V8.34961H64.3586Z" fill="#C0CAC3"/>
<path d="M72.3854 8.20215C71.2343 8.20215 70.4667 8.63017 70.0681 9.26485L69.95 8.34978H68.0312V16.0247H70.0977V11.9658C70.0977 10.726 70.6879 9.97332 71.7802 9.97332C72.784 9.97332 73.3892 10.6227 73.3892 11.892V16.0247H75.4703V11.464C75.4703 9.50101 74.3484 8.20215 72.3854 8.20215Z" fill="#C0CAC3"/>
<path d="M84.5075 12.0692C84.5075 9.72238 82.9869 8.20215 80.6993 8.20215C78.4116 8.20215 76.877 9.79618 76.877 12.1872C76.877 14.593 78.4116 16.187 80.7144 16.187C82.6476 16.187 84.1089 15.1096 84.4482 13.5156H82.3672C82.1314 14.1797 81.5262 14.5192 80.7732 14.5192C79.7844 14.5192 78.9872 13.8846 78.958 12.7481H84.5075V12.0692ZM80.6993 9.81096C81.5996 9.81096 82.3526 10.3276 82.441 11.3902H78.9726C79.0611 10.3276 79.8141 9.81096 80.6993 9.81096Z" fill="#C0CAC3"/>
<path d="M85.3145 8.34951V10.1501H86.4952V16.0244H88.5763V10.1501H90.3326V8.34951H88.5763V7.56725C88.5763 7.02114 88.7236 6.60789 89.5651 6.60789H90.3326V4.92529H89.1076C87.1738 4.92529 86.4952 5.86992 86.4952 7.3606V8.34951H85.3145Z" fill="#C0CAC3"/>
<path d="M91.6973 7.16873H93.7929L93.8226 4.92529H91.7269L91.6973 7.16873ZM91.7269 16.0244H93.7929V8.34951H91.7269V16.0244Z" fill="#C0CAC3"/>
</svg>
