<svg width="124" height="11" viewBox="0 0 124 11" fill="none" xmlns="http://www.w3.org/2000/svg">
<g clip-path="url(#clip0_51_73386)">
<path d="M12.7093 1.09624L6.40113 5.96718V3.92088C6.40113 3.70595 6.22688 3.53172 6.01196 3.53172H0.967292C0.752356 3.53172 0.578125 3.70595 0.578125 3.92088V8.30523C0.578125 9.86394 2.03387 10.7407 3.58668 10.7894C4.62187 10.8219 5.56003 10.351 6.40113 9.37684L13.3887 1.97301C13.9711 1.38851 14.3592 1.09624 15.0386 1.09624H16.7855C17.0766 1.09624 17.2222 0.901406 17.2222 0.706571C17.2222 0.511733 17.0766 0.316895 16.7855 0.316895H14.5533C13.9711 0.316895 13.3564 0.576679 12.7093 1.09624Z" fill="#C0CAC3"/>
<path d="M21.6958 10.32C22.4534 10.6038 23.2112 10.7458 23.9689 10.7458C24.6987 10.7458 25.3588 10.619 25.9492 10.3654C26.5394 10.1118 27.0066 9.75112 27.3507 9.28345C27.6946 8.81577 27.8666 8.28643 27.8666 7.69543C27.8666 7.37899 27.8131 7.08234 27.7063 6.80546C27.5993 6.52857 27.4657 6.29124 27.3054 6.09347C27.1449 5.89569 26.9462 5.71188 26.7091 5.54203C26.4721 5.37217 26.249 5.2349 26.0398 5.13019C25.8306 5.02549 25.5959 4.92776 25.3355 4.83702C25.0752 4.74628 24.8706 4.68113 24.7219 4.64157C24.5731 4.60202 24.4128 4.56363 24.2408 4.5264C23.9898 4.47521 23.7678 4.41937 23.5749 4.35887C23.382 4.29837 23.1937 4.22393 23.0101 4.1355C22.8265 4.04708 22.6859 3.94006 22.5883 3.81441C22.4906 3.68877 22.4419 3.54916 22.4419 3.3956C22.4419 3.135 22.5836 2.92211 22.8672 2.75691C23.1508 2.5917 23.5133 2.50911 23.955 2.50911C24.4105 2.50911 24.8637 2.59519 25.3146 2.76737C25.7655 2.93955 26.1351 3.16292 26.4233 3.43748L27.4552 1.74825C27.074 1.38529 26.5801 1.09211 25.9735 0.868744C25.3668 0.645376 24.6987 0.533691 23.9689 0.533691C22.83 0.533691 21.9119 0.803595 21.2146 1.3434C20.5173 1.88321 20.1687 2.59519 20.1687 3.47936C20.1687 5.02433 21.3169 6.07369 23.6132 6.62746C23.8457 6.6833 24.0188 6.72635 24.1327 6.75659C24.2466 6.78684 24.3965 6.83105 24.5825 6.88922C24.7684 6.94738 24.909 7.00323 25.0043 7.05675C25.0997 7.11025 25.1996 7.17425 25.3041 7.2487C25.4087 7.32316 25.4831 7.40575 25.5273 7.4965C25.5714 7.58724 25.5935 7.68845 25.5935 7.80014C25.5935 8.084 25.4343 8.31668 25.1159 8.49816C24.7974 8.67966 24.4105 8.7704 23.955 8.7704C23.4389 8.7704 22.9078 8.65522 22.3616 8.42487C21.8154 8.19452 21.3378 7.89089 20.9287 7.51395L19.7852 9.19619C20.3012 9.66154 20.938 10.0362 21.6958 10.32Z" fill="#C0CAC3"/>
<path d="M42.2777 0.708008H40.0673V4.56809H36.1138V0.708008H33.8965V10.5711H36.1138V6.65519H40.0673V10.5711H42.2777V0.708008Z" fill="#C0CAC3"/>
<path d="M55.3914 8.48401H50.852V6.65519H54.8475V4.56809H50.852V2.7951H55.3217V0.708008H48.6348V10.5711H55.3914V8.48401Z" fill="#C0CAC3"/>
<path d="M65.0245 7.51732L67.0535 10.5711H69.7101L67.4091 7.27302C68.0274 7.03103 68.5201 6.65061 68.8873 6.13174C69.2546 5.61288 69.4382 4.95433 69.4382 4.00967C69.4382 3.06501 69.1128 2.27857 68.462 1.65034C67.8112 1.02212 66.9954 0.708008 66.0146 0.708008H61.7402V10.5711H63.9576V7.51732H65.0245ZM63.9576 5.5838V2.7951H65.9657C66.3098 2.7951 66.5956 2.91377 66.8234 3.1511C67.0512 3.38843 67.1947 3.70924 67.1947 4.18576C67.1947 4.66228 67.05 4.99629 66.8199 5.23129C66.5898 5.4663 66.3051 5.5838 65.9657 5.5838H63.9576Z" fill="#C0CAC3"/>
<path d="M82.0582 8.48401H77.8561V0.708008H75.6387V10.5711H82.0582V8.48401Z" fill="#C0CAC3"/>
<path d="M91.2301 10.7458C91.9599 10.7458 92.6455 10.6155 93.2871 10.3549C93.9332 10.0897 94.4876 9.73134 94.95 9.27995C95.4126 8.82857 95.7775 8.28759 96.0448 7.65704C96.3121 7.02649 96.4457 6.3529 96.4457 5.63626C96.4457 4.68229 96.2179 3.81558 95.7624 3.03611C95.3069 2.25665 94.6804 1.64471 93.8832 1.20031C93.086 0.755896 92.2016 0.533691 91.2301 0.533691C90.5003 0.533691 89.8123 0.66399 89.1661 0.924586C88.5201 1.18518 87.9668 1.54118 87.5066 1.99256C87.0464 2.44395 86.6839 2.98492 86.4189 3.61547C86.1539 4.24602 86.0215 4.91962 86.0215 5.63626C86.0215 6.3529 86.1539 7.02649 86.4189 7.65704C86.6839 8.28759 87.0464 8.82857 87.5066 9.27995C87.9668 9.73134 88.5201 10.0885 89.1661 10.3514C89.8123 10.6143 90.5003 10.7458 91.2301 10.7458ZM91.2301 8.60985C90.3934 8.60985 89.6938 8.32831 89.1313 7.76524C88.5688 7.19751 88.2876 6.48785 88.2876 5.63626C88.2876 4.78467 88.5688 4.07617 89.1313 3.51077C89.6938 2.94537 90.3934 2.66267 91.2301 2.66267C92.0669 2.66267 92.7664 2.94537 93.3289 3.51077C93.8914 4.07617 94.1726 4.78467 94.1726 5.63626C94.1726 6.48785 93.8914 7.19634 93.3289 7.76175C92.7664 8.32715 92.0669 8.60985 91.2301 8.60985Z" fill="#C0CAC3"/>
<path d="M103.568 10.3514C104.215 10.6143 104.903 10.7458 105.632 10.7458C106.549 10.7458 107.386 10.5491 108.146 10.156C108.906 9.76276 109.521 9.21946 109.991 8.52609L108.073 7.33944C107.803 7.73499 107.456 8.04561 107.031 8.27131C106.605 8.497 106.14 8.60985 105.632 8.60985C104.796 8.60985 104.096 8.32715 103.533 7.76175C102.971 7.19634 102.69 6.48785 102.69 5.63626C102.69 4.78467 102.971 4.07617 103.533 3.51077C104.096 2.94537 104.796 2.66267 105.632 2.66267C106.135 2.66267 106.599 2.77668 107.027 3.0047C107.455 3.23272 107.803 3.54451 108.073 3.94006L109.991 2.75341C109.521 2.06004 108.906 1.51675 108.146 1.12352C107.386 0.730303 106.549 0.533691 105.632 0.533691C104.903 0.533691 104.215 0.66399 103.568 0.924586C102.923 1.18518 102.369 1.54118 101.909 1.99256C101.448 2.44395 101.086 2.98492 100.821 3.61547C100.556 4.24602 100.424 4.91962 100.424 5.63626C100.424 6.3529 100.556 7.02649 100.821 7.65704C101.086 8.28759 101.448 8.82857 101.909 9.27995C102.369 9.73134 102.923 10.0885 103.568 10.3514Z" fill="#C0CAC3"/>
<path d="M118.28 7.05306L121.265 10.5711H124.151L119.71 5.45458L123.935 0.708008H121.125L117.458 4.96597V0.708008H115.24V10.5711H117.458V7.98144L118.28 7.05306Z" fill="#C0CAC3"/>
</g>
<defs>
<clipPath id="clip0_51_73386">
<rect width="123.473" height="10.4741" fill="white" transform="translate(0.527344 0.316895)"/>
</clipPath>
</defs>
</svg>
