<svg width="96" height="96" viewBox="0 0 96 96" fill="none" xmlns="http://www.w3.org/2000/svg">
  <path d="M46.3746 63.4782C46.9711 65.0291 47.4902 66.6343 47.4674 68.291C47.3904 73.8484 43.876 79.05 38.2218 81.115C30.8612 83.804 22.6608 80.1593 19.9064 72.9744C17.1521 65.7899 20.886 57.7857 28.2466 55.0972C28.3792 55.049 28.5118 55.0026 28.6449 54.958L32.579 64.9794C32.4145 65.0128 32.2505 65.0583 32.0885 65.1177C30.3978 65.7352 29.5399 67.5742 30.1725 69.2244C30.8056 70.8751 32.6892 71.7125 34.3799 71.0945C36.071 70.477 36.9289 68.6385 36.2958 66.9878C36.2792 66.9442 36.2616 66.901 36.2431 66.8588L29.7053 50.1981L29.6673 50.2166L29.1107 48.7223C24.1908 35.8018 30.913 21.4264 44.1455 16.5931C57.3969 11.7525 72.1593 18.3139 77.1167 31.2483L77.3734 31.9178C82.1597 44.3957 76.0426 58.3401 63.4936 63.5769C59.3699 65.2977 54.9206 66.1267 50.4508 66.0149L46.1013 54.9831L49.6133 55.2614C52.8829 55.5203 56.1682 54.9979 59.185 53.7393C66.3492 50.7497 69.8389 42.79 67.1083 35.6677L66.8516 34.9983C64.0145 27.5981 55.5689 23.8444 47.9873 26.6136C40.4063 29.3828 36.5601 37.6264 39.3972 45.0262L40.7228 48.5855L40.7138 48.5804L40.9495 49.1946L43.0138 54.7386L46.3746 63.4782Z" fill="#72F4C9" />
  <rect x="1.5" y="1.5" width="93" height="93" rx="30.5" stroke="#72F4C9" stroke-width="3" />
</svg>
