<svg width="22" height="22" viewBox="0 0 22 22" fill="none" xmlns="http://www.w3.org/2000/svg">
<path fill-rule="evenodd" clip-rule="evenodd" d="M9.54115 6.60763L9.30929 6.15625C8.27657 6.31823 7.70888 6.466 6.72046 6.87625C5.52777 8.25764 4.85162 11.5596 5.02766 13.7162C5.02766 13.7162 6.95359 14.9943 7.98632 15.1562L8.56962 13.7162L7.74617 13.127C8.61976 13.4995 9.66519 13.7162 10.7886 13.7162C11.9121 13.7162 13.4364 13.4995 14.31 13.127L13.4865 13.7162L14.0413 15.1562C15.0741 14.9943 17 13.7162 17 13.7162C17 11.3495 16.5847 8.46778 15.3357 6.87625C14.3473 6.466 13.7796 6.31823 12.7468 6.15625L12.515 6.60763C11.5541 6.46434 10.5035 6.46412 9.54115 6.60763ZM8.9375 10.6562C8.9375 11.2258 9.2453 11.6875 9.625 11.6875C10.0047 11.6875 10.3125 11.2258 10.3125 10.6562C10.3125 10.0867 10.0047 9.625 9.625 9.625C9.2453 9.625 8.9375 10.0867 8.9375 10.6562ZM12.375 11.6875C11.9953 11.6875 11.6875 11.2258 11.6875 10.6562C11.6875 10.0867 11.9953 9.625 12.375 9.625C12.7547 9.625 13.0625 10.0867 13.0625 10.6562C13.0625 11.2258 12.7547 11.6875 12.375 11.6875Z" fill="#89A097"/>
</svg>
