<svg width="22" height="22" viewBox="0 0 22 22" fill="none" xmlns="http://www.w3.org/2000/svg">
<path d="M7.25 7.4933C7.94037 7.4933 8.5 6.93515 8.5 6.24665C8.5 5.55815 7.94037 5 7.25 5C6.55963 5 6 5.55815 6 6.24665C6 6.93515 6.55963 7.4933 7.25 7.4933Z" fill="#89A097"/>
<path d="M9.58871 15H11.6989V11.3338C11.6989 10.7304 12.1894 10.2413 12.7944 10.2413C13.3994 10.2413 13.8898 10.7304 13.8898 11.3338V15H16V10.5563C16 9.22742 14.9198 8.15013 13.5874 8.15013C12.7222 8.15013 11.9635 8.60426 11.5376 9.28653V8.39142H9.58871V15Z" fill="#89A097"/>
<path d="M8.31183 8.39142H6V15H8.31183V8.39142Z" fill="#89A097"/>
</svg>
