<svg  viewBox="0 0 50 50" fill="none" xmlns="http://www.w3.org/2000/svg">
<g id="Frame 316126137">
<g id="Group 316125923">
<g id="Group 316125985">
<g id="Group 316125986">
<path id="Ellipse 730" d="M1 13C1 19.0751 5.92487 24 12 24C14.8933 24 17.5256 22.883 19.4894 21.0567L21.1277 19.1409C22.3099 17.3871 23 15.2741 23 13C23 6.92487 18.0751 2 12 2C5.92487 2 1 6.92487 1 13Z" stroke="#2F5144" stroke-width="2"/>
<g id="&#60;&#62;">
<path id="Vector" d="M13.865 15.999L12.999 14.6129L16.999 12.1946V13.8135L12.999 11.3953L13.865 9.99902L17.999 12.4779V13.5302L13.865 15.999Z" fill="#2F5144"/>
<path id="Vector_2" d="M10.1416 15.999L5.99902 13.5302V12.4779L10.1416 9.99902L10.999 11.3953L7.00109 13.8135V12.1946L10.999 14.6129L10.1416 15.999Z" fill="#2F5144"/>
</g>
</g>
<path id="Rectangle 12963" d="M20.6667 6L46 6L46 20.154L46 24.872L46 34.308L46 46L8.00001 46L8.00001 27" stroke="#2F5144" stroke-width="2"/>
<path id="Rectangle 12962" d="M22 17L45.0233 17" stroke="#2F5144" stroke-width="2"/>
<g id="Group 316125971">
<mask id="mask0_145_3617" style="mask-type:alpha" maskUnits="userSpaceOnUse" x="25" y="8" width="19" height="7">
<rect id="Rectangle 12969" x="25" y="8" width="19" height="7" fill="#D9D9D9"/>
</mask>
<g mask="url(#mask0_145_3617)">
<g id="Group 316126174">
<g id="Group 316126174_2">
<path id="Rectangle 12981" d="M25.5 12L27 13.5L25.5 15L24 13.5L25.5 12Z" fill="#2F5144"/>
<path id="Rectangle 12985" d="M37.5 12L39 13.5L37.5 15L36 13.5L37.5 12Z" fill="#2F5144"/>
<path id="Rectangle 12986" d="M33.5 12L35 13.5L33.5 15L32 13.5L33.5 12Z" fill="#2F5144"/>
<path id="Rectangle 12987" d="M29.5 12L31 13.5L29.5 15L28 13.5L29.5 12Z" fill="#2F5144"/>
<path id="Rectangle 12990" d="M41.5 12L43 13.5L41.5 15L40 13.5L41.5 12Z" fill="#2F5144"/>
</g>
<g id="Group 316126175">
<path id="Rectangle 12981_2" d="M27.5 14L29 15.5L27.5 17L26 15.5L27.5 14Z" fill="#2F5144"/>
<path id="Rectangle 12985_2" d="M39.5 14L41 15.5L39.5 17L38 15.5L39.5 14Z" fill="#2F5144"/>
<path id="Rectangle 12986_2" d="M35.5 14L37 15.5L35.5 17L34 15.5L35.5 14Z" fill="#2F5144"/>
<path id="Rectangle 12987_2" d="M31.5 14L33 15.5L31.5 17L30 15.5L31.5 14Z" fill="#2F5144"/>
<path id="Rectangle 12990_2" d="M43.5 14L45 15.5L43.5 17L42 15.5L43.5 14Z" fill="#2F5144"/>
</g>
<g id="Group 316126171">
<path id="Rectangle 12981_3" d="M27.5 6L29 7.5L27.5 9L26 7.5L27.5 6Z" fill="#2F5144"/>
<path id="Rectangle 12985_3" d="M39.5 6L41 7.5L39.5 9L38 7.5L39.5 6Z" fill="#2F5144"/>
<path id="Rectangle 12986_3" d="M35.5 6L37 7.5L35.5 9L34 7.5L35.5 6Z" fill="#2F5144"/>
<path id="Rectangle 12987_3" d="M31.5 6L33 7.5L31.5 9L30 7.5L31.5 6Z" fill="#2F5144"/>
<path id="Rectangle 12990_3" d="M43.5 6L45 7.5L43.5 9L42 7.5L43.5 6Z" fill="#2F5144"/>
</g>
<g id="Group 316126172">
<path id="Rectangle 12981_4" d="M25.5 8L27 9.5L25.5 11L24 9.5L25.5 8Z" fill="#2F5144"/>
<path id="Rectangle 12985_4" d="M37.5 8L39 9.5L37.5 11L36 9.5L37.5 8Z" fill="#2F5144"/>
<path id="Rectangle 12986_4" d="M33.5 8L35 9.5L33.5 11L32 9.5L33.5 8Z" fill="#2F5144"/>
<path id="Rectangle 12987_4" d="M29.5 8L31 9.5L29.5 11L28 9.5L29.5 8Z" fill="#2F5144"/>
<path id="Rectangle 12990_4" d="M41.5 8L43 9.5L41.5 11L40 9.5L41.5 8Z" fill="#2F5144"/>
</g>
<g id="Group 316126173">
<path id="Rectangle 12981_5" d="M27.5 10L29 11.5L27.5 13L26 11.5L27.5 10Z" fill="#2F5144"/>
<path id="Rectangle 12985_5" d="M39.5 10L41 11.5L39.5 13L38 11.5L39.5 10Z" fill="#2F5144"/>
<path id="Rectangle 12986_5" d="M35.5 10L37 11.5L35.5 13L34 11.5L35.5 10Z" fill="#2F5144"/>
<path id="Rectangle 12987_5" d="M31.5 10L33 11.5L31.5 13L30 11.5L31.5 10Z" fill="#2F5144"/>
<path id="Rectangle 12990_5" d="M43.5 10L45 11.5L43.5 13L42 11.5L43.5 10Z" fill="#2F5144"/>
</g>
</g>
</g>
</g>
<path id="Rectangle 12964" d="M23.0006 36L37 36M37 30L23 30" stroke="#2F5144" stroke-width="2"/>
<path id="Rectangle 12965" d="M18.0001 36L21 36M21 30L18 30" stroke="#2F5144" stroke-width="2"/>
</g>
</g>
</g>
</svg>
