<svg viewBox="0 0 50 50" fill="none" xmlns="http://www.w3.org/2000/svg">
<g id="Frame 316126138">
<g id="Group 316125924">
<path id="Rectangle 12961" d="M12 32.9242L19.8488 32.9242M17.7558 28.9998L12 28.9998M12 36.8486L19.8488 36.8486" stroke="#2F5144" stroke-width="2"/>
<path id="Rectangle 12965" d="M32 32.9244L39.8488 32.9244M37.7558 36.8488L32 36.8488M32 29L39.8488 29" stroke="#2F5144" stroke-width="2"/>
<path id="Rectangle 12963" d="M25.5 48L48 48L48 14L39 14M25.5 48L3 48L3 35.877L3 23.7541L3 17.6926L3 14L10.9412 14M25.5 48L25.5 31.9369L25.5 28.5532" stroke="#2F5144" stroke-width="2"/>
<g id="Group 316125987">
<path id="Ellipse 728" d="M37 14C37 20.6274 31.6274 26 25 26C21.8437 26 18.9721 24.7815 16.8298 22.7891L15.0426 20.6992C13.7528 18.7859 13 16.4809 13 14C13 7.37258 18.3726 2 25 2C31.6274 2 37 7.37258 37 14Z" stroke="#2F5144" stroke-width="2"/>
<g id="Group 316125969">
<mask id="mask0_145_3824" style="mask-type:alpha" maskUnits="userSpaceOnUse" x="16" y="4" width="18" height="17">
<g id="Subtract">
<mask id="path-5-inside-1_145_3824" fill="white">
<path fill-rule="evenodd" clip-rule="evenodd" d="M34 13.8838C34 16.2761 33.0666 18.4503 31.5442 20.0623C29.9692 17.9631 27.4601 16.605 24.6337 16.605C22.0073 16.605 19.6548 17.7778 18.0713 19.6281C16.7777 18.0696 16 16.0675 16 13.8838C16 8.91323 20.0294 4.88379 25 4.88379C29.9706 4.88379 34 8.91323 34 13.8838ZM25 7.00098C26.6569 7.00098 28 8.34412 28 10.001C28 11.6578 26.6569 13.001 25 13.001C23.3431 13.001 22 11.6578 22 10.001C22 8.34412 23.3431 7.00098 25 7.00098Z"/>
</mask>
<path fill-rule="evenodd" clip-rule="evenodd" d="M34 13.8838C34 16.2761 33.0666 18.4503 31.5442 20.0623C29.9692 17.9631 27.4601 16.605 24.6337 16.605C22.0073 16.605 19.6548 17.7778 18.0713 19.6281C16.7777 18.0696 16 16.0675 16 13.8838C16 8.91323 20.0294 4.88379 25 4.88379C29.9706 4.88379 34 8.91323 34 13.8838ZM25 7.00098C26.6569 7.00098 28 8.34412 28 10.001C28 11.6578 26.6569 13.001 25 13.001C23.3431 13.001 22 11.6578 22 10.001C22 8.34412 23.3431 7.00098 25 7.00098Z" fill="#D9D9D9"/>
<path d="M31.5442 20.0623L29.7845 21.3825L31.3511 23.4706L33.1435 21.5728L31.5442 20.0623ZM18.0713 19.6281L16.3785 21.0331L18.0456 23.0417L19.7427 21.0585L18.0713 19.6281ZM33.1435 21.5728C35.0363 19.5688 36.1999 16.8598 36.1999 13.8838H31.8001C31.8001 15.6923 31.097 17.3319 29.9449 18.5518L33.1435 21.5728ZM24.6337 18.8049C26.7385 18.8049 28.6071 19.8133 29.7845 21.3825L33.3039 18.7421C31.3313 16.113 28.1817 14.4051 24.6337 14.4051V18.8049ZM19.7427 21.0585C20.9261 19.6756 22.6771 18.8049 24.6337 18.8049V14.4051C21.3376 14.4051 18.3835 15.8799 16.3999 18.1978L19.7427 21.0585ZM13.8001 13.8838C13.8001 16.5994 14.7694 19.0944 16.3785 21.0331L19.7641 18.2231C18.7861 17.0448 18.1999 15.5357 18.1999 13.8838H13.8001ZM25 2.6839C18.8145 2.6839 13.8001 7.69826 13.8001 13.8838H18.1999C18.1999 10.1282 21.2444 7.08368 25 7.08368V2.6839ZM36.1999 13.8838C36.1999 7.69826 31.1855 2.6839 25 2.6839V7.08368C28.7556 7.08368 31.8001 10.1282 31.8001 13.8838H36.1999ZM30.1999 10.001C30.1999 7.12916 27.8718 4.80109 25 4.80109V9.20086C25.4419 9.20086 25.8001 9.55909 25.8001 10.001H30.1999ZM25 15.2009C27.8718 15.2009 30.1999 12.8728 30.1999 10.001H25.8001C25.8001 10.4429 25.4419 10.8011 25 10.8011V15.2009ZM19.8001 10.001C19.8001 12.8728 22.1282 15.2009 25 15.2009V10.8011C24.5581 10.8011 24.1999 10.4429 24.1999 10.001H19.8001ZM25 4.80109C22.1282 4.80109 19.8001 7.12916 19.8001 10.001H24.1999C24.1999 9.55909 24.5581 9.20086 25 9.20086V4.80109Z" fill="#2F5144" mask="url(#path-5-inside-1_145_3824)"/>
</g>
</mask>
<g mask="url(#mask0_145_3824)">
<g id="Group 316126174">
<g id="Group 316126174_2">
<path id="Rectangle 12981" d="M17.5 13L19 14.5L17.5 16L16 14.5L17.5 13Z" fill="#2F5144"/>
<path id="Rectangle 12985" d="M29.5 13L31 14.5L29.5 16L28 14.5L29.5 13Z" fill="#2F5144"/>
<path id="Rectangle 12986" d="M25.5 13L27 14.5L25.5 16L24 14.5L25.5 13Z" fill="#2F5144"/>
<path id="Rectangle 12987" d="M21.5 13L23 14.5L21.5 16L20 14.5L21.5 13Z" fill="#2F5144"/>
<path id="Rectangle 12990" d="M33.5 13L35 14.5L33.5 16L32 14.5L33.5 13Z" fill="#2F5144"/>
</g>
<g id="Group 316126169">
<path id="Rectangle 12981_2" d="M19.5 3L21 4.5L19.5 6L18 4.5L19.5 3Z" fill="#2F5144"/>
<path id="Rectangle 12985_2" d="M31.5 3L33 4.5L31.5 6L30 4.5L31.5 3Z" fill="#2F5144"/>
<path id="Rectangle 12982" d="M15.5 3L17 4.5L15.5 6L14 4.5L15.5 3Z" fill="#2F5144"/>
<path id="Rectangle 12986_2" d="M27.5 3L29 4.5L27.5 6L26 4.5L27.5 3Z" fill="#2F5144"/>
<path id="Rectangle 12987_2" d="M23.5 3L25 4.5L23.5 6L22 4.5L23.5 3Z" fill="#2F5144"/>
</g>
<g id="Group 316126175">
<path id="Rectangle 12981_3" d="M19.5 15L21 16.5L19.5 18L18 16.5L19.5 15Z" fill="#2F5144"/>
<path id="Rectangle 12985_3" d="M31.5 15L33 16.5L31.5 18L30 16.5L31.5 15Z" fill="#2F5144"/>
<path id="Rectangle 12982_2" d="M15.5 15L17 16.5L15.5 18L14 16.5L15.5 15Z" fill="#2F5144"/>
<path id="Rectangle 12986_3" d="M27.5 15L29 16.5L27.5 18L26 16.5L27.5 15Z" fill="#2F5144"/>
<path id="Rectangle 12987_3" d="M23.5 15L25 16.5L23.5 18L22 16.5L23.5 15Z" fill="#2F5144"/>
</g>
<g id="Group 316126170">
<path id="Rectangle 12981_4" d="M17.5 5L19 6.5L17.5 8L16 6.5L17.5 5Z" fill="#2F5144"/>
<path id="Rectangle 12985_4" d="M29.5 5L31 6.5L29.5 8L28 6.5L29.5 5Z" fill="#2F5144"/>
<path id="Rectangle 12986_4" d="M25.5 5L27 6.5L25.5 8L24 6.5L25.5 5Z" fill="#2F5144"/>
<path id="Rectangle 12987_4" d="M21.5 5L23 6.5L21.5 8L20 6.5L21.5 5Z" fill="#2F5144"/>
<path id="Rectangle 12990_2" d="M33.5 5L35 6.5L33.5 8L32 6.5L33.5 5Z" fill="#2F5144"/>
</g>
<g id="Group 316126176">
<path id="Rectangle 12981_5" d="M17.5 17L19 18.5L17.5 20L16 18.5L17.5 17Z" fill="#2F5144"/>
<path id="Rectangle 12985_5" d="M29.5 17L31 18.5L29.5 20L28 18.5L29.5 17Z" fill="#2F5144"/>
<path id="Rectangle 12986_5" d="M25.5 17L27 18.5L25.5 20L24 18.5L25.5 17Z" fill="#2F5144"/>
<path id="Rectangle 12987_5" d="M21.5 17L23 18.5L21.5 20L20 18.5L21.5 17Z" fill="#2F5144"/>
<path id="Rectangle 12990_3" d="M33.5 17L35 18.5L33.5 20L32 18.5L33.5 17Z" fill="#2F5144"/>
</g>
<g id="Group 316126171">
<path id="Rectangle 12981_6" d="M19.5 7L21 8.5L19.5 10L18 8.5L19.5 7Z" fill="#2F5144"/>
<path id="Rectangle 12985_6" d="M31.5 7L33 8.5L31.5 10L30 8.5L31.5 7Z" fill="#2F5144"/>
<path id="Rectangle 12982_3" d="M15.5 7L17 8.5L15.5 10L14 8.5L15.5 7Z" fill="#2F5144"/>
<path id="Rectangle 12986_6" d="M27.5 7L29 8.5L27.5 10L26 8.5L27.5 7Z" fill="#2F5144"/>
<path id="Rectangle 12987_6" d="M23.5 7L25 8.5L23.5 10L22 8.5L23.5 7Z" fill="#2F5144"/>
</g>
<g id="Group 316126177">
<path id="Rectangle 12981_7" d="M19.5 19L21 20.5L19.5 22L18 20.5L19.5 19Z" fill="#2F5144"/>
<path id="Rectangle 12985_7" d="M31.5 19L33 20.5L31.5 22L30 20.5L31.5 19Z" fill="#2F5144"/>
<path id="Rectangle 12982_4" d="M15.5 19L17 20.5L15.5 22L14 20.5L15.5 19Z" fill="#2F5144"/>
<path id="Rectangle 12986_7" d="M27.5 19L29 20.5L27.5 22L26 20.5L27.5 19Z" fill="#2F5144"/>
<path id="Rectangle 12987_7" d="M23.5 19L25 20.5L23.5 22L22 20.5L23.5 19Z" fill="#2F5144"/>
</g>
<g id="Group 316126172">
<path id="Rectangle 12981_8" d="M17.5 9L19 10.5L17.5 12L16 10.5L17.5 9Z" fill="#2F5144"/>
<path id="Rectangle 12985_8" d="M29.5 9L31 10.5L29.5 12L28 10.5L29.5 9Z" fill="#2F5144"/>
<path id="Rectangle 12986_8" d="M25.5 9L27 10.5L25.5 12L24 10.5L25.5 9Z" fill="#2F5144"/>
<path id="Rectangle 12987_8" d="M21.5 9L23 10.5L21.5 12L20 10.5L21.5 9Z" fill="#2F5144"/>
<path id="Rectangle 12990_4" d="M33.5 9L35 10.5L33.5 12L32 10.5L33.5 9Z" fill="#2F5144"/>
</g>
<g id="Group 316126173">
<path id="Rectangle 12981_9" d="M19.5 11L21 12.5L19.5 14L18 12.5L19.5 11Z" fill="#2F5144"/>
<path id="Rectangle 12985_9" d="M31.5 11L33 12.5L31.5 14L30 12.5L31.5 11Z" fill="#2F5144"/>
<path id="Rectangle 12982_5" d="M15.5 11L17 12.5L15.5 14L14 12.5L15.5 11Z" fill="#2F5144"/>
<path id="Rectangle 12986_9" d="M27.5 11L29 12.5L27.5 14L26 12.5L27.5 11Z" fill="#2F5144"/>
<path id="Rectangle 12987_9" d="M23.5 11L25 12.5L23.5 14L22 12.5L23.5 11Z" fill="#2F5144"/>
</g>
</g>
</g>
</g>
<path id="Ellipse 729" d="M22.2764 12.9296L22.2346 12.8906L22.1974 12.8472L21.7506 12.3247L21.7134 12.2812L21.6814 12.2337C21.2512 11.5955 21 10.8256 21 10C21 7.79086 22.7909 6 25 6C27.2091 6 29 7.79086 29 10C29 12.2091 27.2091 14 25 14C23.9484 14 22.9897 13.5929 22.2764 12.9296Z" stroke="#2F5144" stroke-width="2"/>
<path id="Ellipse 727" d="M17 22C19.0576 17.416 19.7119 17 24.8644 17C30.0169 17 30.7976 17.4798 33 22" stroke="#2F5144" stroke-width="2"/>
</g>
</g>
</g>
</svg>
