<svg width="367" height="96" viewBox="0 0 367 96" fill="none" xmlns="http://www.w3.org/2000/svg">
<rect width="96" height="96" rx="31.6731" fill="#081912"/>
<path d="M42.9445 54.6588C45.7682 62.0073 49.2267 70.7347 44.1794 76.7762C42.644 78.6141 40.6048 80.091 38.1664 80.9824C30.8269 83.6657 22.6505 80.0283 19.9039 72.8581C17.1573 65.6878 20.8806 57.7 28.2201 55.0167C28.3521 54.9684 28.4845 54.9222 28.6171 54.878L32.5399 64.8793C32.3759 64.9123 32.2125 64.958 32.0508 65.0171C30.3648 65.6335 29.5094 67.4685 30.1404 69.1157C30.7714 70.7628 32.6497 71.5984 34.3357 70.982C36.0218 70.3656 36.8771 68.5306 36.2461 66.8835C36.2295 66.84 36.2119 66.797 36.1936 66.7547L29.6745 50.1273L29.6363 50.146L29.0814 48.6545C24.1761 35.7603 30.8786 21.4135 44.0731 16.5897C57.2859 11.7592 72.0054 18.3074 76.9499 31.2155L77.2059 31.8838C81.9761 44.3367 75.8801 58.253 63.3653 63.4795C59.2534 65.1967 54.8169 66.0239 50.36 65.9127L46.023 54.9028L49.5248 55.1804C52.7853 55.4388 56.0612 54.9174 59.0691 53.6613C66.2126 50.678 69.6923 42.7344 66.9694 35.6262L66.7134 34.9579C63.8845 27.5729 55.4632 23.8265 47.9038 26.5901C40.3444 29.3538 36.5096 37.5809 39.3385 44.9659L40.6599 48.5178L40.6513 48.5129L40.8862 49.1259L42.9445 54.6588Z" fill="#F1F3ED"/>
<path d="M200.13 76.3485C196.14 76.3485 192.71 75.3666 189.81 73.4026C186.92 71.4376 184.68 68.8185 183.1 65.5455C181.57 62.2165 180.81 58.5616 180.81 54.5786C180.81 50.4316 181.68 46.7215 183.43 43.4475C185.23 40.1195 187.77 37.5005 191.04 35.5905C194.37 33.6265 198.33 32.6445 202.91 32.6445C207.44 32.6445 211.28 33.6265 214.45 35.5905C217.67 37.5005 220.12 40.1195 221.81 43.4475C223.56 46.7215 224.43 50.3766 224.43 54.4146V75.3665H215.02V67.5916H214.86C214.04 69.1196 212.98 70.5645 211.67 71.9295C210.36 73.2385 208.75 74.3025 206.84 75.1205C204.93 75.9395 202.69 76.3485 200.13 76.3485ZM202.66 68.3275C205.12 68.3275 207.25 67.7276 209.05 66.5276C210.9 65.2726 212.32 63.6085 213.3 61.5345C214.34 59.4065 214.86 57.0336 214.86 54.4146C214.86 51.7956 214.37 49.4766 213.38 47.4576C212.4 45.3846 211.01 43.7475 209.21 42.5475C207.41 41.2925 205.25 40.6646 202.74 40.6646C200.13 40.6646 197.89 41.2925 196.03 42.5475C194.18 43.7475 192.76 45.3846 191.78 47.4576C190.8 49.5315 190.3 51.8776 190.3 54.4966C190.3 57.0606 190.8 59.4065 191.78 61.5345C192.76 63.6085 194.15 65.2726 195.95 66.5276C197.81 67.7276 200.04 68.3275 202.66 68.3275Z" fill="#081912"/>
<path d="M231.27 75.3669V45.4939C231.27 41.7839 232.31 38.8919 234.38 36.8189C236.51 34.6909 239.43 33.627 243.14 33.627H253.21V41.6479H244.86C243.55 41.6479 242.51 42.0299 241.75 42.7929C241.04 43.5569 240.69 44.5939 240.69 45.9039V75.3669H231.27Z" fill="#081912"/>
<path d="M276.84 75.3665C272.15 75.3665 268.03 74.4935 264.49 72.7475C260.99 70.9465 258.27 68.4915 256.3 65.3815C254.34 62.2165 253.36 58.5886 253.36 54.4966C253.36 50.1856 254.23 46.3935 255.97 43.1205C257.72 39.8465 260.12 37.2815 263.18 35.4265C266.23 33.5715 269.75 32.6445 273.73 32.6445C278.21 32.6445 281.89 33.5985 284.78 35.5085C287.68 37.4185 289.8 39.9825 291.17 43.2015C292.59 46.4215 293.3 50.0226 293.3 54.0056C293.3 54.5506 293.27 55.1785 293.21 55.8875C293.16 56.5965 293.08 57.1425 292.97 57.5245H263.34C263.67 59.7075 264.46 61.5345 265.71 63.0085C266.97 64.4265 268.55 65.5176 270.46 66.2816C272.37 66.9916 274.5 67.3456 276.84 67.3456H288.06V75.3665H276.84ZM263.26 51.1405H283.88C283.83 50.1045 283.66 49.0675 283.39 48.0305C283.17 46.9935 282.79 46.0115 282.25 45.0845C281.76 44.1565 281.1 43.3655 280.28 42.7105C279.52 42.0015 278.59 41.4555 277.5 41.0735C276.41 40.6375 275.15 40.4196 273.73 40.4196C272.1 40.4196 270.65 40.7466 269.4 41.4016C268.14 42.0016 267.08 42.8195 266.2 43.8565C265.33 44.8385 264.65 45.9846 264.16 47.2946C263.72 48.5486 263.42 49.8315 263.26 51.1405Z" fill="#081912"/>
<path d="M311.5 75.4885C307.79 75.4885 304.87 74.4244 302.74 72.2964C300.66 70.1684 299.63 67.2765 299.63 63.6215V23.2725H308.96V63.2115C308.96 64.4665 309.34 65.5034 310.1 66.3224C310.87 67.0854 311.88 67.4675 313.13 67.4675H321.89V75.4885H311.5ZM292.95 41.7685V33.7484H321.97V41.7685H292.95Z" fill="#081912"/>
<path d="M344.21 76.3485C339.9 76.3485 336.08 75.3935 332.75 73.4845C329.42 71.5195 326.78 68.9005 324.81 65.6275C322.9 62.2985 321.95 58.5886 321.95 54.4966C321.95 50.4046 322.9 46.7215 324.81 43.4475C326.78 40.1195 329.42 37.5005 332.75 35.5905C336.08 33.6265 339.9 32.6445 344.21 32.6445C348.46 32.6445 352.26 33.6265 355.59 35.5905C358.91 37.5005 361.53 40.0915 363.44 43.3655C365.41 46.6395 366.39 50.3496 366.39 54.4966C366.39 58.5886 365.41 62.2985 363.44 65.6275C361.53 68.9005 358.91 71.5195 355.59 73.4845C352.26 75.3935 348.46 76.3485 344.21 76.3485ZM344.21 68.3275C346.77 68.3275 349.01 67.7276 350.92 66.5276C352.83 65.2726 354.3 63.6085 355.34 61.5345C356.38 59.4615 356.89 57.1156 356.89 54.4966C356.89 51.9316 356.38 49.6126 355.34 47.5396C354.3 45.4116 352.83 43.7475 350.92 42.5475C349.01 41.2925 346.77 40.6646 344.21 40.6646C341.59 40.6646 339.33 41.2925 337.42 42.5475C335.56 43.7475 334.09 45.3846 333 47.4576C331.96 49.5315 331.44 51.8776 331.44 54.4966C331.44 57.0606 331.96 59.4065 333 61.5345C334.09 63.6085 335.56 65.2726 337.42 66.5276C339.33 67.7276 341.59 68.3275 344.21 68.3275Z" fill="#081912"/>
<path d="M136.91 75.291V18H160.97C164.63 18 167.95 18.846 170.96 20.537C174.01 22.174 176.44 24.493 178.24 27.494C180.04 30.44 180.94 33.878 180.94 37.806C180.94 41.68 180.04 45.118 178.24 48.118C176.49 51.119 174.09 53.466 171.04 55.157C168.04 56.794 164.65 57.612 160.89 57.612H146.65V75.291H136.91ZM146.65 49.019H159.74C161.87 49.019 163.78 48.582 165.47 47.709C167.22 46.836 168.58 45.554 169.56 43.863C170.6 42.171 171.12 40.18 171.12 37.888C171.12 35.487 170.6 33.468 169.56 31.832C168.58 30.14 167.22 28.858 165.47 27.985C163.78 27.057 161.9 26.594 159.82 26.594H146.65V49.019Z" fill="#081912"/>
</svg>
