<svg width="367" height="96" viewBox="0 0 367 96" fill="none" xmlns="http://www.w3.org/2000/svg">
<path d="M200.13 77.3485C196.14 77.3485 192.71 76.3666 189.81 74.4026C186.92 72.4376 184.68 69.8185 183.1 66.5455C181.57 63.2165 180.81 59.5616 180.81 55.5786C180.81 51.4316 181.68 47.7215 183.43 44.4475C185.23 41.1195 187.77 38.5005 191.04 36.5905C194.37 34.6265 198.33 33.6445 202.91 33.6445C207.44 33.6445 211.28 34.6265 214.45 36.5905C217.67 38.5005 220.12 41.1195 221.81 44.4475C223.56 47.7215 224.43 51.3766 224.43 55.4146V76.3665H215.02V68.5916H214.86C214.04 70.1196 212.98 71.5645 211.67 72.9295C210.36 74.2385 208.75 75.3025 206.84 76.1205C204.93 76.9395 202.69 77.3485 200.13 77.3485ZM202.66 69.3275C205.12 69.3275 207.25 68.7276 209.05 67.5276C210.9 66.2726 212.32 64.6085 213.3 62.5345C214.34 60.4065 214.86 58.0336 214.86 55.4146C214.86 52.7956 214.37 50.4766 213.38 48.4576C212.4 46.3846 211.01 44.7475 209.21 43.5475C207.41 42.2925 205.25 41.6646 202.74 41.6646C200.13 41.6646 197.89 42.2925 196.03 43.5475C194.18 44.7475 192.76 46.3846 191.78 48.4576C190.8 50.5315 190.3 52.8776 190.3 55.4966C190.3 58.0606 190.8 60.4065 191.78 62.5345C192.76 64.6085 194.15 66.2726 195.95 67.5276C197.81 68.7276 200.04 69.3275 202.66 69.3275Z" fill="#F1F3ED"/>
<path d="M231.27 76.3669V46.4939C231.27 42.7839 232.31 39.8919 234.38 37.8189C236.51 35.6909 239.43 34.627 243.14 34.627H253.21V42.6479H244.86C243.55 42.6479 242.51 43.0299 241.75 43.7929C241.04 44.5569 240.69 45.5939 240.69 46.9039V76.3669H231.27Z" fill="#F1F3ED"/>
<path d="M276.84 76.3665C272.15 76.3665 268.03 75.4935 264.49 73.7475C260.99 71.9465 258.27 69.4915 256.3 66.3815C254.34 63.2165 253.36 59.5886 253.36 55.4966C253.36 51.1856 254.23 47.3935 255.97 44.1205C257.72 40.8465 260.12 38.2815 263.18 36.4265C266.23 34.5715 269.75 33.6445 273.73 33.6445C278.21 33.6445 281.89 34.5985 284.78 36.5085C287.68 38.4185 289.8 40.9825 291.17 44.2015C292.59 47.4215 293.3 51.0226 293.3 55.0056C293.3 55.5506 293.27 56.1785 293.21 56.8875C293.16 57.5965 293.08 58.1425 292.97 58.5245H263.34C263.67 60.7075 264.46 62.5345 265.71 64.0085C266.97 65.4265 268.55 66.5176 270.46 67.2816C272.37 67.9916 274.5 68.3456 276.84 68.3456H288.06V76.3665H276.84ZM263.26 52.1405H283.88C283.83 51.1045 283.66 50.0675 283.39 49.0305C283.17 47.9935 282.79 47.0115 282.25 46.0845C281.76 45.1565 281.1 44.3655 280.28 43.7105C279.52 43.0015 278.59 42.4555 277.5 42.0735C276.41 41.6375 275.15 41.4196 273.73 41.4196C272.1 41.4196 270.65 41.7466 269.4 42.4016C268.14 43.0016 267.08 43.8195 266.2 44.8565C265.33 45.8385 264.65 46.9846 264.16 48.2946C263.72 49.5486 263.42 50.8315 263.26 52.1405Z" fill="#F1F3ED"/>
<path d="M311.5 76.4885C307.79 76.4885 304.87 75.4244 302.74 73.2964C300.66 71.1684 299.63 68.2765 299.63 64.6215V24.2725H308.96V64.2115C308.96 65.4665 309.34 66.5034 310.1 67.3224C310.87 68.0854 311.88 68.4675 313.13 68.4675H321.89V76.4885H311.5ZM292.95 42.7685V34.7484H321.97V42.7685H292.95Z" fill="#F1F3ED"/>
<path d="M344.21 77.3485C339.9 77.3485 336.08 76.3935 332.75 74.4845C329.42 72.5195 326.78 69.9005 324.81 66.6275C322.9 63.2985 321.95 59.5886 321.95 55.4966C321.95 51.4046 322.9 47.7215 324.81 44.4475C326.78 41.1195 329.42 38.5005 332.75 36.5905C336.08 34.6265 339.9 33.6445 344.21 33.6445C348.46 33.6445 352.26 34.6265 355.59 36.5905C358.91 38.5005 361.53 41.0915 363.44 44.3655C365.41 47.6395 366.39 51.3496 366.39 55.4966C366.39 59.5886 365.41 63.2985 363.44 66.6275C361.53 69.9005 358.91 72.5195 355.59 74.4845C352.26 76.3935 348.46 77.3485 344.21 77.3485ZM344.21 69.3275C346.77 69.3275 349.01 68.7276 350.92 67.5276C352.83 66.2726 354.3 64.6085 355.34 62.5345C356.38 60.4615 356.89 58.1156 356.89 55.4966C356.89 52.9316 356.38 50.6126 355.34 48.5396C354.3 46.4116 352.83 44.7475 350.92 43.5475C349.01 42.2925 346.77 41.6646 344.21 41.6646C341.59 41.6646 339.33 42.2925 337.42 43.5475C335.56 44.7475 334.09 46.3846 333 48.4576C331.96 50.5315 331.44 52.8776 331.44 55.4966C331.44 58.0606 331.96 60.4065 333 62.5345C334.09 64.6085 335.56 66.2726 337.42 67.5276C339.33 68.7276 341.59 69.3275 344.21 69.3275Z" fill="#F1F3ED"/>
<path d="M136.91 76.291V19H160.97C164.63 19 167.95 19.846 170.96 21.537C174.01 23.174 176.44 25.493 178.24 28.494C180.04 31.44 180.94 34.878 180.94 38.806C180.94 42.68 180.04 46.118 178.24 49.118C176.49 52.119 174.09 54.466 171.04 56.157C168.04 57.794 164.65 58.612 160.89 58.612H146.65V76.291H136.91ZM146.65 50.019H159.74C161.87 50.019 163.78 49.582 165.47 48.709C167.22 47.836 168.58 46.554 169.56 44.863C170.6 43.171 171.12 41.18 171.12 38.888C171.12 36.487 170.6 34.468 169.56 32.832C168.58 31.14 167.22 29.858 165.47 28.985C163.78 28.057 161.9 27.594 159.82 27.594H146.65V50.019Z" fill="#F1F3ED"/>
<path fill-rule="evenodd" clip-rule="evenodd" d="M2.56006 19.197C5.8651e-05 25.173 0 32.782 0 48C0 63.218 5.8651e-05 70.827 2.56006 76.803C5.76006 84.279 11.72 90.236 19.2 93.439C25.17 96 32.78 96 48 96C63.22 96 70.83 96 76.8 93.439C84.2801 90.236 90.2399 84.279 93.4399 76.803C95.9999 70.827 96 63.218 96 48C96 32.782 95.9999 25.173 93.4399 19.197C90.2399 11.721 84.2801 5.764 76.8 2.561C70.83 4.52995e-06 63.22 0 48 0C32.78 0 25.17 4.52995e-06 19.2 2.561C11.72 5.764 5.76006 11.721 2.56006 19.197ZM43.0601 54.965C43.0201 54.862 42.9799 54.76 42.9399 54.659L40.8899 49.126L40.6499 48.513L40.6599 48.518L39.3401 44.966C36.5101 37.581 40.3399 29.354 47.8999 26.59C55.4599 23.826 63.88 27.573 66.71 34.958L66.97 35.626C69.69 42.734 66.2101 50.678 59.0701 53.661C56.0601 54.917 52.79 55.439 49.52 55.18L46.02 54.903L50.3601 65.913C54.8201 66.024 59.2501 65.197 63.3701 63.48C75.8801 58.253 81.98 44.337 77.21 31.884L76.95 31.215C72.0099 18.307 57.2901 11.759 44.0701 16.59C30.8801 21.414 24.1801 35.76 29.0801 48.654L29.6399 50.146L29.6699 50.127L36.1899 66.755C36.2099 66.797 36.23 66.84 36.25 66.883C36.88 68.531 36.0201 70.366 34.3401 70.982C32.6501 71.598 30.7699 70.763 30.1399 69.116C29.5099 67.469 30.36 65.634 32.05 65.017C32.21 64.958 32.38 64.912 32.54 64.879L28.6201 54.878C28.4801 54.922 28.35 54.968 28.22 55.017C20.88 57.7 17.1599 65.688 19.8999 72.858C22.6499 80.028 30.8299 83.666 38.1699 80.982C40.5999 80.091 42.6399 78.614 44.1799 76.776C49.1599 70.818 45.8601 62.248 43.0601 54.965Z" fill="#F1F3ED"/>
</svg>
