<svg width="150" height="150" viewBox="0 0 150 150" fill="none" xmlns="http://www.w3.org/2000/svg">
<path d="M73.9193 100.014C75.3933 108.749 70.5263 117.582 61.9213 120.803C52.1633 124.455 41.2913 119.504 37.6393 109.745C33.9873 99.987 38.9383 89.115 48.6963 85.463C48.8723 85.397 49.0483 85.334 49.2243 85.274L54.4403 98.886C54.2223 98.931 54.0053 98.993 53.7903 99.074C51.5483 99.9129 50.4113 102.41 51.2503 104.652C52.0893 106.894 54.5863 108.031 56.8283 107.192C59.0703 106.353 60.2073 103.856 59.3683 101.614C59.3463 101.555 59.3233 101.496 59.2983 101.439L50.6303 78.809L50.5803 78.834L49.8423 76.804C43.3203 59.255 52.2313 39.729 69.7753 33.164C87.3433 26.589 106.914 35.5009 113.489 53.0689L113.829 53.979C120.172 70.928 112.066 89.868 95.4263 96.981C89.9593 99.318 84.0603 100.444 78.1343 100.293L72.3683 85.308L77.0243 85.6859C81.3593 86.0379 85.7153 85.328 89.7143 83.618C99.2123 79.558 103.839 68.747 100.218 59.072L99.8783 58.163C96.1173 48.112 84.9193 43.013 74.8683 46.774C64.8173 50.536 59.7183 61.733 63.4803 71.784L65.2373 76.618L65.2253 76.611L65.5383 77.446L68.2743 84.976L73.9193 100.014Z" fill="#254839"/>
</svg>
