<svg width="230" height="59" viewBox="0 0 230 59" fill="none" xmlns="http://www.w3.org/2000/svg">
<path d="M63.2175 58.3491C59.2344 58.3491 55.797 57.367 52.9052 55.4027C50.0133 53.4385 47.7763 50.8195 46.194 47.5457C44.6662 44.2174 43.9023 40.5617 43.9023 36.5786C43.9023 32.4319 44.7753 28.7217 46.5213 25.4479C48.3219 22.1196 50.8591 19.5006 54.1328 17.5909C57.4611 15.6267 61.4169 14.6445 66.0002 14.6445C70.5288 14.6445 74.3755 15.6267 77.5401 17.5909C80.7593 19.5006 83.2146 22.1196 84.906 25.4479C86.652 28.7217 87.525 32.3773 87.525 36.415V57.367H78.113V49.5918H77.9493C77.1309 51.1195 76.0669 52.5655 74.7574 53.9295C73.4479 55.239 71.8383 56.303 69.9286 57.1214C68.019 57.9399 65.7819 58.3491 63.2175 58.3491ZM65.7546 50.3284C68.2099 50.3284 70.3379 49.7282 72.1384 48.5278C73.9936 47.2729 75.4122 45.6087 76.3943 43.5354C77.431 41.4074 77.9493 39.034 77.9493 36.415C77.9493 33.796 77.4583 31.4771 76.4761 29.4582C75.494 27.3849 74.1027 25.748 72.3021 24.5476C70.5016 23.2927 68.3463 22.6652 65.8365 22.6652C63.2175 22.6652 60.9804 23.2927 59.1253 24.5476C57.2702 25.748 55.8515 27.3849 54.8694 29.4582C53.8873 31.5316 53.3962 33.8778 53.3962 36.4968C53.3962 39.0612 53.8873 41.4074 54.8694 43.5354C55.8515 45.6087 57.2429 47.2729 59.0434 48.5278C60.8986 49.7282 63.1356 50.3284 65.7546 50.3284Z" fill="#F1F3ED"/>
<path d="M94.3652 57.3673V27.4943C94.3652 23.784 95.4019 20.8922 97.4753 18.8189C99.6032 16.6909 102.522 15.627 106.233 15.627H116.299V23.6476H107.951C106.642 23.6476 105.605 24.0296 104.841 24.7935C104.132 25.5573 103.777 26.594 103.777 27.9035V57.3673H94.3652Z" fill="#F1F3ED"/>
<path d="M139.936 57.367C135.244 57.367 131.125 56.4939 127.578 54.748C124.086 52.9474 121.358 50.4921 119.394 47.382C117.429 44.2174 116.447 40.589 116.447 36.4968C116.447 32.1864 117.32 28.3943 119.066 25.1205C120.812 21.8468 123.213 19.2823 126.269 17.4272C129.324 15.5721 132.843 14.6445 136.826 14.6445C141.3 14.6445 144.983 15.5994 147.875 17.5091C150.767 19.4187 152.895 21.9832 154.259 25.2024C155.678 28.4216 156.387 32.0227 156.387 36.0057C156.387 36.5514 156.36 37.1788 156.305 37.8881C156.251 38.5975 156.169 39.1431 156.06 39.525H126.432C126.76 41.7075 127.551 43.5354 128.806 45.0086C130.061 46.4272 131.643 47.5184 133.553 48.2823C135.462 48.9916 137.59 49.3463 139.936 49.3463H151.149V57.367H139.936ZM126.35 33.1412H146.975C146.92 32.1045 146.757 31.0678 146.484 30.0311C146.266 28.9945 145.884 28.0123 145.338 27.0848C144.847 26.1572 144.192 25.3661 143.374 24.7113C142.61 24.002 141.682 23.4564 140.591 23.0744C139.5 22.6379 138.245 22.4197 136.826 22.4197C135.189 22.4197 133.744 22.7471 132.489 23.4018C131.234 24.002 130.17 24.8204 129.297 25.8571C128.424 26.8392 127.742 27.9851 127.251 29.2946C126.814 30.5495 126.514 31.8317 126.35 33.1412Z" fill="#F1F3ED"/>
<path d="M174.587 57.4878C170.877 57.4878 167.958 56.4238 165.83 54.2959C163.757 52.1679 162.72 49.2761 162.72 45.6204V5.27148H172.05V45.2112C172.05 46.4662 172.432 47.5028 173.196 48.3213C173.96 49.0852 174.969 49.4671 176.224 49.4671H184.981V57.4878H174.587ZM156.045 23.7682V15.7475H185.063V23.7682H156.045Z" fill="#F1F3ED"/>
<path d="M207.301 58.3491C202.99 58.3491 199.171 57.3942 195.842 55.4846C192.514 53.5203 189.868 50.9013 187.904 47.6275C185.994 44.2992 185.039 40.589 185.039 36.4968C185.039 32.4046 185.994 28.7217 187.904 25.4479C189.868 22.1196 192.514 19.5006 195.842 17.5909C199.171 15.6267 202.99 14.6445 207.301 14.6445C211.556 14.6445 215.349 15.6267 218.677 17.5909C222.005 19.5006 224.624 22.0923 226.534 25.3661C228.498 28.6398 229.48 32.3501 229.48 36.4968C229.48 40.589 228.498 44.2992 226.534 47.6275C224.624 50.9013 222.005 53.5203 218.677 55.4846C215.349 57.3942 211.556 58.3491 207.301 58.3491ZM207.301 50.3284C209.865 50.3284 212.102 49.7282 214.012 48.5278C215.921 47.2729 217.395 45.6087 218.431 43.5354C219.468 41.462 219.986 39.1158 219.986 36.4968C219.986 33.9324 219.468 31.6135 218.431 29.5401C217.395 27.4122 215.921 25.748 214.012 24.5476C212.102 23.2927 209.865 22.6652 207.301 22.6652C204.682 22.6652 202.417 23.2927 200.508 24.5476C198.652 25.748 197.179 27.3849 196.088 29.4582C195.051 31.5316 194.533 33.8778 194.533 36.4968C194.533 39.0612 195.051 41.4074 196.088 43.5354C197.179 45.6087 198.652 47.2729 200.508 48.5278C202.417 49.7282 204.682 50.3284 207.301 50.3284Z" fill="#F1F3ED"/>
<path d="M0 57.2906V0H24.0621C27.7177 0 31.0461 0.845719 34.047 2.53716C37.1025 4.17403 39.5305 6.49294 41.3311 9.49387C43.1316 12.4402 44.0319 15.8777 44.0319 19.8062C44.0319 23.6801 43.1316 27.1176 41.3311 30.1185C39.5851 33.1194 37.1843 35.4656 34.1288 37.1571C31.1279 38.7939 27.745 39.6124 23.9802 39.6124H9.7394V57.2906H0ZM9.7394 31.0188H22.8344C24.9623 31.0188 26.872 30.5823 28.5635 29.7093C30.3095 28.8363 31.6735 27.5541 32.6556 25.8626C33.6923 24.1712 34.2107 22.1797 34.2107 19.888C34.2107 17.4873 33.6923 15.4685 32.6556 13.8316C31.6735 12.1402 30.3095 10.8579 28.5635 9.98494C26.872 9.05737 24.9896 8.59359 22.9162 8.59359H9.7394V31.0188Z" fill="#F1F3ED"/>
</svg>
