<svg width="150" height="150" viewBox="0 0 150 150" fill="none" xmlns="http://www.w3.org/2000/svg">
<path d="M100 0H50C22.3858 0 0 22.3858 0 50V100C0 127.614 22.3858 150 50 150H100C127.614 150 150 127.614 150 100V50C150 22.3858 127.614 0 100 0Z" fill="#254839"/>
<path d="M73.4203 100.014C74.8933 108.749 70.0273 117.582 61.4213 120.803C51.6633 124.455 40.7913 119.504 37.1393 109.745C33.4873 99.987 38.4383 89.115 48.1973 85.463C48.3723 85.397 48.5483 85.334 48.7243 85.274L53.9403 98.886C53.7223 98.931 53.5053 98.993 53.2903 99.074C51.0483 99.9129 49.9113 102.41 50.7503 104.652C51.5893 106.894 54.0863 108.031 56.3283 107.192C58.5703 106.353 59.7073 103.856 58.8683 101.614C58.8463 101.555 58.8233 101.496 58.7983 101.439L50.1313 78.809L50.0803 78.834L49.3423 76.804C42.8203 59.255 51.7313 39.729 69.2753 33.164C86.8433 26.589 106.414 35.5009 112.989 53.0689L113.329 53.979C119.672 70.928 111.566 89.868 94.9263 96.981C89.4593 99.318 83.5603 100.444 77.6343 100.293L71.8683 85.308L76.5243 85.6859C80.8593 86.0379 85.2153 85.328 89.2143 83.618C98.7123 79.558 103.339 68.747 99.7183 59.072L99.3783 58.163C95.6173 48.112 84.4203 43.013 74.3683 46.774C64.3173 50.536 59.2193 61.733 62.9803 71.784L64.7373 76.618L64.7253 76.611L65.0383 77.446L67.7753 84.976L73.4203 100.014Z" fill="#E3EAE0"/>
</svg>
