<svg width="300" height="300" viewBox="0 0 300 300" fill="none" xmlns="http://www.w3.org/2000/svg">
<path d="M300 150C300 232.843 232.843 300 150 300C67.1573 300 0 232.843 0 150C0 67.1573 67.1573 0 150 0C232.843 0 300 67.1573 300 150Z" fill="#70B19E"/>
<path fill-rule="evenodd" clip-rule="evenodd" d="M150 291.892C228.365 291.892 291.892 228.365 291.892 150C291.892 71.6353 228.365 8.10811 150 8.10811C71.6353 8.10811 8.10811 71.6353 8.10811 150C8.10811 228.365 71.6353 291.892 150 291.892ZM150 300C232.843 300 300 232.843 300 150C300 67.1573 232.843 0 150 0C67.1573 0 0 67.1573 0 150C0 232.843 67.1573 300 150 300Z" fill="#48685A"/>
<path fill-rule="evenodd" clip-rule="evenodd" d="M150 277.058C220.174 277.058 277.061 220.171 277.061 149.997C277.061 79.8227 220.174 22.9355 150 22.9355C79.8257 22.9355 22.9384 79.8227 22.9384 149.997C22.9384 220.171 79.8257 277.058 150 277.058ZM150 285.363C224.76 285.363 285.365 224.757 285.365 149.997C285.365 75.2362 224.76 14.6309 150 14.6309C75.2391 14.6309 14.6338 75.2362 14.6338 149.997C14.6338 224.757 75.2391 285.363 150 285.363Z" fill="#74FBC9"/>
<path d="M279.601 150.598C279.601 221.842 221.845 279.598 150.601 279.598C79.3559 279.598 21.6006 221.842 21.6006 150.598C21.6006 79.3529 79.3559 21.5977 150.601 21.5977C221.845 21.5977 279.601 79.3529 279.601 150.598Z" fill="#2C4739"/>
<path d="M142.843 65.8535H156.022V226.829H142.843V65.8535ZM115.801 177.59C116.71 181.125 118.528 184.407 121.255 187.437C124.133 190.468 127.996 192.93 132.844 194.823C137.692 196.717 143.676 197.664 150.796 197.664C161.4 197.664 169.202 195.644 174.201 191.604C179.352 187.437 181.928 182.577 181.928 177.021C181.928 172.476 180.337 168.752 177.156 165.848C174.126 162.818 169.884 160.293 164.43 158.272C159.128 156.126 152.993 154.232 146.024 152.591C139.964 151.076 133.98 149.498 128.072 147.856C122.315 146.089 117.089 143.942 112.393 141.417C107.696 138.766 103.985 135.42 101.258 131.38C98.5311 127.214 97.1677 122.037 97.1677 115.851C97.1677 108.149 99.3643 101.521 103.758 95.9654C108.151 90.4102 114.286 86.1806 122.164 83.2768C130.193 80.2466 139.434 78.7316 149.887 78.7316C158.674 78.7316 166.551 79.8047 173.52 81.9511C180.488 83.9712 186.321 86.9382 191.017 90.8521C195.865 94.6397 199.425 99.2481 201.697 104.677L181.019 110.927C180.11 108.149 178.216 105.561 175.338 103.162C172.459 100.637 168.824 98.6168 164.43 97.1017C160.037 95.5867 155.113 94.8291 149.66 94.8291C144.055 94.7029 138.98 95.4604 134.435 97.1017C130.042 98.6168 126.481 100.826 123.755 103.73C121.179 106.634 119.892 110.106 119.892 114.146C119.892 118.565 121.406 122.037 124.436 124.562C127.466 127.087 131.481 129.171 136.48 130.812C141.631 132.453 147.236 134.031 153.296 135.546C159.658 137.188 165.869 138.955 171.929 140.849C177.989 142.743 183.443 145.142 188.29 148.046C193.289 150.95 197.304 154.611 200.334 159.03C203.364 163.323 204.879 168.752 204.879 175.317C204.879 182.387 202.909 188.826 198.97 194.634C195.032 200.442 189.048 205.113 181.019 208.648C173.141 212.184 163.218 213.951 151.25 213.951C141.403 213.951 132.541 212.689 124.664 210.163C116.786 207.638 110.272 204.166 105.121 199.747C100.122 195.202 96.789 189.963 95.1226 184.029L115.801 177.59Z" fill="#F1F3ED"/>
</svg>
