<svg xmlns="http://www.w3.org/2000/svg" width="114" height="120" viewBox="0 0 114 120" fill="none" shape-rendering="crispEdges" style="transform: translateZ(0)">
  <path d="M76.8027 17.5144L76.8232 17.5183H76.8447L96.5303 17.4753L96.6221 21.0906L94.3389 37.8376L94.3379 37.8445L89.6562 81.9861C89.2628 85.6951 87.2817 89.0449 84.2354 91.1765L83.9365 91.3796L57.9551 108.497C57.3215 108.914 56.5121 108.94 55.8564 108.575L55.7266 108.497L29.7451 91.3796C26.6303 89.3275 24.5636 86.0288 24.0684 82.3435L24.0254 81.9861L19.3438 37.8445L19.3428 37.8337L16.7246 20.9773V17.5212L26.7939 19.4197L26.8359 19.4275L26.8779 19.4197L36.8799 17.5144L56.8408 13.7117L76.8027 17.5144Z" fill="#254839" stroke="#254839" stroke-width="0.45"/>
  <mask id="mask0_506_10825" style="mask-type:alpha" maskUnits="userSpaceOnUse" x="16" y="13" width="81" height="97">
    <path d="M76.7744 17.6619L76.7959 17.6658L76.8174 17.6677L96.3887 19.0994L96.4717 21.0837L94.1904 37.8181L94.1895 37.8289L89.5078 81.9705C89.1189 85.6366 87.1598 88.9477 84.1484 91.0544L83.8545 91.2546L57.873 108.372C57.2862 108.758 56.5359 108.782 55.9287 108.444L55.8096 108.372L29.8281 91.2546C26.7496 89.2264 24.7064 85.9662 24.2168 82.324L24.1748 81.9705L19.4932 37.8289L19.4922 37.8201L19.4902 37.8113L16.875 20.9734V19.1414L26.8193 19.573L26.8633 19.575L26.9062 19.5671L36.9072 17.6619L56.8408 13.864L76.7744 17.6619Z" fill="#254839" stroke="#254839" stroke-width="0.75"/>
  </mask>
  <g mask="url(#mask0_506_10825)">
    <g opacity="0.5">
      <path d="M23.25 21.75V110.827" stroke="#E4EBE1" stroke-width="0.618337"/>
      <path d="M24.135 21.75V110.827" stroke="#E4EBE1" stroke-width="0.618337"/>
      <path d="M25.0195 21.75V110.827" stroke="#E4EBE1" stroke-width="0.618337"/>
      <path d="M25.9045 21.75L25.9045 110.827" stroke="#E4EBE1" stroke-width="0.618337"/>
      <path d="M26.7893 21.75L26.7893 110.827" stroke="#E4EBE1" stroke-width="0.618337"/>
      <path d="M27.6743 21.75L27.6743 110.827" stroke="#E4EBE1" stroke-width="0.618337"/>
      <path d="M31.2134 21.75L31.2134 110.827" stroke="#E4EBE1" stroke-width="0.309168"/>
      <path d="M34.7527 21.75L34.7527 110.827" stroke="#E4EBE1" stroke-width="0.123667"/>
      <path d="M28.5591 21.75L28.5591 110.827" stroke="#E4EBE1" stroke-width="0.309168"/>
      <path d="M32.0981 21.75L32.0981 110.827" stroke="#E4EBE1" stroke-width="0.123667"/>
      <path d="M35.6375 21.75L35.6375 110.827" stroke="#E4EBE1" stroke-width="0.123667"/>
      <path d="M29.4438 21.75L29.4439 110.827" stroke="#E4EBE1" stroke-width="0.309168"/>
      <path d="M32.9832 21.75L32.9832 110.827" stroke="#E4EBE1" stroke-width="0.123667"/>
      <path d="M30.3286 21.75L30.3286 110.827" stroke="#E4EBE1" stroke-width="0.309168"/>
      <path d="M33.8679 21.75L33.8679 110.827" stroke="#E4EBE1" stroke-width="0.123667"/>
    </g>
    <g opacity="0.5">
      <path d="M90.3875 21.75V110.827" stroke="#E4EBE1" stroke-width="0.618337"/>
      <path d="M89.5024 21.75V110.827" stroke="#E4EBE1" stroke-width="0.618337"/>
      <path d="M88.6179 21.75V110.827" stroke="#E4EBE1" stroke-width="0.618337"/>
      <path d="M87.7329 21.75L87.7329 110.827" stroke="#E4EBE1" stroke-width="0.618337"/>
      <path d="M86.8481 21.75L86.8481 110.827" stroke="#E4EBE1" stroke-width="0.618337"/>
      <path d="M85.9634 21.75L85.9634 110.827" stroke="#E4EBE1" stroke-width="0.618337"/>
      <path d="M82.4241 21.75L82.4241 110.827" stroke="#E4EBE1" stroke-width="0.309168"/>
      <path d="M78.8848 21.75L78.8848 110.827" stroke="#E4EBE1" stroke-width="0.123667"/>
      <path d="M85.0786 21.75L85.0786 110.827" stroke="#E4EBE1" stroke-width="0.309168"/>
      <path d="M81.5393 21.75L81.5393 110.827" stroke="#E4EBE1" stroke-width="0.123667"/>
      <path d="M78 21.75L78 110.827" stroke="#E4EBE1" stroke-width="0.123667"/>
      <path d="M84.1938 21.75L84.1938 110.827" stroke="#E4EBE1" stroke-width="0.309168"/>
      <path d="M80.6543 21.75L80.6543 110.827" stroke="#E4EBE1" stroke-width="0.123667"/>
      <path d="M83.3091 21.75L83.3091 110.827" stroke="#E4EBE1" stroke-width="0.309168"/>
      <path d="M79.7695 21.75L79.7695 110.827" stroke="#E4EBE1" stroke-width="0.123667"/>
    </g>
    <g opacity="0.5">
      <path d="M56.6375 21.75V110.827" stroke="#E4EBE1" stroke-width="0.618337"/>
      <path d="M55.7524 21.75V110.827" stroke="#E4EBE1" stroke-width="0.618337"/>
      <path d="M54.8679 21.75V110.827" stroke="#E4EBE1" stroke-width="0.618337"/>
      <path d="M53.9829 21.75L53.9829 110.827" stroke="#E4EBE1" stroke-width="0.618337"/>
      <path d="M53.0981 21.75L53.0981 110.827" stroke="#E4EBE1" stroke-width="0.618337"/>
      <path d="M52.2134 21.75L52.2134 110.827" stroke="#E4EBE1" stroke-width="0.618337"/>
      <path d="M48.6741 21.75L48.6741 110.827" stroke="#E4EBE1" stroke-width="0.309168"/>
      <path d="M45.1348 21.75L45.1348 110.827" stroke="#E4EBE1" stroke-width="0.123667"/>
      <path d="M51.3286 21.75L51.3286 110.827" stroke="#E4EBE1" stroke-width="0.309168"/>
      <path d="M47.7893 21.75L47.7893 110.827" stroke="#E4EBE1" stroke-width="0.123667"/>
      <path d="M44.25 21.75L44.25 110.827" stroke="#E4EBE1" stroke-width="0.123667"/>
      <path d="M50.4438 21.75L50.4438 110.827" stroke="#E4EBE1" stroke-width="0.309168"/>
      <path d="M46.9043 21.75L46.9043 110.827" stroke="#E4EBE1" stroke-width="0.123667"/>
      <path d="M49.5591 21.75L49.5591 110.827" stroke="#E4EBE1" stroke-width="0.309168"/>
      <path d="M46.0195 21.75L46.0195 110.827" stroke="#E4EBE1" stroke-width="0.123667"/>
      <path d="M57 21.75V110.827" stroke="#E4EBE1" stroke-width="0.618337"/>
      <path d="M57.8848 21.75V110.827" stroke="#E4EBE1" stroke-width="0.618337"/>
      <path d="M58.7695 21.75V110.827" stroke="#E4EBE1" stroke-width="0.618337"/>
      <path d="M59.6543 21.75L59.6543 110.827" stroke="#E4EBE1" stroke-width="0.618337"/>
      <path d="M60.5396 21.75L60.5396 110.827" stroke="#E4EBE1" stroke-width="0.618337"/>
      <path d="M61.4243 21.75L61.4243 110.827" stroke="#E4EBE1" stroke-width="0.618337"/>
      <path d="M64.9634 21.75L64.9634 110.827" stroke="#E4EBE1" stroke-width="0.309168"/>
      <path d="M68.5027 21.75L68.5027 110.827" stroke="#E4EBE1" stroke-width="0.123667"/>
      <path d="M62.3091 21.75L62.3091 110.827" stroke="#E4EBE1" stroke-width="0.309168"/>
      <path d="M65.8484 21.75L65.8484 110.827" stroke="#E4EBE1" stroke-width="0.123667"/>
      <path d="M69.3875 21.75L69.3875 110.827" stroke="#E4EBE1" stroke-width="0.123667"/>
      <path d="M63.1938 21.75L63.1939 110.827" stroke="#E4EBE1" stroke-width="0.309168"/>
      <path d="M66.7332 21.75L66.7332 110.827" stroke="#E4EBE1" stroke-width="0.123667"/>
      <path d="M64.0786 21.75L64.0786 110.827" stroke="#E4EBE1" stroke-width="0.309168"/>
      <path d="M67.6179 21.75L67.6179 110.827" stroke="#E4EBE1" stroke-width="0.123667"/>
    </g>
  </g>
  <path d="M96.332 17.5527L94.1904 34.0869L94.1895 34.0957L89.5078 78.2373C89.1189 81.9034 87.1598 85.2145 84.1484 87.3213L83.8545 87.5215L56.8408 105.317L29.8281 87.5215C26.7496 85.4933 24.7064 82.233 24.2168 78.5908L24.1748 78.2373L19.4932 34.0957L19.4922 34.0869L19.4902 34.0781L16.9258 17.5518L56.8418 10.1309L96.332 17.5527Z" fill="#E4EBE1" stroke="#254839" stroke-width="0.75"/>
  <mask id="mask1_506_10825" style="mask-type:alpha" maskUnits="userSpaceOnUse" x="16" y="9" width="81" height="97">
    <path d="M96.332 17.5527L94.1904 34.0869L94.1895 34.0957L89.5078 78.2373C89.1189 81.9034 87.1598 85.2145 84.1484 87.3213L83.8545 87.5215L56.8408 105.317L29.8281 87.5215C26.7496 85.4933 24.7064 82.233 24.2168 78.5908L24.1748 78.2373L19.4932 34.0957L19.4912 34.085L17.2529 17.6719L56.8408 10.1309L96.332 17.5527Z" fill="#E4EBE1" stroke="#254839" stroke-width="0.75"/>
  </mask>
  <g mask="url(#mask1_506_10825)">
    <g opacity="0.5">
      <path
        d="M-30.5251 10.3134L101.964 10.3133"
        stroke="#254839"
        stroke-width="0.375"
        shape-rendering="geometricPrecision"
      />
      <path d="M-30.5251 21.7502L101.964 21.7502" stroke="#254839" stroke-width="0.375"/>
      <path d="M-30.5251 33L101.964 33" stroke="#254839" stroke-width="0.375"/>
      <path d="M-30.5251 11.2501L101.964 11.2501" stroke="#254839" stroke-width="0.375"/>
      <path d="M-30.5251 22.5002L101.964 22.5002" stroke="#254839" stroke-width="0.375"/>
      <path d="M-30.5251 33.75L101.964 33.75" stroke="#254839" stroke-width="0.375"/>
      <path d="M-30.5251 12L101.964 12" stroke="#254839" stroke-width="0.375"/>
      <path d="M-30.5251 23.2501L101.964 23.2501" stroke="#254839" stroke-width="0.375"/>
      <path d="M-30.5251 34.5002L101.964 34.5002" stroke="#254839" stroke-width="0.375"/>
      <path d="M-30.5251 12.75L101.964 12.75" stroke="#254839" stroke-width="0.375"/>
      <path d="M-30.5251 24.0002L101.964 24.0002" stroke="#254839" stroke-width="0.375"/>
      <path d="M-30.5251 35.2502L101.964 35.2502" stroke="#254839" stroke-width="0.375"/>
      <path d="M-30.5251 15.7502L101.964 15.7502" stroke="#254839" stroke-width="0.375"/>
      <path d="M-30.5251 27L101.964 27" stroke="#254839" stroke-width="0.375"/>
      <path d="M-30.5251 38.2502L101.964 38.2502" stroke="#254839" stroke-width="0.375"/>
      <path d="M-30.5251 13.5002L101.964 13.5002" stroke="#254839" stroke-width="0.375"/>
      <path d="M-30.5251 24.75L101.964 24.75" stroke="#254839" stroke-width="0.375"/>
      <path d="M-30.5251 36.0002L101.964 36.0002" stroke="#254839" stroke-width="0.375"/>
      <path d="M-30.5251 17.2501L101.964 17.2501" stroke="#254839" stroke-width="0.375"/>
      <path d="M-30.5251 28.5001L101.964 28.5001" stroke="#254839" stroke-width="0.375"/>
      <path d="M-30.5251 39.7502L101.964 39.7502" stroke="#254839" stroke-width="0.375"/>
      <path d="M-30.5251 44.2501L101.964 44.2501" stroke="#254839" stroke-width="0.375"/>
      <path d="M-29.3147 51.75L103.175 51.75" stroke="#254839" stroke-width="0.375"/>
      <path d="M-30.5251 14.25L101.964 14.25" stroke="#254839" stroke-width="0.375"/>
      <path d="M-30.5251 25.5001L101.964 25.5001" stroke="#254839" stroke-width="0.375"/>
      <path d="M-30.5251 36.75L101.964 36.75" stroke="#254839" stroke-width="0.375"/>
      <path d="M-30.5251 15L101.964 15" stroke="#254839" stroke-width="0.375"/>
      <path d="M-30.5251 26.2501L101.964 26.2501" stroke="#254839" stroke-width="0.375"/>
      <path d="M-30.5251 37.5L101.964 37.5" stroke="#254839" stroke-width="0.375"/>
      <path d="M-30.5251 16.5002L101.964 16.5002" stroke="#254839" stroke-width="0.375"/>
      <path d="M-30.5251 27.7502L101.964 27.7502" stroke="#254839" stroke-width="0.375"/>
      <path d="M-30.5251 39.0004L101.964 39.0004" stroke="#254839" stroke-width="0.375"/>
      <path d="M-30.5251 18L101.964 18" stroke="#254839" stroke-width="0.375"/>
      <path d="M-30.5251 29.2501L101.964 29.2501" stroke="#254839" stroke-width="0.375"/>
      <path d="M-30.5251 40.5002L101.964 40.5002" stroke="#254839" stroke-width="0.375"/>
      <path d="M-30.5251 45.0002L101.964 45.0002" stroke="#254839" stroke-width="0.375"/>
      <path d="M-29.3147 52.5L103.175 52.5" stroke="#254839" stroke-width="0.375"/>
      <path d="M-30.5251 18.75L101.964 18.75" stroke="#254839" stroke-width="0.375"/>
      <path d="M-30.5251 30.0001L101.964 30.0001" stroke="#254839" stroke-width="0.375"/>
      <path d="M-30.5251 41.2502L101.964 41.2502" stroke="#254839" stroke-width="0.375"/>
      <path d="M-29.3147 48.7501L103.175 48.7501" stroke="#254839" stroke-width="0.375"/>
      <path d="M-30.5251 45.7502L101.964 45.7502" stroke="#254839" stroke-width="0.375"/>
      <path d="M-29.3149 53.2502L103.175 53.2502" stroke="#254839" stroke-width="0.375"/>
      <path d="M-30.5251 19.5002L101.964 19.5002" stroke="#254839" stroke-width="0.375"/>
      <path d="M-30.5251 30.75L101.964 30.75" stroke="#254839" stroke-width="0.375"/>
      <path d="M-30.5251 42.0001L101.964 42.0001" stroke="#254839" stroke-width="0.375"/>
      <path d="M-29.3147 49.5L103.175 49.5" stroke="#254839" stroke-width="0.375"/>
      <path d="M-30.5251 46.5002L101.964 46.5002" stroke="#254839" stroke-width="0.375"/>
      <path d="M-29.3147 54.0004L103.175 54.0004" stroke="#254839" stroke-width="0.375"/>
      <path d="M-30.5251 20.2504L101.964 20.2504" stroke="#254839" stroke-width="0.375"/>
      <path d="M-30.5251 31.5L101.964 31.5" stroke="#254839" stroke-width="0.375"/>
      <path d="M-30.5251 42.7502L101.964 42.7502" stroke="#254839" stroke-width="0.375"/>
      <path d="M-29.3149 50.2501L103.175 50.2501" stroke="#254839" stroke-width="0.375"/>
      <path d="M-30.5251 47.2501L101.964 47.2501" stroke="#254839" stroke-width="0.375"/>
      <path d="M-29.3147 54.7501L103.175 54.7501" stroke="#254839" stroke-width="0.375"/>
      <path d="M-30.5251 21.0002L101.964 21.0002" stroke="#254839" stroke-width="0.375"/>
      <path d="M-30.5251 32.2504L101.964 32.2504" stroke="#254839" stroke-width="0.375"/>
      <path d="M-30.5251 43.5L101.964 43.5" stroke="#254839" stroke-width="0.375"/>
      <path d="M-29.3149 51.0001L103.175 51.0001" stroke="#254839" stroke-width="0.375"/>
      <path d="M-30.5251 48.0001L101.964 48.0001" stroke="#254839" stroke-width="0.375"/>
      <path d="M-29.3149 55.5L103.175 55.5" stroke="#254839" stroke-width="0.375"/>
      <path d="M-30.5251 56.25L101.964 56.25" stroke="#254839" stroke-width="0.375"/>
      <path d="M-30.5251 67.5001L101.964 67.5001" stroke="#254839" stroke-width="0.375"/>
      <path d="M-30.5251 78.7502L101.964 78.7502" stroke="#254839" stroke-width="0.375"/>
      <path d="M-30.5251 57L101.964 57" stroke="#254839" stroke-width="0.375"/>
      <path d="M-30.5251 68.2502L101.964 68.2502" stroke="#254839" stroke-width="0.375"/>
      <path d="M-30.5251 79.5002L101.964 79.5002" stroke="#254839" stroke-width="0.375"/>
      <path d="M-30.5251 57.7502L101.964 57.7502" stroke="#254839" stroke-width="0.375"/>
      <path d="M-30.5251 69L101.964 69" stroke="#254839" stroke-width="0.375"/>
      <path d="M-30.5251 80.2502L101.964 80.2502" stroke="#254839" stroke-width="0.375"/>
      <path d="M-30.5251 58.5L101.964 58.5" stroke="#254839" stroke-width="0.375"/>
      <path d="M-30.5251 69.7501L101.964 69.7501" stroke="#254839" stroke-width="0.375"/>
      <path d="M-30.5251 81.0002L101.964 81.0002" stroke="#254839" stroke-width="0.375"/>
      <path d="M-30.5251 61.5001L101.964 61.5001" stroke="#254839" stroke-width="0.375"/>
      <path d="M-30.5251 72.7502L101.964 72.7502" stroke="#254839" stroke-width="0.375"/>
      <path d="M-30.5251 84.0002L101.964 84.0002" stroke="#254839" stroke-width="0.375"/>
      <path d="M-30.5251 59.2502L101.964 59.2502" stroke="#254839" stroke-width="0.375"/>
      <path d="M-30.5251 70.5L101.964 70.5" stroke="#254839" stroke-width="0.375"/>
      <path d="M-30.5251 81.7501L101.964 81.7501" stroke="#254839" stroke-width="0.375"/>
      <path d="M-30.5251 63.0001L101.964 63.0001" stroke="#254839" stroke-width="0.375"/>
      <path d="M-30.5251 74.25L101.964 74.25" stroke="#254839" stroke-width="0.375"/>
      <path d="M-30.5251 85.5001L101.964 85.5001" stroke="#254839" stroke-width="0.375"/>
      <path d="M-30.5251 90L101.964 90" stroke="#254839" stroke-width="0.375"/>
      <path d="M-29.3149 97.5001L103.175 97.5001" stroke="#254839" stroke-width="0.375"/>
      <path d="M-28.5 105L103.99 105" stroke="#254839" stroke-width="0.375"/>
      <path d="M-30.5251 60.0002L101.964 60.0002" stroke="#254839" stroke-width="0.375"/>
      <path d="M-30.5251 71.25L101.964 71.25" stroke="#254839" stroke-width="0.375"/>
      <path d="M-30.5251 82.5001L101.964 82.5001" stroke="#254839" stroke-width="0.375"/>
      <path d="M-30.5251 60.7502L101.964 60.7502" stroke="#254839" stroke-width="0.375"/>
      <path d="M-30.5251 72L101.964 72" stroke="#254839" stroke-width="0.375"/>
      <path d="M-30.5251 83.25L101.964 83.25" stroke="#254839" stroke-width="0.375"/>
      <path d="M-30.5251 62.2502L101.964 62.2502" stroke="#254839" stroke-width="0.375"/>
      <path d="M-30.5251 73.5001L101.964 73.5001" stroke="#254839" stroke-width="0.375"/>
      <path d="M-30.5251 84.7502L101.964 84.7502" stroke="#254839" stroke-width="0.375"/>
      <path d="M-30.5251 63.7501L101.964 63.7501" stroke="#254839" stroke-width="0.375"/>
      <path d="M-30.5251 75L101.964 75" stroke="#254839" stroke-width="0.375"/>
      <path d="M-30.5251 86.2501L101.964 86.2501" stroke="#254839" stroke-width="0.375"/>
      <path d="M-30.5251 90.75L101.964 90.75" stroke="#254839" stroke-width="0.375"/>
      <path d="M-29.3147 98.2501L103.175 98.2501" stroke="#254839" stroke-width="0.375"/>
      <path d="M-28.5 105.75L103.99 105.75" stroke="#254839" stroke-width="0.375"/>
      <path d="M-30.5251 64.5004L101.964 64.5004" stroke="#254839" stroke-width="0.375"/>
      <path d="M-30.5251 75.75L101.964 75.75" stroke="#254839" stroke-width="0.375"/>
      <path d="M-30.5251 87.0002L101.964 87.0002" stroke="#254839" stroke-width="0.375"/>
      <path d="M-29.3149 94.5001L103.175 94.5001" stroke="#254839" stroke-width="0.375"/>
      <path d="M-28.5 102L103.99 102" stroke="#254839" stroke-width="0.375"/>
      <path d="M-30.5251 91.5002L101.964 91.5002" stroke="#254839" stroke-width="0.375"/>
      <path d="M-29.3149 99.0001L103.175 99.0001" stroke="#254839" stroke-width="0.375"/>
      <path d="M-30.5251 65.2502L101.964 65.2502" stroke="#254839" stroke-width="0.375"/>
      <path d="M-30.5251 76.5004L101.964 76.5004" stroke="#254839" stroke-width="0.375"/>
      <path d="M-30.5251 87.75L101.964 87.75" stroke="#254839" stroke-width="0.375"/>
      <path d="M-29.3147 95.2501L103.175 95.2501" stroke="#254839" stroke-width="0.375"/>
      <path d="M-28.5 102.75L103.99 102.75" stroke="#254839" stroke-width="0.375"/>
      <path d="M-30.5251 92.2501L101.964 92.2501" stroke="#254839" stroke-width="0.375"/>
      <path d="M-29.3149 99.7501L103.175 99.7501" stroke="#254839" stroke-width="0.375"/>
      <path d="M-30.5251 66.0002L101.964 66.0002" stroke="#254839" stroke-width="0.375"/>
      <path d="M-30.5251 77.25L101.964 77.25" stroke="#254839" stroke-width="0.375"/>
      <path d="M-30.5251 88.5001L101.964 88.5001" stroke="#254839" stroke-width="0.375"/>
      <path d="M-29.3147 96.0001L103.175 96.0001" stroke="#254839" stroke-width="0.375"/>
      <path d="M-28.5 103.5L103.99 103.5" stroke="#254839" stroke-width="0.375"/>
      <path d="M-30.5251 93L101.964 93" stroke="#254839" stroke-width="0.375"/>
      <path d="M-29.3147 100.5L103.175 100.5" stroke="#254839" stroke-width="0.375"/>
      <path d="M-30.5251 66.7501L101.964 66.7501" stroke="#254839" stroke-width="0.375"/>
      <path d="M-30.5251 78.0002L101.964 78.0002" stroke="#254839" stroke-width="0.375"/>
      <path d="M-30.5251 89.25L101.964 89.25" stroke="#254839" stroke-width="0.375"/>
      <path d="M-29.3149 96.7501L103.175 96.7501" stroke="#254839" stroke-width="0.375"/>
      <path d="M-28.5 104.25L103.99 104.25" stroke="#254839" stroke-width="0.375"/>
      <path d="M-30.5251 93.75L101.964 93.75" stroke="#254839" stroke-width="0.375"/>
      <path d="M-29.3147 101.25L103.175 101.25" stroke="#254839" stroke-width="0.375"/>
    </g>
  </g>
  <path d="M29.0266 26.515L56.8411 19.6566L84.6555 26.515L82.0065 53.1075L79.9273 73.98C79.5642 77.6256 77.691 80.9526 74.7623 83.1536L56.8411 96.6226L38.9198 83.1537C35.9911 80.9526 34.118 77.6256 33.7548 73.98L31.6756 53.1075L29.0266 26.515Z" fill="#E4EBE1"/>
  <path d="M56.8411 96.6226L74.7623 83.1537C77.691 80.9525 79.5642 77.6256 79.9273 73.98L82.0065 53.1075L84.6555 26.515L56.8411 19.6566M56.8411 96.6226L38.9198 83.1537C35.9911 80.9526 34.118 77.6256 33.7548 73.98L31.6756 53.1075L29.0266 26.515L56.8411 19.6566M56.8411 96.6226C56.8411 99.7473 56.8411 102.249 56.8411 105.374M56.8411 19.6566V10.1311" stroke="#254839" stroke-width="0.75"/>
  <path d="M29.25 27L56.9355 20.1416L84.375 27L82.0065 53.8576L79.9273 74.7301C79.5641 78.3757 77.691 81.7026 74.7623 83.9037L56.841 97.3727L38.9198 83.9037C35.9911 81.7026 34.1179 78.3757 33.7548 74.7301L31.6756 53.8576L29.25 27Z" stroke="#254839" stroke-width="0.45"/>
  <path fill-rule="evenodd" clip-rule="evenodd" d="M73.5747 68.0851L78.75 68.2499V70.4999L71.2581 70.5826L64.5 70.4999V68.2499L68.9421 68.0851V50.6769L68.8652 50.7098L68.8257 50.726L68.7854 50.7377L63.75 51.7499V50.2499L71.8755 46.5189H73.5747V68.0851Z" fill="#254839"/>
  <mask id="mask2_506_10825" style="mask-type:alpha" maskUnits="userSpaceOnUse" x="63" y="46" width="16" height="25">
    <path fill-rule="evenodd" clip-rule="evenodd" d="M73.5747 68.0851L78.75 68.2499V70.4999L71.2581 70.5826L64.5 70.4999V68.2499L68.9421 68.0851V50.6769L68.8652 50.7098L68.8257 50.726L68.7854 50.7377L63.75 51.7499V50.2499L71.8755 46.5189H73.5747V68.0851Z" fill="#254839"/>
  </mask>
  <g mask="url(#mask2_506_10825)">
    <g opacity="0.5">
      <path d="M63.6743 34.4999L63.6743 80.9999" stroke="#E4EBE1" stroke-width="0.618337"/>
      <path d="M67.2134 34.4999L67.2134 80.9999" stroke="#E4EBE1" stroke-width="0.309168"/>
      <path d="M70.7527 34.4999L70.7527 80.9999" stroke="#E4EBE1" stroke-width="0.123667"/>
      <path d="M64.5591 34.4999L64.5591 80.9999" stroke="#E4EBE1" stroke-width="0.309168"/>
      <path d="M68.0984 34.4999L68.0984 80.9999" stroke="#E4EBE1" stroke-width="0.123667"/>
      <path d="M71.6375 34.4999L71.6375 80.9999" stroke="#E4EBE1" stroke-width="0.123667"/>
      <path d="M65.4438 34.4999L65.4439 80.9999" stroke="#E4EBE1" stroke-width="0.309168"/>
      <path d="M68.9832 34.4999L68.9832 80.9999" stroke="#E4EBE1" stroke-width="0.123667"/>
      <path d="M66.3286 34.4999L66.3286 80.9999" stroke="#E4EBE1" stroke-width="0.309168"/>
      <path d="M69.8679 34.4999L69.8679 80.9999" stroke="#E4EBE1" stroke-width="0.123667"/>
    </g>
  </g>
  <path d="M78.375 68.6304L77.9941 68.6245L71.2588 68.5259L65.2559 68.6245L64.875 68.6313V67.1577L65.2158 67.1265L69.3174 66.7534V48.3677L64.6133 49.8569L64.125 50.0122V48.5005L64.3545 48.4038L71.8809 45.2427L71.9502 45.2134H73.1992V66.7485L78.0293 67.1265L78.375 67.1528V68.6304Z" fill="#E4EBE1" stroke="#254839" stroke-width="0.75"/>
  <mask id="mask3_506_10825" style="mask-type:alpha" maskUnits="userSpaceOnUse" x="64" y="45" width="14" height="24">
    <path d="M78 68.2499H65.25V67.4999L69.6923 67.0963V47.8558L69.7882 47.8255L64.5 49.4999V48.7499L72.0253 45.5884H72.8242V67.0963L78 67.4999V68.2499Z" fill="#F1F3ED"/>
  </mask>
  <g mask="url(#mask3_506_10825)">
    <g opacity="0.5">
      <path d="M75.1106 41.0492V82.0123" stroke="#254839" stroke-width="0.34524"/>
      <path d="M75.9312 41.0492V82.0123" stroke="#254839" stroke-width="0.34524"/>
      <path d="M64.4597 41.0492V82.0123" stroke="#254839" stroke-width="0.34524"/>
      <path d="M76.75 41.0492V82.0123" stroke="#254839" stroke-width="0.34524"/>
      <path d="M65.2803 41.0492V82.0123" stroke="#254839" stroke-width="0.34524"/>
      <path d="M77.5688 41.0492V82.0123" stroke="#254839" stroke-width="0.34524"/>
      <path d="M68.5576 41.0492V82.0123" stroke="#254839" stroke-width="0.34524"/>
      <path d="M66.0991 41.0492V82.0123" stroke="#254839" stroke-width="0.34524"/>
      <path d="M70.1956 41.0492V82.0123" stroke="#254839" stroke-width="0.34524"/>
      <path d="M66.9182 41.0492V82.0123" stroke="#254839" stroke-width="0.34524"/>
      <path d="M67.7371 41.0492V82.0123" stroke="#254839" stroke-width="0.34524"/>
      <path d="M69.3767 41.0492V82.0123" stroke="#254839" stroke-width="0.34524"/>
      <path d="M71.0144 41.0492V82.0123" stroke="#254839" stroke-width="0.34524"/>
      <path d="M71.8333 41.0492V82.0123" stroke="#254839" stroke-width="0.34524"/>
      <path d="M72.6538 41.0492V82.0123" stroke="#254839" stroke-width="0.34524"/>
      <path d="M73.4729 41.0492V82.0123" stroke="#254839" stroke-width="0.34524"/>
      <path d="M74.2917 41.0492V82.0123" stroke="#254839" stroke-width="0.34524"/>
      <path d="M75.1106 41.0492V82.0123" stroke="#254839" stroke-width="0.34524"/>
    </g>
  </g>
  <path fill-rule="evenodd" clip-rule="evenodd" d="M44.3247 53.2467L49.5 53.4115V55.6615L42.0081 55.7443L35.25 55.6615V53.4115L39.6921 53.2467V35.8385L39.6152 35.8715L39.5757 35.8876L39.5354 35.8993L34.5 36.9115V35.4115L42.6255 31.6805H44.3247V53.2467Z" fill="#254839"/>
  <mask id="mask4_506_10825" style="mask-type:alpha" maskUnits="userSpaceOnUse" x="34" y="31" width="16" height="25">
    <path fill-rule="evenodd" clip-rule="evenodd" d="M44.3247 53.2467L49.5 53.4115V55.6615L42.0081 55.7443L35.25 55.6615V53.4115L39.6921 53.2467V35.8385L39.6152 35.8715L39.5757 35.8876L39.5354 35.8993L34.5 36.9115V35.4115L42.6255 31.6805H44.3247V53.2467Z" fill="#254839"/>
  </mask>
  <g mask="url(#mask4_506_10825)">
    <g opacity="0.5">
      <path d="M34.4243 21L34.4243 110.077" stroke="#E4EBE1" stroke-width="0.618337"/>
      <path d="M37.9634 21L37.9634 110.077" stroke="#E4EBE1" stroke-width="0.309168"/>
      <path d="M41.5027 21L41.5027 110.077" stroke="#E4EBE1" stroke-width="0.123667"/>
      <path d="M35.3091 21L35.3091 110.077" stroke="#E4EBE1" stroke-width="0.309168"/>
      <path d="M38.8484 21L38.8484 110.077" stroke="#E4EBE1" stroke-width="0.123667"/>
      <path d="M42.3875 21L42.3875 110.077" stroke="#E4EBE1" stroke-width="0.123667"/>
      <path d="M36.1938 21L36.1939 110.077" stroke="#E4EBE1" stroke-width="0.309168"/>
      <path d="M39.7332 21L39.7332 110.077" stroke="#E4EBE1" stroke-width="0.123667"/>
      <path d="M37.0786 21L37.0786 110.077" stroke="#E4EBE1" stroke-width="0.309168"/>
      <path d="M40.6179 21L40.6179 110.077" stroke="#E4EBE1" stroke-width="0.123667"/>
    </g>
  </g>
  <path d="M49.125 53.792L48.7441 53.7861L42.0088 53.6875L36.0059 53.7861L35.625 53.793V52.3193L35.9658 52.2881L40.0674 51.915V33.5293L35.3633 35.0186L34.875 35.1738V33.6621L35.1045 33.5654L42.6309 30.4043L42.7002 30.375H43.9492V51.9102L48.7793 52.2881L49.125 52.3145V53.792Z" fill="#E4EBE1" stroke="#254839" stroke-width="0.75"/>
  <mask id="mask5_506_10825" style="mask-type:alpha" maskUnits="userSpaceOnUse" x="35" y="30" width="14" height="24">
    <path d="M48.75 53.4115H36V52.6615L40.4423 52.2579V33.0174L40.5382 32.9871L35.25 34.6615V33.9115L42.7753 30.75H43.5742V52.2579L48.75 52.6615V53.4115Z" fill="#F1F3ED"/>
  </mask>
  <g mask="url(#mask5_506_10825)">
    <g opacity="0.5">
      <path d="M45.8606 26.2108L45.8606 67.1739" stroke="#254839" stroke-width="0.34524"/>
      <path d="M46.6812 26.2108L46.6812 67.1739" stroke="#254839" stroke-width="0.34524"/>
      <path d="M35.2097 26.2108L35.2097 67.1739" stroke="#254839" stroke-width="0.34524"/>
      <path d="M47.5 26.2108L47.5 67.1739" stroke="#254839" stroke-width="0.34524"/>
      <path d="M36.0303 26.2108L36.0303 67.1739" stroke="#254839" stroke-width="0.34524"/>
      <path d="M48.3188 26.2108L48.3188 67.1739" stroke="#254839" stroke-width="0.34524"/>
      <path d="M39.3076 26.2108L39.3076 67.1739" stroke="#254839" stroke-width="0.34524"/>
      <path d="M36.8491 26.2108L36.8491 67.1739" stroke="#254839" stroke-width="0.34524"/>
      <path d="M40.9456 26.2108L40.9456 67.1739" stroke="#254839" stroke-width="0.34524"/>
      <path d="M37.6682 26.2108L37.6682 67.1739" stroke="#254839" stroke-width="0.34524"/>
      <path d="M38.4871 26.2108L38.4871 67.1739" stroke="#254839" stroke-width="0.34524"/>
      <path d="M40.1267 26.2108L40.1267 67.1739" stroke="#254839" stroke-width="0.34524"/>
      <path d="M41.7644 26.2108L41.7644 67.1739" stroke="#254839" stroke-width="0.34524"/>
      <path d="M42.5833 26.2108L42.5833 67.1739" stroke="#254839" stroke-width="0.34524"/>
      <path d="M43.4038 26.2108L43.4038 67.1739" stroke="#254839" stroke-width="0.34524"/>
      <path d="M44.2229 26.2108L44.2229 67.1739" stroke="#254839" stroke-width="0.34524"/>
      <path d="M45.0417 26.2108L45.0417 67.1739" stroke="#254839" stroke-width="0.34524"/>
      <path d="M45.8606 26.2108L45.8606 67.1739" stroke="#254839" stroke-width="0.34524"/>
    </g>
  </g>
  <path d="M63.7497 32.9998L66.7496 31.4997L66.7496 33.7498L48.7496 75L44.2499 75L44.2499 73.4998L63.7497 32.9998Z" fill="#254839"/>
  <mask id="mask6_506_10825" style="mask-type:alpha" maskUnits="userSpaceOnUse" x="44" y="31" width="23" height="44">
    <path d="M63.7499 32.9996L66.7498 31.4995L66.7498 33.7495L48.7499 74.9997L44.2501 74.9997L44.2501 73.4996L63.7499 32.9996Z" fill="#254839"/>
  </mask>
  <g mask="url(#mask6_506_10825)">
    <g opacity="0.5">
      <path d="M44.1741 12.7498L44.1741 101.827" stroke="#E4EBE1" stroke-width="0.618337"/>
      <path d="M47.7131 12.7498L47.7131 101.827" stroke="#E4EBE1" stroke-width="0.309168"/>
      <path d="M51.2524 12.7498L51.2524 101.827" stroke="#E4EBE1" stroke-width="0.123667"/>
      <path d="M45.0588 12.7498L45.0588 101.827" stroke="#E4EBE1" stroke-width="0.309168"/>
      <path d="M48.5981 12.7498L48.5981 101.827" stroke="#E4EBE1" stroke-width="0.123667"/>
      <path d="M52.1372 12.7498L52.1372 101.827" stroke="#E4EBE1" stroke-width="0.123667"/>
      <path d="M45.9436 12.7498L45.9436 101.827" stroke="#E4EBE1" stroke-width="0.309168"/>
      <path d="M49.4829 12.7498L49.4829 101.827" stroke="#E4EBE1" stroke-width="0.123667"/>
      <path d="M46.8284 12.7498L46.8284 101.827" stroke="#E4EBE1" stroke-width="0.309168"/>
      <path d="M50.3677 12.7498L50.3677 101.827" stroke="#E4EBE1" stroke-width="0.123667"/>
    </g>
    <g opacity="0.5">
      <path d="M65.1738 -24.0002L65.1738 65.0772" stroke="#E4EBE1" stroke-width="0.309168"/>
      <path d="M61.6345 -24.0002L61.6345 65.0772" stroke="#E4EBE1" stroke-width="0.123667"/>
      <path d="M64.2891 -24.0002L64.2891 65.0772" stroke="#E4EBE1" stroke-width="0.123667"/>
      <path d="M60.7498 -24.0002L60.7498 65.0772" stroke="#E4EBE1" stroke-width="0.123667"/>
      <path d="M63.4041 -24.0002L63.404 65.0772" stroke="#E4EBE1" stroke-width="0.123667"/>
      <path d="M66.0588 -24.0002L66.0588 65.0772" stroke="#E4EBE1" stroke-width="0.309168"/>
      <path d="M62.5193 -24.0002L62.5193 65.0772" stroke="#E4EBE1" stroke-width="0.123667"/>
    </g>
  </g>
  <mask id="path-279-inside-1_506_10825" fill="white">
    <path d="M48.75 73.4995H44.25L62.1113 31.4683H66.75L48.75 73.4995Z"/>
  </mask>
  <path d="M48.75 73.4995H44.25L62.1113 31.4683H66.75L48.75 73.4995Z" fill="#E4EBE1"/>
  <path d="M48.75 73.4995V74.2495H49.2447L49.4394 73.7948L48.75 73.4995ZM44.25 73.4995L43.5597 73.2062L43.1164 74.2495H44.25V73.4995ZM62.1113 31.4683V30.7183H61.6151L61.4211 31.1749L62.1113 31.4683ZM66.75 31.4683L67.4394 31.7635L67.8871 30.7183H66.75V31.4683ZM48.75 73.4995V72.7495H44.25V73.4995V74.2495H48.75V73.4995ZM44.25 73.4995L44.9403 73.7928L62.8016 31.7616L62.1113 31.4683L61.4211 31.1749L43.5597 73.2062L44.25 73.4995ZM62.1113 31.4683V32.2183H66.75V31.4683V30.7183H62.1113V31.4683ZM66.75 31.4683L66.0606 31.173L48.0606 73.2043L48.75 73.4995L49.4394 73.7948L67.4394 31.7635L66.75 31.4683Z" fill="#254839" mask="url(#path-279-inside-1_506_10825)"/>
  <mask id="mask7_506_10825" style="mask-type:alpha" maskUnits="userSpaceOnUse" x="44" y="31" width="23" height="43">
    <mask id="path-281-inside-2_506_10825" fill="white">
      <path d="M48.6001 73.5614L44.1694 73.8212L62.1118 31.4677L66.5415 31.2079L48.6001 73.5614Z"/>
    </mask>
    <path d="M48.6001 73.5614L44.1694 73.8212L62.1118 31.4677L66.5415 31.2079L48.6001 73.5614Z" fill="#B3D7E6"/>
    <path d="M48.6001 73.5614L48.6203 73.906L48.8344 73.8935L48.918 73.6961L48.6001 73.5614ZM44.1694 73.8212L43.8515 73.6865L43.6347 74.1983L44.1896 74.1658L44.1694 73.8212ZM62.1118 31.4677L62.0916 31.123L61.8776 31.1356L61.7939 31.333L62.1118 31.4677ZM66.5415 31.2079L66.8594 31.3425L67.0762 30.8307L66.5213 30.8632L66.5415 31.2079ZM48.6001 73.5614L48.5799 73.2168L44.1492 73.4765L44.1694 73.8212L44.1896 74.1658L48.6203 73.906L48.6001 73.5614ZM44.1694 73.8212L44.4873 73.9558L62.4297 31.6023L62.1118 31.4677L61.7939 31.333L43.8515 73.6865L44.1694 73.8212ZM62.1118 31.4677L62.132 31.8123L66.5617 31.5525L66.5415 31.2079L66.5213 30.8632L62.0916 31.123L62.1118 31.4677ZM66.5415 31.2079L66.2236 31.0732L48.2822 73.4267L48.6001 73.5614L48.918 73.6961L66.8594 31.3425L66.5415 31.2079Z" fill="#254839" mask="url(#path-281-inside-2_506_10825)"/>
  </mask>
  <g mask="url(#mask7_506_10825)">
    <g opacity="0.5">
      <path d="M55.4998 32.0842L55.4998 73.0473" stroke="#254839" stroke-width="0.34524"/>
      <path d="M44.03 32.0842L44.03 73.0473" stroke="#254839" stroke-width="0.34524"/>
      <path d="M56.3206 32.0842L56.3206 73.0473" stroke="#254839" stroke-width="0.34524"/>
      <path d="M44.8491 32.0842L44.8491 73.0473" stroke="#254839" stroke-width="0.34524"/>
      <path d="M57.1394 32.0842L57.1394 73.0473" stroke="#254839" stroke-width="0.34524"/>
      <path d="M45.6697 32.0842L45.6697 73.0473" stroke="#254839" stroke-width="0.34524"/>
      <path d="M57.9583 32.0842L57.9583 73.0473" stroke="#254839" stroke-width="0.34524"/>
      <path d="M48.947 32.0842L48.947 73.0473" stroke="#254839" stroke-width="0.34524"/>
      <path d="M61.2356 32.0842L61.2356 73.0473" stroke="#254839" stroke-width="0.34524"/>
      <path d="M46.4885 32.0842L46.4885 73.0473" stroke="#254839" stroke-width="0.34524"/>
      <path d="M58.7773 32.0842L58.7773 73.0473" stroke="#254839" stroke-width="0.34524"/>
      <path d="M50.5847 32.0842L50.5847 73.0473" stroke="#254839" stroke-width="0.34524"/>
      <path d="M62.8735 32.0842L62.8735 73.0473" stroke="#254839" stroke-width="0.34524"/>
      <path d="M47.3076 32.0842L47.3076 73.0473" stroke="#254839" stroke-width="0.34524"/>
      <path d="M59.5962 32.0842L59.5962 73.0473" stroke="#254839" stroke-width="0.34524"/>
      <path d="M48.1265 32.0842L48.1265 73.0473" stroke="#254839" stroke-width="0.34524"/>
      <path d="M60.4165 32.0842L60.4165 73.0473" stroke="#254839" stroke-width="0.34524"/>
      <path d="M49.7659 32.0842L49.7659 73.0473" stroke="#254839" stroke-width="0.34524"/>
      <path d="M62.0544 32.0842L62.0544 73.0473" stroke="#254839" stroke-width="0.34524"/>
      <path d="M51.4038 32.0842L51.4038 73.0473" stroke="#254839" stroke-width="0.34524"/>
      <path d="M63.6921 32.0842L63.6921 73.0473" stroke="#254839" stroke-width="0.34524"/>
      <path d="M52.2227 32.0842L52.2227 73.0473" stroke="#254839" stroke-width="0.34524"/>
      <path d="M64.5127 32.0842V73.0473" stroke="#254839" stroke-width="0.34524"/>
      <path d="M53.0432 32.0842L53.0432 73.0473" stroke="#254839" stroke-width="0.34524"/>
      <path d="M65.3318 32.0842V73.0473" stroke="#254839" stroke-width="0.34524"/>
      <path d="M53.8621 32.0842L53.8621 73.0473" stroke="#254839" stroke-width="0.34524"/>
      <path d="M66.1506 32.0842V73.0473" stroke="#254839" stroke-width="0.34524"/>
      <path d="M54.6809 32.0842L54.6809 73.0473" stroke="#254839" stroke-width="0.34524"/>
      <path d="M55.4998 32.0842L55.4998 73.0473" stroke="#254839" stroke-width="0.34524"/>
    </g>
  </g>
</svg>