<svg width="169" height="48" viewBox="0 0 169 48" fill="none" xmlns="http://www.w3.org/2000/svg">
<path d="M138.77 20.3365H142.425V22.0148C143.115 21.0558 144.343 19.9169 146.44 19.9169C147.58 19.9169 149.258 20.2466 150.277 21.505C151.176 22.614 151.296 23.9027 151.296 25.161V33.3124H147.639V26.2401C147.639 25.5209 147.61 24.3821 146.951 23.6927C146.381 23.0936 145.602 23.0334 145.243 23.0334C144.284 23.0334 143.534 23.3632 142.995 24.1722C142.455 25.0112 142.425 25.9403 142.425 26.6895V33.3124H138.77V20.3365ZM132.606 26.8394C132.606 24.8017 131.047 23.1535 128.95 23.1535C126.852 23.1535 125.294 24.8017 125.294 26.8394C125.294 28.8171 126.822 30.4953 128.95 30.4953C131.077 30.4953 132.606 28.8171 132.606 26.8394ZM134.194 21.7448C135.482 22.9134 136.382 24.7117 136.382 26.8394C136.382 28.9371 135.482 30.7351 134.194 31.904C133.085 32.9227 131.407 33.732 128.95 33.732C126.492 33.732 124.814 32.9227 123.706 31.904C122.416 30.7351 121.518 28.9371 121.518 26.8394C121.518 24.7117 122.416 22.9134 123.706 21.7448C124.814 20.7258 126.492 19.9169 128.95 19.9169C131.407 19.9169 133.085 20.7258 134.194 21.7448ZM119.253 33.3124H115.596V20.3365H119.253V33.3124ZM117.424 14.9723C118.426 14.9723 119.253 15.7986 119.253 16.8005C119.253 17.8023 118.426 18.6287 117.424 18.6287C116.423 18.6287 115.596 17.8023 115.596 16.8005C115.596 15.7986 116.423 14.9723 117.424 14.9723ZM111.554 23.4529V33.3124H107.899V23.4529H106.46V20.3365H107.899V15.9015H111.554V20.3365H114.072V23.4529H111.554ZM103.128 23.4231C102.259 22.614 101.39 22.5538 101 22.5538C100.131 22.5538 99.5917 22.9735 99.5917 23.6028C99.5917 23.9328 99.7418 24.4418 100.761 24.7718L101.629 25.0414C102.649 25.371 104.177 25.8804 104.926 26.899C105.315 27.4389 105.585 28.2179 105.585 29.0569C105.585 30.2258 105.196 31.3944 104.147 32.3531C103.098 33.3124 101.84 33.732 100.251 33.732C97.5539 33.732 96.0256 32.4433 95.2169 31.5741L97.1346 29.3566C97.8537 30.1956 98.9326 30.8552 100.011 30.8552C101.03 30.8552 101.81 30.3455 101.81 29.4465C101.81 28.6374 101.15 28.3077 100.671 28.128L99.8318 27.8283C98.9026 27.4986 97.8237 27.0791 97.0445 26.27C96.445 25.6406 96.0557 24.8314 96.0557 23.7829C96.0557 22.5241 96.6552 21.4752 97.4043 20.8458C98.4232 20.0366 99.7418 19.9169 100.791 19.9169C101.749 19.9169 103.278 20.0366 104.926 21.2951L103.128 23.4231ZM82.709 26.8096C82.709 28.8772 84.2068 30.4953 86.3051 30.4953C88.4024 30.4953 89.9011 28.8772 89.9011 26.8096C89.9011 24.7415 88.4024 23.1535 86.3051 23.1535C84.2068 23.1535 82.709 24.7415 82.709 26.8096ZM89.5413 20.3365H93.1974V33.3124H89.5413V31.6341C88.2232 33.5223 86.4852 33.732 85.5559 33.732C81.5701 33.732 78.9333 30.6151 78.9333 26.8096C78.9333 22.9735 81.5401 19.9169 85.3758 19.9169C86.3651 19.9169 88.3128 20.0968 89.5413 22.0148V20.3365ZM67.3001 30.1359H68.9785C69.6976 30.1359 70.776 30.1058 71.6453 29.5964C72.6045 29.0271 72.8738 28.0683 72.8738 27.2891C72.8738 26.6596 72.6646 25.5805 71.4056 25.0112C70.5668 24.6219 69.5775 24.6219 68.7383 24.6219H67.3001V30.1359ZM67.3001 21.6251H68.409C69.0085 21.6251 71.436 21.565 71.436 19.018C71.436 17.1898 70.0269 16.5007 68.439 16.5007H67.3001V21.6251ZM68.349 13.3242C69.4579 13.3242 71.6157 13.3242 73.2336 14.583C74.4026 15.482 75.0917 17.0403 75.0917 18.7186C75.0917 21.2951 73.3837 22.344 72.8442 22.6438C74.1624 22.8538 74.942 23.4231 75.4514 23.9027C76.65 25.0414 76.8897 26.5996 76.8897 27.6485C76.8897 28.8171 76.5604 30.4652 75.1813 31.6941C73.6834 33.0127 71.8554 33.3124 70.1174 33.3124H63.4043V13.3242H68.349Z" fill="#BCC8C0"/>
<path d="M26.9556 25.7066H20.8388L18.627 38.2444L31.1648 36.0322V29.9158C29.2124 29.2082 27.6629 27.6591 26.9556 25.7066ZM18.627 8.39258L20.8388 20.9304H26.9556C27.6629 18.9781 29.2124 17.4288 31.1648 16.7212V10.6048L18.627 8.39258ZM35.941 10.6048V16.7212C37.893 17.4288 39.4426 18.9781 40.1499 20.9304H46.2666L48.4785 8.39258L35.941 10.6048ZM48.4785 38.2444L35.941 36.0322V29.9158C37.893 29.2082 39.4426 27.6591 40.1499 25.7066H46.2666L48.4785 38.2444Z" fill="#BCC8C0"/>
</svg>
