<svg width="246" height="264" viewBox="0 0 246 264" fill="none" xmlns="http://www.w3.org/2000/svg">
<path d="M200.5 136.005C200.5 178.804 165.581 213.505 122.5 213.505C79.4188 213.505 44.5 178.804 44.5 136.005C44.5 93.2058 79.4188 58.5049 122.5 58.5049C165.581 58.5049 200.5 93.2058 200.5 136.005Z" fill="#254839" stroke="#254839"/>
<circle cx="122.5" cy="131.505" r="78" fill="#E3E6ED" stroke="#254839"/>
<mask id="mask0_92_471907" style="mask-type:alpha" maskUnits="userSpaceOnUse" x="44" y="52" width="158" height="158">
<circle cx="122.502" cy="131.499" r="78" fill="#D9D9D9" stroke="#254839"/>
</mask>
<g mask="url(#mask0_92_471907)">
<g opacity="0.5">
<path d="M22.8359 74.085H225.004" stroke="#254839"/>
<path d="M22.8359 54.999H225.004" stroke="#254839"/>
<path d="M22.8359 57.3848H225.004" stroke="#254839"/>
<path d="M22.8359 59.7705H225.004" stroke="#254839"/>
<path d="M22.8359 62.1562H225.004" stroke="#254839"/>
<path d="M22.8359 64.542H225.004" stroke="#254839"/>
<path d="M22.8359 66.9277H225.004" stroke="#254839"/>
<path d="M22.8359 69.3135H225.004" stroke="#254839"/>
<path d="M22.8359 71.6992H225.004" stroke="#254839"/>
<path d="M22.8359 93.1709H225.004" stroke="#254839"/>
<path d="M22.8359 74.085H225.004" stroke="#254839"/>
<path d="M22.8359 76.4707H225.004" stroke="#254839"/>
<path d="M22.8359 78.8564H225.004" stroke="#254839"/>
<path d="M22.8359 81.2422H225.004" stroke="#254839"/>
<path d="M22.8359 83.6279H225.004" stroke="#254839"/>
<path d="M22.8359 86.0137H225.004" stroke="#254839"/>
<path d="M22.8359 88.3994H225.004" stroke="#254839"/>
<path d="M22.8359 90.7852H225.004" stroke="#254839"/>
<path d="M22.8359 114.642H225.004" stroke="#254839"/>
<path d="M22.8359 95.5557H225.004" stroke="#254839"/>
<path d="M22.8359 97.9414H225.004" stroke="#254839"/>
<path d="M22.8359 100.327H225.004" stroke="#254839"/>
<path d="M22.8359 102.713H225.004" stroke="#254839"/>
<path d="M22.8359 105.099H225.004" stroke="#254839"/>
<path d="M22.8359 107.484H225.004" stroke="#254839"/>
<path d="M22.8359 109.87H225.004" stroke="#254839"/>
<path d="M22.8359 112.256H225.004" stroke="#254839"/>
</g>
<g opacity="0.5">
<path d="M22.8359 136.08H225.004" stroke="#254839"/>
<path d="M22.8359 116.994H225.004" stroke="#254839"/>
<path d="M22.8359 119.38H225.004" stroke="#254839"/>
<path d="M22.8359 121.766H225.004" stroke="#254839"/>
<path d="M22.8359 124.151H225.004" stroke="#254839"/>
<path d="M22.8359 126.537H225.004" stroke="#254839"/>
<path d="M22.8359 128.923H225.004" stroke="#254839"/>
<path d="M22.8359 131.309H225.004" stroke="#254839"/>
<path d="M22.8359 133.694H225.004" stroke="#254839"/>
<path d="M22.8359 155.166H225.004" stroke="#254839"/>
<path d="M22.8359 136.08H225.004" stroke="#254839"/>
<path d="M22.8359 138.466H225.004" stroke="#254839"/>
<path d="M22.8359 140.852H225.004" stroke="#254839"/>
<path d="M22.8359 143.237H225.004" stroke="#254839"/>
<path d="M22.8359 145.623H225.004" stroke="#254839"/>
<path d="M22.8359 148.009H225.004" stroke="#254839"/>
<path d="M22.8359 150.395H225.004" stroke="#254839"/>
<path d="M22.8359 152.78H225.004" stroke="#254839"/>
<path d="M22.8359 176.637H225.004" stroke="#254839"/>
<path d="M22.8359 157.551H225.004" stroke="#254839"/>
<path d="M22.8359 159.937H225.004" stroke="#254839"/>
<path d="M22.8359 162.322H225.004" stroke="#254839"/>
<path d="M22.8359 164.708H225.004" stroke="#254839"/>
<path d="M22.8359 167.094H225.004" stroke="#254839"/>
<path d="M22.8359 169.479H225.004" stroke="#254839"/>
<path d="M22.8359 171.865H225.004" stroke="#254839"/>
<path d="M22.8359 174.251H225.004" stroke="#254839"/>
</g>
<g opacity="0.5">
<path d="M22.8359 198.08H225.004" stroke="#254839"/>
<path d="M22.8359 178.994H225.004" stroke="#254839"/>
<path d="M22.8359 181.38H225.004" stroke="#254839"/>
<path d="M22.8359 183.766H225.004" stroke="#254839"/>
<path d="M22.8359 186.151H225.004" stroke="#254839"/>
<path d="M22.8359 188.537H225.004" stroke="#254839"/>
<path d="M22.8359 190.923H225.004" stroke="#254839"/>
<path d="M22.8359 193.309H225.004" stroke="#254839"/>
<path d="M22.8359 195.694H225.004" stroke="#254839"/>
<path d="M22.8359 198.08H225.004" stroke="#254839"/>
<path d="M22.8359 200.466H225.004" stroke="#254839"/>
<path d="M22.8359 202.852H225.004" stroke="#254839"/>
<path d="M22.8359 205.237H225.004" stroke="#254839"/>
<path d="M22.8359 207.623H225.004" stroke="#254839"/>
<path d="M22.8359 210.009H225.004" stroke="#254839"/>
</g>
</g>
<circle cx="122.498" cy="131.505" r="78" stroke="#254839"/>
<circle cx="123.43" cy="104.142" r="23.8424" fill="#254839" stroke="#254839"/>
<mask id="mask1_92_471907" style="mask-type:alpha" maskUnits="userSpaceOnUse" x="99" y="79" width="49" height="50">
<circle cx="123.43" cy="104.142" r="23.8424" fill="#254839" stroke="#254839"/>
</mask>
<g mask="url(#mask1_92_471907)">
<path d="M147.809 79.9941V179.994" stroke="#E3E6ED"/>
<path d="M145.809 79.9941V170.994" stroke="#E3E6ED"/>
<path d="M143.809 79.9941V163.994" stroke="#E3E6ED"/>
<path d="M141.809 79.9941V152.994" stroke="#E3E6ED"/>
<path d="M139.809 79.9941V141.994" stroke="#E3E6ED"/>
<path d="M137.809 79.9941L137.809 134.994" stroke="#E3E6ED"/>
<path d="M129.809 79.9941L129.809 119.994" stroke="#E3E6ED"/>
<path d="M121.809 79.9941L121.809 100.994" stroke="#E3E6ED"/>
<path d="M135.809 79.9941L135.809 130.994" stroke="#E3E6ED"/>
<path d="M127.809 79.9941L127.809 115.994" stroke="#E3E6ED"/>
<path d="M119.809 79.9941L119.809 100.994" stroke="#E3E6ED"/>
<path d="M133.809 79.9941L133.809 124.994" stroke="#E3E6ED"/>
<path d="M125.809 79.9941L125.809 109.994" stroke="#E3E6ED"/>
<path d="M131.809 79.9941L131.809 120.994" stroke="#E3E6ED"/>
<path d="M123.809 79.9941L123.809 104.994" stroke="#E3E6ED"/>
<path d="M98.8086 79.9941V179.994" stroke="#E3E6ED"/>
<path d="M100.809 79.9941V170.994" stroke="#E3E6ED"/>
<path d="M102.809 79.9941V163.994" stroke="#E3E6ED"/>
<path d="M104.809 79.9941V152.994" stroke="#E3E6ED"/>
<path d="M106.809 79.9941V141.994" stroke="#E3E6ED"/>
<path d="M108.809 79.9941L108.809 134.994" stroke="#E3E6ED"/>
<path d="M116.809 79.9941L116.809 119.994" stroke="#E3E6ED"/>
<path d="M124.809 79.9941L124.809 100.994" stroke="#E3E6ED"/>
<path d="M110.809 79.9941L110.809 130.994" stroke="#E3E6ED"/>
<path d="M118.809 79.9941L118.809 115.994" stroke="#E3E6ED"/>
<path d="M126.809 79.9941L126.809 100.994" stroke="#E3E6ED"/>
<path d="M112.809 79.9941L112.809 124.994" stroke="#E3E6ED"/>
<path d="M120.809 79.9941L120.809 109.994" stroke="#E3E6ED"/>
<path d="M114.809 79.9941L114.809 120.994" stroke="#E3E6ED"/>
<path d="M122.809 79.9941L122.809 104.994" stroke="#E3E6ED"/>
</g>
<circle cx="123.43" cy="100.341" r="23.8424" fill="#E3E6ED" stroke="#254839"/>
<path d="M150.633 136.071C158.645 142.529 163.327 152.933 165.366 163.132C165.163 163.579 164.959 164.019 164.753 164.452C158.114 178.39 140.399 185.637 122.545 185.814C104.749 185.989 87.1369 179.138 80.5198 165.267C82.1423 154.972 86.144 144 93.8811 137.227C101.697 130.385 111.669 126.519 122.047 126.308C132.425 126.097 142.546 129.553 150.633 136.071Z" fill="#254839" stroke="#254839"/>
<mask id="mask2_92_471907" style="mask-type:alpha" maskUnits="userSpaceOnUse" x="78" y="124" width="90" height="63">
<path d="M150.633 135.071C158.714 141.584 165.322 150.04 167.365 160.127C167.135 160.61 166.904 161.087 166.672 161.559C158.872 177.467 140.763 185.617 122.56 185.757C104.411 185.896 86.3593 178.07 78.5206 162.263C80.1488 152.082 86.0822 143.054 93.8811 136.227C101.697 129.385 111.669 125.519 122.047 125.308C132.425 125.097 142.546 128.553 150.633 135.071Z" fill="#254839" stroke="#254839"/>
</mask>
<g mask="url(#mask2_92_471907)">
<path d="M164.807 131.999V231.999" stroke="#E3E6ED"/>
<path d="M162.807 131.999V222.999" stroke="#E3E6ED"/>
<path d="M160.807 131.999V215.999" stroke="#E3E6ED"/>
<path d="M158.807 131.999V204.999" stroke="#E3E6ED"/>
<path d="M156.807 131.999V193.999" stroke="#E3E6ED"/>
<path d="M154.807 131.999L154.807 186.999" stroke="#E3E6ED"/>
<path d="M146.807 131.999L146.807 171.999" stroke="#E3E6ED"/>
<path d="M138.807 131.999L138.807 152.999" stroke="#E3E6ED"/>
<path d="M152.807 131.999L152.807 182.999" stroke="#E3E6ED" stroke-width="0.5"/>
<path d="M144.807 131.999L144.807 167.999" stroke="#E3E6ED"/>
<path d="M136.807 131.999L136.807 152.999" stroke="#E3E6ED"/>
<path d="M150.807 135.999L150.807 180.999" stroke="#E3E6ED" stroke-width="0.5"/>
<path d="M142.807 131.999L142.807 161.999" stroke="#E3E6ED"/>
<path d="M148.807 147.999L148.807 188.999" stroke="#E3E6ED" stroke-width="0.2"/>
<path d="M146.807 156.999L146.807 197.999" stroke="#E3E6ED" stroke-width="0.2"/>
<path d="M140.807 131.999L140.807 156.999" stroke="#E3E6ED"/>
<path d="M81.8086 131.999V231.999" stroke="#E3E6ED"/>
<path d="M83.8086 131.999V222.999" stroke="#E3E6ED"/>
<path d="M85.8086 131.999V215.999" stroke="#E3E6ED"/>
<path d="M87.8086 131.999V204.999" stroke="#E3E6ED"/>
<path d="M89.8086 131.999V193.999" stroke="#E3E6ED"/>
<path d="M91.8086 131.993L91.8086 186.993" stroke="#E3E6ED"/>
<path d="M99.8086 131.999L99.8086 171.999" stroke="#E3E6ED"/>
<path d="M107.809 131.999L107.809 152.999" stroke="#E3E6ED"/>
<path d="M93.8086 135.993L93.8086 186.993" stroke="#E3E6ED" stroke-width="0.5"/>
<path d="M95.8086 135.993L95.8086 186.993" stroke="#E3E6ED" stroke-width="0.5"/>
<path d="M101.809 131.999L101.809 167.999" stroke="#E3E6ED"/>
<path d="M109.809 131.999L109.809 152.999" stroke="#E3E6ED"/>
<path d="M95.8086 135.999L95.8086 180.999" stroke="#E3E6ED" stroke-width="0.5"/>
<path d="M103.809 131.999L103.809 161.999" stroke="#E3E6ED"/>
<path d="M97.8086 147.999L97.8086 188.999" stroke="#E3E6ED" stroke-width="0.2"/>
<path d="M99.8086 156.999L99.8086 197.999" stroke="#E3E6ED" stroke-width="0.2"/>
<path d="M105.809 131.999L105.809 156.999" stroke="#E3E6ED"/>
</g>
<path d="M150.895 135.359C158.946 141.863 164.479 150.985 166.54 161.146L165.974 161.754C142.691 186.757 103.27 187.271 79.3417 162.932C80.9881 152.693 86.1467 143.351 93.9292 136.522C101.774 129.639 111.784 125.749 122.201 125.537C132.618 125.324 142.778 128.801 150.895 135.359Z" fill="#E3E6ED" stroke="#254839"/>
<mask id="mask3_92_471907" style="mask-type:alpha" maskUnits="userSpaceOnUse" x="11" y="87" width="71" height="71">
<circle cx="46.5" cy="122.5" r="35.5" fill="#C6DECD"/>
</mask>
<g mask="url(#mask3_92_471907)">
<path d="M8.83594 99.0859H113.807" stroke="#254839"/>
<path d="M8.83594 87.1572H113.807" stroke="#254839"/>
<path d="M8.83594 89.543H113.807" stroke="#254839"/>
<path d="M8.83594 91.9287H113.807" stroke="#254839"/>
<path d="M8.83594 94.3145H113.807" stroke="#254839"/>
<path d="M8.83594 96.7002H113.807" stroke="#254839"/>
<path d="M8.83594 120.557H113.807" stroke="#254839"/>
<path d="M8.83594 101.471H113.807" stroke="#254839"/>
<path d="M8.83594 103.856H113.807" stroke="#254839"/>
<path d="M8.83594 106.242H113.807" stroke="#254839"/>
<path d="M8.83594 108.628H113.807" stroke="#254839"/>
<path d="M8.83594 111.014H113.807" stroke="#254839"/>
<path d="M8.83594 113.399H113.807" stroke="#254839"/>
<path d="M8.83594 115.785H113.807" stroke="#254839"/>
<path d="M8.83594 118.171H113.807" stroke="#254839"/>
<path d="M8.83594 142.027H113.807" stroke="#254839"/>
<path d="M8.83594 122.941H113.807" stroke="#254839"/>
<path d="M8.83594 125.327H113.807" stroke="#254839"/>
<path d="M8.83594 127.713H113.807" stroke="#254839"/>
<path d="M8.83594 130.099H113.807" stroke="#254839"/>
<path d="M8.83594 132.484H113.807" stroke="#254839"/>
<path d="M8.83594 134.87H113.807" stroke="#254839"/>
<path d="M8.83594 137.256H113.807" stroke="#254839"/>
<path d="M8.83594 139.642H113.807" stroke="#254839"/>
<path d="M8.83594 144H113.807" stroke="#254839"/>
<path d="M8.83594 146.386H113.807" stroke="#254839"/>
<path d="M8.83594 148.771H113.807" stroke="#254839"/>
<path d="M8.83594 151.157H113.807" stroke="#254839"/>
<path d="M8.83594 153.543H113.807" stroke="#254839"/>
<path d="M8.83594 155.929H113.807" stroke="#254839"/>
<path d="M8.83594 158.314H113.807" stroke="#254839"/>
</g>
<path d="M9.5 107.5C9.5 126.239 26.0254 141.5 46.5 141.5C66.9746 141.5 83.5 126.239 83.5 107.5C83.5 88.7608 66.9746 73.5 46.5 73.5C26.0254 73.5 9.5 88.7608 9.5 107.5Z" fill="#254839" stroke="#E3E6ED"/>
<mask id="mask4_92_471907" style="mask-type:alpha" maskUnits="userSpaceOnUse" x="9" y="73" width="75" height="69">
<path d="M9.5 107.5C9.5 126.239 26.0254 141.5 46.5 141.5C66.9746 141.5 83.5 126.239 83.5 107.5C83.5 88.7608 66.9746 73.5 46.5 73.5C26.0254 73.5 9.5 88.7608 9.5 107.5Z" fill="#7B8A9C" stroke="#BED3E2"/>
</mask>
<g mask="url(#mask4_92_471907)">
<path d="M12 98V198" stroke="#E3E6ED"/>
<path d="M14 98V189" stroke="#E3E6ED"/>
<path d="M16 102V186" stroke="#E3E6ED"/>
<path d="M18 109V182" stroke="#E3E6ED"/>
<path d="M20 116V178" stroke="#E3E6ED"/>
<path d="M22 119L22 174" stroke="#E3E6ED"/>
<path d="M30 115L30 155" stroke="#E3E6ED"/>
<path d="M38 113L38 134" stroke="#E3E6ED"/>
<path d="M24 118L24 169" stroke="#E3E6ED"/>
<path d="M32 114L32 150" stroke="#E3E6ED"/>
<path d="M40 113L40 134" stroke="#E3E6ED"/>
<path d="M26 119L26 164" stroke="#E3E6ED"/>
<path d="M34 115L34 145" stroke="#E3E6ED"/>
<path d="M50 115L50 145" stroke="#E3E6ED"/>
<path d="M64 114L64 144" stroke="#E3E6ED"/>
<path d="M74 113L74 143" stroke="#E3E6ED"/>
<path d="M28 119L28 160" stroke="#E3E6ED"/>
<path d="M36 114L36 139" stroke="#E3E6ED"/>
</g>
<path d="M9.5 101.5C9.5 120.239 26.0254 135.5 46.5 135.5C66.9746 135.5 83.5 120.239 83.5 101.5C83.5 82.7608 66.9746 67.5 46.5 67.5C26.0254 67.5 9.5 82.7608 9.5 101.5Z" fill="#E3E6ED" stroke="#254839"/>
<mask id="mask5_92_471907" style="mask-type:alpha" maskUnits="userSpaceOnUse" x="16" y="73" width="61" height="30">
<path fill-rule="evenodd" clip-rule="evenodd" d="M16.0415 103C16.014 102.503 16 102.003 16 101.5C16 85.7599 29.6553 73 46.5 73C63.3447 73 77 85.7599 77 101.5C77 102.003 76.986 102.503 76.9585 103C76.1237 87.9572 62.8062 76 46.5 76C30.1938 76 16.8763 87.9572 16.0415 103Z" fill="#BED3E2"/>
</mask>
<g mask="url(#mask5_92_471907)">
<path d="M77 63V163" stroke="#254839"/>
<path d="M47 63V163" stroke="#254839"/>
<path d="M75 63V163" stroke="#254839"/>
<path d="M45 63V163" stroke="#254839"/>
<path d="M73 63V163" stroke="#254839"/>
<path d="M43 63V163" stroke="#254839"/>
<path d="M71 63V163" stroke="#254839"/>
<path d="M41 63V163" stroke="#254839"/>
<path d="M63 63V163" stroke="#254839"/>
<path d="M33 63V163" stroke="#254839"/>
<path d="M69 63V163" stroke="#254839"/>
<path d="M39 63V163" stroke="#254839"/>
<path d="M59 63V163" stroke="#254839"/>
<path d="M29 63V163" stroke="#254839"/>
<path d="M67 63V163" stroke="#254839"/>
<path d="M37 63V163" stroke="#254839"/>
<path d="M65 63V163" stroke="#254839"/>
<path d="M35 63V163" stroke="#254839"/>
<path d="M61 63V163" stroke="#254839"/>
<path d="M31 63V163" stroke="#254839"/>
<path d="M57 63V163" stroke="#254839"/>
<path d="M27 63V163" stroke="#254839"/>
<path d="M55 63V163" stroke="#254839"/>
<path d="M25 63V163" stroke="#254839"/>
<path d="M53 63V163" stroke="#254839"/>
<path d="M23 63V163" stroke="#254839"/>
<path d="M51 63V163" stroke="#254839"/>
<path d="M21 63V163" stroke="#254839"/>
<path d="M49 63V163" stroke="#254839"/>
<path d="M19 63V163" stroke="#254839"/>
<path d="M17 64V164" stroke="#254839"/>
</g>
<mask id="mask6_92_471907" style="mask-type:alpha" maskUnits="userSpaceOnUse" x="164" y="151" width="71" height="71">
<circle cx="35.5" cy="35.5" r="35.5" transform="matrix(-1 0 0 1 235 151)" fill="#C6DECD"/>
</mask>
<g mask="url(#mask6_92_471907)">
<path d="M237.168 163.086H132.197" stroke="#254839"/>
<path d="M237.168 151.157H132.197" stroke="#254839"/>
<path d="M237.168 153.543H132.197" stroke="#254839"/>
<path d="M237.168 155.929H132.197" stroke="#254839"/>
<path d="M237.168 158.314H132.197" stroke="#254839"/>
<path d="M237.168 160.7H132.197" stroke="#254839"/>
<path d="M237.168 184.557H132.197" stroke="#254839"/>
<path d="M237.168 165.471H132.197" stroke="#254839"/>
<path d="M237.168 167.856H132.197" stroke="#254839"/>
<path d="M237.168 170.242H132.197" stroke="#254839"/>
<path d="M237.168 172.628H132.197" stroke="#254839"/>
<path d="M237.168 175.014H132.197" stroke="#254839"/>
<path d="M237.168 177.399H132.197" stroke="#254839"/>
<path d="M237.168 179.785H132.197" stroke="#254839"/>
<path d="M237.168 182.171H132.197" stroke="#254839"/>
<path d="M237.168 206.027H132.197" stroke="#254839"/>
<path d="M237.168 186.941H132.197" stroke="#254839"/>
<path d="M237.168 189.327H132.197" stroke="#254839"/>
<path d="M237.168 191.713H132.197" stroke="#254839"/>
<path d="M237.168 194.099H132.197" stroke="#254839"/>
<path d="M237.168 196.484H132.197" stroke="#254839"/>
<path d="M237.168 198.87H132.197" stroke="#254839"/>
<path d="M237.168 201.256H132.197" stroke="#254839"/>
<path d="M237.168 203.642H132.197" stroke="#254839"/>
<path d="M237.168 208H132.197" stroke="#254839"/>
<path d="M237.168 210.386H132.197" stroke="#254839"/>
<path d="M237.168 212.771H132.197" stroke="#254839"/>
<path d="M237.168 215.157H132.197" stroke="#254839"/>
<path d="M237.168 217.543H132.197" stroke="#254839"/>
<path d="M237.168 219.929H132.197" stroke="#254839"/>
<path d="M237.168 222.314H132.197" stroke="#254839"/>
</g>
<path d="M236.5 171.5C236.5 190.239 219.975 205.5 199.5 205.5C179.025 205.5 162.5 190.239 162.5 171.5C162.5 152.761 179.025 137.5 199.5 137.5C219.975 137.5 236.5 152.761 236.5 171.5Z" fill="#254839" stroke="#E3E6ED"/>
<mask id="mask7_92_471907" style="mask-type:alpha" maskUnits="userSpaceOnUse" x="162" y="137" width="75" height="69">
<path d="M236.5 171.5C236.5 190.239 219.975 205.5 199.5 205.5C179.025 205.5 162.5 190.239 162.5 171.5C162.5 152.761 179.025 137.5 199.5 137.5C219.975 137.5 236.5 152.761 236.5 171.5Z" fill="#7B8A9C" stroke="#BED3E2"/>
</mask>
<g mask="url(#mask7_92_471907)">
<path d="M165 162V262" stroke="#E3E6ED"/>
<path d="M167 162V253" stroke="#E3E6ED"/>
<path d="M169 166V250" stroke="#E3E6ED"/>
<path d="M171 173V246" stroke="#E3E6ED"/>
<path d="M173 180V242" stroke="#E3E6ED"/>
<path d="M175 183L175 238" stroke="#E3E6ED"/>
<path d="M183 179L183 219" stroke="#E3E6ED"/>
<path d="M191 177L191 198" stroke="#E3E6ED"/>
<path d="M177 182L177 233" stroke="#E3E6ED"/>
<path d="M185 178L185 214" stroke="#E3E6ED"/>
<path d="M193 177L193 198" stroke="#E3E6ED"/>
<path d="M179 183L179 228" stroke="#E3E6ED"/>
<path d="M187 179L187 209" stroke="#E3E6ED"/>
<path d="M181 183L181 224" stroke="#E3E6ED"/>
<path d="M214 180L214 221" stroke="#E3E6ED"/>
<path d="M201 186L201 227" stroke="#E3E6ED"/>
<path d="M224 175L224 216" stroke="#E3E6ED"/>
<path d="M189 178L189 203" stroke="#E3E6ED"/>
</g>
<path d="M236.5 165.5C236.5 184.239 219.975 199.5 199.5 199.5C179.025 199.5 162.5 184.239 162.5 165.5C162.5 146.761 179.025 131.5 199.5 131.5C219.975 131.5 236.5 146.761 236.5 165.5Z" fill="#E3E6ED" stroke="#254839"/>
<mask id="mask8_92_471907" style="mask-type:alpha" maskUnits="userSpaceOnUse" x="169" y="137" width="62" height="30">
<path fill-rule="evenodd" clip-rule="evenodd" d="M229.96 167C229.988 166.503 230.002 166.003 230.002 165.5C230.002 149.76 216.347 137 199.502 137C182.657 137 169.002 149.76 169.002 165.5C169.002 166.003 169.016 166.503 169.043 167C169.878 151.957 183.196 140 199.502 140C215.808 140 229.126 151.957 229.96 167Z" fill="#BED3E2"/>
</mask>
<g mask="url(#mask8_92_471907)">
<path d="M169.002 127V227" stroke="#254839"/>
<path d="M199.002 127V227" stroke="#254839"/>
<path d="M171.002 127V227" stroke="#254839"/>
<path d="M201.002 127V227" stroke="#254839"/>
<path d="M173.002 127V227" stroke="#254839"/>
<path d="M203.002 127V227" stroke="#254839"/>
<path d="M175.002 127V227" stroke="#254839"/>
<path d="M205.002 127V227" stroke="#254839"/>
<path d="M183.002 127V227" stroke="#254839"/>
<path d="M213.002 127V227" stroke="#254839"/>
<path d="M177.002 127V227" stroke="#254839"/>
<path d="M207.002 127V227" stroke="#254839"/>
<path d="M187.002 127V227" stroke="#254839"/>
<path d="M217.002 127V227" stroke="#254839"/>
<path d="M179.002 127V227" stroke="#254839"/>
<path d="M209.002 127V227" stroke="#254839"/>
<path d="M181.002 127V227" stroke="#254839"/>
<path d="M211.002 127V227" stroke="#254839"/>
<path d="M185.002 127V227" stroke="#254839"/>
<path d="M215.002 127V227" stroke="#254839"/>
<path d="M189.002 127V227" stroke="#254839"/>
<path d="M219.002 127V227" stroke="#254839"/>
<path d="M191.002 127V227" stroke="#254839"/>
<path d="M221.002 127V227" stroke="#254839"/>
<path d="M193.002 127V227" stroke="#254839"/>
<path d="M223.002 127V227" stroke="#254839"/>
<path d="M195.002 127V227" stroke="#254839"/>
<path d="M225.002 127V227" stroke="#254839"/>
<path d="M197.002 127V227" stroke="#254839"/>
<path d="M227.002 127V227" stroke="#254839"/>
<path d="M229.002 128V228" stroke="#254839"/>
</g>
<path d="M94.7609 186.62L54.3053 181.719L54.002 182.959L74.1469 223.529L79.6072 211.347C108.587 232.028 137.494 237.37 160.501 217.035C183.508 196.701 193.001 175.536 193.001 175.536C162.5 226.537 129.172 216.788 85.5753 196.824L95.502 188.459L94.7609 186.62Z" fill="#E3E6ED"/>
<path d="M193.001 175.536C162.5 226.537 129.172 216.788 85.5753 196.824L95.502 188.459L94.7609 186.62L54.3053 181.719L54.002 182.959L74.1469 223.529L79.6072 211.347C108.587 232.028 137.494 237.37 160.501 217.035C183.508 196.701 193.001 175.536 193.001 175.536ZM193.001 175.536L193.001 177.959" stroke="#254839"/>
<path d="M54.3053 183.719L74.1469 225.529L79.6072 213.347C108.587 234.028 137.494 239.37 160.501 219.035C183.508 198.701 193.001 177.536 193.001 177.536C162.5 228.537 129.172 218.788 85.5753 198.824L94.7609 188.62L54.3053 183.719Z" fill="#254839" stroke="#254839"/>
<mask id="mask9_92_471907" style="mask-type:alpha" maskUnits="userSpaceOnUse" x="53" y="177" width="141" height="56">
<path d="M54.3053 183.719L74.1469 225.529L79.6072 213.347C108.587 234.028 137.494 239.37 160.501 219.035C183.508 198.701 193.001 177.536 193.001 177.536C162.5 228.537 129.172 218.788 85.5753 198.824L94.7609 188.62L54.3053 183.719Z" fill="#254839" stroke="#254839"/>
</mask>
<g mask="url(#mask9_92_471907)">
<g opacity="0.5">
<path d="M106.561 86.9595L106.561 289.127" stroke="#E3E6ED"/>
<path d="M125.646 86.9595L125.646 289.127" stroke="#E3E6ED"/>
<path d="M123.262 86.9595L123.262 289.127" stroke="#E3E6ED"/>
<path d="M120.875 86.9595L120.875 289.127" stroke="#E3E6ED"/>
<path d="M118.488 86.9595L118.488 289.127" stroke="#E3E6ED"/>
<path d="M116.104 86.9595L116.104 289.127" stroke="#E3E6ED"/>
<path d="M113.719 86.9595L113.719 289.127" stroke="#E3E6ED"/>
<path d="M111.332 86.9595L111.332 289.127" stroke="#E3E6ED"/>
<path d="M108.945 86.9595L108.945 289.127" stroke="#E3E6ED"/>
<path d="M106.561 86.9595L106.561 289.127" stroke="#E3E6ED"/>
<path d="M104.176 86.9595L104.176 289.127" stroke="#E3E6ED"/>
<path d="M87.4746 86.9595L87.4746 289.127" stroke="#E3E6ED" stroke-width="0.5"/>
<path d="M101.789 86.9595L101.789 289.127" stroke="#E3E6ED"/>
<path d="M99.4023 86.9595L99.4023 289.127" stroke="#E3E6ED"/>
<path d="M97.0176 86.9595L97.0176 289.127" stroke="#E3E6ED"/>
<path d="M94.6328 86.9595L94.6328 289.127" stroke="#E3E6ED"/>
<path d="M92.2461 86.9595L92.2461 289.127" stroke="#E3E6ED"/>
<path d="M89.8594 86.9595L89.8594 289.127" stroke="#E3E6ED" stroke-width="0.5"/>
<path d="M85.0898 86.9595L85.0898 289.127" stroke="#E3E6ED" stroke-width="0.2"/>
<path d="M82.7031 86.9595L82.7031 289.127" stroke="#E3E6ED" stroke-width="0.2"/>
<path d="M80.3184 86.9595L80.3184 289.127" stroke="#E3E6ED" stroke-width="0.2"/>
</g>
<g opacity="0.5">
<path d="M168.562 86.9595L168.562 289.127" stroke="#E3E6ED" stroke-width="0.5"/>
<path d="M175.719 86.9595L175.719 289.127" stroke="#E3E6ED" stroke-width="0.2"/>
<path d="M173.332 86.9595L173.332 289.127" stroke="#E3E6ED" stroke-width="0.2"/>
<path d="M170.947 86.9595L170.947 289.127" stroke="#E3E6ED" stroke-width="0.2"/>
<path d="M149.477 86.9595L149.477 289.127" stroke="#E3E6ED" stroke-width="1.5"/>
<path d="M166.176 86.9595L166.176 289.127" stroke="#E3E6ED" stroke-width="0.5"/>
<path d="M163.789 86.9595L163.789 289.127" stroke="#E3E6ED" stroke-width="0.5"/>
<path d="M161.404 86.9595L161.404 289.127" stroke="#E3E6ED" stroke-width="0.5"/>
<path d="M159.02 86.9595L159.02 289.127" stroke="#E3E6ED"/>
<path d="M156.633 86.9595L156.633 289.127" stroke="#E3E6ED"/>
<path d="M154.246 86.9595L154.246 289.127" stroke="#E3E6ED"/>
<path d="M151.861 86.9595L151.861 289.127" stroke="#E3E6ED"/>
<path d="M128.004 86.9595L128.004 289.127" stroke="#E3E6ED"/>
<path d="M147.09 86.9595L147.09 289.127" stroke="#E3E6ED" stroke-width="1.5"/>
<path d="M144.705 86.9595L144.705 289.127" stroke="#E3E6ED" stroke-width="2"/>
<path d="M142.32 86.9595L142.32 289.127" stroke="#E3E6ED" stroke-width="2"/>
<path d="M139.934 86.9595L139.934 289.127" stroke="#E3E6ED" stroke-width="2"/>
<path d="M137.547 86.9595L137.547 289.127" stroke="#E3E6ED" stroke-width="2"/>
<path d="M135.162 86.9595L135.162 289.127" stroke="#E3E6ED" stroke-width="1.5"/>
<path d="M132.777 86.9595L132.777 289.127" stroke="#E3E6ED" stroke-width="1.5"/>
<path d="M130.391 86.9595L130.391 289.127" stroke="#E3E6ED"/>
</g>
</g>
<path d="M148.626 76.4931L189.081 81.3942L189.385 80.1538L169.24 39.5838L163.779 51.7665C134.8 31.0853 105.893 25.7433 82.8858 46.078C59.8788 66.4128 50.3859 87.5772 50.3859 87.5772C80.8867 36.5767 114.214 46.3249 157.811 66.2889L147.885 74.6538L148.626 76.4931Z" fill="#E3E6ED"/>
<path d="M50.3859 87.5772C80.8867 36.5767 114.214 46.3249 157.811 66.2889L147.885 74.6538L148.626 76.4931L189.081 81.3942L189.385 80.1538L169.24 39.5838L163.779 51.7665C134.8 31.0853 105.893 25.7433 82.8858 46.078C59.8788 66.4128 50.3859 87.5772 50.3859 87.5772ZM50.3859 87.5772L50.3859 85.1538" stroke="#254839"/>
<path d="M189.081 79.3942L169.24 37.5838L163.779 49.7665C134.8 29.0853 105.893 23.7433 82.8858 44.078C59.8788 64.4128 50.3859 85.5772 50.3859 85.5772C80.8867 34.5767 114.214 44.3249 157.811 64.2889L148.626 74.4931L189.081 79.3942Z" fill="#254839" stroke="#254839"/>
<mask id="mask10_92_471907" style="mask-type:alpha" maskUnits="userSpaceOnUse" x="49" y="30" width="141" height="56">
<path d="M189.081 79.3942L169.24 37.5838L163.779 49.7665C134.8 29.0853 105.893 23.7433 82.8858 44.078C59.8788 64.4128 50.3859 85.5772 50.3859 85.5772C80.8867 34.5767 114.214 44.3249 157.811 64.2889L148.626 74.4931L189.081 79.3942Z" fill="#254839" stroke="#254839"/>
</mask>
<g mask="url(#mask10_92_471907)">
<g opacity="0.5">
<path d="M137.475 -29.0376L137.475 173.13" stroke="#E3E6ED"/>
<path d="M118.389 -29.0376L118.389 173.13" stroke="#E3E6ED"/>
<path d="M120.773 -29.0376L120.773 173.13" stroke="#E3E6ED"/>
<path d="M123.16 -29.0376L123.16 173.13" stroke="#E3E6ED"/>
<path d="M125.547 -29.0376L125.547 173.13" stroke="#E3E6ED"/>
<path d="M127.932 -29.0376L127.932 173.13" stroke="#E3E6ED"/>
<path d="M130.316 -29.0376L130.316 173.13" stroke="#E3E6ED"/>
<path d="M132.703 -29.0376L132.703 173.13" stroke="#E3E6ED"/>
<path d="M135.09 -29.0376L135.09 173.13" stroke="#E3E6ED"/>
<path d="M137.475 -29.0376L137.475 173.13" stroke="#E3E6ED"/>
<path d="M139.859 -29.0376L139.859 173.13" stroke="#E3E6ED"/>
<path d="M156.561 -29.0376L156.561 173.13" stroke="#E3E6ED" stroke-width="0.5"/>
<path d="M142.246 -29.0376L142.246 173.13" stroke="#E3E6ED"/>
<path d="M144.633 -29.0376L144.633 173.13" stroke="#E3E6ED"/>
<path d="M147.018 -29.0376L147.018 173.13" stroke="#E3E6ED"/>
<path d="M149.402 -29.0376L149.402 173.13" stroke="#E3E6ED"/>
<path d="M151.789 -29.0376L151.789 173.13" stroke="#E3E6ED"/>
<path d="M154.176 -29.0376L154.176 173.13" stroke="#E3E6ED" stroke-width="0.5"/>
<path d="M158.945 -29.0376L158.945 173.13" stroke="#E3E6ED" stroke-width="0.2"/>
<path d="M161.332 -29.0376L161.332 173.13" stroke="#E3E6ED" stroke-width="0.2"/>
<path d="M163.717 -29.0376L163.717 173.13" stroke="#E3E6ED" stroke-width="0.2"/>
</g>
<g opacity="0.5">
<path d="M75.4727 -29.0376L75.4727 173.13" stroke="#E3E6ED" stroke-width="0.5"/>
<path d="M68.3164 -29.0376L68.3164 173.13" stroke="#E3E6ED" stroke-width="0.2"/>
<path d="M70.7031 -29.0376L70.7031 173.13" stroke="#E3E6ED" stroke-width="0.2"/>
<path d="M73.0879 -29.0376L73.0879 173.13" stroke="#E3E6ED" stroke-width="0.2"/>
<path d="M94.5586 -29.0376L94.5586 173.13" stroke="#E3E6ED" stroke-width="1.5"/>
<path d="M77.8594 -29.0376L77.8594 173.13" stroke="#E3E6ED" stroke-width="0.5"/>
<path d="M80.2461 -29.0376L80.2461 173.13" stroke="#E3E6ED" stroke-width="0.5"/>
<path d="M82.6309 -29.0376L82.6309 173.13" stroke="#E3E6ED" stroke-width="0.5"/>
<path d="M85.0156 -29.0376L85.0156 173.13" stroke="#E3E6ED"/>
<path d="M87.4023 -29.0376L87.4024 173.13" stroke="#E3E6ED"/>
<path d="M89.7891 -29.0376L89.7891 173.13" stroke="#E3E6ED"/>
<path d="M92.1738 -29.0376L92.1738 173.13" stroke="#E3E6ED"/>
<path d="M116.031 -29.0376L116.031 173.13" stroke="#E3E6ED"/>
<path d="M96.9453 -29.0376L96.9453 173.13" stroke="#E3E6ED" stroke-width="1.5"/>
<path d="M99.3301 -29.0376L99.3301 173.13" stroke="#E3E6ED" stroke-width="2"/>
<path d="M101.715 -29.0376L101.715 173.13" stroke="#E3E6ED" stroke-width="2"/>
<path d="M104.102 -29.0376L104.102 173.13" stroke="#E3E6ED" stroke-width="2"/>
<path d="M106.488 -29.0376L106.488 173.13" stroke="#E3E6ED" stroke-width="2"/>
<path d="M108.873 -29.0376L108.873 173.13" stroke="#E3E6ED" stroke-width="1.5"/>
<path d="M111.258 -29.0376L111.258 173.13" stroke="#E3E6ED" stroke-width="1.5"/>
<path d="M113.645 -29.0376L113.645 173.13" stroke="#E3E6ED"/>
</g>
</g>
</svg>
