<svg  viewBox="0 0 50 50" fill="none" xmlns="http://www.w3.org/2000/svg">
<path d="M29.6484 9.81442L23.5245 9.81344" stroke="#2F5144" stroke-width="2.2036"/>
<path d="M26.8919 39.5639L20.832 39.5635" stroke="#2F5144" stroke-width="2.2036"/>
<path d="M39.1464 29.7627L39.0302 23.6035" stroke="#2F5144" stroke-width="2.2036"/>
<path d="M10.9173 27.4441L10.9173 20.8333" stroke="#2F5144" stroke-width="2.2036"/>
<path d="M20.8324 11.4671C20.8324 16.6394 16.6394 20.8324 11.4671 20.8324C6.29478 20.8324 2.1018 16.6394 2.1018 11.4671C2.1018 6.29478 6.29478 2.1018 11.4671 2.1018C16.6394 2.1018 20.8324 6.29478 20.8324 11.4671Z" stroke="#2F5144" stroke-width="2.2036"/>
<path d="M20.8324 39.012C20.8324 44.1843 16.6394 48.3773 11.4671 48.3773C6.29478 48.3773 2.1018 44.1843 2.1018 39.012C2.1018 33.8397 6.29478 29.6467 11.4671 29.6467C16.6394 29.6467 20.8324 33.8397 20.8324 39.012Z" stroke="#2F5144" stroke-width="2.2036"/>
<mask id="mask0_145_2308" style="mask-type:alpha" maskUnits="userSpaceOnUse" x="32" y="5" width="14" height="14">
<path d="M44.611 11.5654C44.611 14.5694 42.1758 17.0046 39.1718 17.0046C36.1679 17.0046 33.7327 14.5694 33.7327 11.5654C33.7327 8.56142 36.1679 6.12621 39.1718 6.12621C42.1758 6.12621 44.611 8.56142 44.611 11.5654Z" fill="#D9D9D9" stroke="#2F5144" stroke-width="2.2036"/>
</mask>
<g mask="url(#mask0_145_2308)">
<path d="M31.5 2.12793L33 3.62793L31.5 5.12793L30 3.62793L31.5 2.12793Z" fill="#2F5144"/>
<path d="M43.5 2.12793L45 3.62793L43.5 5.12793L42 3.62793L43.5 2.12793Z" fill="#2F5144"/>
<path d="M39.5 2.12793L41 3.62793L39.5 5.12793L38 3.62793L39.5 2.12793Z" fill="#2F5144"/>
<path d="M35.5 2.12793L37 3.62793L35.5 5.12793L34 3.62793L35.5 2.12793Z" fill="#2F5144"/>
<path d="M31.5 14.1279L33 15.6279L31.5 17.1279L30 15.6279L31.5 14.1279Z" fill="#2F5144"/>
<path d="M43.5 14.1279L45 15.6279L43.5 17.1279L42 15.6279L43.5 14.1279Z" fill="#2F5144"/>
<path d="M39.5 14.1279L41 15.6279L39.5 17.1279L38 15.6279L39.5 14.1279Z" fill="#2F5144"/>
<path d="M35.5 14.1279L37 15.6279L35.5 17.1279L34 15.6279L35.5 14.1279Z" fill="#2F5144"/>
<path d="M33.5 4.12793L35 5.62793L33.5 7.12793L32 5.62793L33.5 4.12793Z" fill="#2F5144"/>
<path d="M45.5 4.12793L47 5.62793L45.5 7.12793L44 5.62793L45.5 4.12793Z" fill="#2F5144"/>
<path d="M41.5 4.12793L43 5.62793L41.5 7.12793L40 5.62793L41.5 4.12793Z" fill="#2F5144"/>
<path d="M37.5 4.12793L39 5.62793L37.5 7.12793L36 5.62793L37.5 4.12793Z" fill="#2F5144"/>
<path d="M33.5 16.1279L35 17.6279L33.5 19.1279L32 17.6279L33.5 16.1279Z" fill="#2F5144"/>
<path d="M45.5 16.1279L47 17.6279L45.5 19.1279L44 17.6279L45.5 16.1279Z" fill="#2F5144"/>
<path d="M41.5 16.1279L43 17.6279L41.5 19.1279L40 17.6279L41.5 16.1279Z" fill="#2F5144"/>
<path d="M37.5 16.1279L39 17.6279L37.5 19.1279L36 17.6279L37.5 16.1279Z" fill="#2F5144"/>
<path d="M31.5 6.12793L33 7.62793L31.5 9.12793L30 7.62793L31.5 6.12793Z" fill="#2F5144"/>
<path d="M43.5 6.12793L45 7.62793L43.5 9.12793L42 7.62793L43.5 6.12793Z" fill="#2F5144"/>
<path d="M39.5 6.12793L41 7.62793L39.5 9.12793L38 7.62793L39.5 6.12793Z" fill="#2F5144"/>
<path d="M35.5 6.12793L37 7.62793L35.5 9.12793L34 7.62793L35.5 6.12793Z" fill="#2F5144"/>
<path d="M33.5 8.12793L35 9.62793L33.5 11.1279L32 9.62793L33.5 8.12793Z" fill="#2F5144"/>
<path d="M45.5 8.12793L47 9.62793L45.5 11.1279L44 9.62793L45.5 8.12793Z" fill="#2F5144"/>
<path d="M41.5 8.12793L43 9.62793L41.5 11.1279L40 9.62793L41.5 8.12793Z" fill="#2F5144"/>
<path d="M37.5 8.12793L39 9.62793L37.5 11.1279L36 9.62793L37.5 8.12793Z" fill="#2F5144"/>
<path d="M31.5 10.1279L33 11.6279L31.5 13.1279L30 11.6279L31.5 10.1279Z" fill="#2F5144"/>
<path d="M43.5 10.1279L45 11.6279L43.5 13.1279L42 11.6279L43.5 10.1279Z" fill="#2F5144"/>
<path d="M39.5 10.1279L41 11.6279L39.5 13.1279L38 11.6279L39.5 10.1279Z" fill="#2F5144"/>
<path d="M35.5 10.1279L37 11.6279L35.5 13.1279L34 11.6279L35.5 10.1279Z" fill="#2F5144"/>
<path d="M33.5 12.1279L35 13.6279L33.5 15.1279L32 13.6279L33.5 12.1279Z" fill="#2F5144"/>
<path d="M45.5 12.1279L47 13.6279L45.5 15.1279L44 13.6279L45.5 12.1279Z" fill="#2F5144"/>
<path d="M41.5 12.1279L43 13.6279L41.5 15.1279L40 13.6279L41.5 12.1279Z" fill="#2F5144"/>
<path d="M37.5 12.1279L39 13.6279L37.5 15.1279L36 13.6279L37.5 12.1279Z" fill="#2F5144"/>
</g>
<path d="M48.3773 11.4671C48.3773 16.6394 44.1843 20.8324 39.012 20.8324C33.8397 20.8324 29.6467 16.6394 29.6467 11.4671C29.6467 6.29478 33.8397 2.1018 39.012 2.1018C44.1843 2.1018 48.3773 6.29478 48.3773 11.4671Z" stroke="#2F5144" stroke-width="2.2036"/>
<path d="M48.3773 39.012C48.3773 44.1843 44.1843 48.3773 39.012 48.3773C33.8397 48.3773 29.6467 44.1843 29.6467 39.012C29.6467 33.8397 33.8397 29.6467 39.012 29.6467C44.1843 29.6467 48.3773 33.8397 48.3773 39.012Z" stroke="#2F5144" stroke-width="2.2036"/>
</svg>
