<svg  viewBox="0 0 51 51" fill="none" xmlns="http://www.w3.org/2000/svg">
<path d="M20.5117 35.1035L33.7333 35.1035M39.2423 29.5945L20.5117 29.5945" stroke="#2F5144" stroke-width="2.2036"/>
<path d="M22.3438 19.8936L46.6388 19.8936" stroke="#2F5144" stroke-width="2.2036"/>
<mask id="mask0_145_2107" style="mask-type:alpha" maskUnits="userSpaceOnUse" x="25" y="11" width="20" height="7">
<rect x="25.457" y="11.7949" width="18.6885" height="5.60656" fill="#D9D9D9"/>
</mask>
<g mask="url(#mask0_145_2107)">
<path d="M25.5 16.1279L27 17.6279L25.5 19.1279L24 17.6279L25.5 16.1279Z" fill="#2F5144"/>
<path d="M37.5 16.1279L39 17.6279L37.5 19.1279L36 17.6279L37.5 16.1279Z" fill="#2F5144"/>
<path d="M33.5 16.1279L35 17.6279L33.5 19.1279L32 17.6279L33.5 16.1279Z" fill="#2F5144"/>
<path d="M45.5 16.1279L47 17.6279L45.5 19.1279L44 17.6279L45.5 16.1279Z" fill="#2F5144"/>
<path d="M29.5 16.1279L31 17.6279L29.5 19.1279L28 17.6279L29.5 16.1279Z" fill="#2F5144"/>
<path d="M41.5 16.1279L43 17.6279L41.5 19.1279L40 17.6279L41.5 16.1279Z" fill="#2F5144"/>
<path d="M27.5 10.1279L29 11.6279L27.5 13.1279L26 11.6279L27.5 10.1279Z" fill="#2F5144"/>
<path d="M39.5 10.1279L41 11.6279L39.5 13.1279L38 11.6279L39.5 10.1279Z" fill="#2F5144"/>
<path d="M35.5 10.1279L37 11.6279L35.5 13.1279L34 11.6279L35.5 10.1279Z" fill="#2F5144"/>
<path d="M31.5 10.1279L33 11.6279L31.5 13.1279L30 11.6279L31.5 10.1279Z" fill="#2F5144"/>
<path d="M43.5 10.1279L45 11.6279L43.5 13.1279L42 11.6279L43.5 10.1279Z" fill="#2F5144"/>
<path d="M25.5 12.1279L27 13.6279L25.5 15.1279L24 13.6279L25.5 12.1279Z" fill="#2F5144"/>
<path d="M37.5 12.1279L39 13.6279L37.5 15.1279L36 13.6279L37.5 12.1279Z" fill="#2F5144"/>
<path d="M33.5 12.1279L35 13.6279L33.5 15.1279L32 13.6279L33.5 12.1279Z" fill="#2F5144"/>
<path d="M45.5 12.1279L47 13.6279L45.5 15.1279L44 13.6279L45.5 12.1279Z" fill="#2F5144"/>
<path d="M29.5 12.1279L31 13.6279L29.5 15.1279L28 13.6279L29.5 12.1279Z" fill="#2F5144"/>
<path d="M41.5 12.1279L43 13.6279L41.5 15.1279L40 13.6279L41.5 12.1279Z" fill="#2F5144"/>
<path d="M27.5 14.1279L29 15.6279L27.5 17.1279L26 15.6279L27.5 14.1279Z" fill="#2F5144"/>
<path d="M39.5 14.1279L41 15.6279L39.5 17.1279L38 15.6279L39.5 14.1279Z" fill="#2F5144"/>
<path d="M35.5 14.1279L37 15.6279L35.5 17.1279L34 15.6279L35.5 14.1279Z" fill="#2F5144"/>
<path d="M31.5 14.1279L33 15.6279L31.5 17.1279L30 15.6279L31.5 14.1279Z" fill="#2F5144"/>
<path d="M43.5 14.1279L45 15.6279L43.5 17.1279L42 15.6279L43.5 14.1279Z" fill="#2F5144"/>
</g>
<path d="M23.9976 9.42308L46.6515 9.42308L46.6515 22.5769L46.6515 26.9615L46.6515 35.7308L46.6515 46.5L10.8438 46.5L10.8438 26.9615" stroke="#2F5144" stroke-width="2.2036"/>
<path d="M2 13.1709C2 19.3404 7.00137 24.3417 13.1709 24.3417C16.1091 24.3417 18.7823 23.2074 20.7766 21.3527L22.4403 19.4072C23.6409 17.6261 24.3418 15.4803 24.3418 13.1709C24.3418 7.00137 19.3404 2 13.1709 2C7.00137 2 2 7.00137 2 13.1709Z" stroke="#2F5144" stroke-width="2.2036"/>
<path d="M9 13L13 16L17 10" stroke="#2F5144" stroke-width="2.2036"/>
</svg>
