<svg width="112" height="22" viewBox="0 0 112 22" fill="none" xmlns="http://www.w3.org/2000/svg">
<g clip-path="url(#clip0_51_74401)">
<path d="M27.3359 11.8427C27.3359 14.5378 29.0134 16.3231 31.5808 16.3231C33.789 16.3231 35.4322 14.967 35.6889 12.9929H33.5835C33.3611 13.9199 32.625 14.4348 31.5808 14.4348C30.2458 14.4348 29.4242 13.4391 29.4242 11.8427C29.4242 10.2462 30.3142 9.23344 31.6494 9.23344C32.6421 9.23344 33.3439 9.73125 33.5835 10.6926H35.6718C35.4493 8.64978 33.8746 7.3623 31.5638 7.3623C29.0648 7.3623 27.3359 9.21627 27.3359 11.8427Z" fill="#C0CAC3"/>
<path d="M36.7461 11.8432C36.7461 14.4867 38.646 16.3064 41.2649 16.3064C43.8838 16.3064 45.7838 14.4867 45.7838 11.8432C45.7838 9.19952 43.8838 7.37988 41.2649 7.37988C38.646 7.37988 36.7461 9.19952 36.7461 11.8432ZM38.8343 11.8432C38.8343 10.2981 39.8271 9.25101 41.2649 9.25101C42.7027 9.25101 43.6955 10.2981 43.6955 11.8432C43.6955 13.3881 42.7027 14.4353 41.2649 14.4353C39.8271 14.4353 38.8343 13.3881 38.8343 11.8432Z" fill="#C0CAC3"/>
<path d="M50.9145 16.3226C52.1982 16.3226 53.2936 15.7561 53.8071 14.7775L53.9441 16.0994H55.8612V3.32764H53.7901V8.7007C53.2595 7.85955 52.2154 7.36173 51.0343 7.36173C48.4839 7.36173 46.9434 9.25003 46.9434 11.8937C46.9434 14.5201 48.4667 16.3226 50.9145 16.3226ZM51.3766 14.3999C49.9217 14.3999 49.0316 13.3356 49.0316 11.8249C49.0316 10.3144 49.9217 9.23287 51.3766 9.23287C52.8315 9.23287 53.773 10.2972 53.773 11.8249C53.773 13.3528 52.8315 14.3999 51.3766 14.3999Z" fill="#C0CAC3"/>
<path d="M61.8203 16.3231C64.0283 16.3231 65.5688 15.2073 65.9283 13.3534H63.9941C63.7545 14.1602 63.0012 14.6065 61.8544 14.6065C60.468 14.6065 59.6807 13.8511 59.5266 12.3577L65.894 12.3406V11.7054C65.894 9.06177 64.2851 7.3623 61.7518 7.3623C59.2698 7.3623 57.541 9.1991 57.541 11.8599C57.541 14.4863 59.3041 16.3231 61.8203 16.3231ZM61.7689 9.07893C63.0184 9.07893 63.8229 9.85142 63.8229 11.0187H59.578C59.7833 9.74842 60.5364 9.07893 61.7689 9.07893Z" fill="#C0CAC3"/>
<path d="M76.9096 13.7137V11.7912H75.3862V3.55127H72.6304L66.9648 11.7912V13.7137H73.3151V16.0999H75.3862V13.7137H76.9096ZM69.2927 11.7912L73.3151 5.92022V11.7912H69.2927Z" fill="#C0CAC3"/>
<path d="M83.9371 7.5855C83.5947 7.49966 83.3038 7.46533 83.0128 7.46533C81.8831 7.46533 81.0786 8.03182 80.7191 8.87297L80.5993 7.63699H78.6309V16.1H80.7191V11.9801C80.7191 10.3321 81.6605 9.52529 83.1669 9.52529H83.9371V7.5855Z" fill="#C0CAC3"/>
<path d="M88.8495 16.3231C91.0575 16.3231 92.598 15.2073 92.9576 13.3534H91.0233C90.7837 14.1602 90.0305 14.6065 88.8837 14.6065C87.4972 14.6065 86.7098 13.8511 86.5559 12.3577L92.9233 12.3406V11.7054C92.9233 9.06177 91.3143 7.3623 88.7811 7.3623C86.2991 7.3623 84.5703 9.1991 84.5703 11.8599C84.5703 14.4863 86.3333 16.3231 88.8495 16.3231ZM88.7981 9.07893C90.0477 9.07893 90.8522 9.85142 90.8522 11.0187H86.6072C86.8126 9.74842 87.5657 9.07893 88.7981 9.07893Z" fill="#C0CAC3"/>
<path d="M96.682 16.1V11.5337C96.682 10.1604 97.4694 9.26776 98.7532 9.26776C99.8313 9.26776 100.533 9.95442 100.533 11.3793V16.1H102.621V10.8814C102.621 8.68411 101.527 7.3623 99.404 7.3623C98.2567 7.3623 97.2297 7.86012 96.6991 8.71844L96.528 7.61979H94.5938V16.1H96.682Z" fill="#C0CAC3"/>
<path d="M107.189 16.3231C108.507 16.3231 109.654 15.7223 110.014 14.8468L110.168 16.1H111.999V10.95C111.999 8.59828 110.595 7.3623 108.319 7.3623C106.026 7.3623 104.519 8.56394 104.519 10.4007H106.299C106.299 9.50809 106.984 8.9931 108.216 8.9931C109.277 8.9931 109.962 9.45659 109.962 10.6067V10.7956L107.429 10.9844C105.426 11.1389 104.297 12.1174 104.297 13.6796C104.297 15.276 105.393 16.3231 107.189 16.3231ZM107.874 14.7439C106.932 14.7439 106.419 14.3662 106.419 13.5937C106.419 12.907 106.916 12.4779 108.216 12.3577L109.979 12.2204V12.6667C109.979 13.9713 109.158 14.7439 107.874 14.7439Z" fill="#C0CAC3"/>
<path d="M22.4022 13.0797L21.1533 7.18763C21.1423 7.13529 21.1266 7.08402 21.1064 7.03442C20.929 6.42159 20.6917 6.28888 20.3715 6.03102C20.0754 5.80876 19.948 5.72461 19.948 5.72461C19.948 5.72461 19.1379 7.57821 18.9169 7.75407C16.7502 9.48035 13.1201 12.1701 12.2327 12.6556L12.2164 12.6642C11.9247 12.8406 11.5946 12.9448 11.2539 12.9685V21.8362C12.0115 21.8166 12.7516 21.6048 13.4032 21.2212C14.3831 20.6817 16.9897 18.608 20.0449 16.1502L21.2426 15.1878C22.0385 14.5523 22.4207 13.9212 22.4119 13.2555C22.4144 13.1967 22.411 13.1379 22.4022 13.0797Z" fill="#C0CAC3"/>
<path d="M10.4724 12.7738L3.57073 7.69882C3.51316 7.65114 3.4619 7.59634 3.41817 7.53574C3.41206 7.36919 3.36168 7.20726 3.27218 7.06659C3.18268 6.92592 3.05731 6.81159 2.90892 6.73532L2.95298 5.72461C2.95298 5.72461 2.80901 5.81903 2.48026 6.01752C2.06664 6.26538 1.75615 6.44669 1.54343 7.422L1.38335 8.22028L0.379907 13.2352C0.365941 13.3058 0.359816 13.3778 0.361643 13.4497C0.385279 14.3564 1.16418 14.9916 1.34252 15.1246L9.21322 21.1718C9.80158 21.6121 10.5193 21.8456 11.2545 21.8359V13.011C10.9738 13.0281 10.6961 12.9439 10.4724 12.7738Z" fill="#C0CAC3"/>
<path d="M20.6702 6.10083C20.6565 6.09107 20.6434 6.08056 20.6308 6.06933C20.3837 5.86187 15.5048 2.53385 12.6187 0.568966C12.2367 0.307091 11.7817 0.170567 11.3176 0.178554C10.8535 0.186541 10.4036 0.338638 10.031 0.6135L9.67776 0.878525C9.06531 1.3358 7.9279 2.18193 6.55643 3.15188C4.98373 4.26521 3.5368 5.23407 2.24955 6.00199C1.70272 6.32785 1.19744 7.20872 2.57765 8.28294C2.72311 8.39157 9.984 13.741 9.984 13.741C10.8174 14.3503 11.8038 14.296 12.7827 13.7322C13.7353 13.2098 17.1081 10.7018 19.2354 9.02806L19.7756 8.60119C19.8259 8.561 19.8719 8.5219 19.9156 8.4828C20.8245 7.7366 21.5868 6.72972 20.6702 6.10083Z" fill="#C0CAC3"/>
</g>
<defs>
<clipPath id="clip0_51_74401">
<rect width="111.638" height="21.6582" fill="white" transform="translate(0.361328 0.178223)"/>
</clipPath>
</defs>
</svg>
