<svg xmlns="http://www.w3.org/2000/svg" width="114" height="120" viewBox="0 0 114 120" fill="none">
  <path d="M63.7686 15.9843C65.7961 16.0062 67.8261 16.1729 69.8389 16.4891L70.7334 16.6395C77.8821 17.9221 84.4639 21.029 89.7012 25.5809L90.2041 26.0262C95.3537 30.671 98.909 36.5459 100.458 42.9481L100.602 43.5692C101.056 45.6302 101.295 47.7143 101.325 49.7958H63.7686V15.9843Z" stroke="#254839" stroke-width="0.462121"/>
  <path d="M63.3115 21.7499C58.1447 21.7415 52.9667 22.6375 48.0999 24.4646C40.8365 27.1915 34.6284 31.8092 30.2606 37.734L23.5615 50.1286L23.5615 57.7499L63.3115 57.7499V21.7499Z" fill="#254839" stroke="#254839" stroke-width="0.75"/>
  <mask id="mask0_506_10394" style="mask-type:alpha" maskUnits="userSpaceOnUse" x="23" y="21" width="41" height="38">
    <path d="M63.3115 21.7499C58.1447 21.7415 52.9667 22.6375 48.0999 24.4646C40.8365 27.1915 34.6284 31.8092 30.2606 37.734L23.5615 50.1286L23.5615 57.7499L63.3115 57.7499V21.7499Z" fill="#254839" stroke="#254839" stroke-width="0.75"/>
  </mask>
  <g mask="url(#mask0_506_10394)">
    <g opacity="0.5">
      <path d="M24.3115 25.4999V71.712" stroke="#E4EBE1" stroke-width="0.462121"/>
      <path d="M25.2354 25.4999V67.5529" stroke="#E4EBE1" stroke-width="0.462121"/>
      <path d="M26.1592 27.3485V66.1667" stroke="#E4EBE1" stroke-width="0.462121"/>
      <path d="M27.085 30.5829V64.3177" stroke="#E4EBE1" stroke-width="0.231061"/>
      <path d="M28.0085 33.8182V62.4698" stroke="#E4EBE1" stroke-width="0.231061"/>
      <path d="M28.9326 35.204L28.9326 60.6206" stroke="#E4EBE1" stroke-width="0.231061"/>
      <path d="M32.6299 42.1366L32.6299 60.6214" stroke="#E4EBE1" stroke-width="0.0924242"/>
      <path d="M36.3271 32.4315L36.3271 42.1361" stroke="#E4EBE1" stroke-width="0.462121"/>
      <path d="M29.8564 37.0526L29.8564 60.6208" stroke="#E4EBE1" stroke-width="0.0924242"/>
      <path d="M33.5537 32.8934L33.5537 49.5298" stroke="#E4EBE1" stroke-width="0.462121"/>
      <path d="M37.251 32.4315L37.251 42.1361" stroke="#E4EBE1" stroke-width="0.462121"/>
      <path d="M30.7803 39.8251L30.7803 60.6205" stroke="#E4EBE1" stroke-width="0.0924242"/>
      <path d="M34.4775 33.3553L34.4775 47.219" stroke="#E4EBE1" stroke-width="0.462121"/>
      <path d="M31.7061 41.6737L31.7061 60.6207" stroke="#E4EBE1" stroke-width="0.0924242"/>
      <path d="M35.4033 32.8934L35.4033 44.4465" stroke="#E4EBE1" stroke-width="0.462121"/>
    </g>
  </g>
  <ellipse cx="44.1865" cy="64.1252" rx="3.375" ry="4.125" transform="rotate(-90 44.1865 64.1252)" fill="#254839"/>
  <path d="M48.3115 64.5002H40.0615V57.0002H48.3115V64.5002Z" fill="#254839"/>
  <path d="M63.3118 50.9999H46.0618V53.62C47.397 54.1787 48.3118 55.3146 48.3118 56.6259C48.3116 58.4896 46.4647 60.0007 44.1868 60.0009C41.9087 60.0009 40.0619 58.4897 40.0618 56.6259C40.0618 55.3143 40.9761 54.1776 42.3118 53.619V50.9999H23.5618C23.5618 43.8797 25.9844 36.9533 30.3264 31.0331C34.6685 25.1128 40.8402 20.4981 48.0608 17.7733C54.6705 15.6131 58.5095 15.2407 63.3118 14.9999V50.9999Z" fill="#E4EBE1"/>
  <path d="M63.3118 50.9999V51.3749H63.6868V50.9999H63.3118ZM46.0618 50.9999V50.6249H45.6868V50.9999H46.0618ZM46.0618 53.62H45.6868V53.8696L45.917 53.9659L46.0618 53.62ZM48.3118 56.6259L48.6868 56.6259V56.6259H48.3118ZM44.1868 60.0009V60.3759H44.1868L44.1868 60.0009ZM40.0618 56.6259H39.6868V56.6259L40.0618 56.6259ZM42.3118 53.619L42.4565 53.965L42.6868 53.8687V53.619H42.3118ZM42.3118 50.9999H42.6868V50.6249H42.3118V50.9999ZM23.5618 50.9999H23.1868V51.3749H23.5618V50.9999ZM30.3264 31.0331L30.024 30.8113L30.024 30.8113L30.3264 31.0331ZM48.0608 17.7733L47.9443 17.4169L47.9363 17.4195L47.9284 17.4225L48.0608 17.7733ZM63.3118 14.9999H63.6868V14.6056L63.293 14.6253L63.3118 14.9999ZM63.3118 50.9999V50.6249H46.0618V50.9999V51.3749H63.3118V50.9999ZM46.0618 50.9999H45.6868V53.62H46.0618H46.4368V50.9999H46.0618ZM46.0618 53.62L45.917 53.9659C47.1507 54.4822 47.9368 55.503 47.9368 56.6259H48.3118H48.6868C48.6868 55.1261 47.6433 53.8753 46.2065 53.2741L46.0618 53.62ZM48.3118 56.6259L47.9368 56.6258C47.9366 58.2157 46.3314 59.6257 44.1867 59.6259L44.1868 60.0009L44.1868 60.3759C46.598 60.3757 48.6866 58.7636 48.6868 56.6259L48.3118 56.6259ZM44.1868 60.0009V59.6259C42.042 59.6259 40.4369 58.2158 40.4368 56.6258L40.0618 56.6259L39.6868 56.6259C39.687 58.7636 41.7754 60.3759 44.1868 60.3759V60.0009ZM40.0618 56.6259H40.4368C40.4368 55.5025 41.2226 54.481 42.4565 53.965L42.3118 53.619L42.1671 53.2731C40.7296 53.8743 39.6868 55.126 39.6868 56.6259H40.0618ZM42.3118 53.619H42.6868V50.9999H42.3118H41.9368V53.619H42.3118ZM42.3118 50.9999V50.6249H23.5618V50.9999V51.3749H42.3118V50.9999ZM23.5618 50.9999H23.9368C23.9368 43.966 26.3299 37.1163 30.6288 31.2549L30.3264 31.0331L30.024 30.8113C25.6389 36.7903 23.1868 43.7933 23.1868 50.9999H23.5618ZM30.3264 31.0331L30.6288 31.2549C34.9257 25.3962 41.0369 20.8247 48.1932 18.1242L48.0608 17.7733L47.9284 17.4225C40.6434 20.1715 34.4113 24.8294 30.024 30.8113L30.3264 31.0331ZM48.0608 17.7733L48.1773 18.1298C54.7466 15.9828 58.5509 15.6141 63.3305 15.3744L63.3118 14.9999L63.293 14.6253C58.4681 14.8673 54.5943 15.2435 47.9443 17.4169L48.0608 17.7733ZM63.3118 14.9999H62.9368V50.9999H63.3118H63.6868V14.9999H63.3118Z" fill="#254839"/>
  <path d="M63.3115 14.9999C65.7614 15.013 67.7158 15.2352 70.1416 15.6718C77.658 17.0244 84.5624 20.3629 89.9814 25.2655C95.4005 30.1682 99.0908 36.4146 100.586 43.2147C101.067 45.4031 101.314 47.8102 101.33 50.0204L63.0801 50.2499L63.1738 36.0204H60.3311C59.5946 36.895 58.3405 37.4705 56.917 37.4706C54.6497 37.4706 52.8115 36.01 52.8115 34.2079C52.8116 32.4059 54.6497 30.9452 56.917 30.9452C58.3398 30.9452 59.5935 31.5205 60.3301 32.3944H63.1973L63.3115 14.9999Z" fill="#E4EBE1"/>
  <path d="M63.3115 14.9999L63.3135 14.6249L62.939 14.6229L62.9365 14.9974L63.3115 14.9999ZM70.1416 15.6718L70.208 15.3027L70.208 15.3027L70.1416 15.6718ZM89.9814 25.2655L90.233 24.9874L90.233 24.9874L89.9814 25.2655ZM100.586 43.2147L100.952 43.1342L100.586 43.2147ZM101.33 50.0204L101.332 50.3954L101.708 50.3931L101.705 50.0177L101.33 50.0204ZM63.0801 50.2499L62.7051 50.2474L62.7026 50.6271L63.0823 50.6249L63.0801 50.2499ZM63.1738 36.0204L63.5488 36.0229L63.5513 35.6454H63.1738V36.0204ZM60.3311 36.0204V35.6454H60.1566L60.0442 35.7789L60.3311 36.0204ZM56.917 37.4706V37.8456H56.917L56.917 37.4706ZM52.8115 34.2079L52.4365 34.2079V34.2079H52.8115ZM56.917 30.9452L56.917 30.5702H56.917V30.9452ZM60.3301 32.3944L60.0433 32.6361L60.1557 32.7694H60.3301V32.3944ZM63.1973 32.3944V32.7694H63.5698L63.5723 32.3969L63.1973 32.3944ZM63.3115 14.9999L63.3095 15.3749C65.7332 15.3878 67.6656 15.6072 70.0752 16.0408L70.1416 15.6718L70.208 15.3027C67.766 14.8632 65.7896 14.6381 63.3135 14.6249L63.3115 14.9999ZM70.1416 15.6718L70.0752 16.0408C77.5258 17.3817 84.3653 20.6902 89.7299 25.5436L89.9814 25.2655L90.233 24.9874C84.7596 20.0356 77.7901 16.6672 70.208 15.3027L70.1416 15.6718ZM89.9814 25.2655L89.7299 25.5436C95.0941 30.3967 98.7422 36.5752 100.22 43.2952L100.586 43.2147L100.952 43.1342C99.4395 36.254 95.7068 29.9396 90.233 24.9874L89.9814 25.2655ZM100.586 43.2147L100.22 43.2952C100.695 45.4559 100.939 47.8367 100.955 50.0231L101.33 50.0204L101.705 50.0177C101.689 47.7837 101.439 45.3504 100.952 43.1342L100.586 43.2147ZM101.33 50.0204L101.328 49.6454L63.0778 49.8749L63.0801 50.2499L63.0823 50.6249L101.332 50.3954L101.33 50.0204ZM63.0801 50.2499L63.4551 50.2523L63.5488 36.0229L63.1738 36.0204L62.7988 36.0179L62.7051 50.2474L63.0801 50.2499ZM63.1738 36.0204V35.6454H60.3311V36.0204V36.3954H63.1738V36.0204ZM60.3311 36.0204L60.0442 35.7789C59.388 36.5582 58.2446 37.0955 56.917 37.0956L56.917 37.4706L56.917 37.8456C58.4363 37.8455 59.8013 37.2318 60.6179 36.2619L60.3311 36.0204ZM56.917 37.4706V37.0956C54.7718 37.0956 53.1865 35.7271 53.1865 34.2079H52.8115H52.4365C52.4365 36.2929 54.5275 37.8456 56.917 37.8456V37.4706ZM52.8115 34.2079L53.1865 34.2079C53.1866 32.6887 54.7719 31.3202 56.917 31.3202V30.9452V30.5702C54.5275 30.5702 52.4366 32.123 52.4365 34.2079L52.8115 34.2079ZM56.917 30.9452L56.917 31.3202C58.244 31.3202 59.387 31.8573 60.0433 32.6361L60.3301 32.3944L60.6168 32.1527C59.8001 31.1836 58.4357 30.5702 56.917 30.5702L56.917 30.9452ZM60.3301 32.3944V32.7694H63.1973V32.3944V32.0194H60.3301V32.3944ZM63.1973 32.3944L63.5723 32.3969L63.6865 15.0023L63.3115 14.9999L62.9365 14.9974L62.8223 32.3919L63.1973 32.3944Z" fill="#254839"/>
  <mask id="mask1_506_10394" style="mask-type:alpha" maskUnits="userSpaceOnUse" x="52" y="14" width="50" height="37">
    <path d="M63.3115 14.9999C65.7614 15.013 67.7158 15.2352 70.1416 15.6718C77.658 17.0244 84.5624 20.3629 89.9814 25.2655C95.4005 30.1682 99.0908 36.4145 100.586 43.2147C101.067 45.4031 101.314 47.8102 101.33 50.0204L63.0801 50.2499L63.1738 36.0204H60.3311C59.5946 36.895 58.3405 37.4705 56.917 37.4706C54.6497 37.4706 52.8115 36.01 52.8115 34.2079C52.8116 32.4058 54.6497 30.9452 56.917 30.9452C58.3399 30.9452 59.5935 31.5205 60.3301 32.3944H63.1973L63.3115 14.9999Z" fill="#F1F3ED"/>
    <path d="M63.3115 14.9999L63.3127 14.7749L63.088 14.7737L63.0865 14.9984L63.3115 14.9999ZM70.1416 15.6718L70.1815 15.4503V15.4503L70.1416 15.6718ZM89.9814 25.2655L90.1324 25.0987L89.9814 25.2655ZM100.586 43.2147L100.806 43.1664L100.586 43.2147ZM101.33 50.0204L101.331 50.2454L101.557 50.244L101.555 50.0188L101.33 50.0204ZM63.0801 50.2499L62.8551 50.2484L62.8536 50.4762L63.0814 50.4749L63.0801 50.2499ZM63.1738 36.0204L63.3988 36.0219L63.4003 35.7954H63.1738V36.0204ZM60.3311 36.0204V35.7954H60.2264L60.1589 35.8755L60.3311 36.0204ZM56.917 37.4706V37.6956H56.917L56.917 37.4706ZM52.8115 34.2079L52.5865 34.2079V34.2079H52.8115ZM56.917 30.9452L56.917 30.7202H56.917V30.9452ZM60.3301 32.3944L60.158 32.5394L60.2255 32.6194H60.3301V32.3944ZM63.1973 32.3944V32.6194H63.4208L63.4223 32.3959L63.1973 32.3944ZM63.3115 14.9999L63.3103 15.2249C65.7445 15.2379 67.6856 15.4584 70.1018 15.8932L70.1416 15.6718L70.1815 15.4503C67.7459 15.012 65.7784 14.7881 63.3127 14.7749L63.3115 14.9999ZM70.1416 15.6718L70.1018 15.8932C77.5787 17.2388 84.4441 20.5592 89.8305 25.4324L89.9814 25.2655L90.1324 25.0987C84.6807 20.1665 77.7373 16.8101 70.1815 15.4503L70.1416 15.6718ZM89.9814 25.2655L89.8305 25.4324C95.2167 30.3053 98.8816 36.5109 100.366 43.263L100.586 43.2147L100.806 43.1664C99.3 36.3182 95.5843 30.0311 90.1324 25.0987L89.9814 25.2655ZM100.586 43.2147L100.366 43.263C100.844 45.4348 101.089 47.8261 101.105 50.022L101.33 50.0204L101.555 50.0188C101.539 47.7943 101.291 45.3715 100.806 43.1664L100.586 43.2147ZM101.33 50.0204L101.329 49.7954L63.0787 50.0249L63.0801 50.2499L63.0814 50.4749L101.331 50.2454L101.33 50.0204ZM63.0801 50.2499L63.3051 50.2514L63.3988 36.0219L63.1738 36.0204L62.9488 36.0189L62.8551 50.2484L63.0801 50.2499ZM63.1738 36.0204V35.7954H60.3311V36.0204V36.2454H63.1738V36.0204ZM60.3311 36.0204L60.1589 35.8755C59.4707 36.6929 58.2829 37.2455 56.917 37.2456L56.917 37.4706L56.917 37.6956C58.398 37.6955 59.7186 37.0971 60.5032 36.1653L60.3311 36.0204ZM56.917 37.4706V37.2456C54.7229 37.2456 53.0365 35.8402 53.0365 34.2079H52.8115H52.5865C52.5865 36.1797 54.5764 37.6956 56.917 37.6956V37.4706ZM52.8115 34.2079L53.0365 34.2079C53.0366 32.5756 54.723 31.1702 56.917 31.1702V30.9452V30.7202C54.5764 30.7202 52.5866 32.2361 52.5865 34.2079L52.8115 34.2079ZM56.917 30.9452L56.917 31.1702C58.2823 31.1702 59.4696 31.7226 60.158 32.5394L60.3301 32.3944L60.5021 32.2494C59.7175 31.3183 58.3974 30.7202 56.917 30.7202L56.917 30.9452ZM60.3301 32.3944V32.6194H63.1973V32.3944V32.1694H60.3301V32.3944ZM63.1973 32.3944L63.4223 32.3959L63.5365 15.0014L63.3115 14.9999L63.0865 14.9984L62.9723 32.3929L63.1973 32.3944Z" fill="#254839"/>
  </mask>
  <g mask="url(#mask1_506_10394)">
    <g opacity="0.5">
      <path d="M52.8115 68.9999L52.8115 14.9999" stroke="#254839" stroke-width="0.375"/>
      <path d="M63.3115 69L63.3115 15" stroke="#254839" stroke-width="0.375"/>
      <path d="M73.8115 69L73.8115 15" stroke="#254839" stroke-width="0.375"/>
      <path d="M53.5615 69L53.5615 15" stroke="#254839" stroke-width="0.375"/>
      <path d="M64.0615 69L64.0615 15" stroke="#254839" stroke-width="0.375"/>
      <path d="M74.5615 69L74.5615 15" stroke="#254839" stroke-width="0.375"/>
      <path d="M54.3115 69L54.3115 15" stroke="#254839" stroke-width="0.375"/>
      <path d="M64.8115 69L64.8115 15" stroke="#254839" stroke-width="0.375"/>
      <path d="M75.3115 69L75.3115 15" stroke="#254839" stroke-width="0.375"/>
      <path d="M65.5615 69L65.5615 15" stroke="#254839" stroke-width="0.375"/>
      <path d="M76.0615 69L76.0615 15" stroke="#254839" stroke-width="0.375"/>
      <path d="M87.3115 69L87.3115 15" stroke="#254839" stroke-width="0.375"/>
      <path d="M57.3115 69L57.3115 15" stroke="#254839" stroke-width="0.375"/>
      <path d="M67.8115 69L67.8115 15" stroke="#254839" stroke-width="0.375"/>
      <path d="M78.3115 69L78.3115 15" stroke="#254839" stroke-width="0.375"/>
      <path d="M89.5615 69L89.5615 15" stroke="#254839" stroke-width="0.375"/>
      <path d="M55.0615 69L55.0615 15" stroke="#254839" stroke-width="0.375"/>
      <path d="M76.8115 69L76.8115 15" stroke="#254839" stroke-width="0.375"/>
      <path d="M88.0615 69L88.0615 15" stroke="#254839" stroke-width="0.375"/>
      <path d="M58.8115 69L58.8115 15" stroke="#254839" stroke-width="0.375"/>
      <path d="M69.3115 69L69.3115 15" stroke="#254839" stroke-width="0.375"/>
      <path d="M79.8115 69L79.8115 15" stroke="#254839" stroke-width="0.375"/>
      <path d="M91.0615 69L91.0615 15" stroke="#254839" stroke-width="0.375"/>
      <path d="M84.3115 69L84.3115 15" stroke="#254839" stroke-width="0.375"/>
      <path d="M95.5615 69L95.5615 15" stroke="#254839" stroke-width="0.375"/>
      <path d="M55.8115 69L55.8115 15" stroke="#254839" stroke-width="0.375"/>
      <path d="M66.3115 69L66.3115 15" stroke="#254839" stroke-width="0.375"/>
      <path d="M56.5615 69L56.5615 15" stroke="#254839" stroke-width="0.375"/>
      <path d="M67.0615 69L67.0615 15" stroke="#254839" stroke-width="0.375"/>
      <path d="M77.5615 69L77.5615 15" stroke="#254839" stroke-width="0.375"/>
      <path d="M88.8115 69L88.8115 15" stroke="#254839" stroke-width="0.375"/>
      <path d="M58.0615 69L58.0615 15" stroke="#254839" stroke-width="0.375"/>
      <path d="M68.5615 69L68.5615 15" stroke="#254839" stroke-width="0.375"/>
      <path d="M79.0615 69L79.0615 15" stroke="#254839" stroke-width="0.375"/>
      <path d="M90.3115 69L90.3115 15" stroke="#254839" stroke-width="0.375"/>
      <path d="M59.5615 69L59.5615 15" stroke="#254839" stroke-width="0.375"/>
      <path d="M70.0615 69L70.0615 15" stroke="#254839" stroke-width="0.375"/>
      <path d="M80.5615 69L80.5615 15" stroke="#254839" stroke-width="0.375"/>
      <path d="M91.8115 69L91.8115 15" stroke="#254839" stroke-width="0.375"/>
      <path d="M85.0615 69L85.0615 15" stroke="#254839" stroke-width="0.375"/>
      <path d="M96.3115 69L96.3115 15" stroke="#254839" stroke-width="0.375"/>
      <path d="M60.3115 69L60.3115 15" stroke="#254839" stroke-width="0.375"/>
      <path d="M70.8115 69L70.8115 15" stroke="#254839" stroke-width="0.375"/>
      <path d="M81.3115 69L81.3115 15" stroke="#254839" stroke-width="0.375"/>
      <path d="M92.5615 69L92.5615 15" stroke="#254839" stroke-width="0.375"/>
      <path d="M85.8115 68.5498L85.8115 14.9998" stroke="#254839" stroke-width="0.375"/>
      <path d="M97.0615 68.5498L97.0615 14.9998" stroke="#254839" stroke-width="0.375"/>
      <path d="M61.0615 69L61.0615 15" stroke="#254839" stroke-width="0.375"/>
      <path d="M71.5615 69L71.5615 15" stroke="#254839" stroke-width="0.375"/>
      <path d="M82.0615 69L82.0615 15" stroke="#254839" stroke-width="0.375"/>
      <path d="M93.3115 69L93.3115 15" stroke="#254839" stroke-width="0.375"/>
      <path d="M61.8115 69L61.8115 15" stroke="#254839" stroke-width="0.375"/>
      <path d="M72.3115 69L72.3115 15" stroke="#254839" stroke-width="0.375"/>
      <path d="M82.8115 69L82.8115 15" stroke="#254839" stroke-width="0.375"/>
      <path d="M94.0615 69L94.0615 15" stroke="#254839" stroke-width="0.375"/>
      <path d="M86.5615 69L86.5615 15" stroke="#254839" stroke-width="0.375"/>
      <path d="M97.8115 69L97.8115 15" stroke="#254839" stroke-width="0.375"/>
      <path d="M62.5615 69L62.5615 15" stroke="#254839" stroke-width="0.375"/>
      <path d="M73.0615 69L73.0615 15" stroke="#254839" stroke-width="0.375"/>
      <path d="M83.5615 69L83.5615 15" stroke="#254839" stroke-width="0.375"/>
      <path d="M94.8115 69L94.8115 15" stroke="#254839" stroke-width="0.375"/>
    </g>
    <g opacity="0.5">
      <path d="M98.5615 68.9999L98.5615 14.9999" stroke="#254839" stroke-width="0.375"/>
      <path d="M99.3115 69L99.3115 15" stroke="#254839" stroke-width="0.375"/>
      <path d="M100.062 69L100.062 15" stroke="#254839" stroke-width="0.375"/>
      <path d="M100.812 69L100.812 15" stroke="#254839" stroke-width="0.375"/>
      <path d="M101.562 69L101.562 15" stroke="#254839" stroke-width="0.375"/>
    </g>
  </g>
  <path d="M101.061 51.1077C102.459 57.7776 101.773 64.6737 99.0854 70.9924L98.8169 71.6077C95.8812 78.1499 90.9079 83.7443 84.5239 87.6819C78.2038 91.58 70.7828 93.6792 63.1821 93.7209V51.1077H101.061Z" fill="#254839" stroke="#254839" stroke-width="0.462121"/>
  <mask id="mask2_506_10394" style="mask-type:alpha" maskUnits="userSpaceOnUse" x="62" y="50" width="40" height="44">
    <path d="M100.944 51.2512C102.304 57.8565 101.614 64.6799 98.9526 70.9358L98.6851 71.5491C95.7617 78.0636 90.8093 83.6367 84.4487 87.5598C78.1917 91.4191 70.8502 93.5072 63.3257 93.5745V51.2512H100.944Z" fill="#254839" stroke="#254839" stroke-width="0.75"/>
  </mask>
  <g mask="url(#mask2_506_10394)">
    <g opacity="0.5">
      <path d="M102.001 48.6664V94.8785" stroke="#E4EBE1" stroke-width="0.462121"/>
      <path d="M101.078 48.6665V90.7195" stroke="#E4EBE1" stroke-width="0.462121"/>
      <path d="M100.154 50.5151V89.3333" stroke="#E4EBE1" stroke-width="0.462121"/>
      <path d="M99.2297 53.7495V87.4844" stroke="#E4EBE1" stroke-width="0.231061"/>
      <path d="M98.3042 56.9849V85.6364" stroke="#E4EBE1" stroke-width="0.231061"/>
      <path d="M97.3804 58.3706L97.3804 83.7873" stroke="#E4EBE1" stroke-width="0.231061"/>
      <path d="M93.6831 62.9917L93.6831 81.4765" stroke="#E4EBE1" stroke-width="0.0924242"/>
      <path d="M89.9858 55.5981L89.9858 65.3027" stroke="#E4EBE1" stroke-width="0.462121"/>
      <path d="M96.4563 57.9097L96.4563 81.4778" stroke="#E4EBE1" stroke-width="0.0924242"/>
      <path d="M92.759 56.061L92.759 72.6974" stroke="#E4EBE1" stroke-width="0.462121"/>
      <path d="M89.0618 55.5981L89.0618 65.3027" stroke="#E4EBE1" stroke-width="0.462121"/>
      <path d="M95.5325 60.6821L95.5325 81.4776" stroke="#E4EBE1" stroke-width="0.0924242"/>
      <path d="M91.8352 56.522L91.8352 70.3856" stroke="#E4EBE1" stroke-width="0.462121"/>
      <path d="M94.6067 62.5308L94.6067 81.4777" stroke="#E4EBE1" stroke-width="0.0924242"/>
      <path d="M90.9116 56.061L90.9116 67.6141" stroke="#E4EBE1" stroke-width="0.462121"/>
    </g>
    <g opacity="0.5">
      <path d="M63.6436 60.6812V106.893" stroke="#E4EBE1" stroke-width="0.462121"/>
      <path d="M64.5674 60.6812V102.734" stroke="#E4EBE1" stroke-width="0.462121"/>
      <path d="M65.4912 62.5298V101.348" stroke="#E4EBE1" stroke-width="0.462121"/>
      <path d="M66.417 65.7642V99.499" stroke="#E4EBE1" stroke-width="0.231061"/>
      <path d="M67.3408 68.9995V97.651" stroke="#E4EBE1" stroke-width="0.231061"/>
      <path d="M68.2646 70.3853L68.2646 95.8019" stroke="#E4EBE1" stroke-width="0.231061"/>
      <path d="M71.9619 77.3179L71.9619 95.8027" stroke="#E4EBE1" stroke-width="0.0924242"/>
      <path d="M75.6592 67.6128L75.6592 77.3173" stroke="#E4EBE1" stroke-width="0.462121"/>
      <path d="M69.1885 72.2339L69.1885 95.8021" stroke="#E4EBE1" stroke-width="0.0924242"/>
      <path d="M72.8857 68.0747L72.8857 84.7111" stroke="#E4EBE1" stroke-width="0.462121"/>
      <path d="M76.583 67.6128L76.583 77.3173" stroke="#E4EBE1" stroke-width="0.462121"/>
      <path d="M70.1123 75.0063L70.1123 95.8018" stroke="#E4EBE1" stroke-width="0.0924242"/>
      <path d="M73.8096 68.5366L73.8096 82.4003" stroke="#E4EBE1" stroke-width="0.462121"/>
      <path d="M71.0381 76.855L71.0381 95.8019" stroke="#E4EBE1" stroke-width="0.0924242"/>
      <path d="M74.7354 68.0747L74.7354 79.6277" stroke="#E4EBE1" stroke-width="0.462121"/>
    </g>
  </g>
  <path d="M100.944 51.2512C102.304 57.8565 101.614 64.6799 98.9526 70.9358L98.6851 71.5491C95.7617 78.0636 90.8093 83.6367 84.4487 87.5598C78.1917 91.4191 70.8502 93.5072 63.3257 93.5745V51.2512H100.944Z" stroke="#254839" stroke-width="0.75"/>
  <mask id="path-126-inside-1_506_10394" fill="white">
    <path d="M81.6868 40.5C79.4087 40.5 77.5618 42.011 77.5618 43.875C77.5618 45.1865 78.4764 46.3222 79.8118 46.8809V49.9092H62.9368V86.626H63.3118C71.1105 86.6259 78.3675 84.3506 84.8421 80.3828L85.4456 80.0049C91.6383 76.0557 96.4758 70.5537 99.3704 64.1445L99.557 63.7217C101.44 59.3542 101.969 54.9213 101.937 50.2812L101.935 49.9092H83.5618V46.8799C84.897 46.3211 85.8118 45.1863 85.8118 43.875C85.8118 42.0111 83.965 40.5001 81.6868 40.5Z"/>
  </mask>
  <path d="M81.6868 40.5C79.4087 40.5 77.5618 42.011 77.5618 43.875C77.5618 45.1865 78.4764 46.3222 79.8118 46.8809V49.9092H62.9368V86.626H63.3118C71.1105 86.6259 78.3675 84.3506 84.8421 80.3828L85.4456 80.0049C91.6383 76.0557 96.4758 70.5537 99.3704 64.1445L99.557 63.7217C101.44 59.3542 101.969 54.9213 101.937 50.2812L101.935 49.9092H83.5618V46.8799C84.897 46.3211 85.8118 45.1863 85.8118 43.875C85.8118 42.0111 83.965 40.5001 81.6868 40.5Z" fill="#E4EBE1"/>
  <path d="M81.6868 40.5V39.75H81.6869L81.6868 40.5ZM77.5618 43.875H76.8118H77.5618ZM79.8118 46.8809L80.1013 46.189L80.5618 46.3816V46.8809H79.8118ZM79.8118 49.9092H80.5618V50.6592H79.8118V49.9092ZM62.9368 49.9092H62.1868V49.1592H62.9368V49.9092ZM62.9368 86.626V87.376H62.1868V86.626H62.9368ZM63.3118 86.626L63.3118 87.376H63.3118V86.626ZM84.8421 80.3828L85.2402 81.0185L85.234 81.0223L84.8421 80.3828ZM85.4456 80.0049L85.8489 80.6373L85.8437 80.6405L85.4456 80.0049ZM99.3704 64.1445L100.057 64.4472L100.054 64.4532L99.3704 64.1445ZM99.557 63.7217L100.246 64.0186L100.243 64.0244L99.557 63.7217ZM101.937 50.2812L101.187 50.2865L101.187 50.2852L101.937 50.2812ZM101.935 49.9092V49.1592H102.681L102.685 49.9052L101.935 49.9092ZM83.5618 49.9092V50.6592H82.8118V49.9092H83.5618ZM83.5618 46.8799H82.8118V46.3807L83.2723 46.188L83.5618 46.8799ZM85.8118 43.875H86.5618H85.8118ZM81.6868 40.5V41.25C79.6751 41.25 78.3118 42.559 78.3118 43.875H77.5618H76.8118C76.8118 41.4631 79.1422 39.75 81.6868 39.75V40.5ZM77.5618 43.875H78.3118C78.3118 44.8097 78.9691 45.7153 80.1013 46.189L79.8118 46.8809L79.5224 47.5728C77.9837 46.9291 76.8118 45.5632 76.8118 43.875H77.5618ZM79.8118 46.8809H80.5618V49.9092H79.8118H79.0618V46.8809H79.8118ZM79.8118 49.9092V50.6592H62.9368V49.9092V49.1592H79.8118V49.9092ZM62.9368 49.9092H63.6868V86.626H62.9368H62.1868V49.9092H62.9368ZM62.9368 86.626V85.876H63.3118V86.626V87.376H62.9368V86.626ZM63.3118 86.626L63.3118 85.876C70.9592 85.8759 78.0819 83.646 84.4502 79.7433L84.8421 80.3828L85.234 81.0223C78.653 85.0553 71.2618 87.3759 63.3118 87.376L63.3118 86.626ZM84.8421 80.3828L84.4441 79.7472L85.0476 79.3692L85.4456 80.0049L85.8437 80.6405L85.2402 81.0185L84.8421 80.3828ZM85.4456 80.0049L85.0424 79.3725C91.1184 75.4977 95.8552 70.1055 98.6869 63.8358L99.3704 64.1445L100.054 64.4532C97.0963 71.0018 92.1582 76.6137 85.8489 80.6372L85.4456 80.0049ZM99.3704 64.1445L98.6842 63.8418L98.8707 63.419L99.557 63.7217L100.243 64.0244L100.057 64.4472L99.3704 64.1445ZM99.557 63.7217L98.8682 63.4248C100.696 59.1856 101.219 54.8658 101.187 50.2865L101.937 50.2812L102.687 50.276C102.72 54.9769 102.184 59.5228 100.246 64.0186L99.557 63.7217ZM101.937 50.2812L101.187 50.2852L101.185 49.9131L101.935 49.9092L102.685 49.9052L102.687 50.2773L101.937 50.2812ZM101.935 49.9092V50.6592H83.5618V49.9092V49.1592H101.935V49.9092ZM83.5618 49.9092H82.8118V46.8799H83.5618H84.3118V49.9092H83.5618ZM83.5618 46.8799L83.2723 46.188C84.4046 45.7141 85.0618 44.8092 85.0618 43.875H85.8118H86.5618C86.5618 45.5634 85.3894 46.9281 83.8514 47.5717L83.5618 46.8799ZM85.8118 43.875H85.0618C85.0618 42.559 83.6985 41.25 81.6868 41.25L81.6868 40.5L81.6869 39.75C84.2314 39.7501 86.5618 41.4631 86.5618 43.875H85.8118Z" fill="#254839" mask="url(#path-126-inside-1_506_10394)"/>
  <mask id="path-128-inside-2_506_10394" fill="white">
    <path d="M70.4365 64.5C69.0065 64.5 67.7469 65.0957 67.0068 66H63.3115V69.75H67.0068C67.7469 70.6543 69.0065 71.25 70.4365 71.25C72.7147 71.25 74.5615 69.739 74.5615 67.875C74.5615 66.011 72.7147 64.5 70.4365 64.5Z"/>
  </mask>
  <path d="M70.4365 64.5C69.0065 64.5 67.7469 65.0957 67.0068 66H63.3115V69.75H67.0068C67.7469 70.6543 69.0065 71.25 70.4365 71.25C72.7147 71.25 74.5615 69.739 74.5615 67.875C74.5615 66.011 72.7147 64.5 70.4365 64.5Z" fill="#254839"/>
  <path d="M70.4365 64.5V64.0379V64.5ZM67.0068 66L67.3645 66.2927L67.2258 66.4621H67.0068V66ZM63.3115 66H62.8494V65.5379H63.3115V66ZM63.3115 69.75V70.2121H62.8494V69.75H63.3115ZM67.0068 69.75V69.2879H67.2258L67.3645 69.4573L67.0068 69.75ZM70.4365 71.25V71.7121V71.25ZM74.5615 67.875H75.0236H74.5615ZM70.4365 64.5V64.9621C69.1296 64.9621 68.0074 65.5071 67.3645 66.2927L67.0068 66L66.6492 65.7073C67.4864 64.6843 68.8834 64.0379 70.4365 64.0379V64.5ZM67.0068 66V66.4621H63.3115V66V65.5379H67.0068V66ZM63.3115 66H63.7736V69.75H63.3115H62.8494V66H63.3115ZM63.3115 69.75V69.2879H67.0068V69.75V70.2121H63.3115V69.75ZM67.0068 69.75L67.3645 69.4573C68.0074 70.2429 69.1296 70.7879 70.4365 70.7879V71.25V71.7121C68.8834 71.7121 67.4864 71.0657 66.6492 70.0427L67.0068 69.75ZM70.4365 71.25V70.7879C72.5505 70.7879 74.0994 69.4014 74.0994 67.875H74.5615H75.0236C75.0236 70.0766 72.8789 71.7121 70.4365 71.7121V71.25ZM74.5615 67.875H74.0994C74.0994 66.3486 72.5505 64.9621 70.4365 64.9621V64.5V64.0379C72.8789 64.0379 75.0236 65.6734 75.0236 67.875H74.5615Z" fill="#254839" mask="url(#path-128-inside-2_506_10394)"/>
  <path d="M61.0608 79.0605L61.0608 85.8105L49.0608 85.8105L49.0608 79.0605L61.0608 79.0605Z" fill="#254839"/>
  <path d="M56.9358 88.8105C54.6576 88.8105 52.8108 87.2995 52.8108 85.4355C52.8108 83.5716 54.6576 82.0605 56.9358 82.0605C59.214 82.0605 61.0608 83.5716 61.0608 85.4355C61.0608 87.2995 59.214 88.8105 56.9358 88.8105Z" fill="#254839"/>
  <path d="M40.2817 61.8054L39.5415 78.696L39.5317 78.9304L39.2964 78.9167L26.9214 78.1667L26.7329 78.155L26.7065 77.9675L24.4839 61.8054H13.9614C12.5631 68.4753 13.2491 75.3715 15.937 81.6902L16.2056 82.3054C19.0495 88.6432 23.8053 94.0924 29.9038 98.0066L30.4985 98.3796C36.8187 102.278 44.2396 104.377 51.8403 104.419V61.8054H40.2817Z" fill="#254839" stroke="#254839" stroke-width="0.462121"/>
  <path d="M42.728 61.8054V75.9167H23.1167V61.8054H13.9614C12.5631 68.4753 13.2491 75.3715 15.937 81.6902L16.2056 82.3054C19.0495 88.6432 23.8053 94.0924 29.9038 98.0066L30.4985 98.3796C36.8187 102.278 44.2396 104.377 51.8403 104.419V61.8054H42.728Z" stroke="#254839" stroke-width="0.462121"/>
  <mask id="mask3_506_10394" style="mask-type:alpha" maskUnits="userSpaceOnUse" x="13" y="61" width="40" height="44">
    <path d="M52.0718 104.652C44.3486 104.652 36.7988 102.538 30.3772 98.5768C23.9556 94.6161 18.9505 88.9865 15.995 82.4001C13.0394 75.8136 12.2661 68.5661 13.7729 61.574H52.0718L52.0718 68.6061V104.652Z" fill="#D9D9D9"/>
  </mask>
  <g mask="url(#mask3_506_10394)">
    <g opacity="0.5">
      <path d="M13.0215 59.3641V105.576" stroke="#E4EBE1" stroke-width="0.462121"/>
      <path d="M13.9451 59.3643V101.417" stroke="#E4EBE1" stroke-width="0.462121"/>
      <path d="M14.8691 61.2129V100.031" stroke="#E4EBE1" stroke-width="0.462121"/>
      <path d="M15.793 64.4473V98.1821" stroke="#E4EBE1" stroke-width="0.231061"/>
      <path d="M16.7185 67.6826V96.3341" stroke="#E4EBE1" stroke-width="0.231061"/>
      <path d="M17.6423 69.0684L17.6423 94.485" stroke="#E4EBE1" stroke-width="0.231061"/>
      <path d="M21.3396 73.6895L21.3396 92.1743" stroke="#E4EBE1" stroke-width="0.0924242"/>
      <path d="M25.0369 66.2959L25.0369 76.0004" stroke="#E4EBE1" stroke-width="0.462121"/>
      <path d="M18.5664 68.6074L18.5664 92.1756" stroke="#E4EBE1" stroke-width="0.0924242"/>
      <path d="M22.2637 66.7588L22.2637 83.3952" stroke="#E4EBE1" stroke-width="0.462121"/>
      <path d="M25.9609 66.2959L25.9609 76.0004" stroke="#E4EBE1" stroke-width="0.462121"/>
      <path d="M19.4902 71.3799L19.4902 92.1753" stroke="#E4EBE1" stroke-width="0.0924242"/>
      <path d="M23.1875 67.2197L23.1875 81.0834" stroke="#E4EBE1" stroke-width="0.462121"/>
      <path d="M20.416 73.2285L20.416 92.1755" stroke="#E4EBE1" stroke-width="0.0924242"/>
      <path d="M24.1111 66.7588L24.1111 78.3118" stroke="#E4EBE1" stroke-width="0.462121"/>
    </g>
    <g opacity="0.5">
      <path d="M51.3789 71.3789V117.591" stroke="#E4EBE1" stroke-width="0.462121"/>
      <path d="M50.4551 71.3789V113.432" stroke="#E4EBE1" stroke-width="0.462121"/>
      <path d="M49.5312 73.2275V112.046" stroke="#E4EBE1" stroke-width="0.462121"/>
      <path d="M48.6055 76.4619V110.197" stroke="#E4EBE1" stroke-width="0.231061"/>
      <path d="M47.6816 79.6973V108.349" stroke="#E4EBE1" stroke-width="0.231061"/>
      <path d="M46.7578 81.083L46.7578 106.5" stroke="#E4EBE1" stroke-width="0.231061"/>
      <path d="M43.0605 88.0156L43.0605 106.5" stroke="#E4EBE1" stroke-width="0.0924242"/>
      <path d="M39.3633 78.3105L39.3633 88.0151" stroke="#E4EBE1" stroke-width="0.462121"/>
      <path d="M45.834 82.9316L45.834 106.5" stroke="#E4EBE1" stroke-width="0.0924242"/>
      <path d="M42.1367 78.7725L42.1367 95.4088" stroke="#E4EBE1" stroke-width="0.462121"/>
      <path d="M38.4395 78.3105L38.4395 88.0151" stroke="#E4EBE1" stroke-width="0.462121"/>
      <path d="M44.9102 85.7041L44.9102 106.5" stroke="#E4EBE1" stroke-width="0.0924242"/>
      <path d="M41.2129 79.2344L41.2129 93.098" stroke="#E4EBE1" stroke-width="0.462121"/>
      <path d="M43.9844 87.5527L43.9844 106.5" stroke="#E4EBE1" stroke-width="0.0924242"/>
      <path d="M40.2871 78.7725L40.2871 90.3255" stroke="#E4EBE1" stroke-width="0.462121"/>
    </g>
  </g>
  <mask id="path-165-inside-3_506_10394" fill="white">
    <path d="M13.0237 60.75C12.9902 65.5083 13.991 70.2484 15.9954 74.6865C18.9509 81.2307 23.9556 86.8244 30.3772 90.7598C36.7987 94.695 44.3484 96.7959 52.0715 96.7959V80.5605H53.5061C54.2461 81.4648 55.5058 82.0605 56.9358 82.0605C59.2139 82.0605 61.0608 80.5495 61.0608 78.6855C61.0608 76.8216 59.2139 75.3106 56.9358 75.3105C55.5058 75.3105 54.2461 75.9063 53.5061 76.8105H52.0715V60.75H34.8108V65.1797C36.1461 65.7384 37.0608 66.8742 37.0608 68.1855C37.0608 70.0495 35.2139 71.5605 32.9358 71.5605C30.6576 71.5605 28.8108 70.0495 28.8108 68.1855C28.8108 66.8741 29.7254 65.7384 31.0608 65.1797V60.75H13.0237Z"/>
  </mask>
  <path d="M13.0237 60.75C12.9902 65.5083 13.991 70.2484 15.9954 74.6865C18.9509 81.2307 23.9556 86.8244 30.3772 90.7598C36.7987 94.695 44.3484 96.7959 52.0715 96.7959V80.5605H53.5061C54.2461 81.4648 55.5058 82.0605 56.9358 82.0605C59.2139 82.0605 61.0608 80.5495 61.0608 78.6855C61.0608 76.8216 59.2139 75.3106 56.9358 75.3105C55.5058 75.3105 54.2461 75.9063 53.5061 76.8105H52.0715V60.75H34.8108V65.1797C36.1461 65.7384 37.0608 66.8742 37.0608 68.1855C37.0608 70.0495 35.2139 71.5605 32.9358 71.5605C30.6576 71.5605 28.8108 70.0495 28.8108 68.1855C28.8108 66.8741 29.7254 65.7384 31.0608 65.1797V60.75H13.0237Z" fill="#E4EBE1"/>
  <path d="M13.0237 60.75L12.2737 60.7447L12.2789 60H13.0237V60.75ZM15.9954 74.6865L15.3118 74.9952V74.9952L15.9954 74.6865ZM30.3772 90.7598L29.9853 91.3992L29.9853 91.3992L30.3772 90.7598ZM52.0715 96.7959H52.8215V97.5459L52.0715 97.5459L52.0715 96.7959ZM52.0715 80.5605H51.3215V79.8105H52.0715V80.5605ZM53.5061 80.5605V79.8105H53.8615L54.0865 80.0856L53.5061 80.5605ZM56.9358 82.0605L56.9358 82.8105H56.9358V82.0605ZM61.0608 78.6855H61.8108H61.0608ZM56.9358 75.3105V74.5605H56.9358L56.9358 75.3105ZM53.5061 76.8105L54.0865 77.2855L53.8615 77.5605H53.5061V76.8105ZM52.0715 76.8105V77.5605H51.3215V76.8105H52.0715ZM52.0715 60.75V60H52.8215V60.75H52.0715ZM34.8108 60.75H34.0608V60H34.8108V60.75ZM34.8108 65.1797L34.5213 65.8716L34.0608 65.6789V65.1797H34.8108ZM37.0608 68.1855H37.8108H37.0608ZM32.9358 71.5605L32.9358 72.3105H32.9358V71.5605ZM28.8108 68.1855H28.0608H28.8108ZM31.0608 65.1797H31.8108V65.6789L31.3502 65.8716L31.0608 65.1797ZM31.0608 60.75V60H31.8108V60.75H31.0608ZM13.0237 60.75L13.7737 60.7553C13.741 65.4043 14.7186 70.0374 16.6789 74.3778L15.9954 74.6865L15.3118 74.9952C13.2633 70.4594 12.2395 65.6123 12.2737 60.7447L13.0237 60.75ZM15.9954 74.6865L16.6789 74.3778C19.5695 80.7781 24.4691 86.2595 30.7691 90.1203L30.3772 90.7598L29.9853 91.3992C23.4422 87.3894 18.3324 81.6833 15.3118 74.9952L15.9954 74.6865ZM30.3772 90.7598L30.7691 90.1203C37.0696 93.9814 44.4831 96.0459 52.0715 96.0459L52.0715 96.7959L52.0715 97.5459C44.2138 97.5459 36.5279 95.4087 29.9853 91.3992L30.3772 90.7598ZM52.0715 96.7959H51.3215V80.5605H52.0715H52.8215V96.7959H52.0715ZM52.0715 80.5605V79.8105H53.5061V80.5605V81.3105H52.0715V80.5605ZM53.5061 80.5605L54.0865 80.0856C54.6689 80.7972 55.7056 81.3105 56.9358 81.3105V82.0605V82.8105C55.306 82.8105 53.8234 82.1325 52.9257 81.0355L53.5061 80.5605ZM56.9358 82.0605L56.9358 81.3105C58.9475 81.3105 60.3108 80.0016 60.3108 78.6855H61.0608H61.8108C61.8108 81.0974 59.4804 82.8105 56.9358 82.8105L56.9358 82.0605ZM61.0608 78.6855H60.3108C60.3108 77.3695 58.9475 76.0606 56.9358 76.0605L56.9358 75.3105L56.9358 74.5605C59.4804 74.5606 61.8108 76.2737 61.8108 78.6855H61.0608ZM56.9358 75.3105V76.0605C55.7056 76.0605 54.6689 76.5739 54.0865 77.2855L53.5061 76.8105L52.9257 76.3356C53.8234 75.2386 55.306 74.5605 56.9358 74.5605V75.3105ZM53.5061 76.8105V77.5605H52.0715V76.8105V76.0605H53.5061V76.8105ZM52.0715 76.8105H51.3215V60.75H52.0715H52.8215V76.8105H52.0715ZM52.0715 60.75V61.5H34.8108V60.75V60H52.0715V60.75ZM34.8108 60.75H35.5608V65.1797H34.8108H34.0608V60.75H34.8108ZM34.8108 65.1797L35.1003 64.4878C36.6388 65.1315 37.8108 66.4974 37.8108 68.1855H37.0608H36.3108C36.3108 67.251 35.6535 66.3453 34.5213 65.8716L34.8108 65.1797ZM37.0608 68.1855H37.8108C37.8108 70.5974 35.4804 72.3105 32.9358 72.3105L32.9358 71.5605L32.9358 70.8105C34.9475 70.8105 36.3108 69.5015 36.3108 68.1855H37.0608ZM32.9358 71.5605V72.3105C30.3911 72.3105 28.0608 70.5974 28.0608 68.1855H28.8108H29.5608C29.5608 69.5016 30.9241 70.8105 32.9358 70.8105V71.5605ZM28.8108 68.1855H28.0608C28.0608 66.4973 29.2327 65.1315 30.7713 64.4878L31.0608 65.1797L31.3502 65.8716C30.2181 66.3452 29.5608 67.2509 29.5608 68.1855H28.8108ZM31.0608 65.1797H30.3108V60.75H31.0608H31.8108V65.1797H31.0608ZM31.0608 60.75V61.5H13.0237V60.75V60H31.0608V60.75Z" fill="#254839" mask="url(#path-165-inside-3_506_10394)"/>
  <mask id="mask4_506_10394" style="mask-type:alpha" maskUnits="userSpaceOnUse" x="13" y="60" width="49" height="37">
    <mask id="path-167-inside-4_506_10394" fill="white">
      <path d="M13.0237 60.75C12.9902 65.5083 13.991 70.2484 15.9954 74.6865C18.9509 81.2307 23.9556 86.8244 30.3772 90.7598C36.7987 94.695 44.3484 96.7959 52.0715 96.7959V80.5605H53.5061C54.2461 81.4648 55.5058 82.0605 56.9358 82.0605C59.2139 82.0605 61.0608 80.5495 61.0608 78.6855C61.0608 76.8216 59.2139 75.3106 56.9358 75.3105C55.5058 75.3105 54.2461 75.9063 53.5061 76.8105H52.0715V60.75H34.8108V65.1797C36.1461 65.7384 37.0608 66.8742 37.0608 68.1855C37.0608 70.0495 35.2139 71.5605 32.9358 71.5605C30.6576 71.5605 28.8108 70.0495 28.8108 68.1855C28.8108 66.8741 29.7254 65.7384 31.0608 65.1797V60.75H13.0237Z"/>
    </mask>
    <path d="M13.0237 60.75C12.9902 65.5083 13.991 70.2484 15.9954 74.6865C18.9509 81.2307 23.9556 86.8244 30.3772 90.7598C36.7987 94.695 44.3484 96.7959 52.0715 96.7959V80.5605H53.5061C54.2461 81.4648 55.5058 82.0605 56.9358 82.0605C59.2139 82.0605 61.0608 80.5495 61.0608 78.6855C61.0608 76.8216 59.2139 75.3106 56.9358 75.3105C55.5058 75.3105 54.2461 75.9063 53.5061 76.8105H52.0715V60.75H34.8108V65.1797C36.1461 65.7384 37.0608 66.8742 37.0608 68.1855C37.0608 70.0495 35.2139 71.5605 32.9358 71.5605C30.6576 71.5605 28.8108 70.0495 28.8108 68.1855C28.8108 66.8741 29.7254 65.7384 31.0608 65.1797V60.75H13.0237Z" fill="#E4EBE1"/>
    <path d="M13.0237 60.75L12.2737 60.7447L12.2789 60H13.0237V60.75ZM15.9954 74.6865L15.3118 74.9952V74.9952L15.9954 74.6865ZM30.3772 90.7598L29.9853 91.3992L29.9853 91.3992L30.3772 90.7598ZM52.0715 96.7959H52.8215V97.5459L52.0715 97.5459L52.0715 96.7959ZM52.0715 80.5605H51.3215V79.8105H52.0715V80.5605ZM53.5061 80.5605V79.8105H53.8615L54.0865 80.0856L53.5061 80.5605ZM56.9358 82.0605L56.9358 82.8105H56.9358V82.0605ZM61.0608 78.6855H61.8108H61.0608ZM56.9358 75.3105V74.5605H56.9358L56.9358 75.3105ZM53.5061 76.8105L54.0865 77.2855L53.8615 77.5605H53.5061V76.8105ZM52.0715 76.8105V77.5605H51.3215V76.8105H52.0715ZM52.0715 60.75V60H52.8215V60.75H52.0715ZM34.8108 60.75H34.0608V60H34.8108V60.75ZM34.8108 65.1797L34.5213 65.8716L34.0608 65.6789V65.1797H34.8108ZM37.0608 68.1855H37.8108H37.0608ZM32.9358 71.5605L32.9358 72.3105H32.9358V71.5605ZM28.8108 68.1855H28.0608H28.8108ZM31.0608 65.1797H31.8108V65.6789L31.3502 65.8716L31.0608 65.1797ZM31.0608 60.75V60H31.8108V60.75H31.0608ZM13.0237 60.75L13.7737 60.7553C13.741 65.4043 14.7186 70.0374 16.6789 74.3778L15.9954 74.6865L15.3118 74.9952C13.2633 70.4594 12.2395 65.6123 12.2737 60.7447L13.0237 60.75ZM15.9954 74.6865L16.6789 74.3778C19.5695 80.7781 24.4691 86.2595 30.7691 90.1203L30.3772 90.7598L29.9853 91.3992C23.4422 87.3894 18.3324 81.6833 15.3118 74.9952L15.9954 74.6865ZM30.3772 90.7598L30.7691 90.1203C37.0696 93.9814 44.4831 96.0459 52.0715 96.0459L52.0715 96.7959L52.0715 97.5459C44.2138 97.5459 36.5279 95.4087 29.9853 91.3992L30.3772 90.7598ZM52.0715 96.7959H51.3215V80.5605H52.0715H52.8215V96.7959H52.0715ZM52.0715 80.5605V79.8105H53.5061V80.5605V81.3105H52.0715V80.5605ZM53.5061 80.5605L54.0865 80.0856C54.6689 80.7972 55.7056 81.3105 56.9358 81.3105V82.0605V82.8105C55.306 82.8105 53.8234 82.1325 52.9257 81.0355L53.5061 80.5605ZM56.9358 82.0605L56.9358 81.3105C58.9475 81.3105 60.3108 80.0016 60.3108 78.6855H61.0608H61.8108C61.8108 81.0974 59.4804 82.8105 56.9358 82.8105L56.9358 82.0605ZM61.0608 78.6855H60.3108C60.3108 77.3695 58.9475 76.0606 56.9358 76.0605L56.9358 75.3105L56.9358 74.5605C59.4804 74.5606 61.8108 76.2737 61.8108 78.6855H61.0608ZM56.9358 75.3105V76.0605C55.7056 76.0605 54.6689 76.5739 54.0865 77.2855L53.5061 76.8105L52.9257 76.3356C53.8234 75.2386 55.306 74.5605 56.9358 74.5605V75.3105ZM53.5061 76.8105V77.5605H52.0715V76.8105V76.0605H53.5061V76.8105ZM52.0715 76.8105H51.3215V60.75H52.0715H52.8215V76.8105H52.0715ZM52.0715 60.75V61.5H34.8108V60.75V60H52.0715V60.75ZM34.8108 60.75H35.5608V65.1797H34.8108H34.0608V60.75H34.8108ZM34.8108 65.1797L35.1003 64.4878C36.6388 65.1315 37.8108 66.4974 37.8108 68.1855H37.0608H36.3108C36.3108 67.251 35.6535 66.3453 34.5213 65.8716L34.8108 65.1797ZM37.0608 68.1855H37.8108C37.8108 70.5974 35.4804 72.3105 32.9358 72.3105L32.9358 71.5605L32.9358 70.8105C34.9475 70.8105 36.3108 69.5015 36.3108 68.1855H37.0608ZM32.9358 71.5605V72.3105C30.3911 72.3105 28.0608 70.5974 28.0608 68.1855H28.8108H29.5608C29.5608 69.5016 30.9241 70.8105 32.9358 70.8105V71.5605ZM28.8108 68.1855H28.0608C28.0608 66.4973 29.2327 65.1315 30.7713 64.4878L31.0608 65.1797L31.3502 65.8716C30.2181 66.3452 29.5608 67.2509 29.5608 68.1855H28.8108ZM31.0608 65.1797H30.3108V60.75H31.0608H31.8108V65.1797H31.0608ZM31.0608 60.75V61.5H13.0237V60.75V60H31.0608V60.75Z" fill="#254839" mask="url(#path-167-inside-4_506_10394)"/>
  </mask>
  <g mask="url(#mask4_506_10394)">
    <g opacity="0.5">
      <path d="M-24.4385 60.75L65.5615 60.75" stroke="#254839" stroke-width="0.375"/>
      <path d="M-24.4385 71.25L65.5615 71.25" stroke="#254839" stroke-width="0.375"/>
      <path d="M-24.4385 81.75L65.5615 81.75" stroke="#254839" stroke-width="0.375"/>
      <path d="M-24.4385 61.5L65.5615 61.5" stroke="#254839" stroke-width="0.375"/>
      <path d="M-24.4385 72L65.5615 72" stroke="#254839" stroke-width="0.375"/>
      <path d="M-24.4385 82.5L65.5615 82.5" stroke="#254839" stroke-width="0.375"/>
      <path d="M-24.4385 62.25L65.5615 62.25" stroke="#254839" stroke-width="0.375"/>
      <path d="M-24.4385 72.75L65.5615 72.75" stroke="#254839" stroke-width="0.375"/>
      <path d="M-24.4385 83.25L65.5615 83.25" stroke="#254839" stroke-width="0.375"/>
      <path d="M22.8115 60.75L112.812 60.75" stroke="#254839" stroke-width="0.375"/>
      <path d="M-24.4385 73.5L65.5615 73.5" stroke="#254839" stroke-width="0.375"/>
      <path d="M-24.4385 84L65.5615 84" stroke="#254839" stroke-width="0.375"/>
      <path d="M-25.1885 95.25L64.8115 95.25" stroke="#254839" stroke-width="0.375"/>
      <path d="M-24.4385 65.25L65.5615 65.25" stroke="#254839" stroke-width="0.375"/>
      <path d="M-24.4385 75.75L65.5615 75.75" stroke="#254839" stroke-width="0.375"/>
      <path d="M-24.4385 86.25L65.5615 86.25" stroke="#254839" stroke-width="0.375"/>
      <path d="M-24.4385 63L65.5615 63" stroke="#254839" stroke-width="0.375"/>
      <path d="M22.8115 61.5L112.812 61.5" stroke="#254839" stroke-width="0.375"/>
      <path d="M-24.4385 84.75L65.5615 84.75" stroke="#254839" stroke-width="0.375"/>
      <path d="M-25.1885 96L64.8115 96" stroke="#254839" stroke-width="0.375"/>
      <path d="M-24.4385 66.75L65.5615 66.75" stroke="#254839" stroke-width="0.375"/>
      <path d="M-24.4385 77.25L65.5615 77.25" stroke="#254839" stroke-width="0.375"/>
      <path d="M-24.4385 87.75L65.5615 87.75" stroke="#254839" stroke-width="0.375"/>
      <path d="M-24.4385 92.25L65.5615 92.25" stroke="#254839" stroke-width="0.375"/>
      <path d="M22.8115 67.5L112.812 67.5" stroke="#254839" stroke-width="0.375"/>
      <path d="M-24.4385 63.75L65.5615 63.75" stroke="#254839" stroke-width="0.375"/>
      <path d="M-24.4385 74.25L65.5615 74.25" stroke="#254839" stroke-width="0.375"/>
      <path d="M22.8115 62.25L112.812 62.25" stroke="#254839" stroke-width="0.375"/>
      <path d="M-24.4385 64.5L65.5615 64.5" stroke="#254839" stroke-width="0.375"/>
      <path d="M-24.4385 75L65.5615 75" stroke="#254839" stroke-width="0.375"/>
      <path d="M-24.4385 85.5L65.5615 85.5" stroke="#254839" stroke-width="0.375"/>
      <path d="M-25.1885 96.75L64.8115 96.75" stroke="#254839" stroke-width="0.375"/>
      <path d="M-24.4385 66L65.5615 66" stroke="#254839" stroke-width="0.375"/>
      <path d="M-24.4385 76.5L65.5615 76.5" stroke="#254839" stroke-width="0.375"/>
      <path d="M-24.4385 87L65.5615 87" stroke="#254839" stroke-width="0.375"/>
      <path d="M-24.4385 67.5L65.5615 67.5" stroke="#254839" stroke-width="0.375"/>
      <path d="M-24.4385 78L65.5615 78" stroke="#254839" stroke-width="0.375"/>
      <path d="M-24.4385 88.5L65.5615 88.5" stroke="#254839" stroke-width="0.375"/>
      <path d="M-24.4385 93L65.5615 93" stroke="#254839" stroke-width="0.375"/>
      <path d="M22.8115 68.25L112.812 68.25" stroke="#254839" stroke-width="0.375"/>
      <path d="M-24.4385 68.25L65.5615 68.25" stroke="#254839" stroke-width="0.375"/>
      <path d="M-24.4385 78.75L65.5615 78.75" stroke="#254839" stroke-width="0.375"/>
      <path d="M-24.4385 89.25L65.5615 89.25" stroke="#254839" stroke-width="0.375"/>
      <path d="M22.8115 65.25L112.812 65.25" stroke="#254839" stroke-width="0.375"/>
      <path d="M-23.6885 93.75L64.0615 93.75" stroke="#254839" stroke-width="0.375"/>
      <path d="M22.8115 69L112.812 69" stroke="#254839" stroke-width="0.375"/>
      <path d="M-24.4385 69L65.5615 69" stroke="#254839" stroke-width="0.375"/>
      <path d="M-24.4385 79.5L65.5615 79.5" stroke="#254839" stroke-width="0.375"/>
      <path d="M-24.4385 90L65.5615 90" stroke="#254839" stroke-width="0.375"/>
      <path d="M22.8115 66L112.812 66" stroke="#254839" stroke-width="0.375"/>
      <path d="M22.8115 63L112.812 63" stroke="#254839" stroke-width="0.375"/>
      <path d="M22.8115 69.75L112.812 69.75" stroke="#254839" stroke-width="0.375"/>
      <path d="M-24.4385 69.75L65.5615 69.75" stroke="#254839" stroke-width="0.375"/>
      <path d="M-24.4385 80.25L65.5615 80.25" stroke="#254839" stroke-width="0.375"/>
      <path d="M-24.4385 90.75L65.5615 90.75" stroke="#254839" stroke-width="0.375"/>
      <path d="M-24.4385 94.5L65.5615 94.5" stroke="#254839" stroke-width="0.375"/>
      <path d="M22.8115 70.5L112.812 70.5" stroke="#254839" stroke-width="0.375"/>
      <path d="M-24.4385 70.5L65.5615 70.5" stroke="#254839" stroke-width="0.375"/>
      <path d="M-24.4385 81L65.5615 81" stroke="#254839" stroke-width="0.375"/>
      <path d="M-24.4385 91.5L65.5615 91.5" stroke="#254839" stroke-width="0.375"/>
      <path d="M22.8115 66.75L112.812 66.75" stroke="#254839" stroke-width="0.375"/>
      <path d="M22.8115 64.5L112.812 64.5" stroke="#254839" stroke-width="0.375"/>
      <path d="M22.8115 71.25L112.812 71.25" stroke="#254839" stroke-width="0.375"/>
    </g>
  </g>
  <path d="M22.8115 61.5C22.8115 75.5833 35.7393 87 51.6865 87" stroke="#254839" stroke-width="0.75"/>
  <path d="M34.8115 50.25C34.8115 36.1667 47.7393 24.75 63.6865 24.75C79.6337 24.75 92.5615 36.1667 92.5615 50.25C92.5615 64.3333 79.6337 75.75 63.6865 75.75" stroke="#254839" stroke-width="0.75"/>
  <path d="M34.8115 51.75C34.8115 37.6667 47.7393 26.25 63.6865 26.25C79.6337 26.25 92.5615 37.6667 92.5615 51.75" stroke="#254839" stroke-width="0.75"/>
</svg>