<svg width="246" height="264" viewBox="0 0 246 264" fill="none" xmlns="http://www.w3.org/2000/svg">
<mask id="mask0_92_474112" style="mask-type:alpha" maskUnits="userSpaceOnUse" x="97" y="134" width="105" height="76">
<ellipse cx="52.5" cy="37.5" rx="52.5" ry="37.5" transform="matrix(-1 0 0 1 202 134.377)" fill="#C6DECD"/>
</mask>
<g mask="url(#mask0_92_474112)">
<path d="M181.166 144.463H76.1946" stroke="#254839"/>
<path d="M181.166 134.92H76.1946" stroke="#254839"/>
<path d="M181.166 137.306H76.1946" stroke="#254839"/>
<path d="M181.166 139.691H76.1946" stroke="#254839"/>
<path d="M181.166 142.077H76.1946" stroke="#254839"/>
<path d="M181.166 165.934H76.1946" stroke="#254839"/>
<path d="M181.166 146.848H76.1946" stroke="#254839"/>
<path d="M181.166 149.233H76.1946" stroke="#254839"/>
<path d="M181.166 151.619H76.1946" stroke="#254839"/>
<path d="M181.166 154.005H76.1946" stroke="#254839"/>
<path d="M181.166 156.391H76.1946" stroke="#254839"/>
<path d="M181.166 158.776H76.1946" stroke="#254839"/>
<path d="M181.166 161.162H76.1946" stroke="#254839"/>
<path d="M181.166 163.548H76.1946" stroke="#254839"/>
<path d="M181.166 187.404H76.1946" stroke="#254839"/>
<path d="M181.166 168.318H76.1946" stroke="#254839"/>
<path d="M181.166 170.704H76.1946" stroke="#254839"/>
<path d="M181.166 173.09H76.1946" stroke="#254839"/>
<path d="M181.166 175.476H76.1946" stroke="#254839"/>
<path d="M181.166 177.861H76.1946" stroke="#254839"/>
<path d="M181.166 180.247H76.1946" stroke="#254839"/>
<path d="M181.166 182.633H76.1946" stroke="#254839"/>
<path d="M181.166 185.019H76.1946" stroke="#254839"/>
<path d="M181.166 208.463H76.1946" stroke="#254839"/>
<path d="M181.166 189.377H76.1946" stroke="#254839"/>
<path d="M181.166 191.763H76.1946" stroke="#254839"/>
<path d="M181.166 194.148H76.1946" stroke="#254839"/>
<path d="M181.166 196.534H76.1946" stroke="#254839"/>
<path d="M181.166 198.92H76.1946" stroke="#254839"/>
<path d="M181.166 201.306H76.1946" stroke="#254839"/>
<path d="M181.166 203.691H76.1946" stroke="#254839"/>
<path d="M181.166 206.077H76.1946" stroke="#254839"/>
<path d="M181.166 133.934H76.1946" stroke="#254839"/>
<path d="M181.166 155.404H76.1946" stroke="#254839"/>
<path d="M181.166 136.318H76.1946" stroke="#254839"/>
<path d="M181.166 138.704H76.1946" stroke="#254839"/>
<path d="M181.166 141.09H76.1946" stroke="#254839"/>
<path d="M181.166 143.476H76.1946" stroke="#254839"/>
<path d="M181.166 145.861H76.1946" stroke="#254839"/>
<path d="M181.166 148.247H76.1946" stroke="#254839"/>
<path d="M181.166 150.633H76.1946" stroke="#254839"/>
<path d="M181.166 153.019H76.1946" stroke="#254839"/>
<path d="M181.166 176.463H76.1946" stroke="#254839"/>
<path d="M181.166 157.377H76.1946" stroke="#254839"/>
<path d="M181.166 159.763H76.1946" stroke="#254839"/>
<path d="M181.166 162.148H76.1946" stroke="#254839"/>
<path d="M181.166 164.534H76.1946" stroke="#254839"/>
<path d="M181.166 166.92H76.1946" stroke="#254839"/>
<path d="M181.166 169.306H76.1946" stroke="#254839"/>
<path d="M181.166 171.691H76.1946" stroke="#254839"/>
<path d="M181.166 174.077H76.1946" stroke="#254839"/>
</g>
<path d="M122 139.377V138.877H122.5L206.5 138.877V123.001L192.334 96.3076C183.109 83.5763 170.001 73.6476 154.658 67.7814C139.304 61.9108 122.407 60.3743 106.105 63.3675C89.8033 66.3607 74.834 73.7481 63.0886 84.59C51.3436 95.4316 43.3503 109.24 40.1124 124.265C36.8746 139.291 38.5359 154.865 44.8884 169.022C51.241 183.179 62.002 195.285 75.8168 203.806C89.4934 212.241 105.552 216.785 122 216.876V139.377Z" fill="#254839" stroke="#254839"/>
<mask id="mask1_92_474112" style="mask-type:alpha" maskUnits="userSpaceOnUse" x="38" y="61" width="169" height="157">
<path d="M122 139.377V138.877H122.5L206.5 138.877V123.001L192.334 96.3076C183.109 83.5763 170.001 73.6476 154.658 67.7814C139.304 61.9108 122.407 60.3743 106.105 63.3675C89.8033 66.3607 74.834 73.7481 63.0886 84.59C51.3436 95.4316 43.3503 109.24 40.1124 124.265C36.8746 139.291 38.5359 154.865 44.8884 169.022C51.241 183.179 62.002 195.285 75.8168 203.806C89.4934 212.241 105.552 216.785 122 216.876V139.377Z" fill="#254839" stroke="#254839"/>
</mask>
<g mask="url(#mask1_92_474112)">
<path d="M38 119.377V219.377" stroke="#E4EBE1"/>
<path d="M40 119.377V210.377" stroke="#E4EBE1"/>
<path d="M42 123.377V207.377" stroke="#E4EBE1"/>
<path d="M44 130.377V203.377" stroke="#E4EBE1" stroke-width="0.5"/>
<path d="M46 137.377V199.377" stroke="#E4EBE1" stroke-width="0.5"/>
<path d="M48 140.377L48 195.377" stroke="#E4EBE1" stroke-width="0.5"/>
<path d="M56 150.377L56 190.377" stroke="#E4EBE1" stroke-width="0.2"/>
<path d="M64 134.377L64 155.377" stroke="#E4EBE1"/>
<path d="M50 139.377L50 190.377" stroke="#E4EBE1" stroke-width="0.2"/>
<path d="M58 135.377L58 171.377" stroke="#E4EBE1"/>
<path d="M66 134.377L66 155.377" stroke="#E4EBE1"/>
<path d="M52 145.377L52 190.377" stroke="#E4EBE1" stroke-width="0.2"/>
<path d="M60 136.377L60 166.377" stroke="#E4EBE1"/>
<path d="M54 149.377L54 190.377" stroke="#E4EBE1" stroke-width="0.2"/>
<path d="M62 135.377L62 160.377" stroke="#E4EBE1"/>
<path d="M121 145.377V245.377" stroke="#E4EBE1"/>
<path d="M119 145.377V236.377" stroke="#E4EBE1"/>
<path d="M117 149.377V233.377" stroke="#E4EBE1"/>
<path d="M115 156.377V229.377" stroke="#E4EBE1" stroke-width="0.5"/>
<path d="M113 163.377V225.377" stroke="#E4EBE1" stroke-width="0.5"/>
<path d="M111 166.377L111 221.377" stroke="#E4EBE1" stroke-width="0.5"/>
<path d="M103 181.377L103 221.377" stroke="#E4EBE1" stroke-width="0.2"/>
<path d="M95 160.377L95 181.377" stroke="#E4EBE1"/>
<path d="M109 170.377L109 221.377" stroke="#E4EBE1" stroke-width="0.2"/>
<path d="M101 161.377L101 197.377" stroke="#E4EBE1"/>
<path d="M93 160.377L93 181.377" stroke="#E4EBE1"/>
<path d="M107 176.377L107 221.377" stroke="#E4EBE1" stroke-width="0.2"/>
<path d="M99 162.377L99 192.377" stroke="#E4EBE1"/>
<path d="M105 180.377L105 221.377" stroke="#E4EBE1" stroke-width="0.2"/>
<path d="M97 161.377L97 186.377" stroke="#E4EBE1"/>
</g>
<path d="M122 139.377V138.877H122.5L206.5 138.877V123.001L192.334 96.3076C183.109 83.5763 170.001 73.6476 154.658 67.7814C139.304 61.9108 122.407 60.3743 106.105 63.3675C89.8033 66.3607 74.834 73.7481 63.0886 84.59C51.3436 95.4316 43.3503 109.24 40.1124 124.265C36.8746 139.291 38.5359 154.865 44.8884 169.022C51.241 183.179 62.002 195.285 75.8168 203.806C89.4934 212.241 105.552 216.785 122 216.876V139.377Z" stroke="#254839"/>
<path d="M122 122.877V122.377H122.5L206.498 122.377C206.392 107.332 201.479 92.6379 192.355 80.1147C183.13 67.4521 170.013 57.5767 154.659 51.7437C139.305 45.9106 122.407 44.3838 106.105 47.358C89.8021 50.3321 74.8327 57.6724 63.0874 68.4447C51.3426 79.2166 43.3499 92.9353 40.1123 107.863C36.8748 122.791 38.5359 138.264 44.8879 152.329C51.2401 166.394 62.0007 178.423 75.8156 186.89C89.4923 195.271 105.552 199.786 122 199.876V122.877Z" fill="#E4EBE1" stroke="#254839"/>
<mask id="mask2_92_474112" style="mask-type:alpha" maskUnits="userSpaceOnUse" x="122" y="51" width="85" height="72">
<path d="M192.759 79.8203C183.474 67.0755 170.277 57.1421 154.837 51.2763L122 122.377L122.5 122.877L207 122.877C207 107.549 202.044 92.5651 192.759 79.8203Z" fill="#D9D9D9"/>
</mask>
<g mask="url(#mask2_92_474112)">
<g opacity="0.5">
<path d="M311 79.377L117 79.3769" stroke="#254839"/>
<path d="M311 109.377L117 109.377" stroke="#254839"/>
<path d="M311 51.377L117 51.3769" stroke="#254839"/>
<path d="M311 81.377L117 81.3769" stroke="#254839"/>
<path d="M311 111.377L117 111.377" stroke="#254839"/>
<path d="M311 53.377L117 53.3769" stroke="#254839"/>
<path d="M311 83.377L117 83.3769" stroke="#254839"/>
<path d="M311 113.377L117 113.377" stroke="#254839"/>
<path d="M311 55.377L117 55.3769" stroke="#254839"/>
<path d="M311 85.377L117 85.3769" stroke="#254839"/>
<path d="M311 115.377L117 115.377" stroke="#254839"/>
<path d="M311 63.377L117 63.3769" stroke="#254839"/>
<path d="M311 93.377L117 93.3769" stroke="#254839"/>
<path d="M311 57.377L117 57.3769" stroke="#254839"/>
<path d="M311 87.377L117 87.3769" stroke="#254839"/>
<path d="M311 117.377L117 117.377" stroke="#254839"/>
<path d="M311 67.377L117 67.3769" stroke="#254839"/>
<path d="M311 97.377L117 97.3769" stroke="#254839"/>
<path d="M311 59.377L117 59.3769" stroke="#254839"/>
<path d="M311 89.377L117 89.3769" stroke="#254839"/>
<path d="M311 119.377L117 119.377" stroke="#254839"/>
<path d="M311 61.377L117 61.3769" stroke="#254839"/>
<path d="M311 91.377L117 91.3769" stroke="#254839"/>
<path d="M311 121.377L117 121.377" stroke="#254839"/>
<path d="M311 65.377L117 65.3769" stroke="#254839"/>
<path d="M311 95.377L117 95.3769" stroke="#254839"/>
<path d="M311 69.377L117 69.3769" stroke="#254839"/>
<path d="M311 99.377L117 99.3769" stroke="#254839"/>
<path d="M311 71.377L117 71.3769" stroke="#254839"/>
<path d="M311 101.377L117 101.377" stroke="#254839"/>
<path d="M311 73.377L117 73.3769" stroke="#254839"/>
<path d="M311 103.377L117 103.377" stroke="#254839"/>
<path d="M311 75.377L117 75.3769" stroke="#254839"/>
<path d="M311 105.377L117 105.377" stroke="#254839"/>
<path d="M311 77.377L117 77.3769" stroke="#254839"/>
<path d="M311 107.377L117 107.377" stroke="#254839"/>
</g>
</g>
<path d="M201.5 174.877C201.5 193.616 184.975 208.877 164.5 208.877C144.025 208.877 127.5 193.616 127.5 174.877C127.5 156.138 144.025 140.877 164.5 140.877C184.975 140.877 201.5 156.138 201.5 174.877Z" fill="#254839" stroke="#E4EBE1"/>
<path d="M201.5 168.877C201.5 187.616 184.975 202.877 164.5 202.877C144.025 202.877 127.5 187.616 127.5 168.877C127.5 150.138 144.025 134.877 164.5 134.877C184.975 134.877 201.5 150.138 201.5 168.877Z" fill="#254839" stroke="#E4EBE1"/>
<path d="M201.5 162.877C201.5 181.616 184.975 196.877 164.5 196.877C144.025 196.877 127.5 181.616 127.5 162.877C127.5 144.138 144.025 128.877 164.5 128.877C184.975 128.877 201.5 144.138 201.5 162.877Z" fill="#254839" stroke="#E4EBE1"/>
<path d="M201.5 156.877C201.5 175.616 184.975 190.877 164.5 190.877C144.025 190.877 127.5 175.616 127.5 156.877C127.5 138.138 144.025 122.877 164.5 122.877C184.975 122.877 201.5 138.138 201.5 156.877Z" fill="#254839" stroke="#E4EBE1"/>
<path d="M201.5 150.877C201.5 169.616 184.975 184.877 164.5 184.877C144.025 184.877 127.5 169.616 127.5 150.877C127.5 132.138 144.025 116.877 164.5 116.877C184.975 116.877 201.5 132.138 201.5 150.877Z" fill="#254839" stroke="#E4EBE1"/>
<path d="M201.5 150.877C201.5 169.616 184.975 184.877 164.5 184.877C144.025 184.877 127.5 169.616 127.5 150.877C127.5 132.138 144.025 116.877 164.5 116.877C184.975 116.877 201.5 132.138 201.5 150.877Z" fill="#254839" stroke="#E4EBE1"/>
<path d="M201.5 150.877C201.5 169.616 184.975 184.877 164.5 184.877C144.025 184.877 127.5 169.616 127.5 150.877C127.5 132.138 144.025 116.877 164.5 116.877C184.975 116.877 201.5 132.138 201.5 150.877Z" fill="#254839" stroke="#E4EBE1"/>
<mask id="mask3_92_474112" style="mask-type:alpha" maskUnits="userSpaceOnUse" x="127" y="116" width="75" height="94">
<mask id="path-131-inside-1_92_474112" fill="white">
<path fill-rule="evenodd" clip-rule="evenodd" d="M127 168.877C127 167.866 127.047 166.866 127.14 165.877C127.047 164.888 127 163.888 127 162.877C127 161.866 127.047 160.866 127.14 159.877C127.047 158.888 127 157.888 127 156.877C127 155.923 127.042 154.978 127.125 154.044C127.063 153.343 127.024 152.637 127.008 151.925C127.003 151.687 127 151.449 127 151.211C127 151.155 127 151.1 127 151.044C127 150.988 127 150.933 127 150.877C127 131.823 143.789 116.377 164.5 116.377C185.211 116.377 202 131.823 202 150.877C202 150.933 202 150.988 202 151.044C202 151.1 202 151.155 202 151.211C202 152.165 201.958 153.11 201.875 154.044C201.958 154.978 202 155.923 202 156.877C202 157.888 201.953 158.888 201.86 159.877C201.953 160.866 202 161.866 202 162.877C202 163.888 201.953 164.888 201.86 165.877C201.953 166.866 202 167.866 202 168.877C202 169.888 201.953 170.888 201.86 171.877C201.953 172.866 202 173.866 202 174.877C202 193.931 185.211 209.377 164.5 209.377C143.789 209.377 127 193.931 127 174.877C127 173.866 127.047 172.866 127.14 171.877C127.047 170.888 127 169.888 127 168.877Z"/>
</mask>
<path fill-rule="evenodd" clip-rule="evenodd" d="M127 168.877C127 167.866 127.047 166.866 127.14 165.877C127.047 164.888 127 163.888 127 162.877C127 161.866 127.047 160.866 127.14 159.877C127.047 158.888 127 157.888 127 156.877C127 155.923 127.042 154.978 127.125 154.044C127.063 153.343 127.024 152.637 127.008 151.925C127.003 151.687 127 151.449 127 151.211C127 151.155 127 151.1 127 151.044C127 150.988 127 150.933 127 150.877C127 131.823 143.789 116.377 164.5 116.377C185.211 116.377 202 131.823 202 150.877C202 150.933 202 150.988 202 151.044C202 151.1 202 151.155 202 151.211C202 152.165 201.958 153.11 201.875 154.044C201.958 154.978 202 155.923 202 156.877C202 157.888 201.953 158.888 201.86 159.877C201.953 160.866 202 161.866 202 162.877C202 163.888 201.953 164.888 201.86 165.877C201.953 166.866 202 167.866 202 168.877C202 169.888 201.953 170.888 201.86 171.877C201.953 172.866 202 173.866 202 174.877C202 193.931 185.211 209.377 164.5 209.377C143.789 209.377 127 193.931 127 174.877C127 173.866 127.047 172.866 127.14 171.877C127.047 170.888 127 169.888 127 168.877Z" fill="#254839"/>
<path d="M127.14 165.877L128.135 165.97L128.144 165.877L128.135 165.784L127.14 165.877ZM127.14 159.877L128.135 159.97L128.144 159.877L128.135 159.784L127.14 159.877ZM127.125 154.044L128.121 154.132L128.129 154.044L128.121 153.956L127.125 154.044ZM127.008 151.925L126.008 151.947L127.008 151.925ZM127 151.044L128 151.049L128 151.039L127 151.044ZM202 151.044L201 151.039L201 151.049L202 151.044ZM201.875 154.044L200.879 153.956L200.871 154.044L200.879 154.132L201.875 154.044ZM201.86 159.877L200.865 159.784L200.856 159.877L200.865 159.97L201.86 159.877ZM201.86 165.877L200.865 165.784L200.856 165.877L200.865 165.97L201.86 165.877ZM201.86 171.877L200.865 171.784L200.856 171.877L200.865 171.97L201.86 171.877ZM127.14 171.877L128.135 171.97L128.144 171.877L128.135 171.784L127.14 171.877ZM126.144 165.784C126.049 166.803 126 167.835 126 168.877H128C128 167.897 128.046 166.928 128.135 165.97L126.144 165.784ZM126 162.877C126 163.919 126.049 164.951 126.144 165.97L128.135 165.784C128.046 164.826 128 163.857 128 162.877H126ZM126.144 159.784C126.049 160.803 126 161.835 126 162.877H128C128 161.897 128.046 160.928 128.135 159.97L126.144 159.784ZM126 156.877C126 157.919 126.049 158.951 126.144 159.97L128.135 159.784C128.046 158.826 128 157.857 128 156.877H126ZM126.129 153.956C126.043 154.919 126 155.894 126 156.877H128C128 155.952 128.041 155.037 128.121 154.132L126.129 153.956ZM126.008 151.947C126.024 152.681 126.065 153.409 126.129 154.132L128.121 153.956C128.061 153.277 128.023 152.592 128.008 151.903L126.008 151.947ZM126 151.211C126 151.457 126.003 151.702 126.008 151.947L128.008 151.903C128.003 151.673 128 151.442 128 151.211H126ZM126 151.039C126 151.096 126 151.154 126 151.211H128C128 151.157 128 151.103 128 151.049L126 151.039ZM126 150.877C126 150.934 126 150.992 126 151.049L128 151.039C128 150.985 128 150.931 128 150.877H126ZM164.5 115.377C143.317 115.377 126 131.194 126 150.877H128C128 132.452 144.261 117.377 164.5 117.377V115.377ZM203 150.877C203 131.194 185.683 115.377 164.5 115.377V117.377C184.739 117.377 201 132.452 201 150.877H203ZM203 151.049C203 150.992 203 150.934 203 150.877H201C201 150.931 201 150.985 201 151.039L203 151.049ZM203 151.211C203 151.154 203 151.096 203 151.039L201 151.049C201 151.103 201 151.157 201 151.211H203ZM202.871 154.132C202.957 153.168 203 152.194 203 151.211H201C201 152.135 200.959 153.051 200.879 153.956L202.871 154.132ZM203 156.877C203 155.894 202.957 154.919 202.871 153.956L200.879 154.132C200.959 155.037 201 155.953 201 156.877H203ZM202.856 159.97C202.951 158.951 203 157.919 203 156.877H201C201 157.857 200.954 158.826 200.865 159.784L202.856 159.97ZM203 162.877C203 161.835 202.951 160.803 202.856 159.784L200.865 159.97C200.954 160.928 201 161.897 201 162.877H203ZM202.856 165.97C202.951 164.951 203 163.919 203 162.877H201C201 163.857 200.954 164.826 200.865 165.784L202.856 165.97ZM203 168.877C203 167.835 202.951 166.803 202.856 165.784L200.865 165.97C200.954 166.928 201 167.897 201 168.877H203ZM202.856 171.97C202.951 170.951 203 169.919 203 168.877H201C201 169.857 200.954 170.826 200.865 171.784L202.856 171.97ZM203 174.877C203 173.835 202.951 172.803 202.856 171.784L200.865 171.97C200.954 172.928 201 173.897 201 174.877H203ZM164.5 210.377C185.683 210.377 203 194.56 203 174.877H201C201 193.302 184.739 208.377 164.5 208.377V210.377ZM126 174.877C126 194.56 143.317 210.377 164.5 210.377V208.377C144.261 208.377 128 193.302 128 174.877H126ZM126.144 171.784C126.049 172.803 126 173.835 126 174.877H128C128 173.897 128.046 172.928 128.135 171.97L126.144 171.784ZM126 168.877C126 169.919 126.049 170.951 126.144 171.97L128.135 171.784C128.046 170.826 128 169.857 128 168.877H126Z" fill="#BED3E2" mask="url(#path-131-inside-1_92_474112)"/>
</mask>
<g mask="url(#mask3_92_474112)">
<path d="M199 130.377V230.377" stroke="#E4EBE1"/>
<path d="M197 130.377V221.377" stroke="#E4EBE1"/>
<path d="M195 134.377V218.377" stroke="#E4EBE1"/>
<path d="M193 141.377V214.377" stroke="#E4EBE1" stroke-width="0.5"/>
<path d="M191 148.377V210.377" stroke="#E4EBE1" stroke-width="0.5"/>
<path d="M189 151.377L189 206.377" stroke="#E4EBE1" stroke-width="0.5"/>
<path d="M181 147.377L181 187.377" stroke="#E4EBE1" stroke-width="0.2"/>
<path d="M173 145.377L173 166.377" stroke="#E4EBE1"/>
<path d="M187 150.377L187 201.377" stroke="#E4EBE1" stroke-width="0.2"/>
<path d="M179 146.377L179 182.377" stroke="#E4EBE1"/>
<path d="M171 145.377L171 166.377" stroke="#E4EBE1"/>
<path d="M185 151.377L185 196.377" stroke="#E4EBE1" stroke-width="0.2"/>
<path d="M177 147.377L177 177.377" stroke="#E4EBE1"/>
<path d="M183 151.377L183 192.377" stroke="#E4EBE1" stroke-width="0.2"/>
<path d="M175 146.377L175 171.377" stroke="#E4EBE1"/>
<path d="M130 130.377V230.377" stroke="#E4EBE1"/>
<path d="M132 130.377V221.377" stroke="#E4EBE1"/>
<path d="M134 134.377V218.377" stroke="#E4EBE1"/>
<path d="M136 141.377V214.377" stroke="#E4EBE1" stroke-width="0.5"/>
<path d="M138 148.377V210.377" stroke="#E4EBE1" stroke-width="0.5"/>
<path d="M140 151.377L140 206.377" stroke="#E4EBE1" stroke-width="0.5"/>
<path d="M148 147.377L148 187.377" stroke="#E4EBE1" stroke-width="0.2"/>
<path d="M156 145.377L156 166.377" stroke="#E4EBE1"/>
<path d="M142 150.377L142 201.377" stroke="#E4EBE1" stroke-width="0.2"/>
<path d="M150 146.377L150 182.377" stroke="#E4EBE1"/>
<path d="M158 145.377L158 166.377" stroke="#E4EBE1"/>
<path d="M144 151.377L144 196.377" stroke="#E4EBE1" stroke-width="0.2"/>
<path d="M152 147.377L152 177.377" stroke="#E4EBE1"/>
<path d="M146 151.377L146 192.377" stroke="#E4EBE1" stroke-width="0.2"/>
<path d="M154 146.377L154 171.377" stroke="#E4EBE1"/>
</g>
<path d="M201.5 150.877C201.5 169.616 184.975 184.877 164.5 184.877C144.025 184.877 127.5 169.616 127.5 150.877C127.5 132.138 144.025 116.877 164.5 116.877C184.975 116.877 201.5 132.138 201.5 150.877Z" fill="#E4EBE1" stroke="#254839"/>
<path d="M201.5 150.877C201.5 169.616 184.975 184.877 164.5 184.877C144.025 184.877 127.5 169.616 127.5 150.877C127.5 132.138 144.025 116.877 164.5 116.877C184.975 116.877 201.5 132.138 201.5 150.877Z" fill="#E4EBE1" stroke="#254839"/>
<mask id="mask4_92_474112" style="mask-type:alpha" maskUnits="userSpaceOnUse" x="127" y="116" width="75" height="70">
<path d="M201.5 150.877C201.5 169.616 184.975 184.877 164.5 184.877C144.025 184.877 127.5 169.616 127.5 150.877C127.5 132.138 144.025 116.877 164.5 116.877C184.975 116.877 201.5 132.138 201.5 150.877Z" fill="#BED3E2" stroke="#254839"/>
</mask>
<g mask="url(#mask4_92_474112)">
<g opacity="0.5">
<path d="M215 119.377L115 119.377" stroke="#254839"/>
<path d="M215 149.377L115 149.377" stroke="#254839"/>
<path d="M215 179.377L115 179.377" stroke="#254839"/>
<path d="M215 121.377L115 121.377" stroke="#254839"/>
<path d="M215 151.377L115 151.377" stroke="#254839"/>
<path d="M215 181.377L115 181.377" stroke="#254839"/>
<path d="M215 123.377L115 123.377" stroke="#254839"/>
<path d="M215 153.377L115 153.377" stroke="#254839"/>
<path d="M215 183.377L115 183.377" stroke="#254839"/>
<path d="M215 125.377L115 125.377" stroke="#254839"/>
<path d="M215 155.377L115 155.377" stroke="#254839"/>
<path d="M215 185.377L115 185.377" stroke="#254839"/>
<path d="M215 133.377L115 133.377" stroke="#254839"/>
<path d="M215 163.377L115 163.377" stroke="#254839"/>
<path d="M215 127.377L115 127.377" stroke="#254839"/>
<path d="M215 157.377L115 157.377" stroke="#254839"/>
<path d="M215 137.377L115 137.377" stroke="#254839"/>
<path d="M215 167.377L115 167.377" stroke="#254839"/>
<path d="M215 129.377L115 129.377" stroke="#254839"/>
<path d="M215 159.377L115 159.377" stroke="#254839"/>
<path d="M215 131.377L115 131.377" stroke="#254839"/>
<path d="M215 161.377L115 161.377" stroke="#254839"/>
<path d="M215 135.377L115 135.377" stroke="#254839"/>
<path d="M215 165.377L115 165.377" stroke="#254839"/>
<path d="M215 139.377L115 139.377" stroke="#254839"/>
<path d="M215 169.377L115 169.377" stroke="#254839"/>
<path d="M215 141.377L115 141.377" stroke="#254839"/>
<path d="M215 171.377L115 171.377" stroke="#254839"/>
<path d="M215 143.377L115 143.377" stroke="#254839"/>
<path d="M215 173.377L115 173.377" stroke="#254839"/>
<path d="M215 145.377L115 145.377" stroke="#254839"/>
<path d="M215 175.377L115 175.377" stroke="#254839"/>
<path d="M215 147.377L115 147.377" stroke="#254839"/>
<path d="M215 177.377L115 177.377" stroke="#254839"/>
</g>
</g>
<mask id="mask5_92_474112" style="mask-type:alpha" maskUnits="userSpaceOnUse" x="134" y="122" width="62" height="31">
<path fill-rule="evenodd" clip-rule="evenodd" d="M194.96 152.377C194.988 151.88 195.002 151.38 195.002 150.877C195.002 135.137 181.347 122.377 164.502 122.377C147.657 122.377 134.002 135.137 134.002 150.877C134.002 151.38 134.016 151.88 134.043 152.377C134.878 137.334 148.196 125.377 164.502 125.377C180.808 125.377 194.126 137.334 194.96 152.377Z" fill="#BED3E2"/>
</mask>
<g mask="url(#mask5_92_474112)">
<path d="M134.002 112.377V212.377" stroke="#254839"/>
<path d="M164.002 112.377V212.377" stroke="#254839"/>
<path d="M136.002 112.377V212.377" stroke="#254839"/>
<path d="M166.002 112.377V212.377" stroke="#254839"/>
<path d="M138.002 112.377V212.377" stroke="#254839"/>
<path d="M168.002 112.377V212.377" stroke="#254839"/>
<path d="M140.002 112.377V212.377" stroke="#254839"/>
<path d="M170.002 112.377V212.377" stroke="#254839"/>
<path d="M148.002 112.377V212.377" stroke="#254839"/>
<path d="M178.002 112.377V212.377" stroke="#254839"/>
<path d="M142.002 112.377V212.377" stroke="#254839"/>
<path d="M172.002 112.377V212.377" stroke="#254839"/>
<path d="M152.002 112.377V212.377" stroke="#254839"/>
<path d="M182.002 112.377V212.377" stroke="#254839"/>
<path d="M144.002 112.377V212.377" stroke="#254839"/>
<path d="M174.002 112.377V212.377" stroke="#254839"/>
<path d="M146.002 112.377V212.377" stroke="#254839"/>
<path d="M176.002 112.377V212.377" stroke="#254839"/>
<path d="M150.002 112.377V212.377" stroke="#254839"/>
<path d="M180.002 112.377V212.377" stroke="#254839"/>
<path d="M154.002 112.377V212.377" stroke="#254839"/>
<path d="M184.002 112.377V212.377" stroke="#254839"/>
<path d="M156.002 112.377V212.377" stroke="#254839"/>
<path d="M186.002 112.377V212.377" stroke="#254839"/>
<path d="M158.002 112.377V212.377" stroke="#254839"/>
<path d="M188.002 112.377V212.377" stroke="#254839"/>
<path d="M160.002 112.377V212.377" stroke="#254839"/>
<path d="M190.002 112.377V212.377" stroke="#254839"/>
<path d="M162.002 112.377V212.377" stroke="#254839"/>
<path d="M192.002 112.377V212.377" stroke="#254839"/>
</g>
<mask id="mask6_92_474112" style="mask-type:alpha" maskUnits="userSpaceOnUse" x="134" y="122" width="62" height="31">
<path fill-rule="evenodd" clip-rule="evenodd" d="M194.96 152.377C194.988 151.88 195.002 151.38 195.002 150.877C195.002 135.137 181.347 122.377 164.502 122.377C147.657 122.377 134.002 135.137 134.002 150.877C134.002 151.38 134.016 151.88 134.043 152.377C134.878 137.334 148.196 125.377 164.502 125.377C180.808 125.377 194.126 137.334 194.96 152.377Z" fill="#BED3E2"/>
</mask>
<g mask="url(#mask6_92_474112)">
<path d="M134.002 112.377V212.377" stroke="#254839"/>
<path d="M164.002 112.377V212.377" stroke="#254839"/>
<path d="M136.002 112.377V212.377" stroke="#254839"/>
<path d="M166.002 112.377V212.377" stroke="#254839"/>
<path d="M138.002 112.377V212.377" stroke="#254839"/>
<path d="M168.002 112.377V212.377" stroke="#254839"/>
<path d="M140.002 112.377V212.377" stroke="#254839"/>
<path d="M170.002 112.377V212.377" stroke="#254839"/>
<path d="M148.002 112.377V212.377" stroke="#254839"/>
<path d="M178.002 112.377V212.377" stroke="#254839"/>
<path d="M142.002 112.377V212.377" stroke="#254839"/>
<path d="M172.002 112.377V212.377" stroke="#254839"/>
<path d="M152.002 112.377V212.377" stroke="#254839"/>
<path d="M182.002 112.377V212.377" stroke="#254839"/>
<path d="M144.002 112.377V212.377" stroke="#254839"/>
<path d="M174.002 112.377V212.377" stroke="#254839"/>
<path d="M146.002 112.377V212.377" stroke="#254839"/>
<path d="M176.002 112.377V212.377" stroke="#254839"/>
<path d="M150.002 112.377V212.377" stroke="#254839"/>
<path d="M180.002 112.377V212.377" stroke="#254839"/>
<path d="M154.002 112.377V212.377" stroke="#254839"/>
<path d="M184.002 112.377V212.377" stroke="#254839"/>
<path d="M156.002 112.377V212.377" stroke="#254839"/>
<path d="M186.002 112.377V212.377" stroke="#254839"/>
<path d="M158.002 112.377V212.377" stroke="#254839"/>
<path d="M188.002 112.377V212.377" stroke="#254839"/>
<path d="M160.002 112.377V212.377" stroke="#254839"/>
<path d="M190.002 112.377V212.377" stroke="#254839"/>
<path d="M162.002 112.377V212.377" stroke="#254839"/>
<path d="M192.002 112.377V212.377" stroke="#254839"/>
<path d="M194.002 112.377V212.377" stroke="#254839"/>
</g>
<path d="M201.5 131.877C201.5 150.616 184.975 165.877 164.5 165.877C144.025 165.877 127.5 150.616 127.5 131.877C127.5 113.138 144.025 97.877 164.5 97.877C184.975 97.877 201.5 113.138 201.5 131.877Z" fill="#254839" stroke="#254839"/>
<mask id="mask7_92_474112" style="mask-type:alpha" maskUnits="userSpaceOnUse" x="127" y="97" width="75" height="70">
<path d="M201.5 131.877C201.5 150.616 184.975 165.877 164.5 165.877C144.025 165.877 127.5 150.616 127.5 131.877C127.5 113.138 144.025 97.877 164.5 97.877C184.975 97.877 201.5 113.138 201.5 131.877Z" fill="#7B8A9C" stroke="#254839"/>
</mask>
<g mask="url(#mask7_92_474112)">
<path d="M200 122.377V222.377" stroke="#E4EBE1"/>
<path d="M198 122.377V213.377" stroke="#E4EBE1"/>
<path d="M196 126.377V210.377" stroke="#E4EBE1"/>
<path d="M194 133.377V206.377" stroke="#E4EBE1"/>
<path d="M192 140.377V202.377" stroke="#E4EBE1"/>
<path d="M190 143.377L190 198.377" stroke="#E4EBE1" stroke-width="0.5"/>
<path d="M182 139.377L182 179.377" stroke="#E4EBE1" stroke-width="0.2"/>
<path d="M174 137.377L174 158.377" stroke="#E4EBE1"/>
<path d="M188 142.377L188 193.377" stroke="#E4EBE1" stroke-width="0.5"/>
<path d="M180 138.377L180 174.377" stroke="#E4EBE1" stroke-width="0.2"/>
<path d="M172 137.377L172 158.377" stroke="#E4EBE1"/>
<path d="M186 143.377L186 188.377" stroke="#E4EBE1" stroke-width="0.5"/>
<path d="M178 139.377L178 169.377" stroke="#E4EBE1" stroke-width="0.2"/>
<path d="M184 143.377L184 184.377" stroke="#E4EBE1" stroke-width="0.5"/>
<path d="M176 139.377L176 164.377" stroke="#E4EBE1" stroke-width="0.2"/>
<path d="M129 122.377V222.377" stroke="#E4EBE1"/>
<path d="M131 122.377V213.377" stroke="#E4EBE1"/>
<path d="M133 126.377V210.377" stroke="#E4EBE1"/>
<path d="M135 133.377V206.377" stroke="#E4EBE1"/>
<path d="M137 140.377V202.377" stroke="#E4EBE1"/>
<path d="M139 143.377L139 198.377" stroke="#E4EBE1" stroke-width="0.5"/>
<path d="M147 139.377L147 179.377" stroke="#E4EBE1" stroke-width="0.2"/>
<path d="M155 137.377L155 158.377" stroke="#E4EBE1"/>
<path d="M141 142.377L141 193.377" stroke="#E4EBE1" stroke-width="0.5"/>
<path d="M149 138.377L149 174.377" stroke="#E4EBE1" stroke-width="0.2"/>
<path d="M157 137.377L157 158.377" stroke="#E4EBE1"/>
<path d="M143 143.377L143 188.377" stroke="#E4EBE1" stroke-width="0.5"/>
<path d="M151 139.377L151 169.377" stroke="#E4EBE1" stroke-width="0.2"/>
<path d="M145 143.377L145 184.377" stroke="#E4EBE1" stroke-width="0.5"/>
<path d="M153 139.377L153 164.377" stroke="#E4EBE1" stroke-width="0.2"/>
</g>
<path d="M201.5 131.877C201.5 150.616 184.975 165.877 164.5 165.877C144.025 165.877 127.5 150.616 127.5 131.877C127.5 113.138 144.025 97.877 164.5 97.877C184.975 97.877 201.5 113.138 201.5 131.877Z" stroke="#254839"/>
<path d="M201.5 125.877C201.5 144.616 184.975 159.877 164.5 159.877C144.025 159.877 127.5 144.616 127.5 125.877C127.5 107.138 144.025 91.877 164.5 91.877C184.975 91.877 201.5 107.138 201.5 125.877Z" fill="#E4EBE1" stroke="#254839"/>
<mask id="mask8_92_474112" style="mask-type:alpha" maskUnits="userSpaceOnUse" x="134" y="97" width="62" height="31">
<path fill-rule="evenodd" clip-rule="evenodd" d="M194.96 127.377C194.988 126.88 195.002 126.38 195.002 125.877C195.002 110.137 181.347 97.377 164.502 97.377C147.657 97.377 134.002 110.137 134.002 125.877C134.002 126.38 134.016 126.88 134.043 127.377C134.878 112.334 148.196 100.377 164.502 100.377C180.808 100.377 194.126 112.334 194.96 127.377Z" fill="#BED3E2"/>
</mask>
<g mask="url(#mask8_92_474112)">
<path d="M134.002 87.377V187.377" stroke="#254839"/>
<path d="M164.002 87.377V187.377" stroke="#254839" stroke-width="1.5"/>
<path d="M136.002 87.377V187.377" stroke="#254839"/>
<path d="M166.002 87.377V187.377" stroke="#254839" stroke-width="1.5"/>
<path d="M138.002 87.377V187.377" stroke="#254839"/>
<path d="M168.002 87.377V187.377" stroke="#254839" stroke-width="1.5"/>
<path d="M140.002 87.377V187.377" stroke="#254839"/>
<path d="M170.002 87.377V187.377" stroke="#254839" stroke-width="1.5"/>
<path d="M148.002 87.377V187.377" stroke="#254839"/>
<path d="M178.002 87.377V187.377" stroke="#254839"/>
<path d="M142.002 87.377V187.377" stroke="#254839"/>
<path d="M172.002 87.377V187.377" stroke="#254839" stroke-width="1.5"/>
<path d="M152.002 87.377V187.377" stroke="#254839"/>
<path d="M182.002 87.377V187.377" stroke="#254839"/>
<path d="M144.002 87.377V187.377" stroke="#254839"/>
<path d="M174.002 87.377V187.377" stroke="#254839"/>
<path d="M146.002 87.377V187.377" stroke="#254839"/>
<path d="M176.002 87.377V187.377" stroke="#254839"/>
<path d="M150.002 87.377V187.377" stroke="#254839"/>
<path d="M180.002 87.377V187.377" stroke="#254839"/>
<path d="M154.002 87.377V187.377" stroke="#254839"/>
<path d="M184.002 87.377V187.377" stroke="#254839"/>
<path d="M156.002 87.377V187.377" stroke="#254839" stroke-width="1.5"/>
<path d="M186.002 87.377V187.377" stroke="#254839"/>
<path d="M158.002 87.377V187.377" stroke="#254839" stroke-width="1.5"/>
<path d="M188.002 87.377V187.377" stroke="#254839"/>
<path d="M160.002 87.377V187.377" stroke="#254839" stroke-width="1.5"/>
<path d="M190.002 87.377V187.377" stroke="#254839"/>
<path d="M162.002 87.377V187.377" stroke="#254839" stroke-width="1.5"/>
<path d="M192.002 87.377V187.377" stroke="#254839"/>
<path d="M194.002 88.377V188.377" stroke="#254839"/>
</g>
<path fill-rule="evenodd" clip-rule="evenodd" d="M82.1784 28.085H70.3301V49.4121H48.999V61.2604H70.3301V83.3769H82.1784V61.2604H104.291V49.4121H82.1784V28.085Z" fill="#254839"/>
<mask id="path-330-inside-2_92_474112" fill="white">
<path fill-rule="evenodd" clip-rule="evenodd" d="M82.1784 26H70.3301V47.3271H48.999V59.1754H70.3301V81.292H82.1784V59.1754H104.291V47.3271H82.1784V26Z"/>
</mask>
<path fill-rule="evenodd" clip-rule="evenodd" d="M82.1784 26H70.3301V47.3271H48.999V59.1754H70.3301V81.292H82.1784V59.1754H104.291V47.3271H82.1784V26Z" fill="#E4EBE1"/>
<path d="M70.3301 26V25H69.3301V26H70.3301ZM82.1784 26H83.1784V25H82.1784V26ZM70.3301 47.3271V48.3271H71.3301V47.3271H70.3301ZM48.999 47.3271V46.3271H47.999V47.3271H48.999ZM48.999 59.1754H47.999V60.1754H48.999V59.1754ZM70.3301 59.1754H71.3301V58.1754H70.3301V59.1754ZM70.3301 81.292H69.3301V82.292H70.3301V81.292ZM82.1784 81.292V82.292H83.1784V81.292H82.1784ZM82.1784 59.1754V58.1754H81.1784V59.1754H82.1784ZM104.291 59.1754V60.1754H105.291V59.1754H104.291ZM104.291 47.3271H105.291V46.3271H104.291V47.3271ZM82.1784 47.3271H81.1784V48.3271H82.1784V47.3271ZM70.3301 27H82.1784V25H70.3301V27ZM71.3301 47.3271V26H69.3301V47.3271H71.3301ZM48.999 48.3271H70.3301V46.3271H48.999V48.3271ZM49.999 59.1754V47.3271H47.999V59.1754H49.999ZM70.3301 58.1754H48.999V60.1754H70.3301V58.1754ZM71.3301 81.292V59.1754H69.3301V81.292H71.3301ZM82.1784 80.292H70.3301V82.292H82.1784V80.292ZM81.1784 59.1754V81.292H83.1784V59.1754H81.1784ZM104.291 58.1754H82.1784V60.1754H104.291V58.1754ZM103.291 47.3271V59.1754H105.291V47.3271H103.291ZM82.1784 48.3271H104.291V46.3271H82.1784V48.3271ZM81.1784 26V47.3271H83.1784V26H81.1784Z" fill="#254839" mask="url(#path-330-inside-2_92_474112)"/>
<mask id="mask9_92_474112" style="mask-type:alpha" maskUnits="userSpaceOnUse" x="48" y="26" width="57" height="56">
<mask id="path-332-inside-3_92_474112" fill="white">
<path fill-rule="evenodd" clip-rule="evenodd" d="M82.1784 26H70.3301V47.3271H48.999V59.1754H70.3301V81.292H82.1784V59.1754H104.291V47.3271H82.1784V26Z"/>
</mask>
<path fill-rule="evenodd" clip-rule="evenodd" d="M82.1784 26H70.3301V47.3271H48.999V59.1754H70.3301V81.292H82.1784V59.1754H104.291V47.3271H82.1784V26Z" fill="#B3D7E6"/>
<path d="M70.3301 26V25H69.3301V26H70.3301ZM82.1784 26H83.1784V25H82.1784V26ZM70.3301 47.3271V48.3271H71.3301V47.3271H70.3301ZM48.999 47.3271V46.3271H47.999V47.3271H48.999ZM48.999 59.1754H47.999V60.1754H48.999V59.1754ZM70.3301 59.1754H71.3301V58.1754H70.3301V59.1754ZM70.3301 81.292H69.3301V82.292H70.3301V81.292ZM82.1784 81.292V82.292H83.1784V81.292H82.1784ZM82.1784 59.1754V58.1754H81.1784V59.1754H82.1784ZM104.291 59.1754V60.1754H105.291V59.1754H104.291ZM104.291 47.3271H105.291V46.3271H104.291V47.3271ZM82.1784 47.3271H81.1784V48.3271H82.1784V47.3271ZM70.3301 27H82.1784V25H70.3301V27ZM71.3301 47.3271V26H69.3301V47.3271H71.3301ZM48.999 48.3271H70.3301V46.3271H48.999V48.3271ZM49.999 59.1754V47.3271H47.999V59.1754H49.999ZM70.3301 58.1754H48.999V60.1754H70.3301V58.1754ZM71.3301 81.292V59.1754H69.3301V81.292H71.3301ZM82.1784 80.292H70.3301V82.292H82.1784V80.292ZM81.1784 59.1754V81.292H83.1784V59.1754H81.1784ZM104.291 58.1754H82.1784V60.1754H104.291V58.1754ZM103.291 47.3271V59.1754H105.291V47.3271H103.291ZM82.1784 48.3271H104.291V46.3271H82.1784V48.3271ZM81.1784 26V47.3271H83.1784V26H81.1784Z" fill="#254839" mask="url(#path-332-inside-3_92_474112)"/>
</mask>
<g mask="url(#mask9_92_474112)">
<g opacity="0.5">
<path d="M77 3.37695L77 103.377" stroke="#254839"/>
<path d="M49 3.37695L49 103.377" stroke="#254839"/>
<path d="M79 3.37695L79 103.377" stroke="#254839"/>
<path d="M51 3.37695L51 103.377" stroke="#254839"/>
<path d="M81 3.37695L81 103.377" stroke="#254839"/>
<path d="M53 3.37695L53 103.377" stroke="#254839"/>
<path d="M83 3.37695L83 103.377" stroke="#254839"/>
<path d="M61 3.37695L61 103.377" stroke="#254839"/>
<path d="M91 3.37695L91 103.377" stroke="#254839"/>
<path d="M55 3.37695L55 103.377" stroke="#254839"/>
<path d="M85 3.37695L85 103.377" stroke="#254839"/>
<path d="M65 3.37695L65 103.377" stroke="#254839"/>
<path d="M95 3.37695L95 103.377" stroke="#254839"/>
<path d="M57 3.37695L57 103.377" stroke="#254839"/>
<path d="M87 3.37695L87 103.377" stroke="#254839"/>
<path d="M59 3.37695L59 103.377" stroke="#254839"/>
<path d="M89 3.37695L89 103.377" stroke="#254839"/>
<path d="M63 3.37695L63 103.377" stroke="#254839"/>
<path d="M93 3.37695L93 103.377" stroke="#254839"/>
<path d="M67 3.37695L67 103.377" stroke="#254839"/>
<path d="M97 3.37695L97 103.377" stroke="#254839"/>
<path d="M69 3.37695L69 103.377" stroke="#254839"/>
<path d="M99 3.37695L99 103.377" stroke="#254839"/>
<path d="M71 3.37695L71 103.377" stroke="#254839"/>
<path d="M101 3.37695L101 103.377" stroke="#254839"/>
<path d="M73 3.37695L73 103.377" stroke="#254839"/>
<path d="M103 3.37695L103 103.377" stroke="#254839"/>
<path d="M75 3.37695L75 103.377" stroke="#254839"/>
<path d="M77 3.37695L77 103.377" stroke="#254839"/>
</g>
</g>
<path fill-rule="evenodd" clip-rule="evenodd" d="M115.728 77.5762H108.914V89.8418H96.6465V96.6562H108.914V109.377H115.728V96.6562H128.447V89.8418H115.728V77.5762Z" fill="#254839"/>
<mask id="path-364-inside-4_92_474112" fill="white">
<path fill-rule="evenodd" clip-rule="evenodd" d="M115.728 76.377H108.914V88.6426H96.6465V95.457H108.914V108.178H115.728V95.457H128.447V88.6426H115.728V76.377Z"/>
</mask>
<path fill-rule="evenodd" clip-rule="evenodd" d="M115.728 76.377H108.914V88.6426H96.6465V95.457H108.914V108.178H115.728V95.457H128.447V88.6426H115.728V76.377Z" fill="#E4EBE1"/>
<path d="M108.914 76.377V75.377H107.914V76.377H108.914ZM115.728 76.377H116.728V75.377H115.728V76.377ZM108.914 88.6426V89.6426H109.914V88.6426H108.914ZM96.6465 88.6426V87.6426H95.6465V88.6426H96.6465ZM96.6465 95.457H95.6465V96.457H96.6465V95.457ZM108.914 95.457H109.914V94.457H108.914V95.457ZM108.914 108.178H107.914V109.178H108.914V108.178ZM115.728 108.178V109.178H116.728V108.178H115.728ZM115.728 95.457V94.457H114.728V95.457H115.728ZM128.447 95.457V96.457H129.447V95.457H128.447ZM128.447 88.6426H129.447V87.6426H128.447V88.6426ZM115.728 88.6426H114.728V89.6426H115.728V88.6426ZM108.914 77.377H115.728V75.377H108.914V77.377ZM109.914 88.6426V76.377H107.914V88.6426H109.914ZM96.6465 89.6426H108.914V87.6426H96.6465V89.6426ZM97.6465 95.457V88.6426H95.6465V95.457H97.6465ZM108.914 94.457H96.6465V96.457H108.914V94.457ZM109.914 108.178V95.457H107.914V108.178H109.914ZM115.728 107.178H108.914V109.178H115.728V107.178ZM114.728 95.457V108.178H116.728V95.457H114.728ZM128.447 94.457H115.728V96.457H128.447V94.457ZM127.447 88.6426V95.457H129.447V88.6426H127.447ZM115.728 89.6426H128.447V87.6426H115.728V89.6426ZM114.728 76.377V88.6426H116.728V76.377H114.728Z" fill="#254839" mask="url(#path-364-inside-4_92_474112)"/>
<mask id="mask10_92_474112" style="mask-type:alpha" maskUnits="userSpaceOnUse" x="96" y="76" width="33" height="33">
<mask id="path-366-inside-5_92_474112" fill="white">
<path fill-rule="evenodd" clip-rule="evenodd" d="M115.728 76.377H108.914V88.6426H96.6465V95.457H108.914V108.178H115.728V95.457H128.447V88.6426H115.728V76.377Z"/>
</mask>
<path fill-rule="evenodd" clip-rule="evenodd" d="M115.728 76.377H108.914V88.6426H96.6465V95.457H108.914V108.178H115.728V95.457H128.447V88.6426H115.728V76.377Z" fill="#B3D7E6"/>
<path d="M108.914 76.377V75.377H107.914V76.377H108.914ZM115.728 76.377H116.728V75.377H115.728V76.377ZM108.914 88.6426V89.6426H109.914V88.6426H108.914ZM96.6465 88.6426V87.6426H95.6465V88.6426H96.6465ZM96.6465 95.457H95.6465V96.457H96.6465V95.457ZM108.914 95.457H109.914V94.457H108.914V95.457ZM108.914 108.178H107.914V109.178H108.914V108.178ZM115.728 108.178V109.178H116.728V108.178H115.728ZM115.728 95.457V94.457H114.728V95.457H115.728ZM128.447 95.457V96.457H129.447V95.457H128.447ZM128.447 88.6426H129.447V87.6426H128.447V88.6426ZM115.728 88.6426H114.728V89.6426H115.728V88.6426ZM108.914 77.377H115.728V75.377H108.914V77.377ZM109.914 88.6426V76.377H107.914V88.6426H109.914ZM96.6465 89.6426H108.914V87.6426H96.6465V89.6426ZM97.6465 95.457V88.6426H95.6465V95.457H97.6465ZM108.914 94.457H96.6465V96.457H108.914V94.457ZM109.914 108.178V95.457H107.914V108.178H109.914ZM115.728 107.178H108.914V109.178H115.728V107.178ZM114.728 95.457V108.178H116.728V95.457H114.728ZM128.447 94.457H115.728V96.457H128.447V94.457ZM127.447 88.6426V95.457H129.447V88.6426H127.447ZM115.728 89.6426H128.447V87.6426H115.728V89.6426ZM114.728 76.377V88.6426H116.728V76.377H114.728Z" fill="#254839" mask="url(#path-366-inside-5_92_474112)"/>
</mask>
<g mask="url(#mask10_92_474112)">
<g opacity="0.5">
<path d="M119.291 57.043L119.291 157.043" stroke="#254839"/>
<path d="M121.291 57.043L121.291 157.043" stroke="#254839"/>
<path d="M123.291 57.043L123.291 157.043" stroke="#254839"/>
<path d="M125.291 57.043L125.291 157.043" stroke="#254839"/>
<path d="M103.291 57.043L103.291 157.043" stroke="#254839"/>
<path d="M97.291 57.043L97.291 157.043" stroke="#254839"/>
<path d="M127.291 57.043L127.291 157.043" stroke="#254839"/>
<path d="M107.291 57.043L107.291 157.043" stroke="#254839"/>
<path d="M99.291 57.043L99.291 157.043" stroke="#254839"/>
<path d="M101.291 57.043L101.291 157.043" stroke="#254839"/>
<path d="M105.291 57.043L105.291 157.043" stroke="#254839"/>
<path d="M109.291 57.043L109.291 157.043" stroke="#254839"/>
<path d="M111.291 57.043L111.291 157.043" stroke="#254839"/>
<path d="M113.291 57.043L113.291 157.043" stroke="#254839"/>
<path d="M115.291 57.043L115.291 157.043" stroke="#254839"/>
<path d="M117.291 57.043L117.291 157.043" stroke="#254839"/>
<path d="M119.291 57.043L119.291 157.043" stroke="#254839"/>
</g>
</g>
<path fill-rule="evenodd" clip-rule="evenodd" d="M78.082 102.576H71.2676V114.842H59V121.656H71.2676V134.377H78.082V121.656H90.8008V114.842H78.082V102.576Z" fill="#254839"/>
<mask id="path-386-inside-6_92_474112" fill="white">
<path fill-rule="evenodd" clip-rule="evenodd" d="M78.082 101.377H71.2676V113.643H59V120.457H71.2676V133.178H78.082V120.457H90.8008V113.643H78.082V101.377Z"/>
</mask>
<path fill-rule="evenodd" clip-rule="evenodd" d="M78.082 101.377H71.2676V113.643H59V120.457H71.2676V133.178H78.082V120.457H90.8008V113.643H78.082V101.377Z" fill="#E4EBE1"/>
<path d="M71.2676 101.377V100.377H70.2676V101.377H71.2676ZM78.082 101.377H79.082V100.377H78.082V101.377ZM71.2676 113.643V114.643H72.2676V113.643H71.2676ZM59 113.643V112.643H58V113.643H59ZM59 120.457H58V121.457H59V120.457ZM71.2676 120.457H72.2676V119.457H71.2676V120.457ZM71.2676 133.178H70.2676V134.178H71.2676V133.178ZM78.082 133.178V134.178H79.082V133.178H78.082ZM78.082 120.457V119.457H77.082V120.457H78.082ZM90.8008 120.457V121.457H91.8008V120.457H90.8008ZM90.8008 113.643H91.8008V112.643H90.8008V113.643ZM78.082 113.643H77.082V114.643H78.082V113.643ZM71.2676 102.377H78.082V100.377H71.2676V102.377ZM72.2676 113.643V101.377H70.2676V113.643H72.2676ZM59 114.643H71.2676V112.643H59V114.643ZM60 120.457V113.643H58V120.457H60ZM71.2676 119.457H59V121.457H71.2676V119.457ZM72.2676 133.178V120.457H70.2676V133.178H72.2676ZM78.082 132.178H71.2676V134.178H78.082V132.178ZM77.082 120.457V133.178H79.082V120.457H77.082ZM90.8008 119.457H78.082V121.457H90.8008V119.457ZM89.8008 113.643V120.457H91.8008V113.643H89.8008ZM78.082 114.643H90.8008V112.643H78.082V114.643ZM77.082 101.377V113.643H79.082V101.377H77.082Z" fill="#254839" mask="url(#path-386-inside-6_92_474112)"/>
<mask id="mask11_92_474112" style="mask-type:alpha" maskUnits="userSpaceOnUse" x="59" y="101" width="32" height="33">
<mask id="path-388-inside-7_92_474112" fill="white">
<path fill-rule="evenodd" clip-rule="evenodd" d="M78.082 101.377H71.2676V113.643H59V120.457H71.2676V133.178H78.082V120.457H90.8008V113.643H78.082V101.377Z"/>
</mask>
<path fill-rule="evenodd" clip-rule="evenodd" d="M78.082 101.377H71.2676V113.643H59V120.457H71.2676V133.178H78.082V120.457H90.8008V113.643H78.082V101.377Z" fill="#B3D7E6"/>
<path d="M71.2676 101.377V100.377H70.2676V101.377H71.2676ZM78.082 101.377H79.082V100.377H78.082V101.377ZM71.2676 113.643V114.643H72.2676V113.643H71.2676ZM59 113.643V112.643H58V113.643H59ZM59 120.457H58V121.457H59V120.457ZM71.2676 120.457H72.2676V119.457H71.2676V120.457ZM71.2676 133.178H70.2676V134.178H71.2676V133.178ZM78.082 133.178V134.178H79.082V133.178H78.082ZM78.082 120.457V119.457H77.082V120.457H78.082ZM90.8008 120.457V121.457H91.8008V120.457H90.8008ZM90.8008 113.643H91.8008V112.643H90.8008V113.643ZM78.082 113.643H77.082V114.643H78.082V113.643ZM71.2676 102.377H78.082V100.377H71.2676V102.377ZM72.2676 113.643V101.377H70.2676V113.643H72.2676ZM59 114.643H71.2676V112.643H59V114.643ZM60 120.457V113.643H58V120.457H60ZM71.2676 119.457H59V121.457H71.2676V119.457ZM72.2676 133.178V120.457H70.2676V133.178H72.2676ZM78.082 132.178H71.2676V134.178H78.082V132.178ZM77.082 120.457V133.178H79.082V120.457H77.082ZM90.8008 119.457H78.082V121.457H90.8008V119.457ZM89.8008 113.643V120.457H91.8008V113.643H89.8008ZM78.082 114.643H90.8008V112.643H78.082V114.643ZM77.082 101.377V113.643H79.082V101.377H77.082Z" fill="#254839" mask="url(#path-388-inside-7_92_474112)"/>
</mask>
<g mask="url(#mask11_92_474112)">
<g opacity="0.5">
<path d="M81.6445 82.043L81.6445 182.043" stroke="#254839"/>
<path d="M83.6445 82.043L83.6445 182.043" stroke="#254839"/>
<path d="M85.6445 82.043L85.6445 182.043" stroke="#254839"/>
<path d="M87.6445 82.043L87.6445 182.043" stroke="#254839"/>
<path d="M65.6445 82.043L65.6445 182.043" stroke="#254839"/>
<path d="M59.6445 82.043L59.6445 182.043" stroke="#254839"/>
<path d="M89.6445 82.043L89.6445 182.043" stroke="#254839"/>
<path d="M69.6445 82.043L69.6445 182.043" stroke="#254839"/>
<path d="M61.6445 82.043L61.6445 182.043" stroke="#254839"/>
<path d="M63.6445 82.043L63.6445 182.043" stroke="#254839"/>
<path d="M67.6445 82.043L67.6445 182.043" stroke="#254839"/>
<path d="M71.6445 82.043L71.6445 182.043" stroke="#254839"/>
<path d="M73.6445 82.043L73.6445 182.043" stroke="#254839"/>
<path d="M75.6445 82.043L75.6445 182.043" stroke="#254839"/>
<path d="M77.6445 82.043L77.6445 182.043" stroke="#254839"/>
<path d="M79.6445 82.043L79.6445 182.043" stroke="#254839"/>
<path d="M81.6445 82.043L81.6445 182.043" stroke="#254839"/>
</g>
</g>
</svg>
