<svg width="169" height="48" viewBox="0 0 169 48" fill="none" xmlns="http://www.w3.org/2000/svg">
<path d="M16 19V21.9891H27.7072C28.2011 21.9891 28.5652 21.7356 28.7961 21.2301L29.6311 19.0016H16V19ZM16 25.8547V35.6046H19.3615V29.343C19.3615 29.1694 19.4196 29.0284 19.5359 28.9173C19.6506 28.8062 19.7867 28.75 19.9411 28.75H24.647C25.1409 28.75 25.5049 28.4823 25.7359 27.944L26.4546 25.8547H16Z" fill="#BCC8C0"/>
<path d="M43.5811 20.1863C43.211 19.396 42.6391 19 41.8667 19H39.224L32.5469 35.6046H36.0476L41.1005 22.3679L46.0618 35.6046H49.7016L43.5811 20.1863Z" fill="#BCC8C0"/>
<path d="M58.3562 32.5685V20.1863C58.3562 19.8529 58.2446 19.5744 58.0212 19.3427C57.7979 19.1142 57.5227 19 57.1985 19H54.9961V35.6046H65.2887C65.7519 35.6046 66.1084 35.3526 66.3563 34.8471L67.2355 32.5685H58.3562Z" fill="#BCC8C0"/>
<path d="M84.6895 31.2787C84.4585 31.2787 84.2256 31.3586 83.9946 31.5166C82.9899 32.2913 81.8617 32.6778 80.6091 32.6778C79.0948 32.6778 77.8346 32.1598 76.8299 31.1238C75.8252 30.0878 75.3237 28.8202 75.3237 27.3162C75.3237 25.8123 75.8221 24.4773 76.8176 23.4491C77.8134 22.4209 79.0476 21.906 80.5143 21.906C81.7987 21.906 82.9561 22.3176 83.9919 23.1392C84.2229 23.2973 84.4555 23.3755 84.6861 23.3755C84.9171 23.3755 85.1435 23.3051 85.3592 23.1627L87.2369 21.834C86.497 20.9169 85.5307 20.1736 84.3407 19.6039C83.1495 19.0358 81.8755 18.751 80.5143 18.751C78.9236 18.751 77.4708 19.1266 76.1556 19.8762C74.8432 20.6274 73.7986 21.6478 73.0265 22.9374C72.254 24.2269 71.8672 25.6839 71.8672 27.313C71.8672 28.8467 72.2344 30.2631 72.9666 31.5604C73.7008 32.8563 74.7166 33.8954 76.0148 34.6795C77.313 35.462 78.812 35.8532 80.5112 35.8532C81.7957 35.8532 83.0271 35.5762 84.2091 35.0222C85.391 34.4682 86.3758 33.7264 87.1655 32.7921L85.3561 31.4885C85.1405 31.346 84.9171 31.2741 84.683 31.2741" fill="#BCC8C0"/>
<path d="M108.526 22.866C107.739 21.5858 106.691 20.5779 105.387 19.8424C104.491 19.3385 103.537 19.0067 102.53 18.8486V22.071C103.408 22.301 104.166 22.7596 104.807 23.4466C105.772 24.4826 106.255 25.769 106.255 27.3012C106.255 28.8333 105.772 30.1229 104.807 31.1573C104.166 31.8443 103.408 32.3045 102.53 32.5346V35.7631C103.608 35.6004 104.604 35.2482 105.514 34.7052C106.81 33.9305 107.835 32.8945 108.585 31.5971C109.334 30.3013 109.708 28.8693 109.708 27.3012C109.708 25.6266 109.314 24.1477 108.526 22.866ZM93.6549 23.0084C92.9058 24.3058 92.5312 25.7362 92.5312 27.3012C92.5312 28.9789 92.9288 30.4624 93.7251 31.7504C94.5206 33.04 95.5717 34.0479 96.8773 34.774C97.7737 35.2733 98.7174 35.6019 99.7113 35.7584V32.5298C98.8563 32.2998 98.1037 31.8412 97.4571 31.1573C96.4751 30.1229 95.9839 28.8364 95.9839 27.3012C95.9839 25.7659 96.4751 24.4638 97.4571 23.4356C98.1037 22.7565 98.8563 22.3026 99.7113 22.0726V18.8408C98.636 19.002 97.6417 19.3541 96.7272 19.9003C95.4294 20.6766 94.4063 21.7126 93.6549 23.0084Z" fill="#BCC8C0"/>
<path d="M129.425 19H126.272V30.9299C124.648 28.5215 120.978 23.0267 119.24 20.4242C118.649 19.5384 117.668 19.0063 116.62 19.0031L115.006 19V35.6046H118.182V24.5041L124.396 34.1413C124.985 35.0553 125.984 35.6046 127.054 35.6046H129.426V19H129.425Z" fill="#BCC8C0"/>
<path d="M138.679 19.042H134.721L140.474 27.4179L134.903 35.5621H138.862L144.337 27.4194L138.679 19.042ZM146.158 19.042L143.82 22.4599L145.767 25.2925L150.094 19.042H146.158ZM145.769 29.3131L143.817 32.1535L146.16 35.5636H150.095L145.769 29.3146V29.3131Z" fill="#BCC8C0"/>
</svg>
