<svg width="169" height="48" viewBox="0 0 169 48" fill="none" xmlns="http://www.w3.org/2000/svg">
<path d="M57.1289 14.3281H63.0692C68.5669 14.3281 71.2213 17.6415 71.2213 22.3767C71.2213 27.112 68.5669 30.4253 63.0692 30.4253H57.1289V14.3281ZM60.8089 26.9959H63.254C66.1422 26.9959 67.3302 25.0596 67.3302 22.3767C67.3302 19.6939 66.1422 17.7575 63.254 17.7575H60.8089V26.9959Z" fill="#BCC8C0"/>
<path d="M73.4766 14.3281H77.1565V30.4253H73.4766V14.3281Z" fill="#BCC8C0"/>
<path d="M86.7782 21.8153H95.3505V30.4234H92.3692V28.0678H91.9505C90.9962 29.6768 89.3653 30.8442 86.9181 30.8442C82.7021 30.8442 79.418 27.2522 79.418 22.3748C79.418 17.4973 82.8199 13.9053 87.6879 13.9053C91.6236 13.9053 94.1641 16.1448 95.0943 18.7808V19.9931H91.4144C90.925 18.4533 89.6437 17.241 87.6879 17.241C85.1023 17.241 83.2623 19.458 83.2623 22.3728C83.2623 25.2877 85.1023 27.6226 87.7586 27.6226C89.6698 27.6226 91.1136 26.4551 91.6963 24.8237H86.7817V21.8135L86.7782 21.8153Z" fill="#BCC8C0"/>
<path d="M98.0039 14.3281H101.684V30.4253H98.0039V14.3281Z" fill="#BCC8C0"/>
<path d="M116.475 14.3281V17.7575H111.816V30.4253H108.112V17.7575H103.453V14.3281H116.475Z" fill="#BCC8C0"/>
<path d="M125.883 14.3281L130.868 29.3064V30.4271H127.258L126.303 27.2785H120.084L119.13 30.4271H115.543V29.3064L120.576 14.3281H125.886H125.883ZM121.084 24.01H125.3L124.205 20.4179C123.878 19.2505 123.622 18.3188 123.437 17.0578H122.948C122.785 18.317 122.53 19.2505 122.18 20.3936L121.085 24.01H121.084Z" fill="#BCC8C0"/>
<path d="M132.754 14.3281H136.434V26.9959H143.422V30.4253H132.754V14.3281Z" fill="#BCC8C0"/>
<path d="M43.616 36.936C36.2766 31.6526 35.3856 20.5265 42.8782 15.0166C40.2853 15.1364 38.6153 15.9409 38.1876 16.1897C35.86 19.8023 35.322 24.6125 36.7323 28.7265C38.21 33.2222 41.832 36.9003 46.2518 38.5299C45.3252 38.0847 44.5631 37.6357 43.616 36.9379V36.936Z" fill="#BCC8C0"/>
<path d="M40.5909 29.8242C40.0865 28.0093 39.9726 25.5117 40.6993 23.3809H38.9321C38.5211 26.8644 39.6662 30.8232 41.9134 33.1207C41.9134 33.1207 41.1176 31.8316 40.5909 29.8242Z" fill="#BCC8C0"/>
<path d="M37.7811 4.90916C27.2717 12.5741 25.9753 28.4674 35.0856 37.6777C42.4044 45.5541 55.503 46.5215 63.866 39.8219C51.4756 48.656 33.3465 41.3389 31.4635 25.9734C29.9299 14.8511 38.8385 4.31045 50.2128 4.67156L53.0895 0.639785C47.6685 0.0897438 42.1355 1.64819 37.7811 4.90916Z" fill="#BCC8C0"/>
<path d="M49.6386 5.48242C40.7263 5.55912 33.0937 12.9753 32.6024 21.8321C31.4535 33.5963 43.0445 43.7553 54.5309 41.4951C42.9567 43.1077 31.8234 31.6355 35.3054 20.1165C36.7531 14.7658 41.311 10.3972 46.7862 9.50858L49.6368 5.48242H49.6386Z" fill="#BCC8C0"/>
<path d="M70.0058 36.029C56.8982 54.4234 27.972 45.4901 27.8058 22.7719C27.8114 15.6363 31.2803 8.65789 37.0356 4.4428V0.719727C24.0828 9.12749 21.5909 27.7989 32.2236 39.0917C42.8918 50.5996 61.0751 49.1214 70.2004 36.5098L70.0043 36.029H70.0058Z" fill="#BCC8C0"/>
<path d="M57.1289 9.73445V3.26679H60.3737C61.6327 3.26679 62.4004 2.88513 62.5835 2.78223V4.77101L58.9483 4.76725V6.3182H62.3575V7.8299H59.0007V9.73631H57.1308L57.1289 9.73445Z" fill="#BCC8C0"/>
<path d="M73.1981 9.89047C71.8606 9.89047 70.9659 9.62665 70.4575 9.08222C70.0728 8.67062 69.9104 8.10563 69.957 7.35352H71.7764C71.7503 7.73333 71.814 7.99525 71.978 8.173C72.1836 8.39747 72.5497 8.49291 73.1981 8.49291C74.035 8.49291 74.3916 8.30579 74.3916 7.86613C74.3916 7.36099 73.6223 7.23942 72.9419 7.13275C72.8225 7.11405 72.7051 7.09535 72.5928 7.07476C71.2308 6.8334 70.0092 6.50039 70.0092 5.1122C70.0092 3.84 71.1375 3.11035 73.1048 3.11035C75.2772 3.11035 75.9683 4.13372 76.1644 4.58275L75.1072 6.0701C75.1017 6.03641 75.0961 6.00273 75.0886 5.97094C74.8625 4.9139 73.7006 4.51914 73.0206 4.51914C72.2975 4.51914 71.9314 4.68752 71.9314 5.02052C71.9314 5.42465 72.4173 5.51819 73.0898 5.64917C73.2222 5.67534 73.355 5.69965 73.4914 5.72958C74.1058 5.85495 74.6794 6.01957 74.9669 6.10753C75.0119 6.12062 75.1875 6.1917 75.2341 6.2104C76.0169 6.55463 76.366 7.04297 76.366 7.79504C76.366 9.61918 74.3821 9.89047 73.2001 9.89047H73.1981Z" fill="#BCC8C0"/>
<path d="M88.77 9.73524L85.8839 5.80452L85.8895 5.89055C85.91 6.25162 85.9215 6.61274 85.9215 7.02805V9.73524H84.1543V3.26758H86.0073L88.8914 7.15341L88.8878 7.06921C88.8673 6.65575 88.8562 6.26285 88.8562 5.90178V3.26758H90.623V9.73524H88.77Z" fill="#BCC8C0"/>
<path d="M81.8742 9.73524L81.4915 8.78296H78.6351L78.2635 9.73524H76.418L79.0629 3.26758H81.1365L83.7908 9.73524H81.8726H81.8742ZM79.1842 7.3854H80.9439L80.0473 5.12535L79.1842 7.3854Z" fill="#BCC8C0"/>
<path d="M96.3603 9.73524L95.9772 8.78296H93.1212L92.7586 9.73524H90.8926L93.547 3.26758H95.6206L98.2749 9.73524H96.3563H96.3603ZM93.6608 7.3854H95.43L94.5353 5.12725L93.6608 7.3854Z" fill="#BCC8C0"/>
<path d="M110.433 9.73027L110.05 8.77799H107.193L106.811 9.73027H104.965L107.61 3.2626H109.693L112.348 9.73027H110.429H110.433ZM107.722 7.38044H109.503L108.608 5.11105L107.722 7.38044ZM102.979 9.73027L101.76 7.4852H100.355V9.73027H98.5468V5.07923C98.5468 4.05587 98.1451 3.42164 98.0312 3.26074H101.58C103.587 3.26074 104.562 3.93238 104.562 5.31497C104.562 7.05115 102.471 7.39914 102.053 7.45152H102.042L102.045 7.50204H103.674L104.896 9.72651H102.981L102.979 9.73027ZM100.357 6.19055H101.364C102.113 6.19055 102.522 6.01095 102.624 5.63117C102.641 5.56567 102.651 5.49644 102.651 5.41974C102.651 5.29438 102.611 5.15593 102.55 5.06053C102.492 4.9726 102.41 4.89776 102.307 4.83977C102.101 4.72191 101.808 4.66016 101.438 4.66016H100.359V6.19055H100.357Z" fill="#BCC8C0"/>
<path d="M68.0082 9.73524L67.616 8.78296H64.7711L64.3994 9.73524H62.5332L65.1878 3.26758H67.2705L69.9158 9.73524H68.0082ZM65.3091 7.3854H67.0688L66.1722 5.12535L65.3091 7.3854Z" fill="#BCC8C0"/>
</svg>
