<svg width="306" height="70" viewBox="0 0 306 70" fill="none" xmlns="http://www.w3.org/2000/svg">
<g clip-path="url(#clip0_274_24)">
<path fill-rule="evenodd" clip-rule="evenodd" d="M23.2773 46.6662H34.9159V34.9996H23.2773V23.3331H46.5547V58.3327H11.6386V46.6662H0V0H46.5547V11.6665H11.6386V23.3331V46.6662H23.2773Z" fill="#7180F5"/>
<path d="M58.1928 11.666H46.554V23.3326H58.1928V11.666Z" fill="#FF8099"/>
<path d="M11.6386 58.3335H0V70H11.6386V58.3335Z" fill="#FFFFFF"/>
<path d="M117.033 30.1632H123.36L123.338 29.9689C122.832 25.4008 121.183 21.825 118.198 19.3943C115.216 16.9661 110.925 15.7012 105.176 15.7012C98.5438 15.7012 93.73 17.8577 90.5759 21.4231C87.4253 24.985 85.9509 29.9311 85.9509 35.4763C85.9509 41.0469 87.3403 45.9917 90.3217 49.5467C93.3072 53.1069 97.8709 55.2513 104.17 55.2513C111.014 55.2513 115.741 52.1405 117.739 47.2202V54.2993H123.284V35.3013H101.649V39.9073H117.323C116.944 42.6373 116.004 45.1636 114.138 47.0211C112.23 48.9198 109.332 50.1413 105.008 50.1413C100.405 50.1413 97.2505 48.8358 95.2411 46.3764C93.2257 43.9092 92.3339 40.2479 92.3339 35.4763C92.3339 30.65 93.2809 26.9886 95.317 24.5351C97.3478 22.0883 100.489 20.8112 104.953 20.8112C108.871 20.8112 111.689 21.5918 113.622 23.1186C115.551 24.6424 116.626 26.9314 117.014 30.0101L117.033 30.1632Z" fill="#FFFFFF"/>
<path fill-rule="evenodd" clip-rule="evenodd" d="M144.157 36.8157L137.174 37.9917C134.026 38.5268 131.861 39.5317 130.484 40.9908C129.104 42.4538 128.537 44.3501 128.537 46.6202C128.537 49.2393 129.447 51.3477 131.096 52.7995C132.743 54.2488 135.106 55.0272 137.985 55.0272C143.484 55.0272 146.574 52.0221 147.93 48.7622C147.958 50.6074 148.068 52.2731 148.259 54.1421L148.275 54.2992H153.706L153.69 54.1092C153.467 51.4824 153.411 49.8073 153.411 47.7402V33.8521C153.411 31.2292 152.442 29.0061 150.482 27.4432C148.528 25.8843 145.607 24.9971 141.728 24.9971C137.737 24.9971 134.607 25.9408 132.464 27.6533C130.317 29.3695 129.18 31.8435 129.152 34.8584L129.15 35.0352H135.074L135.087 34.8739C135.224 33.1447 135.823 31.852 136.927 30.9869C138.036 30.1176 139.681 29.6591 141.952 29.6591C144.34 29.6591 145.828 30.0917 146.717 30.8038C147.597 31.5082 147.922 32.5117 147.922 33.7401C147.922 34.6772 147.632 35.3222 147.039 35.794C146.433 36.2763 145.492 36.5927 144.157 36.8157ZM143.165 40.9667C144.738 40.5985 146.443 40.175 147.922 39.174V40.5162C147.922 43.2858 147.163 45.7487 145.693 47.5162C144.228 49.2792 142.044 50.3652 139.159 50.3652C137.733 50.3652 136.561 50.0075 135.75 49.3408C134.943 48.6775 134.473 47.6937 134.473 46.3962C134.473 45.1467 134.837 44.2168 135.604 43.5003C136.381 42.7755 137.589 42.2522 139.31 41.8627L143.165 40.9667Z" fill="#FFFFFF"/>
<path d="M184.916 25.9492H178.98V37.9404C178.98 42.0938 178.187 45.1616 176.797 47.186C175.413 49.2016 173.429 50.1974 170.998 50.1974C169.143 50.1974 167.563 49.8491 166.445 48.8089C165.329 47.7708 164.636 46.0082 164.636 43.0924V25.9492H158.7V43.5964C158.7 47.2829 159.444 50.1886 161.152 52.1735C162.865 54.1636 165.52 55.1954 169.266 55.1954C171.926 55.1954 174.032 54.4569 175.678 53.1923C177.109 52.093 178.185 50.6027 178.98 48.8737V54.2994H184.916V25.9492Z" fill="#FFFFFF"/>
<path d="M211.55 54.2994H217.486V36.6524C217.486 32.9682 216.8 30.0625 215.148 28.0772C213.491 26.0849 210.89 25.0532 207.144 25.0532C204.427 25.0532 202.28 25.82 200.599 27.1197C199.131 28.2544 198.027 29.7888 197.206 31.5546V25.9492H191.271V54.2994H197.206V42.3084C197.206 37.87 197.96 34.8064 199.366 32.8557C200.764 30.9171 202.827 30.0512 205.524 30.0512C207.265 30.0512 208.76 30.3983 209.822 31.4366C210.884 32.4746 211.55 34.2386 211.55 37.1564V54.2994Z" fill="#FFFFFF"/>
<path d="M220.594 26.4398V30.6111H225.902V45.8922C225.902 48.6999 226.319 50.8178 227.632 52.2276C228.946 53.6398 231.117 54.2992 234.512 54.2992H240.217V49.4692H231.837V30.6111H240.776V25.9491H231.837V19.6211H228.756L225.958 25.959L220.594 26.4398Z" fill="#FFFFFF"/>
<path d="M245.365 14.749V54.2992H251.3V14.749H245.365Z" fill="#FFFFFF"/>
<path fill-rule="evenodd" clip-rule="evenodd" d="M284.026 45.4934H278.554L278.519 45.6229C278.136 47.0484 277.401 48.3126 276.148 49.2226C274.894 50.1333 273.103 50.7014 270.587 50.7014C268.208 50.7014 266.163 50.1743 264.657 48.8009C263.178 47.4527 262.192 45.2624 261.947 41.8674H283.921L283.944 41.719C284.057 40.9773 284.057 40.2938 284.057 39.5696V39.5644C284.057 35.5282 282.903 31.8999 280.613 29.278C278.321 26.6528 274.905 25.0532 270.419 25.0532C265.599 25.0532 262.015 26.7362 259.638 29.4672C257.264 32.1946 256.11 35.9492 256.11 40.0684C256.11 44.2393 257.164 48.0225 259.49 50.7654C261.819 53.5133 265.405 55.1954 270.419 55.1954C275.369 55.1954 278.64 53.8132 280.738 51.9236C282.835 50.0353 283.744 47.656 284 45.6908L284.026 45.4934ZM261.76 41.6924C261.763 41.7484 261.767 41.8044 261.771 41.86C261.77 41.8432 261.769 41.8268 261.768 41.8103C261.765 41.7711 261.762 41.7316 261.76 41.6924ZM283.82 45.7237C283.816 45.7499 283.812 45.7765 283.808 45.8031C283.812 45.779 283.815 45.7552 283.819 45.7314L283.82 45.7237ZM276.134 31.4913C277.418 32.7719 278.173 34.722 278.335 37.4294H262.011C262.362 34.4563 263.304 32.5054 264.709 31.2897C266.145 30.047 268.094 29.5472 270.475 29.5472C272.932 29.5472 274.822 30.1832 276.134 31.4913Z" fill="#FFFFFF"/>
<path d="M285.629 26.4398V30.6111H290.936V45.8922C290.936 48.6999 291.354 50.8178 292.666 52.2276C293.981 53.6398 296.152 54.2992 299.547 54.2992H305.252V49.4692H296.872V30.6111H305.811V25.9491H296.872V19.6211H293.791L290.993 25.959L285.629 26.4398Z" fill="#FFFFFF"/>
</g>
<defs>
<clipPath id="clip0_274_24">
<rect width="306" height="70" fill="white"/>
</clipPath>
</defs>
</svg>
