<svg xmlns="http://www.w3.org/2000/svg" width="114" height="120" viewBox="0 0 114 120" fill="none">
  <g clip-path="url(#clip0_506_9215)">
    <path d="M105.418 28.4283C104.68 33.8384 99.793 37.8033 99.793 37.8033C99.793 37.8033 104.484 30.6783 103.918 23.9283C103.597 20.0977 99.418 18.6783 99.418 18.6783C99.418 18.6783 106.543 20.1783 105.418 28.4283Z" fill="#254839"/>
    <path d="M17.6632 85.7977C11.5035 75.1287 42.7461 53.6338 60.7931 43.4282C75.5864 34.027 84.809 29.1452 90.7932 26.9288C100.918 23.1788 102.793 25.8034 102.793 25.8034C102.793 25.8034 103.249 23.7107 101.668 22.0538C99.9044 15.9783 71.6431 22.7284 48.4181 35.5532C27.2036 47.2678 7.32762 63.4529 10.1678 73.8038L17.6632 85.7977Z" fill="#E4EBE1" stroke="#254839" stroke-width="0.75"/>
    <mask id="mask0_506_9215" style="mask-type:alpha" maskUnits="userSpaceOnUse" x="9" y="19" width="95" height="68">
      <path d="M17.6632 85.7977C11.5035 75.1287 42.7461 53.6338 60.7931 43.4282C75.5864 34.027 84.809 29.1452 90.7932 26.9288C100.918 23.1788 102.793 25.8034 102.793 25.8034C102.793 25.8034 103.249 23.7107 101.668 22.0538C99.9044 15.9783 71.6431 22.7284 48.4181 35.5532C27.2036 47.2678 7.32762 63.4529 10.1678 73.8038L17.6632 85.7977Z" fill="#F1F3ED" stroke="#254839" stroke-width="0.75"/>
    </mask>
    <g mask="url(#mask0_506_9215)">
      <g opacity="0.5">
        <path d="M58.6069 43.0535L9.41772 43.0535" stroke="#254839" stroke-width="0.491892"/>
        <path d="M58.6069 57.8103L9.41772 57.8103" stroke="#254839" stroke-width="0.491892"/>
        <path d="M58.6069 72.567L9.41772 72.567" stroke="#254839" stroke-width="0.491892"/>
        <path d="M58.6069 44.0374L9.41772 44.0374" stroke="#254839" stroke-width="0.491892"/>
        <path d="M58.6069 58.7941L9.41772 58.7941" stroke="#254839" stroke-width="0.491892"/>
        <path d="M58.6069 73.5509L9.41772 73.5509" stroke="#254839" stroke-width="0.491892"/>
        <path d="M58.6069 45.0211L9.41772 45.0211" stroke="#254839" stroke-width="0.491892"/>
        <path d="M58.6069 59.7778L9.41772 59.7778" stroke="#254839" stroke-width="0.491892"/>
        <path d="M58.6069 74.5347L9.41772 74.5347" stroke="#254839" stroke-width="0.491892"/>
        <path d="M58.6069 46.0049L9.41772 46.0049" stroke="#254839" stroke-width="0.491892"/>
        <path d="M58.6069 60.7616L9.41772 60.7616" stroke="#254839" stroke-width="0.491892"/>
        <path d="M58.6069 75.5184L9.41772 75.5184" stroke="#254839" stroke-width="0.491892"/>
        <path d="M58.6069 49.9401L9.41772 49.9401" stroke="#254839" stroke-width="0.491892"/>
        <path d="M58.6069 64.6968L9.41772 64.6968" stroke="#254839" stroke-width="0.491892"/>
        <path d="M58.6069 79.4536L9.41772 79.4536" stroke="#254839" stroke-width="0.491892"/>
        <path d="M58.6069 46.9886L9.41772 46.9886" stroke="#254839" stroke-width="0.491892"/>
        <path d="M58.6069 61.7454L9.41772 61.7454" stroke="#254839" stroke-width="0.491892"/>
        <path d="M58.6069 76.5022L9.41772 76.5022" stroke="#254839" stroke-width="0.491892"/>
        <path d="M58.6069 51.9076L9.41772 51.9076" stroke="#254839" stroke-width="0.491892"/>
        <path d="M58.6069 66.6643L9.41772 66.6643" stroke="#254839" stroke-width="0.491892"/>
        <path d="M58.6069 81.4211L9.41772 81.4211" stroke="#254839" stroke-width="0.491892"/>
        <path d="M58.6069 47.9724L9.41772 47.9724" stroke="#254839" stroke-width="0.491892"/>
        <path d="M58.6069 62.7292L9.41772 62.7292" stroke="#254839" stroke-width="0.491892"/>
        <path d="M58.6069 77.486L9.41772 77.486" stroke="#254839" stroke-width="0.491892"/>
        <path d="M58.6069 48.9563L9.41772 48.9563" stroke="#254839" stroke-width="0.491892"/>
        <path d="M58.6069 63.713L9.41772 63.713" stroke="#254839" stroke-width="0.491892"/>
        <path d="M58.6069 78.4697L9.41772 78.4697" stroke="#254839" stroke-width="0.491892"/>
        <path d="M58.6069 50.9238L9.41772 50.9238" stroke="#254839" stroke-width="0.491892"/>
        <path d="M58.6069 65.6805L9.41772 65.6805" stroke="#254839" stroke-width="0.491892"/>
        <path d="M58.6069 80.4374L9.41772 80.4374" stroke="#254839" stroke-width="0.491892"/>
        <path d="M58.6069 52.8914L9.41772 52.8914" stroke="#254839" stroke-width="0.491892"/>
        <path d="M58.6069 67.6482L9.41772 67.6482" stroke="#254839" stroke-width="0.491892"/>
        <path d="M58.6069 82.4049L9.41772 82.4049" stroke="#254839" stroke-width="0.491892"/>
        <path d="M58.6069 53.8752L9.41772 53.8752" stroke="#254839" stroke-width="0.491892"/>
        <path d="M58.6069 68.632L9.41772 68.632" stroke="#254839" stroke-width="0.491892"/>
        <path d="M58.6069 83.3887L9.41772 83.3887" stroke="#254839" stroke-width="0.491892"/>
        <path d="M58.6069 54.859L9.41772 54.859" stroke="#254839" stroke-width="0.491892"/>
        <path d="M58.6069 69.6157L9.41772 69.6157" stroke="#254839" stroke-width="0.491892"/>
        <path d="M58.6069 84.3726L9.41772 84.3726" stroke="#254839" stroke-width="0.491892"/>
        <path d="M58.6069 55.8428L9.41772 55.8428" stroke="#254839" stroke-width="0.491892"/>
        <path d="M58.6069 70.5995L9.41772 70.5995" stroke="#254839" stroke-width="0.491892"/>
        <path d="M58.6069 85.3563L9.41772 85.3563" stroke="#254839" stroke-width="0.491892"/>
        <path d="M58.6069 56.8265L9.41772 56.8265" stroke="#254839" stroke-width="0.491892"/>
        <path d="M58.6069 71.5833L9.41772 71.5832" stroke="#254839" stroke-width="0.491892"/>
      </g>
      <g opacity="0.5">
        <path d="M117.107 23.3103L67.9177 23.3103" stroke="#254839" stroke-width="0.491892"/>
        <path d="M117.107 38.067L67.9177 38.067" stroke="#254839" stroke-width="0.491892"/>
        <path d="M117.107 24.2941L67.9177 24.2941" stroke="#254839" stroke-width="0.491892"/>
        <path d="M117.107 39.0509L67.9177 39.0509" stroke="#254839" stroke-width="0.491892"/>
        <path d="M117.107 25.2778L67.9177 25.2778" stroke="#254839" stroke-width="0.491892"/>
        <path d="M117.107 40.0347L67.9177 40.0347" stroke="#254839" stroke-width="0.491892"/>
        <path d="M117.107 26.2616L67.9177 26.2616" stroke="#254839" stroke-width="0.491892"/>
        <path d="M117.107 41.0184L67.9177 41.0184" stroke="#254839" stroke-width="0.491892"/>
        <path d="M117.107 30.1968L67.9177 30.1968" stroke="#254839" stroke-width="0.491892"/>
        <path d="M117.107 44.9535L67.9177 44.9535" stroke="#254839" stroke-width="0.491892"/>
        <path d="M117.107 27.2454L67.9177 27.2454" stroke="#254839" stroke-width="0.491892"/>
        <path d="M117.107 42.0022L67.9177 42.0022" stroke="#254839" stroke-width="0.491892"/>
        <path d="M117.107 32.1643L67.9177 32.1643" stroke="#254839" stroke-width="0.491892"/>
        <path d="M117.107 46.9211L67.9177 46.9211" stroke="#254839" stroke-width="0.491892"/>
        <path d="M117.107 28.2292L67.9177 28.2292" stroke="#254839" stroke-width="0.491892"/>
        <path d="M117.107 42.986L67.9177 42.986" stroke="#254839" stroke-width="0.491892"/>
        <path d="M117.107 29.213L67.9177 29.213" stroke="#254839" stroke-width="0.491892"/>
        <path d="M117.107 43.9697L67.9177 43.9697" stroke="#254839" stroke-width="0.491892"/>
        <path d="M117.107 31.1805L67.9177 31.1805" stroke="#254839" stroke-width="0.491892"/>
        <path d="M117.107 45.9374L67.9177 45.9374" stroke="#254839" stroke-width="0.491892"/>
        <path d="M117.107 33.1482L67.9177 33.1482" stroke="#254839" stroke-width="0.491892"/>
        <path d="M117.107 47.9049L67.9177 47.9049" stroke="#254839" stroke-width="0.491892"/>
        <path d="M117.107 19.3751L67.9177 19.3751" stroke="#254839" stroke-width="0.491892"/>
        <path d="M117.107 34.132L67.9177 34.132" stroke="#254839" stroke-width="0.491892"/>
        <path d="M117.107 48.8887L67.9177 48.8887" stroke="#254839" stroke-width="0.491892"/>
        <path d="M117.107 20.359L67.9177 20.359" stroke="#254839" stroke-width="0.491892"/>
        <path d="M117.107 35.1157L67.9177 35.1157" stroke="#254839" stroke-width="0.491892"/>
        <path d="M117.107 49.8724L67.9177 49.8724" stroke="#254839" stroke-width="0.491892"/>
        <path d="M117.107 21.3428L67.9177 21.3428" stroke="#254839" stroke-width="0.491892"/>
        <path d="M117.107 36.0995L67.9177 36.0995" stroke="#254839" stroke-width="0.491892"/>
        <path d="M117.107 50.8563L67.9177 50.8563" stroke="#254839" stroke-width="0.491892"/>
        <path d="M117.107 22.3265L67.9177 22.3265" stroke="#254839" stroke-width="0.491892"/>
        <path d="M117.107 37.0833L67.9177 37.0832" stroke="#254839" stroke-width="0.491892"/>
        <path d="M117.107 51.8401L67.9177 51.8401" stroke="#254839" stroke-width="0.491892"/>
      </g>
    </g>
    <path d="M10.2041 72.6266C10.3536 70.7308 11.0502 68.7128 12.1891 66.6267C13.9493 63.4032 16.7801 59.9856 20.3471 56.5436C27.4819 49.6587 37.6228 42.6165 48.2529 36.7466L50.0585 35.763C59.1139 30.8875 68.5844 26.7077 76.8004 23.8327C81.1817 22.2996 85.2137 21.135 88.6393 20.4339C92.0552 19.7349 94.9069 19.4892 96.9062 19.8224L97.3319 19.8967C99.4705 20.2903 101.75 21.0395 102.51 23.4598C103.3 25.9787 102.397 30.1877 98.3389 37.4159L99.369 37.4152L99.6184 37.4148L99.7489 37.2015C102.668 32.4323 104.064 28.6296 104.172 25.7121C104.281 22.7706 103.078 20.7363 100.854 19.5601C98.6545 18.3971 95.4949 18.0928 91.721 18.4926C88.1758 18.8683 84.051 19.8688 79.5914 21.4036L78.6946 21.7176C70.098 24.3961 60.2474 28.7625 50.2544 34.1546L48.2525 35.2477C37.6224 41.1176 27.4814 48.1598 20.3466 55.0447C16.7798 58.4865 13.9495 61.9032 12.1894 65.1266C10.7444 67.773 10.0109 70.3098 10.2041 72.6266ZM18.0104 85.597C17.6234 84.9268 17.392 84.208 17.303 83.4456C17.2094 84.3096 17.2694 85.1279 17.4952 85.8949L18.0104 85.597Z" fill="#E4EBE1"/>
    <path d="M10.2041 72.6266L10.578 72.6561L9.83041 72.6578L10.2041 72.6266ZM12.1891 66.6267L11.86 66.447L11.86 66.447L12.1891 66.6267ZM20.3471 56.5436L20.0867 56.2737L20.3471 56.5436ZM48.2529 36.7466L48.0717 36.4183L48.0735 36.4173L48.2529 36.7466ZM50.0585 35.763L49.8791 35.4337L49.8808 35.4328L50.0585 35.763ZM76.8004 23.8327L76.6765 23.4788L76.8004 23.8327ZM88.6393 20.4339L88.5641 20.0666L88.6393 20.4339ZM96.9062 19.8224L96.9678 19.4525L96.9706 19.453L96.9062 19.8224ZM97.3319 19.8967L97.3964 19.5272L97.3998 19.5279L97.3319 19.8967ZM102.51 23.4598L102.868 23.3475L102.868 23.3475L102.51 23.4598ZM98.3389 37.4159L98.3391 37.7909L97.6981 37.7913L98.0119 37.2323L98.3389 37.4159ZM99.369 37.4152L99.3695 37.7902L99.3693 37.7902L99.369 37.4152ZM99.6184 37.4148L99.9383 37.6105L99.8288 37.7896L99.6189 37.7898L99.6184 37.4148ZM99.7489 37.2015L99.429 37.0059L99.4291 37.0058L99.7489 37.2015ZM104.172 25.7121L104.547 25.726L104.547 25.7261L104.172 25.7121ZM100.854 19.5601L101.029 19.2286L101.029 19.2286L100.854 19.5601ZM91.721 18.4926L91.6815 18.1197L91.6815 18.1197L91.721 18.4926ZM79.5914 21.4036L79.4675 21.0497L79.4694 21.049L79.5914 21.4036ZM78.6946 21.7176L78.8186 22.0717L78.8061 22.0756L78.6946 21.7176ZM50.2544 34.1546L50.0747 33.8254L50.0763 33.8245L50.2544 34.1546ZM48.2525 35.2477L48.0712 34.9194L48.0728 34.9185L48.2525 35.2477ZM20.3466 55.0447L20.0862 54.7748L20.0862 54.7748L20.3466 55.0447ZM12.1894 65.1266L11.8602 64.9469L11.8603 64.9469L12.1894 65.1266ZM18.0104 85.597L18.3351 85.4095L18.5225 85.7341L18.1981 85.9216L18.0104 85.597ZM17.303 83.4456L16.9302 83.4052L17.6754 83.4021L17.303 83.4456ZM17.4952 85.8949L17.6829 86.2195L17.2701 86.4582L17.1354 86.0008L17.4952 85.8949ZM10.2041 72.6266L9.83027 72.5972C9.9851 70.6329 10.7046 68.5632 11.86 66.447L12.1891 66.6267L12.5183 66.8064C11.3958 68.8623 10.722 70.8287 10.578 72.6561L10.2041 72.6266ZM12.1891 66.6267L11.86 66.447C13.6452 63.1775 16.5051 59.7299 20.0867 56.2737L20.3471 56.5436L20.6075 56.8134C17.0551 60.2413 14.2533 63.6289 12.5183 66.8064L12.1891 66.6267ZM20.3471 56.5436L20.0867 56.2737C27.2525 49.359 37.4231 42.2985 48.0717 36.4183L48.2529 36.7466L48.4342 37.0749C37.8226 42.9346 27.7114 49.9584 20.6075 56.8134L20.3471 56.5436ZM48.2529 36.7466L48.0735 36.4173L49.8791 35.4337L50.0585 35.763L50.2379 36.0923L48.4323 37.0759L48.2529 36.7466ZM50.0585 35.763L49.8808 35.4328C58.9519 30.5488 68.4405 26.3607 76.6765 23.4788L76.8004 23.8327L76.9242 24.1867C68.7284 27.0546 59.2758 31.2262 50.2363 36.0932L50.0585 35.763ZM76.8004 23.8327L76.6765 23.4788C81.0683 21.942 85.1171 20.772 88.5641 20.0666L88.6393 20.4339L88.7145 20.8013C85.3102 21.498 81.2952 22.6572 76.9242 24.1867L76.8004 23.8327ZM88.6393 20.4339L88.5641 20.0666C91.9913 19.3652 94.8984 19.1076 96.9678 19.4525L96.9062 19.8224L96.8445 20.1923C94.9154 19.8708 92.1191 20.1046 88.7145 20.8013L88.6393 20.4339ZM96.9062 19.8224L96.9706 19.453L97.3964 19.5273L97.3319 19.8967L97.2675 20.2661L96.8417 20.1918L96.9062 19.8224ZM97.3319 19.8967L97.3998 19.5279C99.542 19.9222 102.037 20.7023 102.868 23.3475L102.51 23.4598L102.152 23.5721C101.463 21.3767 99.399 20.6585 97.264 20.2655L97.3319 19.8967ZM102.51 23.4598L102.868 23.3475C103.293 24.7025 103.248 26.4646 102.603 28.7727C101.958 31.0832 100.702 33.9716 98.6659 37.5994L98.3389 37.4159L98.0119 37.2323C100.033 33.6321 101.258 30.8018 101.881 28.571C102.505 26.3378 102.517 24.7359 102.152 23.572L102.51 23.4598ZM98.3389 37.4159L98.3386 37.0409L99.3688 37.0402L99.369 37.4152L99.3693 37.7902L98.3391 37.7909L98.3389 37.4159ZM99.369 37.4152L99.3686 37.0402L99.618 37.0398L99.6184 37.4148L99.6189 37.7898L99.3695 37.7902L99.369 37.4152ZM99.6184 37.4148L99.2985 37.2192L99.429 37.0059L99.7489 37.2015L100.069 37.3972L99.9383 37.6105L99.6184 37.4148ZM99.7489 37.2015L99.4291 37.0058C102.336 32.2563 103.693 28.5199 103.797 25.6982L104.172 25.7121L104.547 25.7261C104.435 28.7393 103 32.6084 100.069 37.3973L99.7489 37.2015ZM104.172 25.7121L103.797 25.6982C103.85 24.2822 103.586 23.1084 103.06 22.1554C102.534 21.2037 101.735 20.4499 100.679 19.8916L100.854 19.5601L101.029 19.2286C102.198 19.8465 103.112 20.698 103.716 21.7929C104.32 22.8865 104.603 24.2005 104.547 25.726L104.172 25.7121ZM100.854 19.5601L100.679 19.8916C98.5769 18.7803 95.5068 18.4686 91.7605 18.8655L91.721 18.4926L91.6815 18.1197C95.483 17.717 98.732 18.0139 101.029 19.2286L100.854 19.5601ZM91.721 18.4926L91.7605 18.8655C88.2515 19.2373 84.1553 20.2295 79.7134 21.7582L79.5914 21.4036L79.4694 21.049C83.9466 19.5081 88.1 18.4992 91.6815 18.1197L91.721 18.4926ZM79.5914 21.4036L79.7153 21.7575L78.8185 22.0715L78.6946 21.7176L78.5707 21.3636L79.4675 21.0497L79.5914 21.4036ZM78.6946 21.7176L78.8061 22.0756C70.2392 24.7449 60.4115 29.1001 50.4325 34.4846L50.2544 34.1546L50.0763 33.8245C60.0834 28.4249 69.9567 24.0473 78.583 21.3595L78.6946 21.7176ZM50.2544 34.1546L50.4341 34.4837L48.4322 35.5768L48.2525 35.2477L48.0728 34.9185L50.0747 33.8254L50.2544 34.1546ZM48.2525 35.2477L48.4338 35.576C37.8222 41.4357 27.7109 48.4595 20.607 55.3145L20.3466 55.0447L20.0862 54.7748C27.252 47.8601 37.4227 40.7995 48.0712 34.9194L48.2525 35.2477ZM20.3466 55.0447L20.607 55.3145C17.0549 58.7423 14.2535 62.1289 12.5185 65.3063L12.1894 65.1266L11.8603 64.9469C13.6455 61.6775 16.5048 58.2308 20.0862 54.7748L20.3466 55.0447ZM12.1894 65.1266L12.5185 65.3063C11.0933 67.9165 10.3929 70.3783 10.5778 72.5955L10.2041 72.6266L9.83041 72.6578C9.62885 70.2414 10.3955 67.6295 11.8602 64.9469L12.1894 65.1266ZM18.0104 85.597L17.6856 85.7845C17.2722 85.0684 17.0252 84.3003 16.9305 83.4891L17.303 83.4456L17.6754 83.4021C17.7587 84.1157 17.9747 84.7852 18.3351 85.4095L18.0104 85.597ZM17.303 83.4456L17.6758 83.486C17.5868 84.3072 17.6448 85.0752 17.8549 85.789L17.4952 85.8949L17.1354 86.0008C16.894 85.1806 16.8319 84.312 16.9302 83.4052L17.303 83.4456ZM17.4952 85.8949L17.3075 85.5702L17.8226 85.2724L18.0104 85.597L18.1981 85.9216L17.6829 86.2195L17.4952 85.8949Z" fill="#254839"/>
    <path d="M91.5439 58.3067C91.4013 46.6469 87.9632 36.1413 82.5314 28.5816C77.0989 21.0212 69.6872 16.4233 61.5904 16.5223C53.4937 16.6215 46.1974 21.3991 40.9515 29.09C35.7061 36.7803 32.5249 47.3668 32.6674 59.0266C32.81 70.6864 36.249 81.1919 41.681 88.7516C47.1133 96.3119 54.5243 100.909 62.621 100.81C70.7178 100.711 78.0149 95.9342 83.2609 88.2432C88.5063 80.5529 91.6864 69.9665 91.5439 58.3067Z" fill="#E4EBE1" stroke="#254839" stroke-width="0.462121"/>
    <mask id="mask1_506_9215" style="mask-type:alpha" maskUnits="userSpaceOnUse" x="32" y="16" width="60" height="86">
      <path d="M91.5434 58.3019C91.4008 46.6421 87.9627 36.1366 82.5309 28.5769C77.0984 21.0164 69.6867 16.4185 61.5899 16.5175C53.4932 16.6167 46.1969 21.3944 40.951 29.0853C35.7056 36.7755 32.5244 47.362 32.667 59.0218C32.8096 70.6816 36.2485 81.1871 41.6805 88.7468C47.1129 96.3071 54.5238 100.904 62.6205 100.805C70.7174 100.706 78.0144 95.9294 83.2604 88.2384C88.5058 80.5482 91.6859 69.9617 91.5434 58.3019Z" fill="#7B8A9C" stroke="#254839" stroke-width="0.462121"/>
    </mask>
    <g mask="url(#mask1_506_9215)">
      <path d="M69.7856 18.4478L-16.2121 19.4993" stroke="#E4EBE1" stroke-width="0.462121"/>
      <path d="M69.8135 20.7065L-8.44449 21.6634" stroke="#E4EBE1" stroke-width="0.462121"/>
      <path d="M66.4009 23.0125L-5.83725 23.8957" stroke="#E4EBE1" stroke-width="0.462121"/>
      <path d="M60.4072 25.345L-2.37114 26.1126" stroke="#E4EBE1" stroke-width="0.462121"/>
      <path d="M54.416 27.6777L1.0974 28.3297" stroke="#E4EBE1" stroke-width="0.462121"/>
      <path d="M51.8628 29.9683L4.56402 30.5466" stroke="#E4EBE1" stroke-width="0.231061"/>
      <path d="M55.4141 38.967L21.015 39.3877" stroke="#E4EBE1" stroke-width="0.0924242"/>
      <path d="M57.2437 47.9871L39.1847 48.2079" stroke="#E4EBE1" stroke-width="0.462121"/>
      <path d="M52.752 32.2166L8.89309 32.7528" stroke="#E4EBE1" stroke-width="0.231061"/>
      <path d="M56.3027 41.2152L25.3435 41.5938" stroke="#E4EBE1" stroke-width="0.0924242"/>
      <path d="M57.2715 50.2455L39.2125 50.4663" stroke="#E4EBE1" stroke-width="0.462121"/>
      <path d="M51.9185 34.491L13.2195 34.9642" stroke="#E4EBE1" stroke-width="0.231061"/>
      <path d="M55.4692 43.4895L29.6699 43.805" stroke="#E4EBE1" stroke-width="0.0924242"/>
      <path d="M51.9458 36.7499L16.6867 37.181" stroke="#E4EBE1" stroke-width="0.231061"/>
      <path d="M55.4966 45.7487L33.9978 46.0115" stroke="#E4EBE1" stroke-width="0.0924242"/>
      <path d="M70.7666 98.6776L-15.2312 99.7291" stroke="#E4EBE1" stroke-width="0.462121"/>
      <path d="M70.7388 96.4191L-7.5192 97.3759" stroke="#E4EBE1" stroke-width="0.462121"/>
      <path d="M67.271 94.197L-4.96713 95.0803" stroke="#E4EBE1" stroke-width="0.462121"/>
      <path d="M61.2227 92.012L-1.55571 92.7796" stroke="#E4EBE1" stroke-width="0.462121"/>
      <path d="M55.1763 89.8263L1.85765 90.4782" stroke="#E4EBE1" stroke-width="0.462121"/>
      <path d="M52.5679 87.5986L5.2691 88.177" stroke="#E4EBE1" stroke-width="0.231061"/>
      <path d="M55.8975 78.5161L21.4984 78.9367" stroke="#E4EBE1" stroke-width="0.0924242"/>
      <path d="M57.5063 69.4545L39.4474 69.6753" stroke="#E4EBE1" stroke-width="0.462121"/>
      <path d="M53.4014 85.3246L9.54251 85.8609" stroke="#E4EBE1" stroke-width="0.231061"/>
      <path d="M56.731 76.2466L25.7718 76.6251" stroke="#E4EBE1" stroke-width="0.0924242"/>
      <path d="M57.4785 67.1952L39.4195 67.416" stroke="#E4EBE1" stroke-width="0.462121"/>
      <path d="M52.5127 83.0762L13.8137 83.5494" stroke="#E4EBE1" stroke-width="0.231061"/>
      <path d="M55.8423 73.9933L30.043 74.3087" stroke="#E4EBE1" stroke-width="0.0924242"/>
      <path d="M52.4849 80.8174L17.2258 81.2485" stroke="#E4EBE1" stroke-width="0.231061"/>
      <path d="M55.8145 71.7344L34.3157 71.9972" stroke="#E4EBE1" stroke-width="0.0924242"/>
    </g>
    <path d="M88.3618 58.3235C88.2192 46.6637 84.7811 36.1582 79.3492 28.5985C73.9168 21.038 66.5051 16.4401 58.4082 16.5391C50.3115 16.6383 43.0152 21.416 37.7693 29.1069C32.5239 36.7971 29.3427 47.3836 29.4853 59.0434C29.6279 70.7032 33.0669 81.2087 38.4988 88.7684C43.9312 96.3288 51.3421 100.926 59.4388 100.827C67.5357 100.728 74.8327 95.951 80.0787 88.26C85.3242 80.5698 88.5043 69.9833 88.3618 58.3235Z" fill="#254839" stroke="#254839" stroke-width="0.462121"/>
    <mask id="mask2_506_9215" style="mask-type:alpha" maskUnits="userSpaceOnUse" x="29" y="16" width="60" height="86">
      <path d="M88.3618 58.3234C88.2192 46.6636 84.7811 36.1581 79.3492 28.5983C73.9168 21.0379 66.5051 16.44 58.4082 16.539C50.3115 16.6382 43.0152 21.4159 37.7693 29.1068C32.5239 36.797 29.3427 47.3835 29.4853 59.0433C29.6279 70.7031 33.0669 81.2086 38.4988 88.7683C43.9312 96.3286 51.3421 100.925 59.4388 100.827C67.5357 100.728 74.8327 95.9509 80.0787 88.2599C85.3242 80.5696 88.5043 69.9832 88.3618 58.3234Z" fill="#254839" stroke="#254839" stroke-width="0.462121"/>
    </mask>
    <g mask="url(#mask2_506_9215)">
      <path d="M75.3306 67.0533L-7.83204 67.0533" stroke="#E4EBE1" stroke-width="0.491892"/>
      <path d="M75.3306 68.717L-0.347395 68.717" stroke="#E4EBE1" stroke-width="0.491892"/>
      <path d="M72.0039 70.38L2.14732 70.38" stroke="#E4EBE1" stroke-width="0.491892"/>
      <path d="M66.1826 72.0436L5.47392 72.0436" stroke="#E4EBE1" stroke-width="0.491892"/>
      <path d="M60.3613 73.7067L8.80052 73.7067" stroke="#E4EBE1" stroke-width="0.491892"/>
      <path d="M57.8667 75.3696L12.1273 75.3696" stroke="#E4EBE1" stroke-width="0.245946"/>
      <path d="M61.1934 82.0229L27.9283 82.023" stroke="#E4EBE1" stroke-width="0.0983784"/>
      <path d="M62.856 88.6763L45.3918 88.6763" stroke="#E4EBE1" stroke-width="0.491892"/>
      <path d="M58.6982 77.0333L16.2853 77.0333" stroke="#E4EBE1" stroke-width="0.245946"/>
      <path d="M62.0249 83.6859L32.0864 83.6859" stroke="#E4EBE1" stroke-width="0.0983784"/>
      <path d="M62.856 90.3392L45.3918 90.3392" stroke="#E4EBE1" stroke-width="0.491892"/>
      <path d="M57.8667 78.6963L20.4435 78.6963" stroke="#E4EBE1" stroke-width="0.245946"/>
      <path d="M61.1934 85.3496L36.2446 85.3496" stroke="#E4EBE1" stroke-width="0.0983784"/>
      <path d="M57.8667 80.36L23.77 80.36" stroke="#E4EBE1" stroke-width="0.245946"/>
      <path d="M61.1934 87.0126L40.4027 87.0126" stroke="#E4EBE1" stroke-width="0.0983784"/>
      <path d="M75.3306 65.5892L-7.83204 65.5892" stroke="#E4EBE1" stroke-width="0.491892"/>
      <path d="M75.3306 63.9255L-0.347395 63.9255" stroke="#E4EBE1" stroke-width="0.491892"/>
      <path d="M72.0039 62.2626L2.14732 62.2626" stroke="#E4EBE1" stroke-width="0.491892"/>
      <path d="M66.1826 60.599L5.47392 60.599" stroke="#E4EBE1" stroke-width="0.491892"/>
      <path d="M60.3613 58.936L8.80052 58.936" stroke="#E4EBE1" stroke-width="0.491892"/>
      <path d="M57.8667 57.2729L12.1273 57.2729" stroke="#E4EBE1" stroke-width="0.245946"/>
      <path d="M61.1934 50.6196L27.9283 50.6196" stroke="#E4EBE1" stroke-width="0.0983784"/>
      <path d="M62.856 43.9664L45.3918 43.9664" stroke="#E4EBE1" stroke-width="0.491892"/>
      <path d="M58.6982 55.6094L16.2853 55.6094" stroke="#E4EBE1" stroke-width="0.245946"/>
      <path d="M62.0249 48.9567L32.0864 48.9567" stroke="#E4EBE1" stroke-width="0.0983784"/>
      <path d="M62.856 42.3033L45.3918 42.3033" stroke="#E4EBE1" stroke-width="0.491892"/>
      <path d="M57.8667 53.9463L20.4435 53.9463" stroke="#E4EBE1" stroke-width="0.245946"/>
      <path d="M61.1934 47.2931L36.2446 47.2931" stroke="#E4EBE1" stroke-width="0.0983784"/>
      <path d="M57.8667 52.2827L23.77 52.2827" stroke="#E4EBE1" stroke-width="0.245946"/>
      <path d="M61.1934 45.63L40.4027 45.63" stroke="#E4EBE1" stroke-width="0.0983784"/>
      <path d="M76.0806 16.967L0.402605 16.967" stroke="#E4EBE1" stroke-width="0.491892"/>
      <path d="M72.7539 18.63L2.89732 18.63" stroke="#E4EBE1" stroke-width="0.491892"/>
      <path d="M66.9326 20.2936L6.22392 20.2936" stroke="#E4EBE1" stroke-width="0.491892"/>
      <path d="M61.1113 21.9567L9.55052 21.9567" stroke="#E4EBE1" stroke-width="0.491892"/>
      <path d="M58.6167 23.6196L12.8773 23.6196" stroke="#E4EBE1" stroke-width="0.245946"/>
      <path d="M61.9434 30.2729L28.6783 30.273" stroke="#E4EBE1" stroke-width="0.0983784"/>
      <path d="M63.606 36.9263L46.1418 36.9263" stroke="#E4EBE1" stroke-width="0.491892"/>
      <path d="M59.4478 25.2833L17.0348 25.2833" stroke="#E4EBE1" stroke-width="0.245946"/>
      <path d="M62.7744 31.9359L32.8359 31.9359" stroke="#E4EBE1" stroke-width="0.0983784"/>
      <path d="M63.606 38.5892L46.1418 38.5892" stroke="#E4EBE1" stroke-width="0.491892"/>
      <path d="M58.6167 26.9463L21.1935 26.9463" stroke="#E4EBE1" stroke-width="0.245946"/>
      <path d="M61.9434 33.5996L36.9946 33.5996" stroke="#E4EBE1" stroke-width="0.0983784"/>
      <path d="M58.6167 28.61L24.52 28.61" stroke="#E4EBE1" stroke-width="0.245946"/>
      <path d="M61.9434 35.2626L41.1527 35.2626" stroke="#E4EBE1" stroke-width="0.0983784"/>
    </g>
    <path d="M96.5595 58.2453C96.4173 46.6113 92.9861 36.1349 87.5734 28.602C82.1598 21.0679 74.7883 16.5054 66.7513 16.6037C58.7145 16.7021 51.4574 21.4435 46.2298 29.1075C41.0029 36.7706 37.8289 47.3277 37.9711 58.9617C38.1134 70.5956 41.5446 81.0721 46.9573 88.605C52.3707 96.1387 59.7417 100.701 67.7784 100.603C75.8153 100.505 83.0732 95.7635 88.3009 88.0995C93.5278 80.4365 96.7018 69.8792 96.5595 58.2453Z" fill="#E4EBE1" stroke="#254839" stroke-width="0.75"/>
    <mask id="mask3_506_9215" style="mask-type:alpha" maskUnits="userSpaceOnUse" x="65" y="24" width="27" height="70">
      <path d="M91.7754 58.2998C91.5426 39.2654 80.3802 23.9688 66.8441 24.1343C66.4113 24.1396 65.9815 24.1616 65.5547 24.1979C78.5026 24.9832 88.9691 39.9056 89.1945 58.3314C89.4198 76.7573 79.3213 91.932 66.3964 93.0336C66.8239 93.0595 67.2542 93.07 67.6869 93.0647C81.223 92.8992 92.008 77.3342 91.7754 58.2998Z" fill="#BED3E2"/>
    </mask>
    <g mask="url(#mask3_506_9215)">
      <path d="M100.796 92.66L14.7986 93.7116" stroke="#254839" stroke-width="0.75"/>
      <path d="M100.383 65.6392L14.3851 66.6907" stroke="#254839" stroke-width="0.75"/>
      <path d="M100.77 90.8586L14.7718 91.9102" stroke="#254839" stroke-width="0.75"/>
      <path d="M100.355 63.8378L14.3572 64.8893" stroke="#254839" stroke-width="0.75"/>
      <path d="M100.742 89.0573L14.7439 90.1088" stroke="#254839" stroke-width="0.75"/>
      <path d="M100.327 62.0364L14.3294 63.0879" stroke="#254839" stroke-width="0.75"/>
      <path d="M100.714 87.2559L14.7161 88.3074" stroke="#254839" stroke-width="0.75"/>
      <path d="M100.299 60.235L14.3016 61.2865" stroke="#254839" stroke-width="0.75"/>
      <path d="M100.604 80.0503L14.6062 81.1018" stroke="#254839" stroke-width="0.75"/>
      <path d="M100.189 53.0294L14.1912 54.0809" stroke="#254839" stroke-width="0.75"/>
      <path d="M100.687 85.4545L14.6888 86.506" stroke="#254839" stroke-width="0.75"/>
      <path d="M100.272 58.4336L14.2742 59.4851" stroke="#254839" stroke-width="0.75"/>
      <path d="M100.548 76.4475L14.5506 77.499" stroke="#254839" stroke-width="0.75"/>
      <path d="M100.134 49.4266L14.136 50.4782" stroke="#254839" stroke-width="0.75"/>
      <path d="M100.659 83.6531L14.6609 84.7046" stroke="#254839" stroke-width="0.75"/>
      <path d="M100.244 56.6322L14.2464 57.6837" stroke="#254839" stroke-width="0.75"/>
      <path d="M100.631 81.8517L14.6336 82.9032" stroke="#254839" stroke-width="0.75"/>
      <path d="M100.217 54.8308L14.219 55.8823" stroke="#254839" stroke-width="0.75"/>
      <path d="M100.576 78.2489L14.5784 79.3004" stroke="#254839" stroke-width="0.75"/>
      <path d="M100.162 51.228L14.1639 52.2795" stroke="#254839" stroke-width="0.75"/>
      <path d="M100.521 74.6461L14.5228 75.6976" stroke="#254839" stroke-width="0.75"/>
      <path d="M100.106 47.6252L14.1082 48.6768" stroke="#254839" stroke-width="0.75"/>
      <path d="M100.493 72.8447L14.4949 73.8962" stroke="#254839" stroke-width="0.75"/>
      <path d="M100.079 45.8239L14.0809 46.8754" stroke="#254839" stroke-width="0.75"/>
      <path d="M100.465 71.0433L14.4676 72.0949" stroke="#254839" stroke-width="0.75"/>
      <path d="M100.051 44.0225L14.053 45.074" stroke="#254839" stroke-width="0.75"/>
      <path d="M100.438 69.2419L14.4402 70.2935" stroke="#254839" stroke-width="0.75"/>
      <path d="M100.023 42.2211L14.0257 43.2726" stroke="#254839" stroke-width="0.75"/>
      <path d="M100.41 67.4406L14.4124 68.4921" stroke="#254839" stroke-width="0.75"/>
      <path d="M99.9956 40.4197L13.9978 41.4712" stroke="#254839" stroke-width="0.75"/>
      <path d="M99.1084 38.6183L13.1106 39.6698" stroke="#254839" stroke-width="0.75"/>
      <path d="M100.796 36.7393L14.7986 37.7908" stroke="#254839" stroke-width="0.75"/>
      <path d="M100.77 34.9379L14.7718 35.9894" stroke="#254839" stroke-width="0.75"/>
      <path d="M100.742 33.1365L14.7439 34.188" stroke="#254839" stroke-width="0.75"/>
      <path d="M100.714 31.3351L14.7161 32.3866" stroke="#254839" stroke-width="0.75"/>
      <path d="M100.604 24.1295L14.6062 25.181" stroke="#254839" stroke-width="0.75"/>
      <path d="M100.687 29.5337L14.6888 30.5852" stroke="#254839" stroke-width="0.75"/>
      <path d="M100.659 27.7323L14.6609 28.7838" stroke="#254839" stroke-width="0.75"/>
      <path d="M100.631 25.9309L14.6336 26.9824" stroke="#254839" stroke-width="0.75"/>
    </g>
    <mask id="mask4_506_9215" style="mask-type:alpha" maskUnits="userSpaceOnUse" x="43" y="31" width="54" height="70">
      <path d="M96.7031 58.2435C96.6478 53.7254 96.0974 49.3799 95.1279 45.3116L79.6898 55.9797L43.4429 83.0587C48.9171 93.8968 57.8324 100.868 67.7801 100.747C75.877 100.648 83.174 95.8711 88.42 88.1801C93.6655 80.4898 96.8456 69.9034 96.7031 58.2435Z" fill="#D9D9D9" stroke="#254839" stroke-width="0.462121"/>
    </mask>
    <g mask="url(#mask4_506_9215)">
      <g opacity="0.5">
        <path d="M91.918 11.0831L91.918 181.745" stroke="#254839" stroke-width="0.75"/>
        <path d="M90.418 11.0831L90.418 181.745" stroke="#254839" stroke-width="0.75"/>
        <path d="M88.918 11.0831L88.918 181.745" stroke="#254839" stroke-width="0.75"/>
        <path d="M87.418 11.0831L87.418 181.745" stroke="#254839" stroke-width="0.75"/>
        <path d="M81.418 11.0831L81.418 181.745" stroke="#254839" stroke-width="0.75"/>
        <path d="M85.918 11.0831L85.918 181.745" stroke="#254839" stroke-width="0.75"/>
        <path d="M78.418 11.0831L78.418 181.745" stroke="#254839" stroke-width="0.75"/>
        <path d="M69.418 11.0831L69.418 181.745" stroke="#254839" stroke-width="0.75"/>
        <path d="M54.418 12.6417L54.418 183.303" stroke="#254839" stroke-width="0.75"/>
        <path d="M84.418 11.0831L84.418 181.745" stroke="#254839" stroke-width="0.75"/>
        <path d="M82.918 11.0831L82.918 181.745" stroke="#254839" stroke-width="0.75"/>
        <path d="M79.918 11.0831L79.918 181.745" stroke="#254839" stroke-width="0.75"/>
        <path d="M76.918 11.0831L76.918 181.745" stroke="#254839" stroke-width="0.75"/>
        <path d="M67.918 11.0831L67.918 181.745" stroke="#254839" stroke-width="0.75"/>
        <path d="M52.918 12.6417L52.918 183.303" stroke="#254839" stroke-width="0.75"/>
        <path d="M75.418 11.0831L75.418 181.745" stroke="#254839" stroke-width="0.75"/>
        <path d="M60.418 12.6417L60.418 183.303" stroke="#254839" stroke-width="0.75"/>
        <path d="M66.418 11.0831L66.418 181.745" stroke="#254839" stroke-width="0.75"/>
        <path d="M51.418 12.6417L51.418 183.303" stroke="#254839" stroke-width="0.75"/>
        <path d="M96.418 11.0831L96.418 181.745" stroke="#254839" stroke-width="0.75"/>
        <path d="M73.918 11.0831L73.918 181.745" stroke="#254839" stroke-width="0.75"/>
        <path d="M58.918 12.6417L58.918 183.303" stroke="#254839" stroke-width="0.75"/>
        <path d="M64.918 11.0831L64.918 181.745" stroke="#254839" stroke-width="0.75"/>
        <path d="M49.918 12.6417L49.918 183.303" stroke="#254839" stroke-width="0.75"/>
        <path d="M94.918 11.0831L94.918 181.745" stroke="#254839" stroke-width="0.75"/>
        <path d="M72.418 11.0831L72.418 181.745" stroke="#254839" stroke-width="0.75"/>
        <path d="M57.418 12.6417L57.418 183.303" stroke="#254839" stroke-width="0.75"/>
        <path d="M63.418 11.0831L63.418 181.745" stroke="#254839" stroke-width="0.75"/>
        <path d="M48.418 12.6417L48.418 183.303" stroke="#254839" stroke-width="0.75"/>
        <path d="M93.418 11.0831L93.418 181.745" stroke="#254839" stroke-width="0.75"/>
        <path d="M70.918 11.0831L70.918 181.745" stroke="#254839" stroke-width="0.75"/>
        <path d="M55.918 12.6417L55.918 183.303" stroke="#254839" stroke-width="0.75"/>
        <path d="M61.918 11.0831L61.918 181.745" stroke="#254839" stroke-width="0.75"/>
        <path d="M46.918 12.6421L46.918 183.304" stroke="#254839" stroke-width="0.75"/>
      </g>
    </g>
    <path d="M18.896 88.5494C38.3717 98.3268 64.8978 86.1405 81.5729 67.0535L85.9183 75.3035L87.0433 75.3035L95.6539 40.718L64.6154 50.8934L64.436 52.3276L70.9182 56.5266L70.832 56.5935C51.0159 71.951 20.9061 83.3526 10.4585 73.9353L18.896 88.5494Z" fill="#E4EBE1" stroke="#254839" stroke-width="0.75"/>
    <path d="M95.5819 41.3098L87.1423 74.4691L83.2743 66.9022C66.7079 86.8759 26.2085 101.215 18.521 87.8997L10.4585 73.9351C17.6122 86.3256 54.2012 72.0307 73.3625 56.2812L64.9882 50.8027L95.5819 41.3098Z" fill="#254839" stroke="#254839" stroke-width="0.75"/>
    <mask id="mask5_506_9215" style="mask-type:alpha" maskUnits="userSpaceOnUse" x="10" y="40" width="87" height="54">
      <path d="M95.5813 41.31L87.1417 74.4693L83.2737 66.9024C66.7073 86.8761 26.208 101.215 19.083 88.8742L11.208 75.2342C20.5345 84.6383 50.4474 74.8951 73.3619 56.2814L64.9877 50.8029L95.5813 41.31Z" fill="#254839" stroke="#254839" stroke-width="0.75"/>
    </mask>
    <g mask="url(#mask5_506_9215)">
      <g opacity="0.5">
        <path d="M35.8257 31.5006L35.8257 95.4629" stroke="#E4EBE1" stroke-width="0.75"/>
        <path d="M21.9146 31.5007L21.9145 95.463" stroke="#E4EBE1" stroke-width="0.75"/>
        <path d="M23.6528 31.5006L23.6528 95.4629" stroke="#E4EBE1" stroke-width="0.75"/>
        <path d="M25.3926 31.5005L25.3926 95.4628" stroke="#E4EBE1" stroke-width="0.75"/>
        <path d="M27.1318 31.5006L27.1318 95.4629" stroke="#E4EBE1" stroke-width="0.75"/>
        <path d="M28.8701 31.5005L28.8701 95.4628" stroke="#E4EBE1" stroke-width="0.75"/>
        <path d="M30.6084 31.5006L30.6084 95.4629" stroke="#E4EBE1" stroke-width="0.75"/>
        <path d="M32.3481 31.5005L32.3481 95.4628" stroke="#E4EBE1" stroke-width="0.75"/>
        <path d="M34.0874 31.5006L34.0874 95.4629" stroke="#E4EBE1" stroke-width="0.75"/>
        <path d="M35.8257 31.5006L35.8257 95.4629" stroke="#E4EBE1" stroke-width="0.75"/>
        <path d="M37.564 31.5005L37.564 95.4628" stroke="#E4EBE1" stroke-width="0.75"/>
        <path d="M49.7373 31.5005L49.7373 95.4628" stroke="#E4EBE1" stroke-width="0.375"/>
        <path d="M39.3037 31.5005L39.3037 95.4628" stroke="#E4EBE1" stroke-width="0.75"/>
        <path d="M41.0435 31.5005L41.0435 95.4628" stroke="#E4EBE1" stroke-width="0.75"/>
        <path d="M42.7812 31.5005L42.7812 95.4628" stroke="#E4EBE1" stroke-width="0.75"/>
        <path d="M44.5195 31.5005L44.5195 95.4628" stroke="#E4EBE1" stroke-width="0.75"/>
        <path d="M46.2593 31.5005L46.2593 95.4628" stroke="#E4EBE1" stroke-width="0.75"/>
        <path d="M47.999 31.5005L47.999 95.4628" stroke="#E4EBE1" stroke-width="0.375"/>
        <path d="M51.4751 31.5007L51.4751 95.463" stroke="#E4EBE1" stroke-width="0.15"/>
        <path d="M53.2148 31.5006L53.2148 95.4629" stroke="#E4EBE1" stroke-width="0.15"/>
        <path d="M54.9526 31.5007L54.9526 95.463" stroke="#E4EBE1" stroke-width="0.15"/>
      </g>
      <g opacity="0.5">
        <path d="M20.1963 31.5002L20.1963 95.4625" stroke="#E4EBE1" stroke-width="0.75"/>
        <path d="M11.501 31.5004L11.501 95.4626" stroke="#E4EBE1" stroke-width="1.5"/>
        <path d="M13.2407 31.5005L13.2407 95.4628" stroke="#E4EBE1" stroke-width="1.5"/>
        <path d="M14.9785 31.5004L14.9785 95.4626" stroke="#E4EBE1" stroke-width="1.125"/>
        <path d="M16.7168 31.5002L16.7168 95.4625" stroke="#E4EBE1" stroke-width="1.125"/>
        <path d="M18.4565 31.5004L18.4565 95.4626" stroke="#E4EBE1" stroke-width="0.75"/>
      </g>
      <g opacity="0.5">
        <path d="M73.1338 24.0002L73.1338 97.4091" stroke="#E4EBE1" stroke-width="0.375"/>
        <path d="M67.918 24.0004L67.918 97.4092" stroke="#E4EBE1" stroke-width="0.15"/>
        <path d="M69.6577 24.0004L69.6577 97.4092" stroke="#E4EBE1" stroke-width="0.15"/>
        <path d="M71.396 24.0005L71.396 97.4093" stroke="#E4EBE1" stroke-width="0.15"/>
        <path d="M87.0454 24.0004L87.0454 97.4092" stroke="#E4EBE1" stroke-width="1.125"/>
        <path d="M74.8735 24.0004L74.8735 97.4092" stroke="#E4EBE1" stroke-width="0.375"/>
        <path d="M76.6133 24.0004L76.6133 97.4092" stroke="#E4EBE1" stroke-width="0.375"/>
        <path d="M78.3516 24.0002L78.3516 97.4091" stroke="#E4EBE1" stroke-width="0.375"/>
        <path d="M80.0898 24.0004L80.0898 97.4092" stroke="#E4EBE1" stroke-width="0.75"/>
        <path d="M81.8291 24.0002L81.8291 97.4091" stroke="#E4EBE1" stroke-width="0.75"/>
        <path d="M83.5688 24.0004L83.5688 97.4092" stroke="#E4EBE1" stroke-width="0.75"/>
        <path d="M85.3071 24.0005L85.3071 97.4093" stroke="#E4EBE1" stroke-width="0.75"/>
        <path d="M88.7847 24.0002L88.7847 97.4091" stroke="#E4EBE1" stroke-width="1.125"/>
        <path d="M90.5229 24.0004L90.5229 97.4092" stroke="#E4EBE1" stroke-width="1.5"/>
        <path d="M92.2612 24.0004L92.2612 97.4092" stroke="#E4EBE1" stroke-width="1.5"/>
        <path d="M94.001 24.0004L94.001 97.4092" stroke="#E4EBE1" stroke-width="1.5"/>
        <path d="M95.7407 24.0005L95.7407 97.4093" stroke="#E4EBE1" stroke-width="1.5"/>
      </g>
    </g>
    <path d="M95.6686 40.8035L87.1423 74.4691L83.2743 66.9022C66.7079 86.8759 26.2085 101.215 18.521 87.8997L10.4585 73.9351C17.6122 86.3257 54.2012 72.0307 73.3625 56.2813L64.9882 50.8027L95.6686 40.8035Z" stroke="#254839" stroke-width="0.75"/>
  </g>
  <defs>
    <clipPath id="clip0_506_9215">
      <rect width="114" height="120" fill="white" transform="matrix(-1 0 0 -1 114 120)"/>
    </clipPath>
  </defs>
</svg>