<svg width="367" height="96" viewBox="0 0 367 96" fill="none" xmlns="http://www.w3.org/2000/svg">
<path d="M200.126 77.3491C196.143 77.3491 192.705 76.367 189.813 74.4027C186.922 72.4385 184.684 69.8195 183.102 66.5457C181.574 63.2174 180.811 59.5617 180.811 55.5786C180.811 51.4319 181.684 47.7217 183.43 44.4479C185.23 41.1196 187.767 38.5006 191.041 36.5909C194.369 34.6267 198.325 33.6445 202.908 33.6445C207.437 33.6445 211.284 34.6267 214.448 36.5909C217.668 38.5006 220.123 41.1196 221.814 44.4479C223.56 47.7217 224.433 51.3773 224.433 55.415V76.367H215.021V68.5918H214.858C214.039 70.1195 212.975 71.5655 211.666 72.9295C210.356 74.239 208.747 75.303 206.837 76.1214C204.927 76.9399 202.69 77.3491 200.126 77.3491ZM202.663 69.3284C205.118 69.3284 207.246 68.7282 209.047 67.5278C210.902 66.2729 212.32 64.6087 213.303 62.5354C214.339 60.4074 214.858 58.034 214.858 55.415C214.858 52.796 214.366 50.4771 213.384 48.4582C212.402 46.3849 211.011 44.748 209.21 43.5476C207.41 42.2927 205.255 41.6652 202.745 41.6652C200.126 41.6652 197.889 42.2927 196.033 43.5476C194.178 44.748 192.76 46.3849 191.778 48.4582C190.795 50.5316 190.304 52.8778 190.304 55.4968C190.304 58.0612 190.795 60.4074 191.778 62.5354C192.76 64.6087 194.151 66.2729 195.952 67.5278C197.807 68.7282 200.044 69.3284 202.663 69.3284Z" fill="#F1F3ED"/>
<path d="M231.273 76.3673V46.4943C231.273 42.784 232.31 39.8922 234.383 37.8189C236.511 35.6909 239.431 34.627 243.141 34.627H253.208V42.6476H244.859C243.55 42.6476 242.513 43.0296 241.749 43.7935C241.04 44.5573 240.685 45.594 240.685 46.9035V76.3673H231.273Z" fill="#F1F3ED"/>
<path d="M276.845 76.367C272.152 76.367 268.033 75.4939 264.486 73.748C260.994 71.9474 258.266 69.4921 256.302 66.382C254.338 63.2174 253.355 59.589 253.355 55.4968C253.355 51.1864 254.228 47.3943 255.974 44.1205C257.72 40.8468 260.121 38.2823 263.177 36.4272C266.232 34.5721 269.752 33.6445 273.735 33.6445C278.209 33.6445 281.892 34.5994 284.783 36.5091C287.675 38.4187 289.803 40.9832 291.167 44.2024C292.586 47.4216 293.295 51.0227 293.295 55.0057C293.295 55.5514 293.268 56.1788 293.213 56.8881C293.159 57.5975 293.077 58.1431 292.968 58.525H263.34C263.668 60.7075 264.459 62.5354 265.714 64.0086C266.969 65.4272 268.551 66.5184 270.461 67.2823C272.371 67.9916 274.498 68.3463 276.845 68.3463H288.057V76.367H276.845ZM263.259 52.1412H283.883C283.829 51.1045 283.665 50.0678 283.392 49.0311C283.174 47.9945 282.792 47.0123 282.246 46.0848C281.755 45.1572 281.101 44.3661 280.282 43.7113C279.518 43.002 278.591 42.4564 277.499 42.0744C276.408 41.6379 275.153 41.4197 273.735 41.4197C272.098 41.4197 270.652 41.7471 269.397 42.4018C268.142 43.002 267.078 43.8204 266.205 44.8571C265.332 45.8392 264.65 46.9851 264.159 48.2946C263.722 49.5495 263.422 50.8317 263.259 52.1412Z" fill="#F1F3ED"/>
<path d="M311.496 76.4878C307.785 76.4878 304.866 75.4238 302.738 73.2959C300.665 71.1679 299.628 68.2761 299.628 64.6204V24.2715H308.958V64.2112C308.958 65.4662 309.34 66.5028 310.104 67.3213C310.868 68.0852 311.877 68.4671 313.132 68.4671H321.89V76.4878H311.496ZM292.953 42.7682V34.7475H321.972V42.7682H292.953Z" fill="#F1F3ED"/>
<path d="M344.209 77.3491C339.898 77.3491 336.079 76.3942 332.751 74.4846C329.422 72.5203 326.776 69.9013 324.812 66.6275C322.902 63.2992 321.947 59.589 321.947 55.4968C321.947 51.4046 322.902 47.7217 324.812 44.4479C326.776 41.1196 329.422 38.5006 332.751 36.5909C336.079 34.6267 339.898 33.6445 344.209 33.6445C348.465 33.6445 352.257 34.6267 355.585 36.5909C358.913 38.5006 361.532 41.0923 363.442 44.3661C365.406 47.6398 366.388 51.3501 366.388 55.4968C366.388 59.589 365.406 63.2992 363.442 66.6275C361.532 69.9013 358.913 72.5203 355.585 74.4846C352.257 76.3942 348.465 77.3491 344.209 77.3491ZM344.209 69.3284C346.773 69.3284 349.01 68.7282 350.92 67.5278C352.83 66.2729 354.303 64.6087 355.34 62.5354C356.376 60.462 356.895 58.1158 356.895 55.4968C356.895 52.9324 356.376 50.6135 355.34 48.5401C354.303 46.4122 352.83 44.748 350.92 43.5476C349.01 42.2927 346.773 41.6652 344.209 41.6652C341.59 41.6652 339.325 42.2927 337.416 43.5476C335.561 44.748 334.087 46.3849 332.996 48.4582C331.959 50.5316 331.441 52.8778 331.441 55.4968C331.441 58.0612 331.959 60.4074 332.996 62.5354C334.087 64.6087 335.561 66.2729 337.416 67.5278C339.325 68.7282 341.59 69.3284 344.209 69.3284Z" fill="#F1F3ED"/>
<path d="M136.908 76.2906V19H160.97C164.626 19 167.954 19.8457 170.955 21.5372C174.011 23.174 176.439 25.4929 178.239 28.4939C180.04 31.4402 180.94 34.8777 180.94 38.8062C180.94 42.6801 180.04 46.1176 178.239 49.1185C176.493 52.1194 174.093 54.4656 171.037 56.1571C168.036 57.7939 164.653 58.6124 160.888 58.6124H146.648V76.2906H136.908ZM146.648 50.0188H159.743C161.871 50.0188 163.78 49.5823 165.472 48.7093C167.218 47.8363 168.582 46.5541 169.564 44.8626C170.601 43.1712 171.119 41.1797 171.119 38.888C171.119 36.4873 170.601 34.4685 169.564 32.8316C168.582 31.1402 167.218 29.8579 165.472 28.9849C163.78 28.0574 161.898 27.5936 159.824 27.5936H146.648V50.0188Z" fill="#F1F3ED"/>
<path d="M46.3746 63.4782C46.9711 65.0291 47.4902 66.6343 47.4674 68.291C47.3904 73.8484 43.876 79.05 38.2218 81.115C30.8612 83.804 22.6608 80.1593 19.9064 72.9744C17.1521 65.7899 20.886 57.7857 28.2466 55.0972C28.3792 55.049 28.5118 55.0026 28.6449 54.958L32.579 64.9794C32.4145 65.0128 32.2505 65.0583 32.0885 65.1177C30.3978 65.7352 29.5399 67.5742 30.1725 69.2244C30.8056 70.8751 32.6892 71.7125 34.3799 71.0945C36.071 70.477 36.9289 68.6385 36.2958 66.9878C36.2792 66.9442 36.2616 66.901 36.2431 66.8588L29.7053 50.1981L29.6673 50.2166L29.1107 48.7223C24.1908 35.8018 30.913 21.4264 44.1455 16.5931C57.3969 11.7525 72.1593 18.3139 77.1167 31.2483L77.3734 31.9177C82.1597 44.3957 76.0426 58.3401 63.4936 63.5769C59.3699 65.2977 54.9206 66.1267 50.4508 66.0149L46.1013 54.9831L49.6133 55.2614C52.8829 55.5203 56.1682 54.9979 59.185 53.7393C66.3492 50.7497 69.8389 42.79 67.1083 35.6677L66.8516 34.9983C64.0145 27.5981 55.5689 23.8444 47.9873 26.6136C40.4063 29.3828 36.5601 37.6264 39.3972 45.0262L40.7228 48.5854L40.7138 48.5804L40.9495 49.1946L43.0138 54.7386L46.3746 63.4782Z" fill="#72F4C9"/>
<rect x="1.5" y="1.5" width="93" height="93" rx="30.5" stroke="#72F4C9" stroke-width="3"/>
</svg>
