<svg width="169" height="48" viewBox="0 0 169 48" fill="none" xmlns="http://www.w3.org/2000/svg">
<path d="M133.579 29.0961H136.22V33.6088H133.579V29.0961ZM134.995 25.0296C132.473 25.0296 127.152 20.7575 127.152 20.7575V23.8983C127.152 23.8983 131.909 27.8331 134.995 27.8331C138.099 27.8331 142.678 23.9127 142.678 23.9127V20.7246C142.678 20.7246 137.512 25.0296 134.995 25.0296ZM60.5734 28.4646L71.7497 33.6088V30.6613L64.21 27.465L71.7497 24.2871V21.3417L60.5734 26.4324V28.4646ZM84.2143 21.3417H81.236L73.9728 33.6068H77.0606L82.7195 24.2336L88.3779 33.6068H91.4661L84.2143 21.3417ZM120.835 21.3417H117.857L110.592 33.6109H113.68L119.34 24.2336L125.001 33.6109H128.089L120.835 21.3417ZM109.495 21.3417L104.676 30.2767L102.567 26.2781L105.277 21.3417H102.227L101.082 23.4643L99.9638 21.3417H96.7946L99.5293 26.344L97.4067 30.2767L92.6965 21.3417H89.527L96.2364 33.6088H98.5422L101.028 29.0817L103.506 33.6088H105.81L112.544 21.3417H109.495ZM21.4804 33.6088H35.8742V21.3417H21.4804V33.6088ZM33.24 24.1513L33.2361 30.7971H24.1224V24.139L33.24 24.1513ZM39.8798 33.6006H53.3099V30.7909H42.5218V24.1431H53.3099V21.3355H39.8798V33.6006ZM56.7475 21.3417V33.6088H59.3896L59.3855 21.3417H56.7475ZM13.0253 29.0446C13.0253 29.0446 13.1547 31.6075 15.337 33.6047H18.962C18.962 33.6047 16.2698 31.9037 15.7329 29.0446H17.3668V21.3417H3V33.6088H5.64006V29.0446H13.0253ZM5.64006 24.1513L14.7557 24.1493V26.5435H5.64006V24.1513Z" fill="#BCC8C0"/>
<path d="M165.891 7.05176L157.523 13.1463V15.269L165.891 21.3408V17.7598L160.883 14.187L165.891 10.6328V7.05176ZM147.957 10.6328L152.967 14.187L147.957 17.7598V21.3408L156.327 15.269V13.1463L147.957 7.05176V10.6328Z" fill="#BCC8C0"/>
</svg>
