<svg width="344" height="62" viewBox="0 0 344 62" fill="none" xmlns="http://www.w3.org/2000/svg">
<path d="M83 18.6865C83 13.6552 78.8051 10 73.2097 10H59V42H64.4135V29.6092H74.1129C76.459 29.6092 77.138 30.2971 77.138 32.6746V42H82.5515V31.3047C82.5515 28.2884 81.1996 26.7772 77.7684 26.7772C81.1996 25.6346 83 22.7533 83 18.6865ZM71.8578 24.7683H64.4135V14.89H71.8578C75.6041 14.89 77.5866 16.4872 77.5866 19.6448C77.5866 22.8025 75.6041 24.7683 71.8578 24.7683Z" fill="#BCC8C0"/>
<path d="M97.4749 20C90.7776 20 86 24.7783 86 31.5C86 38.2217 90.7776 43 97.4749 43C104.172 43 109 38.2217 109 31.5C109 24.7783 104.223 20 97.4749 20ZM97.7077 38.8398H97.286C93.8178 38.8398 91.3818 36.1416 91.3818 31.5C91.3818 26.8584 93.8178 24.1602 97.286 24.1602H97.7077C101.176 24.1602 103.562 26.8584 103.562 31.5C103.562 36.1416 101.17 38.8398 97.7077 38.8398Z" fill="#BCC8C0"/>
<path d="M121.868 24.1602H122.19C124.771 24.1602 126.337 25.7054 126.702 28.0054H132C131.542 22.7873 127.717 20 122.054 20C115.419 20 111 24.6891 111 31.5C111 38.3109 115.419 43 122.054 43C127.717 43 131.542 40.2127 132 34.9946H126.702C126.331 37.2946 124.765 38.8398 122.19 38.8398H121.868C118 38.8398 116.292 35.4343 116.292 31.5C116.292 27.5656 117.994 24.1602 121.868 24.1602Z" fill="#BCC8C0"/>
<path d="M156.554 19.1411H150.046L141.156 28.2884V10H136V42H141.156V34.8248L143.985 31.9435L150.806 42H157L147.622 28.2392L156.554 19.1411Z" fill="#BCC8C0"/>
<path d="M175.751 28.1383C175.751 23.2695 172.086 20 166.152 20C160.587 20 156.829 23.008 156.461 27.1217H161.796C161.983 25.4394 163.653 24.1553 166.016 24.1553H166.296C168.895 24.1553 170.515 25.7901 170.515 28.269V28.8873L164.438 29.3747C160.219 29.6838 156 31.5862 156 36.4965C156 40.3427 159.34 43 163.61 43C166.901 43 169.5 41.4543 170.708 39.5044C170.752 40.1702 170.802 41.716 170.989 42.5541H176C175.77 41.0085 175.77 39.0171 175.77 37.6854V28.1322L175.751 28.1383ZM170.509 33.9759C170.509 36.7639 167.636 38.8446 164.85 38.8446H164.526C162.625 38.8446 161.235 37.7389 161.235 36.1873C161.235 34.2851 163.136 33.3101 165.18 33.1376L170.515 32.6978V33.9818L170.509 33.9759Z" fill="#BCC8C0"/>
<path d="M202.298 36.7675L197.814 20H192.284L188.02 36.8561L183.306 20H178L184.938 42H190.785L195.092 25.8533L199.489 42H205.287L212 20H206.836L202.298 36.7675Z" fill="#BCC8C0"/>
<path d="M231.77 28.1383C231.77 23.2695 228.288 20 222.646 20C217.358 20 213.788 23.008 213.438 27.1217H218.506C218.684 25.4394 220.271 24.1553 222.515 24.1553H222.781C225.251 24.1553 226.79 25.7901 226.79 28.269V28.8873L221.017 29.3747C217.008 29.6838 213 31.5862 213 36.4965C213 40.3427 216.173 43 220.229 43C223.356 43 225.825 41.4543 226.974 39.5044C227.015 40.1702 227.063 41.716 227.24 42.5541H232C231.782 41.0085 231.782 39.0171 231.782 37.6854V28.1322L231.77 28.1383ZM226.79 33.9759C226.79 36.7639 224.061 38.8446 221.414 38.8446H221.106C219.299 38.8446 217.98 37.7389 217.98 36.1873C217.98 34.2851 219.786 33.3101 221.727 33.1376L226.795 32.6978V33.9818L226.79 33.9759Z" fill="#BCC8C0"/>
<path d="M252.377 20L246.132 35.2885L239.707 20H234L243.663 41.8717V45.1385C243.663 46.8894 243.215 47.3472 241.457 47.3472H235.347V52H243.21C246.712 52 248.561 50.1129 248.561 46.4749V41.6426L258 20H252.383H252.377Z" fill="#BCC8C0"/>
<path d="M274.04 28H266.109L256 42H262.026L269.956 31.0378L277.755 42H284L274.04 28Z" fill="#BCC8C0"/>
<path d="M265.962 26H273.891L284 10L277.975 10L270.046 22.5282L262.246 10L256 10L265.962 26Z" fill="#BCC8C0"/>
</svg>
