<svg xmlns="http://www.w3.org/2000/svg" width="114" height="120" viewBox="0 0 114 120" fill="none">
  <rect x="11.5592" y="16.4635" width="90.5187" height="90.0763" rx="18.2409" fill="#254839" stroke="#254839" stroke-width="0.618337"/>
  <mask id="mask0_506_11281" style="mask-type:alpha" maskUnits="userSpaceOnUse" x="11" y="16" width="92" height="91">
    <rect x="11.5592" y="16.4635" width="90.5187" height="90.0763" rx="18.2409" fill="#254839" stroke="#254839" stroke-width="0.618337"/>
  </mask>
  <g mask="url(#mask0_506_11281)">
    <g opacity="0.5">
      <path d="M12.135 23.6755V112.753" stroke="#E4EBE1" stroke-width="0.618337"/>
      <path d="M13.02 23.6755V112.753" stroke="#E4EBE1" stroke-width="0.618337"/>
      <path d="M13.9045 23.6755V112.753" stroke="#E4EBE1" stroke-width="0.618337"/>
      <path d="M14.7896 23.6755L14.7896 112.753" stroke="#E4EBE1" stroke-width="0.618337"/>
      <path d="M15.6743 23.6755L15.6743 112.753" stroke="#E4EBE1" stroke-width="0.618337"/>
      <path d="M16.5591 23.6755L16.5591 112.753" stroke="#E4EBE1" stroke-width="0.618337"/>
      <path d="M20.0984 23.6755L20.0984 112.753" stroke="#E4EBE1" stroke-width="0.309168"/>
      <path d="M23.6377 23.6755L23.6377 112.753" stroke="#E4EBE1" stroke-width="0.123667"/>
      <path d="M17.4438 23.6755L17.4439 112.753" stroke="#E4EBE1" stroke-width="0.309168"/>
      <path d="M20.9832 23.6755L20.9832 112.753" stroke="#E4EBE1" stroke-width="0.123667"/>
      <path d="M24.5225 23.6755L24.5225 112.753" stroke="#E4EBE1" stroke-width="0.123667"/>
      <path d="M18.3286 23.6755L18.3286 112.753" stroke="#E4EBE1" stroke-width="0.309168"/>
      <path d="M21.8682 23.6755L21.8682 112.753" stroke="#E4EBE1" stroke-width="0.123667"/>
      <path d="M19.2134 23.6755L19.2134 112.753" stroke="#E4EBE1" stroke-width="0.309168"/>
      <path d="M22.7529 23.6755L22.7529 112.753" stroke="#E4EBE1" stroke-width="0.123667"/>
    </g>
    <g opacity="0.5">
      <path d="M101.502 23.6755V112.753" stroke="#E4EBE1" stroke-width="0.618337"/>
      <path d="M100.617 23.6755V112.753" stroke="#E4EBE1" stroke-width="0.618337"/>
      <path d="M99.7324 23.6755V112.753" stroke="#E4EBE1" stroke-width="0.618337"/>
      <path d="M98.8477 23.6755L98.8477 112.753" stroke="#E4EBE1" stroke-width="0.618337"/>
      <path d="M97.9629 23.6755L97.9629 112.753" stroke="#E4EBE1" stroke-width="0.618337"/>
      <path d="M97.0781 23.6755L97.0781 112.753" stroke="#E4EBE1" stroke-width="0.618337"/>
      <path d="M93.5386 23.6755L93.5386 112.753" stroke="#E4EBE1" stroke-width="0.309168"/>
      <path d="M89.9995 23.6755L89.9995 112.753" stroke="#E4EBE1" stroke-width="0.123667"/>
      <path d="M96.1931 23.6755L96.1931 112.753" stroke="#E4EBE1" stroke-width="0.309168"/>
      <path d="M92.6538 23.6755L92.6538 112.753" stroke="#E4EBE1" stroke-width="0.123667"/>
      <path d="M89.1147 23.6755L89.1147 112.753" stroke="#E4EBE1" stroke-width="0.123667"/>
      <path d="M95.3083 23.6755L95.3083 112.753" stroke="#E4EBE1" stroke-width="0.309168"/>
      <path d="M91.769 23.6755L91.769 112.753" stroke="#E4EBE1" stroke-width="0.123667"/>
      <path d="M94.4233 23.6755L94.4233 112.753" stroke="#E4EBE1" stroke-width="0.309168"/>
      <path d="M90.8843 23.6755L90.8843 112.753" stroke="#E4EBE1" stroke-width="0.123667"/>
    </g>
  </g>
  <rect x="11.5592" y="13.809" width="90.5187" height="90.0763" rx="18.2409" fill="#E4EBE1" stroke="#254839" stroke-width="0.618337"/>
  <mask id="mask1_506_11281" style="mask-type:alpha" maskUnits="userSpaceOnUse" x="11" y="13" width="92" height="92">
    <rect x="11.5592" y="13.809" width="90.5187" height="90.0763" rx="18.2409" fill="#F1F3ED" stroke="#254839" stroke-width="0.618337"/>
  </mask>
  <g mask="url(#mask1_506_11281)">
    <g opacity="0.5">
      <path d="M21.7495 13.6746L21.7495 106.675" stroke="#254839" stroke-width="0.375"/>
      <path d="M22.4995 13.6746L22.4995 106.675" stroke="#254839" stroke-width="0.375"/>
      <path d="M23.2495 13.6746L23.2495 106.675" stroke="#254839" stroke-width="0.375"/>
      <path d="M23.9995 13.6746L23.9995 106.675" stroke="#254839" stroke-width="0.375"/>
      <path d="M24.7495 13.6746L24.7495 106.675" stroke="#254839" stroke-width="0.375"/>
      <path d="M25.4995 13.6746L25.4995 106.675" stroke="#254839" stroke-width="0.375"/>
      <path d="M26.2495 13.6746L26.2495 106.675" stroke="#254839" stroke-width="0.375"/>
      <path d="M26.9995 13.6746L26.9995 106.675" stroke="#254839" stroke-width="0.375"/>
      <path d="M27.7495 13.6746L27.7495 106.675" stroke="#254839" stroke-width="0.375"/>
      <path d="M28.4995 13.6746L28.4995 106.675" stroke="#254839" stroke-width="0.375"/>
      <path d="M29.2495 13.6746L29.2495 106.675" stroke="#254839" stroke-width="0.375"/>
      <path d="M29.9995 13.6746L29.9995 106.675" stroke="#254839" stroke-width="0.375"/>
      <path d="M30.7495 13.6746L30.7495 106.675" stroke="#254839" stroke-width="0.375"/>
      <path d="M31.4995 13.6746L31.4995 106.675" stroke="#254839" stroke-width="0.375"/>
      <path d="M32.2495 13.6746L32.2495 106.675" stroke="#254839" stroke-width="0.375"/>
      <path d="M32.9995 13.6746L32.9995 106.675" stroke="#254839" stroke-width="0.375"/>
      <path d="M11.2498 13.6746L11.2498 106.675" stroke="#254839" stroke-width="0.375"/>
      <path d="M11.9998 13.6746L11.9998 106.675" stroke="#254839" stroke-width="0.375"/>
      <path d="M12.7498 13.6746L12.7498 106.675" stroke="#254839" stroke-width="0.375"/>
      <path d="M13.4998 13.6746L13.4998 106.675" stroke="#254839" stroke-width="0.375"/>
      <path d="M14.2498 13.6746L14.2498 106.675" stroke="#254839" stroke-width="0.375"/>
      <path d="M14.9998 13.6746L14.9998 106.675" stroke="#254839" stroke-width="0.375"/>
      <path d="M15.7498 13.6746L15.7498 106.675" stroke="#254839" stroke-width="0.375"/>
      <path d="M16.4998 13.6746L16.4998 106.675" stroke="#254839" stroke-width="0.375"/>
      <path d="M17.2498 13.6746L17.2498 106.675" stroke="#254839" stroke-width="0.375"/>
      <path d="M17.9998 13.6746L17.9998 106.675" stroke="#254839" stroke-width="0.375"/>
      <path d="M18.7498 13.6746L18.7498 106.675" stroke="#254839" stroke-width="0.375"/>
      <path d="M19.4998 13.6746L19.4998 106.675" stroke="#254839" stroke-width="0.375"/>
      <path d="M20.2498 13.6746L20.2498 106.675" stroke="#254839" stroke-width="0.375"/>
      <path d="M20.9998 13.6746L20.9998 106.675" stroke="#254839" stroke-width="0.375"/>
      <path d="M44.9995 13.6746L44.9995 106.675" stroke="#254839" stroke-width="0.375"/>
      <path d="M45.7495 13.6746L45.7495 106.675" stroke="#254839" stroke-width="0.375"/>
      <path d="M46.4995 13.6746L46.4995 106.675" stroke="#254839" stroke-width="0.375"/>
      <path d="M47.2495 13.6746L47.2495 106.675" stroke="#254839" stroke-width="0.375"/>
      <path d="M47.9995 13.6746L47.9995 106.675" stroke="#254839" stroke-width="0.375"/>
      <path d="M48.7495 13.6746L48.7495 106.675" stroke="#254839" stroke-width="0.375"/>
      <path d="M49.4995 13.6746L49.4995 106.675" stroke="#254839" stroke-width="0.375"/>
      <path d="M50.2495 13.6746L50.2495 106.675" stroke="#254839" stroke-width="0.375"/>
      <path d="M50.9995 13.6746L50.9995 106.675" stroke="#254839" stroke-width="0.375"/>
      <path d="M51.7495 13.6746L51.7495 106.675" stroke="#254839" stroke-width="0.375"/>
      <path d="M52.4995 13.6746L52.4995 106.675" stroke="#254839" stroke-width="0.375"/>
      <path d="M53.2495 13.6746L53.2495 106.675" stroke="#254839" stroke-width="0.375"/>
      <path d="M53.9995 13.6746L53.9995 106.675" stroke="#254839" stroke-width="0.375"/>
      <path d="M54.7495 13.6746L54.7495 106.675" stroke="#254839" stroke-width="0.375"/>
      <path d="M55.4995 13.6746L55.4995 106.675" stroke="#254839" stroke-width="0.375"/>
      <path d="M56.2495 13.6746L56.2495 106.675" stroke="#254839" stroke-width="0.375"/>
      <path d="M68.2498 13.6746L68.2498 106.675" stroke="#254839" stroke-width="0.375"/>
      <path d="M68.9998 13.6746L68.9998 106.675" stroke="#254839" stroke-width="0.375"/>
      <path d="M69.7498 13.6746L69.7498 106.675" stroke="#254839" stroke-width="0.375"/>
      <path d="M70.4998 13.6746L70.4998 106.675" stroke="#254839" stroke-width="0.375"/>
      <path d="M71.2498 13.6746L71.2498 106.675" stroke="#254839" stroke-width="0.375"/>
      <path d="M71.9998 13.6746L71.9998 106.675" stroke="#254839" stroke-width="0.375"/>
      <path d="M72.7498 13.6746L72.7498 106.675" stroke="#254839" stroke-width="0.375"/>
      <path d="M73.4998 13.6746L73.4998 106.675" stroke="#254839" stroke-width="0.375"/>
      <path d="M74.2498 13.6746L74.2498 106.675" stroke="#254839" stroke-width="0.375"/>
      <path d="M74.9998 13.6746L74.9998 106.675" stroke="#254839" stroke-width="0.375"/>
      <path d="M75.7498 13.6746L75.7498 106.675" stroke="#254839" stroke-width="0.375"/>
      <path d="M76.4998 13.6746L76.4998 106.675" stroke="#254839" stroke-width="0.375"/>
      <path d="M77.2498 13.6746L77.2498 106.675" stroke="#254839" stroke-width="0.375"/>
      <path d="M77.9998 13.6746L77.9998 106.675" stroke="#254839" stroke-width="0.375"/>
      <path d="M78.7498 13.6746L78.7498 106.675" stroke="#254839" stroke-width="0.375"/>
      <path d="M79.4998 13.6746L79.4998 106.675" stroke="#254839" stroke-width="0.375"/>
      <path d="M80.25 13.6746L80.25 106.675" stroke="#254839" stroke-width="0.375"/>
      <path d="M81 13.6746L81 106.675" stroke="#254839" stroke-width="0.375"/>
      <path d="M81.75 13.6746L81.75 106.675" stroke="#254839" stroke-width="0.375"/>
      <path d="M82.5 13.6746L82.5 106.675" stroke="#254839" stroke-width="0.375"/>
      <path d="M83.25 13.6746L83.25 106.675" stroke="#254839" stroke-width="0.375"/>
      <path d="M84 13.6746L84 106.675" stroke="#254839" stroke-width="0.375"/>
      <path d="M84.75 13.6746L84.75 106.675" stroke="#254839" stroke-width="0.375"/>
      <path d="M85.5 13.6746L85.5 106.675" stroke="#254839" stroke-width="0.375"/>
      <path d="M86.25 13.6746L86.25 106.675" stroke="#254839" stroke-width="0.375"/>
      <path d="M87 13.6746L87 106.675" stroke="#254839" stroke-width="0.375"/>
      <path d="M87.75 13.6746L87.75 106.675" stroke="#254839" stroke-width="0.375"/>
      <path d="M88.5 13.6746L88.5 106.675" stroke="#254839" stroke-width="0.375"/>
      <path d="M89.25 13.6746L89.25 106.675" stroke="#254839" stroke-width="0.375"/>
      <path d="M90 13.6746L90 106.675" stroke="#254839" stroke-width="0.375"/>
      <path d="M90.75 13.6746L90.75 106.675" stroke="#254839" stroke-width="0.375"/>
      <path d="M91.5 13.6746L91.5 106.675" stroke="#254839" stroke-width="0.375"/>
      <path d="M33.7498 13.6746L33.7498 106.675" stroke="#254839" stroke-width="0.375"/>
      <path d="M34.4998 13.6746L34.4998 106.675" stroke="#254839" stroke-width="0.375"/>
      <path d="M35.2498 13.6746L35.2498 106.675" stroke="#254839" stroke-width="0.375"/>
      <path d="M35.9998 13.6746L35.9998 106.675" stroke="#254839" stroke-width="0.375"/>
      <path d="M36.7498 13.6746L36.7498 106.675" stroke="#254839" stroke-width="0.375"/>
      <path d="M37.4998 13.6746L37.4998 106.675" stroke="#254839" stroke-width="0.375"/>
      <path d="M38.2498 13.6746L38.2498 106.675" stroke="#254839" stroke-width="0.375"/>
      <path d="M38.9998 13.6746L38.9998 106.675" stroke="#254839" stroke-width="0.375"/>
      <path d="M39.7498 13.6746L39.7498 106.675" stroke="#254839" stroke-width="0.375"/>
      <path d="M40.4998 13.6746L40.4998 106.675" stroke="#254839" stroke-width="0.375"/>
      <path d="M41.2498 13.6746L41.2498 106.675" stroke="#254839" stroke-width="0.375"/>
      <path d="M41.9998 13.6746L41.9998 106.675" stroke="#254839" stroke-width="0.375"/>
      <path d="M42.7498 13.6746L42.7498 106.675" stroke="#254839" stroke-width="0.375"/>
      <path d="M43.4998 13.6746L43.4998 106.675" stroke="#254839" stroke-width="0.375"/>
      <path d="M44.2498 13.6746L44.2498 106.675" stroke="#254839" stroke-width="0.375"/>
      <path d="M56.9998 13.6746L56.9998 106.675" stroke="#254839" stroke-width="0.375"/>
      <path d="M57.7498 13.6746L57.7498 106.675" stroke="#254839" stroke-width="0.375"/>
      <path d="M58.4998 13.6746L58.4998 106.675" stroke="#254839" stroke-width="0.375"/>
      <path d="M59.2498 13.6746L59.2498 106.675" stroke="#254839" stroke-width="0.375"/>
      <path d="M59.9998 13.6746L59.9998 106.675" stroke="#254839" stroke-width="0.375"/>
      <path d="M60.7498 13.6746L60.7498 106.675" stroke="#254839" stroke-width="0.375"/>
      <path d="M61.4998 13.6746L61.4998 106.675" stroke="#254839" stroke-width="0.375"/>
      <path d="M62.2498 13.6746L62.2498 106.675" stroke="#254839" stroke-width="0.375"/>
      <path d="M62.9998 13.6746L62.9998 106.675" stroke="#254839" stroke-width="0.375"/>
      <path d="M63.7498 13.6746L63.7498 106.675" stroke="#254839" stroke-width="0.375"/>
      <path d="M64.4998 13.6746L64.4998 106.675" stroke="#254839" stroke-width="0.375"/>
      <path d="M65.2498 13.6746L65.2498 106.675" stroke="#254839" stroke-width="0.375"/>
      <path d="M65.9998 13.6746L65.9998 106.675" stroke="#254839" stroke-width="0.375"/>
      <path d="M66.7498 13.6746L66.7498 106.675" stroke="#254839" stroke-width="0.375"/>
      <path d="M67.4998 13.6746L67.4998 106.675" stroke="#254839" stroke-width="0.375"/>
      <path d="M92.2498 13.6746L92.2498 106.675" stroke="#254839" stroke-width="0.375"/>
      <path d="M92.9998 13.6746L92.9998 106.675" stroke="#254839" stroke-width="0.375"/>
      <path d="M93.7498 13.6746L93.7498 106.675" stroke="#254839" stroke-width="0.375"/>
      <path d="M94.4998 13.6746L94.4998 106.675" stroke="#254839" stroke-width="0.375"/>
      <path d="M95.2498 13.6746L95.2498 106.675" stroke="#254839" stroke-width="0.375"/>
      <path d="M95.9998 13.6746L95.9998 106.675" stroke="#254839" stroke-width="0.375"/>
      <path d="M96.7498 13.6746L96.7498 106.675" stroke="#254839" stroke-width="0.375"/>
      <path d="M97.4998 13.6746L97.4998 106.675" stroke="#254839" stroke-width="0.375"/>
      <path d="M98.2498 13.6746L98.2498 106.675" stroke="#254839" stroke-width="0.375"/>
      <path d="M98.9998 13.6746L98.9998 106.675" stroke="#254839" stroke-width="0.375"/>
      <path d="M99.7498 13.6746L99.7498 106.675" stroke="#254839" stroke-width="0.375"/>
      <path d="M100.5 13.6746L100.5 106.675" stroke="#254839" stroke-width="0.375"/>
      <path d="M101.25 13.6746L101.25 106.675" stroke="#254839" stroke-width="0.375"/>
      <path d="M102 13.6746L102 106.675" stroke="#254839" stroke-width="0.375"/>
    </g>
  </g>
  <rect x="17.9001" y="21.4773" width="77.4374" height="77.4374" rx="38.7187" fill="#254839" stroke="#254839" stroke-width="0.912546"/>
  <mask id="mask2_506_11281" style="mask-type:alpha" maskUnits="userSpaceOnUse" x="17" y="21" width="79" height="79">
    <rect x="17.9001" y="21.4773" width="77.4374" height="77.4374" rx="38.7187" fill="#254839" stroke="#254839" stroke-width="0.912546"/>
  </mask>
  <g mask="url(#mask2_506_11281)">
    <g opacity="0.5">
      <path d="M43.5459 66.147V110.388" stroke="#E4EBE1" stroke-width="0.618337"/>
      <path d="M41.7764 66.147L41.7764 155.224" stroke="#E4EBE1" stroke-width="0.309168"/>
      <path d="M71.8604 66.147L71.8604 155.224" stroke="#E4EBE1" stroke-width="0.309168"/>
      <path d="M40.8916 66.147L40.8916 155.224" stroke="#E4EBE1" stroke-width="0.123667"/>
      <path d="M72.7451 66.147L72.7451 155.224" stroke="#E4EBE1" stroke-width="0.123667"/>
      <path d="M40.0068 66.147L40.0068 155.224" stroke="#E4EBE1" stroke-width="0.123667"/>
      <path d="M73.6301 66.147L73.6301 155.224" stroke="#E4EBE1" stroke-width="0.123667"/>
      <path d="M42.6611 66.147L42.6611 155.224" stroke="#E4EBE1" stroke-width="0.309168"/>
      <path d="M70.9756 66.147L70.9756 155.224" stroke="#E4EBE1" stroke-width="0.309168"/>
      <path d="M56.8184 66.147V110.388" stroke="#E4EBE1" stroke-width="0.927505"/>
      <path d="M44.4309 66.147V110.388" stroke="#E4EBE1" stroke-width="0.618337"/>
      <path d="M57.7034 66.147V110.388" stroke="#E4EBE1" stroke-width="0.927505"/>
      <path d="M45.3157 66.147V110.388" stroke="#E4EBE1" stroke-width="0.618337"/>
      <path d="M58.5881 66.147V110.388" stroke="#E4EBE1" stroke-width="0.927505"/>
      <path d="M46.2004 66.147V110.388" stroke="#E4EBE1" stroke-width="0.618337"/>
      <path d="M59.4729 66.147V110.388" stroke="#E4EBE1" stroke-width="0.927505"/>
      <path d="M49.7397 66.147V110.388" stroke="#E4EBE1" stroke-width="0.618337"/>
      <path d="M63.0122 66.147V110.388" stroke="#E4EBE1" stroke-width="0.618337"/>
      <path d="M47.0852 66.147V110.388" stroke="#E4EBE1" stroke-width="0.618337"/>
      <path d="M60.3577 66.147V110.388" stroke="#E4EBE1" stroke-width="0.927505"/>
      <path d="M51.5093 66.147V110.388" stroke="#E4EBE1" stroke-width="0.618337"/>
      <path d="M64.7817 66.147V110.388" stroke="#E4EBE1" stroke-width="0.618337"/>
      <path d="M47.9702 66.147V110.388" stroke="#E4EBE1" stroke-width="0.618337"/>
      <path d="M61.2427 66.147V110.388" stroke="#E4EBE1" stroke-width="0.618337"/>
      <path d="M48.855 66.147V110.388" stroke="#E4EBE1" stroke-width="0.618337"/>
      <path d="M62.1274 66.147V110.388" stroke="#E4EBE1" stroke-width="0.618337"/>
      <path d="M50.6245 66.147V110.388" stroke="#E4EBE1" stroke-width="0.618337"/>
      <path d="M63.897 66.147V110.388" stroke="#E4EBE1" stroke-width="0.618337"/>
      <path d="M52.3943 66.147V110.388" stroke="#E4EBE1" stroke-width="0.618337"/>
      <path d="M65.6665 66.147V110.388" stroke="#E4EBE1" stroke-width="0.618337"/>
      <path d="M53.2791 66.147V110.388" stroke="#E4EBE1" stroke-width="0.927505"/>
      <path d="M66.5515 66.147V110.388" stroke="#E4EBE1" stroke-width="0.618337"/>
      <path d="M54.1638 66.147V110.388" stroke="#E4EBE1" stroke-width="0.927505"/>
      <path d="M67.4363 66.147V110.388" stroke="#E4EBE1" stroke-width="0.618337"/>
      <path d="M55.0488 66.147V110.388" stroke="#E4EBE1" stroke-width="0.927505"/>
      <path d="M68.3213 66.147V110.388" stroke="#E4EBE1" stroke-width="0.618337"/>
      <path d="M55.9336 66.147V110.388" stroke="#E4EBE1" stroke-width="0.927505"/>
      <path d="M69.2061 66.147V110.388" stroke="#E4EBE1" stroke-width="0.618337"/>
      <path d="M70.0908 66.5895V110.831" stroke="#E4EBE1" stroke-width="0.618337"/>
    </g>
  </g>
  <rect x="17.8188" y="19.5836" width="77.5999" height="77.5999" rx="38.7999" fill="#E4EBE1" stroke="#254839" stroke-width="0.75"/>
  <mask id="mask3_506_11281" style="mask-type:alpha" maskUnits="userSpaceOnUse" x="29" y="53" width="55" height="17">
    <path d="M29.3887 61.5017C29.3887 60.1579 30.4784 59.0681 31.8223 59.0681L48.4766 59.0681C49.4974 55.6434 52.6694 53.1462 56.4258 53.1462C60.1821 53.1463 63.3532 55.6436 64.374 59.0681L80.9297 59.0681C82.2735 59.0681 83.3633 60.1578 83.3633 61.5017C83.3632 62.8455 82.2735 63.9353 80.9297 63.9353L64.3379 63.9353C63.279 67.2975 60.1376 69.736 56.4258 69.7361C52.7138 69.7361 49.5715 67.2976 48.5127 63.9353L31.8223 63.9353C30.4784 63.9353 29.3887 62.8455 29.3887 61.5017Z" fill="#D9D9D9"/>
  </mask>
  <g mask="url(#mask3_506_11281)">
    <path d="M27.6191 69.6862L85.1328 69.6862" stroke="#254839" stroke-width="0.618337"/>
    <path d="M27.6191 68.8014L85.1328 68.8014" stroke="#254839" stroke-width="0.618337"/>
    <path d="M27.6191 67.9166L85.1328 67.9166" stroke="#254839" stroke-width="0.618337"/>
    <path d="M27.6191 67.0317L85.1328 67.0317" stroke="#254839" stroke-width="0.618337"/>
    <path d="M27.6191 66.1469L85.1328 66.1468" stroke="#254839" stroke-width="0.618337"/>
    <path d="M27.6191 65.2621L85.1328 65.2621" stroke="#254839" stroke-width="0.618337"/>
    <path d="M27.6191 64.3772L85.1328 64.3772" stroke="#254839" stroke-width="0.618337"/>
    <path d="M27.6191 63.4924L85.1328 63.4924" stroke="#254839" stroke-width="0.618337"/>
    <path d="M27.6191 62.6077L85.1328 62.6077" stroke="#254839" stroke-width="0.618337"/>
    <path d="M27.6191 61.7227L85.1328 61.7227" stroke="#254839" stroke-width="0.618337"/>
    <path d="M27.6191 60.8379L85.1328 60.8379" stroke="#254839" stroke-width="0.618337"/>
    <path d="M27.6191 59.9531L85.1328 59.9531" stroke="#254839" stroke-width="0.618337"/>
    <path d="M27.6191 59.0684L85.1328 59.0684" stroke="#254839" stroke-width="0.618337"/>
    <path d="M27.6191 58.1836L85.1328 58.1836" stroke="#254839" stroke-width="0.618337"/>
  </g>
  <rect x="29.8311" y="56.4139" width="53.532" height="5.30896" rx="2.65448" fill="#E4EBE1" stroke="#254839" stroke-width="0.75"/>
  <rect x="53.2791" y="85.6132" width="53.9744" height="6.19378" rx="3.09689" transform="rotate(-90 53.2791 85.6132)" fill="#E4EBE1" stroke="#254839" stroke-width="0.75"/>
  <g opacity="0.5">
    <mask id="mask4_506_11281" style="mask-type:alpha" maskUnits="userSpaceOnUse" x="29" y="31" width="55" height="52">
      <mask id="path-216-inside-1_506_11281" fill="white">
        <path d="M56.2502 81.2306C56.2502 82.059 55.5786 82.7306 54.7502 82.7306C53.9218 82.7306 53.2502 82.059 53.2502 81.2306V66.2306H56.2502V81.2306ZM54.8108 31.7228C55.666 31.7228 56.3596 32.4164 56.3596 33.2716V49.8273H56.7571C61.1551 49.8274 64.72 53.3931 64.72 57.7911C64.72 58.3184 64.6683 58.8335 64.5706 59.3322H82.2659C82.8766 59.3322 83.3721 59.827 83.3723 60.4376C83.3723 61.0485 82.8767 61.5441 82.2659 61.5441H63.7805C62.439 64.0494 59.7977 65.754 56.7571 65.754H55.8723C52.8315 65.754 50.1894 64.0496 48.8479 61.5441H30.9465C30.3357 61.5441 29.8401 61.0485 29.8401 60.4376C29.8403 59.827 30.3358 59.3322 30.9465 59.3322H48.0588C47.961 58.8335 47.9085 58.3184 47.9084 57.7911C47.9084 54.3074 50.1461 51.3475 53.262 50.2667V33.2716C53.262 32.4165 53.9557 31.7228 54.8108 31.7228Z"/>
      </mask>
      <path d="M56.2502 81.2306C56.2502 82.059 55.5786 82.7306 54.7502 82.7306C53.9218 82.7306 53.2502 82.059 53.2502 81.2306V66.2306H56.2502V81.2306ZM54.8108 31.7228C55.666 31.7228 56.3596 32.4164 56.3596 33.2716V49.8273H56.7571C61.1551 49.8274 64.72 53.3931 64.72 57.7911C64.72 58.3184 64.6683 58.8335 64.5706 59.3322H82.2659C82.8766 59.3322 83.3721 59.827 83.3723 60.4376C83.3723 61.0485 82.8767 61.5441 82.2659 61.5441H63.7805C62.439 64.0494 59.7977 65.754 56.7571 65.754H55.8723C52.8315 65.754 50.1894 64.0496 48.8479 61.5441H30.9465C30.3357 61.5441 29.8401 61.0485 29.8401 60.4376C29.8403 59.827 30.3358 59.3322 30.9465 59.3322H48.0588C47.961 58.8335 47.9085 58.3184 47.9084 57.7911C47.9084 54.3074 50.1461 51.3475 53.262 50.2667V33.2716C53.262 32.4165 53.9557 31.7228 54.8108 31.7228Z" fill="#F1F3ED"/>
      <path d="M56.2502 81.2306H55.3377H56.2502ZM54.7502 82.7306V83.6431H54.7503L54.7502 82.7306ZM53.2502 81.2306H52.3377H53.2502ZM53.2502 66.2306V65.318H52.3377V66.2306H53.2502ZM56.2502 66.2306H57.1628V65.318H56.2502V66.2306ZM54.8108 31.7228V30.8102H54.8107L54.8108 31.7228ZM56.3596 33.2716H57.2722H56.3596ZM56.3596 49.8273H55.4471V50.7398H56.3596V49.8273ZM56.7571 49.8273L56.7571 48.9147H56.7571V49.8273ZM64.72 57.7911L65.6325 57.7912V57.7911H64.72ZM64.5706 59.3322L63.6751 59.1565L63.4617 60.2447H64.5706V59.3322ZM83.3723 60.4376H84.2849V60.4373L83.3723 60.4376ZM63.7805 61.5441V60.6315H63.234L62.976 61.1133L63.7805 61.5441ZM56.7571 65.754V66.6666H56.7571L56.7571 65.754ZM48.8479 61.5441L49.6524 61.1133L49.3944 60.6315H48.8479V61.5441ZM29.8401 60.4376L28.9275 60.4373V60.4376H29.8401ZM48.0588 59.3322V60.2447H49.1677L48.9543 59.1565L48.0588 59.3322ZM47.9084 57.7911H46.9959V57.7912L47.9084 57.7911ZM53.262 50.2667L53.561 51.1289L54.1745 50.9161V50.2667H53.262ZM53.262 33.2716H54.1745H53.262ZM56.2502 81.2306H55.3377C55.3377 81.555 55.0747 81.818 54.7502 81.818L54.7502 82.7306L54.7503 83.6431C56.0826 83.6431 57.1628 82.563 57.1628 81.2306H56.2502ZM54.7502 82.7306V81.818C54.4258 81.818 54.1628 81.555 54.1628 81.2306H53.2502H52.3377C52.3377 82.563 53.4178 83.6431 54.7502 83.6431V82.7306ZM53.2502 81.2306H54.1628V66.2306H53.2502H52.3377V81.2306H53.2502ZM53.2502 66.2306V67.1431H56.2502V66.2306V65.318H53.2502V66.2306ZM56.2502 66.2306H55.3377V81.2306H56.2502H57.1628V66.2306H56.2502ZM54.8108 31.7228V32.6353C55.162 32.6353 55.4471 32.9204 55.4471 33.2716H56.3596H57.2722C57.2722 31.9124 56.17 30.8102 54.8108 30.8102V31.7228ZM56.3596 33.2716H55.4471V49.8273H56.3596H57.2722V33.2716H56.3596ZM56.3596 49.8273V50.7398H56.7571V49.8273V48.9147H56.3596V49.8273ZM56.7571 49.8273L56.7571 50.7398C60.651 50.7399 63.8074 53.897 63.8074 57.7911H64.72H65.6325C65.6325 52.8893 61.6592 48.9148 56.7571 48.9147L56.7571 49.8273ZM64.72 57.7911L63.8074 57.7911C63.8074 58.2587 63.7617 58.715 63.6751 59.1565L64.5706 59.3322L65.466 59.5078C65.575 58.9521 65.6325 58.3781 65.6325 57.7912L64.72 57.7911ZM64.5706 59.3322V60.2447H82.2659V59.3322V58.4196H64.5706V59.3322ZM82.2659 59.3322V60.2447C82.3733 60.2447 82.4597 60.3317 82.4598 60.438L83.3723 60.4376L84.2849 60.4373C84.2844 59.3222 83.3799 58.4196 82.2659 58.4196V59.3322ZM83.3723 60.4376H82.4598C82.4598 60.5445 82.3727 60.6315 82.2659 60.6315V61.5441V62.4566C83.3807 62.4566 84.2849 61.5525 84.2849 60.4376H83.3723ZM82.2659 61.5441V60.6315H63.7805V61.5441V62.4566H82.2659V61.5441ZM63.7805 61.5441L62.976 61.1133C61.7869 63.3341 59.4477 64.8414 56.7571 64.8415L56.7571 65.754L56.7571 66.6666C60.1477 66.6665 63.0911 64.7647 64.585 61.9748L63.7805 61.5441ZM56.7571 65.754V64.8415H55.8723V65.754V66.6666H56.7571V65.754ZM55.8723 65.754V64.8415C53.1813 64.8415 50.8415 63.3341 49.6524 61.1133L48.8479 61.5441L48.0434 61.9748C49.5374 64.765 52.4817 66.6666 55.8723 66.6666V65.754ZM48.8479 61.5441V60.6315H30.9465V61.5441V62.4566H48.8479V61.5441ZM30.9465 61.5441V60.6315C30.8397 60.6315 30.7526 60.5445 30.7526 60.4376H29.8401H28.9275C28.9275 61.5525 29.8317 62.4566 30.9465 62.4566V61.5441ZM29.8401 60.4376L30.7526 60.438C30.7527 60.3317 30.8391 60.2447 30.9465 60.2447V59.3322V58.4196C29.8325 58.4196 28.928 59.3222 28.9275 60.4373L29.8401 60.4376ZM30.9465 59.3322V60.2447H48.0588V59.3322V58.4196H30.9465V59.3322ZM48.0588 59.3322L48.9543 59.1565C48.8675 58.7139 48.821 58.2576 48.821 57.7911L47.9084 57.7911L46.9959 57.7912C46.9959 58.3793 47.0546 58.9532 47.1634 59.5078L48.0588 59.3322ZM47.9084 57.7911H48.821C48.821 54.7084 50.8007 52.0863 53.561 51.1289L53.262 50.2667L52.9629 49.4046C49.4915 50.6086 46.9959 53.9065 46.9959 57.7911H47.9084ZM53.262 50.2667H54.1745V33.2716H53.262H52.3494V50.2667H53.262ZM53.262 33.2716H54.1745C54.1745 32.9205 54.4596 32.6353 54.8109 32.6353L54.8108 31.7228L54.8107 30.8102C53.4517 30.8103 52.3494 31.9124 52.3494 33.2716H53.262Z" fill="#254839" mask="url(#path-216-inside-1_506_11281)"/>
    </mask>
    <g mask="url(#mask4_506_11281)">
      <path d="M29.8491 19.8617L29.8491 151.323" stroke="#254839" stroke-width="0.375"/>
      <path d="M30.502 19.8617L30.502 151.323" stroke="#254839" stroke-width="0.375"/>
      <path d="M31.1548 19.8617L31.1548 151.323" stroke="#254839" stroke-width="0.375"/>
      <path d="M31.8079 19.8617L31.8079 151.323" stroke="#254839" stroke-width="0.375"/>
      <path d="M32.4607 19.8617L32.4607 151.323" stroke="#254839" stroke-width="0.375"/>
      <path d="M33.1138 19.8617L33.1138 151.323" stroke="#254839" stroke-width="0.375"/>
      <path d="M33.7666 19.8617L33.7666 151.323" stroke="#254839" stroke-width="0.375"/>
      <path d="M34.4194 19.8617L34.4194 151.323" stroke="#254839" stroke-width="0.375"/>
      <path d="M35.0723 19.8617L35.0723 151.323" stroke="#254839" stroke-width="0.375"/>
      <path d="M35.7253 19.8617L35.7253 151.323" stroke="#254839" stroke-width="0.375"/>
      <path d="M36.3784 19.8617L36.3784 151.323" stroke="#254839" stroke-width="0.375"/>
      <path d="M37.0312 19.8617L37.0313 151.323" stroke="#254839" stroke-width="0.375"/>
      <path d="M37.6841 19.8617L37.6841 151.323" stroke="#254839" stroke-width="0.375"/>
      <path d="M38.3369 19.8617L38.3369 151.323" stroke="#254839" stroke-width="0.375"/>
      <path d="M38.99 19.8617L38.99 151.323" stroke="#254839" stroke-width="0.375"/>
      <path d="M39.6428 19.8617L39.6428 151.323" stroke="#254839" stroke-width="0.375"/>
      <path d="M40.2959 19.8617L40.2959 151.323" stroke="#254839" stroke-width="0.375"/>
      <path d="M40.9487 19.8617L40.9487 151.323" stroke="#254839" stroke-width="0.375"/>
      <path d="M41.6016 19.8617L41.6016 151.323" stroke="#254839" stroke-width="0.375"/>
      <path d="M42.2544 19.8617L42.2544 151.323" stroke="#254839" stroke-width="0.375"/>
      <path d="M42.9075 19.8617L42.9075 151.323" stroke="#254839" stroke-width="0.375"/>
      <path d="M43.5603 19.8617L43.5603 151.323" stroke="#254839" stroke-width="0.375"/>
      <path d="M44.2131 19.8617L44.2131 151.323" stroke="#254839" stroke-width="0.375"/>
      <path d="M44.8662 19.8617L44.8662 151.323" stroke="#254839" stroke-width="0.375"/>
      <path d="M45.519 19.8617L45.519 151.323" stroke="#254839" stroke-width="0.375"/>
      <path d="M46.1721 19.8617L46.1721 151.323" stroke="#254839" stroke-width="0.375"/>
      <path d="M46.825 19.8617L46.825 151.323" stroke="#254839" stroke-width="0.375"/>
      <path d="M47.4778 19.8617L47.4778 151.323" stroke="#254839" stroke-width="0.375"/>
      <path d="M48.1309 19.8617L48.1309 151.323" stroke="#254839" stroke-width="0.375"/>
      <path d="M48.7837 19.8617L48.7837 151.323" stroke="#254839" stroke-width="0.375"/>
      <path d="M49.4365 19.8617L49.4365 151.323" stroke="#254839" stroke-width="0.375"/>
      <path d="M50.0896 19.8617L50.0896 151.323" stroke="#254839" stroke-width="0.375"/>
      <path d="M50.7424 19.8617L50.7424 151.323" stroke="#254839" stroke-width="0.375"/>
      <path d="M51.3953 19.8617L51.3953 151.323" stroke="#254839" stroke-width="0.375"/>
      <path d="M52.0483 19.8617L52.0483 151.323" stroke="#254839" stroke-width="0.375"/>
      <path d="M52.7012 19.8617L52.7012 151.323" stroke="#254839" stroke-width="0.375"/>
      <path d="M53.354 19.8617L53.354 151.323" stroke="#254839" stroke-width="0.375"/>
      <path d="M54.0068 19.8617L54.0068 151.323" stroke="#254839" stroke-width="0.375"/>
      <path d="M54.6599 19.8617L54.6599 151.323" stroke="#254839" stroke-width="0.375"/>
      <path d="M55.313 19.8615L55.313 151.323" stroke="#254839" stroke-width="0.375"/>
      <path d="M55.9656 19.8617L55.9656 151.323" stroke="#254839" stroke-width="0.375"/>
      <path d="M56.6187 19.8617L56.6187 151.323" stroke="#254839" stroke-width="0.375"/>
      <path d="M57.2715 19.8617L57.2715 151.323" stroke="#254839" stroke-width="0.375"/>
      <path d="M57.9246 19.8617L57.9246 151.323" stroke="#254839" stroke-width="0.375"/>
      <path d="M58.5774 19.8617L58.5774 151.323" stroke="#254839" stroke-width="0.375"/>
      <path d="M59.2302 19.8617L59.2302 151.323" stroke="#254839" stroke-width="0.375"/>
      <path d="M59.8833 19.8617L59.8833 151.323" stroke="#254839" stroke-width="0.375"/>
      <path d="M60.5361 19.8617L60.5361 151.323" stroke="#254839" stroke-width="0.375"/>
      <path d="M61.189 19.8617L61.189 151.323" stroke="#254839" stroke-width="0.375"/>
      <path d="M61.842 19.8617L61.842 151.323" stroke="#254839" stroke-width="0.375"/>
      <path d="M62.4949 19.8617L62.4949 151.323" stroke="#254839" stroke-width="0.375"/>
      <path d="M63.1477 19.8617L63.1477 151.323" stroke="#254839" stroke-width="0.375"/>
      <path d="M63.8008 19.8617L63.8008 151.323" stroke="#254839" stroke-width="0.375"/>
      <path d="M64.4536 19.8617L64.4536 151.323" stroke="#254839" stroke-width="0.375"/>
      <path d="M65.1067 19.8617L65.1067 151.323" stroke="#254839" stroke-width="0.375"/>
      <path d="M65.7593 19.8617L65.7593 151.323" stroke="#254839" stroke-width="0.375"/>
      <path d="M66.4124 19.8617L66.4124 151.323" stroke="#254839" stroke-width="0.375"/>
      <path d="M67.0654 19.8617L67.0654 151.323" stroke="#254839" stroke-width="0.375"/>
      <path d="M67.7183 19.8617L67.7183 151.323" stroke="#254839" stroke-width="0.375"/>
      <path d="M68.3711 19.8617L68.3711 151.323" stroke="#254839" stroke-width="0.375"/>
      <path d="M69.0239 19.8617L69.0239 151.323" stroke="#254839" stroke-width="0.375"/>
      <path d="M69.677 19.8617L69.677 151.323" stroke="#254839" stroke-width="0.375"/>
      <path d="M70.3298 19.8617L70.3298 151.323" stroke="#254839" stroke-width="0.375"/>
      <path d="M70.9829 19.8617L70.9829 151.323" stroke="#254839" stroke-width="0.375"/>
      <path d="M71.6357 19.8617L71.6357 151.323" stroke="#254839" stroke-width="0.375"/>
      <path d="M72.2886 19.8617L72.2886 151.323" stroke="#254839" stroke-width="0.375"/>
      <path d="M72.9414 19.8617L72.9414 151.323" stroke="#254839" stroke-width="0.375"/>
      <path d="M73.5945 19.8617L73.5945 151.323" stroke="#254839" stroke-width="0.375"/>
      <path d="M74.2476 19.8617L74.2476 151.323" stroke="#254839" stroke-width="0.375"/>
      <path d="M74.9004 19.8617L74.9004 151.323" stroke="#254839" stroke-width="0.375"/>
      <path d="M75.5532 19.8617L75.5532 151.323" stroke="#254839" stroke-width="0.375"/>
      <path d="M76.2061 19.8617L76.2061 151.323" stroke="#254839" stroke-width="0.375"/>
      <path d="M76.8591 19.8617L76.8591 151.323" stroke="#254839" stroke-width="0.375"/>
      <path d="M77.512 19.8617L77.512 151.323" stroke="#254839" stroke-width="0.375"/>
      <path d="M78.165 19.8617L78.165 151.323" stroke="#254839" stroke-width="0.375"/>
      <path d="M78.8179 19.8617L78.8179 151.323" stroke="#254839" stroke-width="0.375"/>
      <path d="M79.4707 19.8617L79.4707 151.323" stroke="#254839" stroke-width="0.375"/>
      <path d="M80.1235 19.8617L80.1235 151.323" stroke="#254839" stroke-width="0.375"/>
      <path d="M80.7764 19.8617L80.7764 151.323" stroke="#254839" stroke-width="0.375"/>
      <path d="M81.4294 19.8617L81.4294 151.323" stroke="#254839" stroke-width="0.375"/>
      <path d="M82.0823 19.8617L82.0823 151.323" stroke="#254839" stroke-width="0.375"/>
      <path d="M82.7354 19.8617L82.7354 151.323" stroke="#254839" stroke-width="0.375"/>
      <path d="M83.3882 19.8617L83.3882 151.323" stroke="#254839" stroke-width="0.375"/>
    </g>
  </g>
  <rect x="0.456273" y="-0.456273" width="15.6775" height="15.6775" rx="7.83873" transform="matrix(1 0 0 -1 48.1309 66.6116)" fill="#254839" stroke="#254839" stroke-width="0.912546"/>
  <rect x="0.375" y="-0.375" width="16.0617" height="16.0617" rx="8.03085" transform="matrix(1 0 0 -1 47.9702 65.3972)" fill="#E4EBE1" stroke="#254839" stroke-width="0.75"/>
  <rect x="-0.375" y="0.375" width="6.43207" height="6.43207" rx="3.21604" transform="matrix(-1 0 0 1 59.1333 30.3075)" fill="#E4EBE1" stroke="#254839" stroke-width="0.75"/>
  <mask id="mask5_506_11281" style="mask-type:alpha" maskUnits="userSpaceOnUse" x="52" y="30" width="8" height="8">
    <rect x="-0.456273" y="-0.456273" width="6.26953" height="6.26953" rx="3.13476" transform="matrix(4.37114e-08 -1 -1 -4.37114e-08 58.9708 36.5767)" fill="#F1F3ED" stroke="#254839" stroke-width="0.912546"/>
  </mask>
  <g mask="url(#mask5_506_11281)">
    <path d="M49.4368 34.8776L55.313 34.8776" stroke="#254839" stroke-width="0.273764"/>
    <path d="M49.4365 36.8363L56.6186 36.8363" stroke="#254839" stroke-width="0.456273"/>
    <path d="M49.4365 34.2245L54.6599 34.2245" stroke="#254839" stroke-width="0.273764"/>
    <path d="M49.4365 36.1835L56.6186 36.1835" stroke="#254839" stroke-width="0.456273"/>
    <path d="M49.4365 33.5717L54.0069 33.5717" stroke="#254839" stroke-width="0.273764"/>
    <path d="M49.4368 32.9187L54.0072 32.9187" stroke="#254839" stroke-width="0.273764"/>
    <path d="M49.4365 35.5305L55.9657 35.5305" stroke="#254839" stroke-width="0.456273"/>
    <path d="M49.4368 32.9187L53.3543 32.9187" stroke="#254839" stroke-width="0.182509"/>
    <path d="M63.1479 34.8777L57.2717 34.8777" stroke="#254839" stroke-width="0.273764"/>
    <path d="M63.1479 36.8363L55.9659 36.8363" stroke="#254839" stroke-width="0.456273"/>
    <path d="M63.1479 34.2245L57.9246 34.2245" stroke="#254839" stroke-width="0.273764"/>
    <path d="M63.1479 36.1835L55.9659 36.1835" stroke="#254839" stroke-width="0.456273"/>
    <path d="M63.1479 33.5717L58.5775 33.5717" stroke="#254839" stroke-width="0.273764"/>
    <path d="M63.1479 32.9187L58.5775 32.9187" stroke="#254839" stroke-width="0.273764"/>
    <path d="M63.1479 35.5305H55.9659" stroke="#254839" stroke-width="0.456273"/>
    <path d="M63.1479 32.9187L59.2305 32.9187" stroke="#254839" stroke-width="0.182509"/>
  </g>
  <rect x="-0.375" y="0.375" width="6.43207" height="6.43207" rx="3.21604" transform="matrix(-1 0 0 1 59.1333 78.6234)" fill="#E4EBE1" stroke="#254839" stroke-width="0.75"/>
  <mask id="mask6_506_11281" style="mask-type:alpha" maskUnits="userSpaceOnUse" x="52" y="78" width="8" height="8">
    <rect x="-0.456273" y="-0.456273" width="6.26953" height="6.26953" rx="3.13476" transform="matrix(4.37114e-08 -1 -1 -4.37114e-08 58.9708 84.8931)" fill="#F1F3ED" stroke="#254839" stroke-width="0.912546"/>
  </mask>
  <g mask="url(#mask6_506_11281)">
    <mask id="mask7_506_11281" style="mask-type:alpha" maskUnits="userSpaceOnUse" x="52" y="78" width="8" height="8">
      <rect x="-0.456273" y="-0.456273" width="6.26953" height="6.26953" rx="3.13476" transform="matrix(4.37114e-08 -1 -1 -4.37114e-08 58.9708 84.8932)" fill="#F1F3ED" stroke="#254839" stroke-width="0.912546"/>
    </mask>
    <g mask="url(#mask7_506_11281)">
      <path d="M49.4365 83.1938L55.3128 83.1938" stroke="#254839" stroke-width="0.273764"/>
      <path d="M49.4365 85.1528L56.6186 85.1528" stroke="#254839" stroke-width="0.456273"/>
      <path d="M49.4368 82.541L54.6601 82.541" stroke="#254839" stroke-width="0.273764"/>
      <path d="M49.4368 84.4996L56.6188 84.4996" stroke="#254839" stroke-width="0.456273"/>
      <path d="M49.4368 81.8881L54.0072 81.8881" stroke="#254839" stroke-width="0.273764"/>
      <path d="M49.4365 81.2351L54.0069 81.2351" stroke="#254839" stroke-width="0.273764"/>
      <path d="M49.4365 83.8468L55.9657 83.8468" stroke="#254839" stroke-width="0.456273"/>
      <path d="M49.4365 81.2351L53.354 81.2351" stroke="#254839" stroke-width="0.182509"/>
      <path d="M63.1479 83.1938L57.2717 83.1938" stroke="#254839" stroke-width="0.273764"/>
      <path d="M63.1479 85.1528L55.9659 85.1528" stroke="#254839" stroke-width="0.456273"/>
      <path d="M63.1479 82.541L57.9246 82.541" stroke="#254839" stroke-width="0.273764"/>
      <path d="M63.1479 84.4998L55.9659 84.4998" stroke="#254839" stroke-width="0.456273"/>
      <path d="M63.1479 81.8881L58.5775 81.8881" stroke="#254839" stroke-width="0.273764"/>
      <path d="M63.1479 81.2351L58.5775 81.2351" stroke="#254839" stroke-width="0.273764"/>
      <path d="M63.1479 83.8468H55.9659" stroke="#254839" stroke-width="0.456273"/>
      <path d="M63.1479 81.2351L59.2305 81.2351" stroke="#254839" stroke-width="0.182509"/>
    </g>
  </g>
  <rect x="-0.375" y="-0.375" width="6.43207" height="6.43207" rx="3.21604" transform="matrix(4.37114e-08 -1 -1 -4.37114e-08 83.2913 61.7607)" fill="#E4EBE1" stroke="#254839" stroke-width="0.75"/>
  <mask id="mask8_506_11281" style="mask-type:alpha" maskUnits="userSpaceOnUse" x="76" y="55" width="9" height="8">
    <rect x="-0.456273" y="-0.456273" width="6.26953" height="6.26953" rx="3.13476" transform="matrix(4.37114e-08 -1 -1 -4.37114e-08 83.1287 61.5982)" fill="#F1F3ED" stroke="#254839" stroke-width="0.912546"/>
  </mask>
  <g mask="url(#mask8_506_11281)">
    <path d="M73.5945 59.899L79.4707 59.899" stroke="#254839" stroke-width="0.273764"/>
    <path d="M73.5945 61.8578L80.7766 61.8578" stroke="#254839" stroke-width="0.456273"/>
    <path d="M73.5945 59.2462L78.8178 59.2462" stroke="#254839" stroke-width="0.273764"/>
    <path d="M73.5945 61.2047L80.7766 61.2047" stroke="#254839" stroke-width="0.456273"/>
    <path d="M73.5945 58.5931L78.1649 58.5931" stroke="#254839" stroke-width="0.273764"/>
    <path d="M73.5945 57.9402L78.1649 57.9402" stroke="#254839" stroke-width="0.273764"/>
    <path d="M73.5945 60.5519L80.7766 60.5519" stroke="#254839" stroke-width="0.456273"/>
    <path d="M73.5945 57.9402L77.512 57.9402" stroke="#254839" stroke-width="0.182509"/>
    <path d="M87.3064 59.8992L81.4302 59.8992" stroke="#254839" stroke-width="0.273764"/>
    <path d="M87.3062 61.8578L80.1241 61.8578" stroke="#254839" stroke-width="0.456273"/>
    <path d="M87.3062 59.2462L82.0828 59.2462" stroke="#254839" stroke-width="0.273764"/>
    <path d="M87.3064 61.2047L80.1243 61.2047" stroke="#254839" stroke-width="0.456273"/>
    <path d="M87.3064 58.5931L82.736 58.5931" stroke="#254839" stroke-width="0.273764"/>
    <path d="M87.3062 57.9402L82.7357 57.9402" stroke="#254839" stroke-width="0.273764"/>
    <path d="M87.3062 60.5519L80.777 60.5519" stroke="#254839" stroke-width="0.456273"/>
    <path d="M87.3062 57.9402L83.3887 57.9402" stroke="#254839" stroke-width="0.182509"/>
  </g>
  <rect x="-0.375" y="-0.375" width="6.43207" height="6.43207" rx="3.21604" transform="matrix(4.37114e-08 -1 -1 -4.37114e-08 34.9753 61.7605)" fill="#E4EBE1" stroke="#254839" stroke-width="0.75"/>
  <mask id="mask9_506_11281" style="mask-type:alpha" maskUnits="userSpaceOnUse" x="28" y="55" width="8" height="8">
    <rect x="-0.456273" y="-0.456273" width="6.26953" height="6.26953" rx="3.13476" transform="matrix(4.37114e-08 -1 -1 -4.37114e-08 34.8128 61.5976)" fill="#F1F3ED" stroke="#254839" stroke-width="0.912546"/>
  </mask>
  <g mask="url(#mask9_506_11281)">
    <path d="M25.2786 59.8983L31.1548 59.8983" stroke="#254839" stroke-width="0.273764"/>
    <path d="M25.2786 61.8573L32.4606 61.8573" stroke="#254839" stroke-width="0.456273"/>
    <path d="M25.2786 59.2455L30.5019 59.2455" stroke="#254839" stroke-width="0.273764"/>
    <path d="M25.2786 61.2043L32.4606 61.2043" stroke="#254839" stroke-width="0.456273"/>
    <path d="M25.2786 58.5925L29.849 58.5925" stroke="#254839" stroke-width="0.273764"/>
    <path d="M25.2786 57.9396L29.849 57.9396" stroke="#254839" stroke-width="0.273764"/>
    <path d="M25.2786 60.5511L31.8077 60.5511" stroke="#254839" stroke-width="0.456273"/>
    <path d="M25.2786 57.9396L29.1961 57.9396" stroke="#254839" stroke-width="0.182509"/>
    <path d="M38.99 59.8983L33.1137 59.8983" stroke="#254839" stroke-width="0.273764"/>
    <path d="M38.99 61.8573L31.8079 61.8573" stroke="#254839" stroke-width="0.456273"/>
    <path d="M38.99 59.2455L33.7667 59.2455" stroke="#254839" stroke-width="0.273764"/>
    <path d="M38.99 61.2043L31.8079 61.2043" stroke="#254839" stroke-width="0.456273"/>
    <path d="M38.99 58.5925L34.4196 58.5925" stroke="#254839" stroke-width="0.273764"/>
    <path d="M38.99 57.9396L34.4196 57.9396" stroke="#254839" stroke-width="0.273764"/>
    <path d="M38.99 60.5511H31.8079" stroke="#254839" stroke-width="0.456273"/>
    <path d="M38.99 57.9396L35.0725 57.9396" stroke="#254839" stroke-width="0.182509"/>
  </g>
</svg>