<svg xmlns="http://www.w3.org/2000/svg" width="114" height="120" viewBox="0 0 114 120" fill="none">
  <g clip-path="url(#clip0_506_9687)">
    <path d="M84.9808 83.0023C85.8136 82.7362 86.9255 82.2754 88.0397 81.4988C90.2831 79.9349 92.5037 77.1056 92.5037 72.0975L92.5094 66.0148C92.5194 59.9318 92.5423 53.9636 92.565 49.1291C92.5801 45.9062 92.5947 43.1869 92.6061 41.2736C92.6117 40.3172 92.6168 39.5621 92.6201 39.0461C92.6211 38.8815 92.6216 38.7409 92.6224 38.6262L99.0003 38.6252L99.0864 38.6155C99.1145 38.6088 99.142 38.5985 99.168 38.5855L99.9107 38.2143L100.019 38.1523C100.503 37.84 100.672 37.2073 100.408 36.6952L100.345 36.5874L83.9378 11.794C83.8684 11.6891 83.7509 11.6256 83.6252 11.6256L82.1249 11.6255C81.9966 11.6256 81.8773 11.6909 81.8085 11.7991L65.6693 37.2048C65.596 37.3202 65.591 37.4668 65.6568 37.5867C65.7226 37.7066 65.8489 37.7813 65.9857 37.7813L74.5393 37.7816L74.5393 65.7228C74.5393 72.0956 70.3748 76.3091 66.127 78.9518C64.0077 80.2703 61.8853 81.1855 60.291 81.7714C59.4946 82.064 58.8312 82.2741 58.3682 82.4105C58.1368 82.4787 57.9548 82.5285 57.832 82.5611C57.7709 82.5773 57.7242 82.5893 57.6932 82.5971C57.6779 82.601 57.6665 82.6041 57.659 82.606C57.6552 82.6069 57.6518 82.6068 57.6501 82.6073L57.6482 82.608C57.4634 82.6523 57.3416 82.8282 57.3639 83.017C57.3863 83.2056 57.5462 83.3477 57.7362 83.3477L74.9141 83.3475L83.5221 83.348L83.5698 83.3444L83.5216 82.9731C83.5702 83.3447 83.5708 83.345 83.5711 83.345L83.5738 83.344C83.5754 83.3438 83.5775 83.3441 83.58 83.3437C83.5852 83.343 83.5926 83.342 83.6018 83.3406C83.6203 83.3379 83.6466 83.3332 83.6804 83.3275C83.7483 83.3161 83.8465 83.2979 83.9696 83.2719C84.2156 83.2198 84.5641 83.1355 84.9808 83.0023Z" fill="#E4EBE1" stroke="#254839" stroke-width="0.75" stroke-linejoin="round"/>
    <path d="M83.4808 83.0023C84.3136 82.7362 85.4255 82.2754 86.5397 81.4988C88.7831 79.9349 91.0037 77.1056 91.0037 72.0975L91.0096 65.9823C91.0196 59.8379 91.0419 53.7293 91.0646 48.7542C91.0797 45.4375 91.0944 42.6242 91.1057 40.6406C91.1114 39.6492 91.1166 38.8649 91.1199 38.3284C91.121 38.1498 91.1216 37.9982 91.1224 37.8761L98.9997 37.8755C99.1379 37.8755 99.2655 37.7993 99.3308 37.6775C99.396 37.5557 99.3885 37.4079 99.312 37.2928L82.4233 11.8904C82.3546 11.7871 82.239 11.7239 82.115 11.7224C81.9909 11.7211 81.8743 11.782 81.8033 11.8838L64.9991 36.0127C64.4796 36.7586 65.0131 37.7806 65.922 37.7806L72.2891 37.7816L72.2891 65.7227C72.2891 72.1036 68.3027 76.3166 64.2461 78.9556C62.2206 80.2732 60.1919 81.1877 58.6684 81.7731C57.9072 82.0656 57.2734 82.2758 56.8312 82.412C56.6102 82.4801 56.4368 82.5291 56.3197 82.5616C56.2613 82.5778 56.217 82.5905 56.1874 82.5983C56.1726 82.6022 56.1612 82.605 56.1541 82.6068C56.1506 82.6077 56.148 82.6083 56.1464 82.6087L56.1446 82.6094C55.961 82.6555 55.8404 82.8313 55.8637 83.0191C55.887 83.2069 56.047 83.3477 56.2362 83.3477L73.4141 83.3475L82.0221 83.348L82.0698 83.3444L82.0216 82.9731C82.0702 83.3447 82.0708 83.345 82.0711 83.345L82.0738 83.344C82.0754 83.3438 82.0775 83.3441 82.08 83.3437C82.0852 83.343 82.0926 83.342 82.1018 83.3406C82.1203 83.3379 82.1466 83.3332 82.1804 83.3275C82.2483 83.3161 82.3465 83.2979 82.4696 83.2719C82.7156 83.2198 83.0641 83.1355 83.4808 83.0023Z" fill="#254839" stroke="#254839" stroke-width="0.75" stroke-linejoin="round"/>
    <mask id="mask0_506_9687" style="mask-type:alpha" maskUnits="userSpaceOnUse" x="26" y="12" width="73" height="71">
      <path d="M82.1109 12.0979L98.9859 37.4061L90.6293 37.4061L90.6293 72.0978C90.6293 81.8477 82.022 82.9727 82.022 82.9727L73.4147 82.9727L26.236 82.9727C26.236 82.9727 71.9147 78.8478 71.9147 65.7227L71.9147 37.4061L68.7947 37.4061C66.9769 37.4061 65.9095 35.362 66.9483 33.8702L82.1109 12.0979Z" fill="#254839"/>
    </mask>
    <g mask="url(#mask0_506_9687)">
      <g opacity="0.5">
        <path d="M34.9683 29.5415L129.074 29.5415" stroke="#E4EBE1" stroke-width="0.375"/>
        <path d="M34.9683 34.7574L129.074 34.7574" stroke="#E4EBE1" stroke-width="0.15"/>
        <path d="M34.9683 33.0178L129.074 33.0178" stroke="#E4EBE1" stroke-width="0.15"/>
        <path d="M34.9688 31.2795L129.074 31.2795" stroke="#E4EBE1" stroke-width="0.15"/>
        <path d="M34.9683 15.6301L129.074 15.6301" stroke="#E4EBE1" stroke-width="1.125"/>
        <path d="M34.9683 27.8019L129.074 27.8019" stroke="#E4EBE1" stroke-width="0.375"/>
        <path d="M34.9683 26.0621L129.074 26.0621" stroke="#E4EBE1" stroke-width="0.375"/>
        <path d="M34.9683 24.324L129.074 24.324" stroke="#E4EBE1" stroke-width="0.375"/>
        <path d="M34.9683 22.5857L129.074 22.5857" stroke="#E4EBE1" stroke-width="0.75"/>
        <path d="M34.9683 20.8462L129.074 20.8462" stroke="#E4EBE1" stroke-width="0.75"/>
        <path d="M34.9683 19.1066L129.074 19.1066" stroke="#E4EBE1" stroke-width="0.75"/>
        <path d="M34.9688 17.3683L129.074 17.3683" stroke="#E4EBE1" stroke-width="0.75"/>
        <path d="M34.9683 13.8906L129.074 13.8906" stroke="#E4EBE1" stroke-width="1.125"/>
        <path d="M34.9683 12.1523L129.074 12.1523" stroke="#E4EBE1" stroke-width="1.5"/>
      </g>
      <g opacity="0.5">
        <path d="M18.0005 82.8783L112.106 82.8783" stroke="#E4EBE1" stroke-width="0.75"/>
        <path d="M18.0005 82.8783L112.106 82.8783" stroke="#E4EBE1" stroke-width="0.75"/>
        <path d="M18.0005 81.14L112.106 81.14" stroke="#E4EBE1" stroke-width="0.75"/>
        <path d="M18.0005 68.9669L112.106 68.9669" stroke="#E4EBE1" stroke-width="0.375"/>
        <path d="M18.0005 79.4003L112.106 79.4003" stroke="#E4EBE1" stroke-width="0.75"/>
        <path d="M18.0005 77.6608L112.106 77.6608" stroke="#E4EBE1" stroke-width="0.75"/>
        <path d="M18.0005 75.9226L112.106 75.9226" stroke="#E4EBE1" stroke-width="0.75"/>
        <path d="M18.0005 74.1843L112.106 74.1843" stroke="#E4EBE1" stroke-width="0.75"/>
        <path d="M18.0005 72.4447L112.106 72.4447" stroke="#E4EBE1" stroke-width="0.75"/>
        <path d="M18.0005 70.7051L112.106 70.7051" stroke="#E4EBE1" stroke-width="0.375"/>
        <path d="M18.0005 67.2286L112.106 67.2286" stroke="#E4EBE1" stroke-width="0.15"/>
        <path d="M18.0005 65.4891L112.106 65.4891" stroke="#E4EBE1" stroke-width="0.15"/>
        <path d="M18.001 63.7509L112.107 63.7509" stroke="#E4EBE1" stroke-width="0.15"/>
      </g>
    </g>
    <path d="M39.8545 65.3374C50.741 65.3376 59.4971 72.8607 59.4971 82.062C59.4968 91.2631 50.7408 98.7854 39.8545 98.7856C28.9679 98.7856 20.2112 91.2633 20.2109 82.062C20.2109 72.8606 28.9678 65.3374 39.8545 65.3374Z" fill="#254839" stroke="#E4EBE1" stroke-width="0.491892"/>
    <path d="M39.8545 62.3861C50.741 62.3863 59.4971 69.9094 59.4971 79.1107C59.4968 88.3118 50.7408 95.8341 39.8545 95.8344C28.9679 95.8344 20.2112 88.312 20.2109 79.1107C20.2109 69.9093 28.9678 62.3861 39.8545 62.3861Z" fill="#254839" stroke="#E4EBE1" stroke-width="0.491892"/>
    <path d="M39.8545 59.4348C50.741 59.435 59.4971 66.9581 59.4971 76.1594C59.4968 85.3605 50.7408 92.8828 39.8545 92.8831C28.9679 92.8831 20.2112 85.3607 20.2109 76.1594C20.2109 66.958 28.9678 59.4348 39.8545 59.4348Z" fill="#254839" stroke="#E4EBE1" stroke-width="0.491892"/>
    <path d="M39.8545 56.4834C50.741 56.4836 59.4971 64.0067 59.4971 73.208C59.4968 82.4091 50.7408 89.9314 39.8545 89.9316C28.9679 89.9316 20.2112 82.4092 20.2109 73.208C20.2109 64.0066 28.9678 56.4834 39.8545 56.4834Z" fill="#254839" stroke="#E4EBE1" stroke-width="0.491892"/>
    <path d="M39.8545 53.532C50.741 53.5322 59.4971 61.0553 59.4971 70.2566C59.4968 79.4577 50.7408 86.98 39.8545 86.9802C28.9679 86.9802 20.2112 79.4578 20.2109 70.2566C20.2109 61.0552 28.9678 53.532 39.8545 53.532Z" fill="#254839" stroke="#E4EBE1" stroke-width="0.491892"/>
    <path d="M39.8545 50.5807C50.741 50.5809 59.4971 58.104 59.4971 67.3053C59.4968 76.5064 50.7408 84.0287 39.8545 84.0289C28.9679 84.0289 20.2112 76.5065 20.2109 67.3053C20.2109 58.1039 28.9678 50.5807 39.8545 50.5807Z" fill="#254839" stroke="#E4EBE1" stroke-width="0.491892"/>
    <path d="M39.8545 47.6294C50.741 47.6296 59.4971 55.1527 59.4971 64.354C59.4968 73.5551 50.7408 81.0774 39.8545 81.0776C28.9679 81.0776 20.2112 73.5552 20.2109 64.354C20.2109 55.1526 28.9678 47.6294 39.8545 47.6294Z" fill="#254839" stroke="#E4EBE1" stroke-width="0.491892"/>
    <path d="M39.8545 44.678C50.741 44.6782 59.4971 52.2013 59.4971 61.4026C59.4968 70.6037 50.7408 78.126 39.8545 78.1262C28.9679 78.1262 20.2112 70.6038 20.2109 61.4026C20.2109 52.2012 28.9678 44.678 39.8545 44.678Z" fill="#254839" stroke="#E4EBE1" stroke-width="0.491892"/>
    <path d="M39.8545 41.7266C50.741 41.7268 59.4971 49.2499 59.4971 58.4512C59.4968 67.6523 50.7408 75.1746 39.8545 75.1748C28.9679 75.1748 20.2112 67.6524 20.2109 58.4512C20.2109 49.2497 28.9678 41.7266 39.8545 41.7266Z" fill="#254839" stroke="#E4EBE1" stroke-width="0.491892"/>
    <path d="M39.8545 38.7753C50.741 38.7755 59.4971 46.2986 59.4971 55.4999C59.4968 64.701 50.7408 72.2233 39.8545 72.2235C28.9679 72.2235 20.2112 64.7011 20.2109 55.4999C20.2109 46.2984 28.9678 38.7753 39.8545 38.7753Z" fill="#254839" stroke="#E4EBE1" stroke-width="0.491892"/>
    <path d="M39.8545 35.824C50.741 35.8242 59.4971 43.3473 59.4971 52.5486C59.4968 61.7497 50.7408 69.272 39.8545 69.2722C28.9679 69.2722 20.2112 61.7498 20.2109 52.5486C20.2109 43.3472 28.9678 35.824 39.8545 35.824Z" fill="#254839" stroke="#E4EBE1" stroke-width="0.491892"/>
    <path d="M39.8545 32.8726C50.741 32.8728 59.4971 40.3959 59.4971 49.5972C59.4968 58.7983 50.7408 66.3206 39.8545 66.3208C28.9679 66.3208 20.2112 58.7984 20.2109 49.5972C20.2109 40.3957 28.9678 32.8726 39.8545 32.8726Z" fill="#254839" stroke="#E4EBE1" stroke-width="0.491892"/>
    <path d="M39.8545 29.9213C50.741 29.9215 59.4971 37.4446 59.4971 46.6459C59.4968 55.847 50.7408 63.3693 39.8545 63.3695C28.9679 63.3695 20.2112 55.8471 20.2109 46.6459C20.2109 37.4444 28.9678 29.9213 39.8545 29.9213Z" fill="#254839" stroke="#E4EBE1" stroke-width="0.491892"/>
    <path d="M39.8545 26.9698C50.741 26.9701 59.4971 34.4932 59.4971 43.6945C59.4968 52.8956 50.7408 60.4179 39.8545 60.4181C28.9679 60.4181 20.2112 52.8957 20.2109 43.6945C20.2109 34.493 28.9678 26.9698 39.8545 26.9698Z" fill="#254839" stroke="#E4EBE1" stroke-width="0.491892"/>
    <g opacity="0.7">
      <path d="M22.0864 44.4319V89.1941" stroke="#E4EBE1" stroke-width="0.491892"/>
      <path d="M23.147 42.9561V87.7182" stroke="#E4EBE1" stroke-width="0.491892"/>
      <path d="M24.208 44.9237V86.2427" stroke="#E4EBE1" stroke-width="0.491892"/>
      <path d="M25.2686 48.3668V84.275" stroke="#E4EBE1" stroke-width="0.491892"/>
      <path d="M26.3291 51.8099V82.3073" stroke="#E4EBE1" stroke-width="0.491892"/>
      <path d="M27.3906 53.2858L27.3906 80.3398" stroke="#E4EBE1" stroke-width="0.491892"/>
      <path d="M31.6333 51.3181L31.6333 70.9938" stroke="#E4EBE1" stroke-width="0.245946"/>
      <path d="M35.8765 50.3345L35.8765 60.6642" stroke="#E4EBE1" stroke-width="0.0983784"/>
      <path d="M28.4512 52.7939L28.4512 77.8804" stroke="#E4EBE1" stroke-width="0.245946"/>
      <path d="M32.6943 50.8263L32.6943 68.5344" stroke="#E4EBE1" stroke-width="0.0983784"/>
      <path d="M36.937 50.3345L36.937 60.6642" stroke="#E4EBE1" stroke-width="0.0983784"/>
      <path d="M29.5122 53.2858L29.5122 75.4209" stroke="#E4EBE1" stroke-width="0.245946"/>
      <path d="M33.7549 51.3181L33.7549 66.0749" stroke="#E4EBE1" stroke-width="0.0983784"/>
      <path d="M30.5728 53.2858L30.5728 73.4533" stroke="#E4EBE1" stroke-width="0.245946"/>
      <path d="M34.8154 50.8263L34.8154 63.1236" stroke="#E4EBE1" stroke-width="0.0983784"/>
    </g>
    <path d="M39.8545 24.5104C50.741 24.5106 59.4971 32.0337 59.4971 41.235C59.4968 50.4361 50.7408 57.9584 39.8545 57.9586C28.9679 57.9586 20.2112 50.4362 20.2109 41.235C20.2109 32.0336 28.9678 24.5104 39.8545 24.5104Z" fill="#E4EBE1" stroke="#254839" stroke-width="0.491892"/>
    <mask id="mask1_506_9687" style="mask-type:alpha" maskUnits="userSpaceOnUse" x="19" y="24" width="41" height="35">
      <path d="M39.8545 24.5104C50.741 24.5106 59.4971 32.0337 59.4971 41.235C59.4968 50.4361 50.7408 57.9584 39.8545 57.9586C28.9679 57.9586 20.2112 50.4362 20.2109 41.235C20.2109 32.0336 28.9678 24.5104 39.8545 24.5104Z" fill="#BED3E2" stroke="#254839" stroke-width="0.491892"/>
    </mask>
    <g mask="url(#mask1_506_9687)">
      <g opacity="0.5">
        <path d="M66.6382 25.7401L13.6004 25.7401" stroke="#254839" stroke-width="0.491892"/>
        <path d="M66.6377 40.4969L13.5999 40.4969" stroke="#254839" stroke-width="0.491892"/>
        <path d="M66.6382 55.2537L13.6004 55.2537" stroke="#254839" stroke-width="0.491892"/>
        <path d="M66.6382 26.724L13.6004 26.724" stroke="#254839" stroke-width="0.491892"/>
        <path d="M66.6377 41.4807L13.5999 41.4807" stroke="#254839" stroke-width="0.491892"/>
        <path d="M66.6382 56.2375L13.6004 56.2375" stroke="#254839" stroke-width="0.491892"/>
        <path d="M66.6382 27.7078L13.6004 27.7078" stroke="#254839" stroke-width="0.491892"/>
        <path d="M66.6382 42.4645L13.6004 42.4645" stroke="#254839" stroke-width="0.491892"/>
        <path d="M66.6382 57.2213L13.6004 57.2213" stroke="#254839" stroke-width="0.491892"/>
        <path d="M66.6382 28.6915L13.6004 28.6915" stroke="#254839" stroke-width="0.491892"/>
        <path d="M66.6382 43.4482L13.6004 43.4482" stroke="#254839" stroke-width="0.491892"/>
        <path d="M66.6382 58.2051L13.6004 58.2051" stroke="#254839" stroke-width="0.491892"/>
        <path d="M66.6377 32.6266L13.5999 32.6266" stroke="#254839" stroke-width="0.491892"/>
        <path d="M66.6377 47.3834L13.5999 47.3834" stroke="#254839" stroke-width="0.491892"/>
        <path d="M66.6382 29.6753L13.6004 29.6753" stroke="#254839" stroke-width="0.491892"/>
        <path d="M66.6382 44.432L13.6004 44.432" stroke="#254839" stroke-width="0.491892"/>
        <path d="M66.6377 34.5942L13.5999 34.5942" stroke="#254839" stroke-width="0.491892"/>
        <path d="M66.6382 49.351L13.6004 49.3509" stroke="#254839" stroke-width="0.491892"/>
        <path d="M66.6382 30.6591L13.6004 30.6591" stroke="#254839" stroke-width="0.491892"/>
        <path d="M66.6382 45.4158L13.6004 45.4158" stroke="#254839" stroke-width="0.491892"/>
        <path d="M66.6382 31.6428L13.6004 31.6428" stroke="#254839" stroke-width="0.491892"/>
        <path d="M66.6377 46.3997L13.5999 46.3997" stroke="#254839" stroke-width="0.491892"/>
        <path d="M66.6382 33.6105L13.6004 33.6105" stroke="#254839" stroke-width="0.491892"/>
        <path d="M66.6382 48.3672L13.6004 48.3672" stroke="#254839" stroke-width="0.491892"/>
        <path d="M66.6382 35.578L13.6004 35.578" stroke="#254839" stroke-width="0.491892"/>
        <path d="M66.6377 50.3347L13.5999 50.3347" stroke="#254839" stroke-width="0.491892"/>
        <path d="M66.6382 36.5618L13.6004 36.5618" stroke="#254839" stroke-width="0.491892"/>
        <path d="M66.6382 51.3186L13.6004 51.3186" stroke="#254839" stroke-width="0.491892"/>
        <path d="M66.6377 37.5455L13.5999 37.5455" stroke="#254839" stroke-width="0.491892"/>
        <path d="M66.6382 52.3024L13.6004 52.3024" stroke="#254839" stroke-width="0.491892"/>
        <path d="M66.6377 38.5294L13.5999 38.5294" stroke="#254839" stroke-width="0.491892"/>
        <path d="M66.6377 53.2861L13.5999 53.2861" stroke="#254839" stroke-width="0.491892"/>
        <path d="M66.6382 39.5132L13.6004 39.5132" stroke="#254839" stroke-width="0.491892"/>
        <path d="M66.6382 54.2699L13.6004 54.2699" stroke="#254839" stroke-width="0.491892"/>
      </g>
    </g>
    <path d="M39.8545 24.5104C50.741 24.5106 59.4971 32.0337 59.4971 41.235C59.4968 50.4361 50.7408 57.9584 39.8545 57.9586C28.9679 57.9586 20.2112 50.4362 20.2109 41.235C20.2109 32.0336 28.9678 24.5104 39.8545 24.5104Z" stroke="#254839" stroke-width="0.491892"/>
    <mask id="mask2_506_9687" style="mask-type:alpha" maskUnits="userSpaceOnUse" x="23" y="27" width="34" height="15">
      <path d="M39.8555 27.2156C48.7893 27.2157 56.032 33.4919 56.0322 41.2341C56.0322 41.4817 56.0234 41.728 56.0088 41.9724C55.5661 34.573 48.5039 28.6913 39.8555 28.6912C31.207 28.6912 24.1438 34.5729 23.7012 41.9724C23.6865 41.728 23.6787 41.4817 23.6787 41.2341C23.6789 33.4919 30.9216 27.2156 39.8555 27.2156Z" fill="#BED3E2"/>
    </mask>
    <g mask="url(#mask2_506_9687)">
      <path d="M23.6787 22.2966V71.4858" stroke="#254839" stroke-width="0.491892"/>
      <path d="M39.5898 22.2966V71.4858" stroke="#254839" stroke-width="0.491892"/>
      <path d="M24.7393 22.2966V71.4858" stroke="#254839" stroke-width="0.491892"/>
      <path d="M40.6509 22.2966V71.4858" stroke="#254839" stroke-width="0.491892"/>
      <path d="M25.8003 22.2966V71.4858" stroke="#254839" stroke-width="0.491892"/>
      <path d="M41.7114 22.2966V71.4858" stroke="#254839" stroke-width="0.491892"/>
      <path d="M26.8608 22.2966V71.4858" stroke="#254839" stroke-width="0.491892"/>
      <path d="M42.7725 22.2966V71.4858" stroke="#254839" stroke-width="0.491892"/>
      <path d="M31.104 22.2966V71.4858" stroke="#254839" stroke-width="0.491892"/>
      <path d="M47.0151 22.2966V71.4858" stroke="#254839" stroke-width="0.491892"/>
      <path d="M27.9214 22.2966V71.4858" stroke="#254839" stroke-width="0.491892"/>
      <path d="M43.833 22.2966V71.4858" stroke="#254839" stroke-width="0.491892"/>
      <path d="M33.2251 22.2966V71.4858" stroke="#254839" stroke-width="0.491892"/>
      <path d="M49.1367 22.2966V71.4858" stroke="#254839" stroke-width="0.491892"/>
      <path d="M28.9824 22.2966V71.4858" stroke="#254839" stroke-width="0.491892"/>
      <path d="M44.894 22.2966V71.4858" stroke="#254839" stroke-width="0.491892"/>
      <path d="M30.043 22.2966V71.4858" stroke="#254839" stroke-width="0.491892"/>
      <path d="M45.9546 22.2966V71.4858" stroke="#254839" stroke-width="0.491892"/>
      <path d="M32.1646 22.2966V71.4858" stroke="#254839" stroke-width="0.491892"/>
      <path d="M48.0762 22.2966V71.4858" stroke="#254839" stroke-width="0.491892"/>
      <path d="M34.2861 22.2966V71.4858" stroke="#254839" stroke-width="0.491892"/>
      <path d="M50.1978 22.2966V71.4858" stroke="#254839" stroke-width="0.491892"/>
      <path d="M35.3467 22.2966V71.4858" stroke="#254839" stroke-width="0.491892"/>
      <path d="M51.2583 22.2966V71.4858" stroke="#254839" stroke-width="0.491892"/>
      <path d="M36.4077 22.2966V71.4858" stroke="#254839" stroke-width="0.491892"/>
      <path d="M52.3188 22.2966V71.4858" stroke="#254839" stroke-width="0.491892"/>
      <path d="M37.4688 22.2966V71.4858" stroke="#254839" stroke-width="0.491892"/>
      <path d="M53.3799 22.2966V71.4858" stroke="#254839" stroke-width="0.491892"/>
      <path d="M38.5293 22.2966V71.4858" stroke="#254839" stroke-width="0.491892"/>
      <path d="M54.4404 22.2966V71.4858" stroke="#254839" stroke-width="0.491892"/>
    </g>
    <path d="M39.8535 13.6887C28.967 13.6889 20.2109 21.212 20.2109 30.4133C20.2112 39.6144 28.9672 47.1367 39.8535 47.137C50.7401 47.137 59.4968 39.6146 59.4971 30.4133C59.4971 21.2119 50.7402 13.6887 39.8535 13.6887Z" fill="#254839" stroke="#E4EBE1" stroke-width="0.491892"/>
    <mask id="mask3_506_9687" style="mask-type:alpha" maskUnits="userSpaceOnUse" x="19" y="13" width="41" height="35">
      <path d="M39.8535 13.6886C28.967 13.6888 20.2109 21.2119 20.2109 30.4132C20.2112 39.6143 28.9672 47.1366 39.8535 47.1368C50.7401 47.1368 59.4968 39.6144 59.4971 30.4132C59.4971 21.2118 50.7402 13.6886 39.8535 13.6886Z" fill="#7B8A9C" stroke="#BED3E2" stroke-width="0.491892"/>
    </mask>
    <g mask="url(#mask3_506_9687)">
      <g opacity="0.5">
        <path d="M21.5562 25.7399V74.9291" stroke="#E4EBE1" stroke-width="0.491892"/>
        <path d="M22.6172 25.7399V70.5021" stroke="#E4EBE1" stroke-width="0.491892"/>
        <path d="M23.6777 27.7072V69.0261" stroke="#E4EBE1" stroke-width="0.491892"/>
        <path d="M24.7388 31.1506V67.0588" stroke="#E4EBE1" stroke-width="0.491892"/>
        <path d="M25.7993 34.5938V65.0911" stroke="#E4EBE1" stroke-width="0.491892"/>
        <path d="M26.8599 36.0696L26.8599 63.1236" stroke="#E4EBE1" stroke-width="0.491892"/>
        <path d="M31.103 34.1019L31.103 53.7776" stroke="#E4EBE1" stroke-width="0.245946"/>
        <path d="M35.3462 33.1183L35.3462 43.448" stroke="#E4EBE1" stroke-width="0.491892"/>
        <path d="M27.9209 35.5778L27.9209 60.6643" stroke="#E4EBE1" stroke-width="0.245946"/>
        <path d="M32.1641 33.6101L32.1641 51.3182" stroke="#E4EBE1" stroke-width="0.0983784"/>
        <path d="M36.4067 33.1183L36.4067 43.448" stroke="#E4EBE1" stroke-width="0.491892"/>
        <path d="M28.9814 36.0696L28.9814 58.2047" stroke="#E4EBE1" stroke-width="0.245946"/>
        <path d="M33.2246 34.1019L33.2246 48.8587" stroke="#E4EBE1" stroke-width="0.0983784"/>
        <path d="M30.0425 36.0696L30.0425 56.2372" stroke="#E4EBE1" stroke-width="0.245946"/>
        <path d="M34.2856 34.1019L34.2856 46.3992" stroke="#E4EBE1" stroke-width="0.0983784"/>
      </g>
    </g>
    <path d="M39.8535 10.8662C29.0183 10.8664 20.3398 18.3503 20.3398 27.4619C20.3401 36.5733 29.0185 44.0564 39.8535 44.0566C50.6888 44.0566 59.3679 36.5734 59.3682 27.4619C59.3682 18.3502 50.6889 10.8662 39.8535 10.8662Z" fill="#E4EBE1" stroke="#254839" stroke-width="0.75"/>
    <mask id="mask4_506_9687" style="mask-type:alpha" maskUnits="userSpaceOnUse" x="23" y="13" width="34" height="16">
      <path d="M39.854 13.4425C30.9202 13.4426 23.6775 19.7189 23.6772 27.4611C23.6772 27.7086 23.6861 27.955 23.7007 28.1993C24.1434 20.7999 31.2056 14.9182 39.854 14.9181C48.5025 14.9181 55.5656 20.7998 56.0083 28.1993C56.0229 27.955 56.0308 27.7086 56.0308 27.4611C56.0305 19.7188 48.7879 13.4425 39.854 13.4425Z" fill="#BED3E2"/>
    </mask>
    <g mask="url(#mask4_506_9687)">
      <path d="M56.0308 8.52356V57.7128" stroke="#254839" stroke-width="0.491892"/>
      <path d="M40.1191 8.52356V57.7128" stroke="#254839" stroke-width="0.737838"/>
      <path d="M54.9702 8.52356V57.7128" stroke="#254839" stroke-width="0.491892"/>
      <path d="M39.0586 8.52356V57.7128" stroke="#254839" stroke-width="0.737838"/>
      <path d="M53.9092 8.52356V57.7128" stroke="#254839" stroke-width="0.491892"/>
      <path d="M37.9976 8.52356V57.7128" stroke="#254839" stroke-width="0.737838"/>
      <path d="M52.8486 8.52356V57.7128" stroke="#254839" stroke-width="0.491892"/>
      <path d="M36.937 8.52356V57.7128" stroke="#254839" stroke-width="0.737838"/>
      <path d="M48.6055 8.52356V57.7128" stroke="#254839" stroke-width="0.491892"/>
      <path d="M32.6943 8.52356V57.7128" stroke="#254839" stroke-width="0.491892"/>
      <path d="M51.7881 8.52356V57.7128" stroke="#254839" stroke-width="0.491892"/>
      <path d="M35.8765 8.52356V57.7128" stroke="#254839" stroke-width="0.737838"/>
      <path d="M46.4844 8.52356V57.7128" stroke="#254839" stroke-width="0.491892"/>
      <path d="M30.5728 8.52356V57.7128" stroke="#254839" stroke-width="0.491892"/>
      <path d="M50.7271 8.52356V57.7128" stroke="#254839" stroke-width="0.491892"/>
      <path d="M34.8154 8.52356V57.7128" stroke="#254839" stroke-width="0.491892"/>
      <path d="M49.6665 8.52356V57.7128" stroke="#254839" stroke-width="0.491892"/>
      <path d="M33.7549 8.52356V57.7128" stroke="#254839" stroke-width="0.491892"/>
      <path d="M47.5449 8.52356V57.7128" stroke="#254839" stroke-width="0.491892"/>
      <path d="M31.6333 8.52356V57.7128" stroke="#254839" stroke-width="0.491892"/>
      <path d="M45.4233 8.52356V57.7128" stroke="#254839" stroke-width="0.491892"/>
      <path d="M29.5117 8.52356V57.7128" stroke="#254839" stroke-width="0.491892"/>
      <path d="M44.3628 8.52356V57.7128" stroke="#254839" stroke-width="0.737838"/>
      <path d="M28.4512 8.52356V57.7128" stroke="#254839" stroke-width="0.491892"/>
      <path d="M43.3018 8.52356V57.7128" stroke="#254839" stroke-width="0.737838"/>
      <path d="M27.3906 8.52356V57.7128" stroke="#254839" stroke-width="0.491892"/>
      <path d="M42.2412 8.52356V57.7128" stroke="#254839" stroke-width="0.737838"/>
      <path d="M26.3296 8.52356V57.7128" stroke="#254839" stroke-width="0.491892"/>
      <path d="M41.1807 8.52356V57.7128" stroke="#254839" stroke-width="0.737838"/>
      <path d="M25.269 8.52356V57.7128" stroke="#254839" stroke-width="0.491892"/>
      <path d="M24.208 9.01538V58.2046" stroke="#254839" stroke-width="0.491892"/>
    </g>
    <mask id="mask5_506_9687" style="mask-type:alpha" maskUnits="userSpaceOnUse" x="48" y="68" width="41" height="41">
      <mask id="path-178-inside-1_506_9687" fill="white">
        <path d="M68.6113 68.7572C79.5956 68.7574 88.5 76.3556 88.5 85.7279C88.5 86.2248 88.4729 86.7165 88.4238 87.2025C88.473 87.6891 88.5 88.1816 88.5 88.6791C88.5 89.1763 88.4729 89.6683 88.4238 90.1547C88.4729 90.641 88.5 91.133 88.5 91.6302C88.5 101.003 79.5948 108.601 68.6104 108.601C57.6261 108.601 48.7217 101.003 48.7217 91.6302C48.7217 91.1331 48.7478 90.641 48.7969 90.1547C48.7478 89.6683 48.7217 89.1763 48.7217 88.6791C48.7217 88.1816 48.7477 87.6891 48.7969 87.2025C48.7478 86.7165 48.7217 86.2248 48.7217 85.7279C48.7217 76.3555 57.6268 68.7572 68.6113 68.7572Z"/>
      </mask>
      <path d="M68.6113 68.7572C79.5956 68.7574 88.5 76.3556 88.5 85.7279C88.5 86.2248 88.4729 86.7165 88.4238 87.2025C88.473 87.6891 88.5 88.1816 88.5 88.6791C88.5 89.1763 88.4729 89.6683 88.4238 90.1547C88.4729 90.641 88.5 91.133 88.5 91.6302C88.5 101.003 79.5948 108.601 68.6104 108.601C57.6261 108.601 48.7217 101.003 48.7217 91.6302C48.7217 91.1331 48.7478 90.641 48.7969 90.1547C48.7478 89.6683 48.7217 89.1763 48.7217 88.6791C48.7217 88.1816 48.7477 87.6891 48.7969 87.2025C48.7478 86.7165 48.7217 86.2248 48.7217 85.7279C48.7217 76.3555 57.6268 68.7572 68.6113 68.7572Z" fill="#254839"/>
      <path d="M68.6113 68.7572L68.6113 68.2653H68.6113V68.7572ZM88.5 85.7279L88.9919 85.7279V85.7279H88.5ZM88.4238 87.2025L87.9344 87.1531L87.9294 87.2025L87.9344 87.252L88.4238 87.2025ZM88.5 88.6791L88.9919 88.6791V88.6791H88.5ZM88.4238 90.1547L87.9344 90.1052L87.9294 90.1547L87.9344 90.2041L88.4238 90.1547ZM88.5 91.6302H88.9919H88.5ZM68.6104 108.601L68.6103 109.093H68.6104V108.601ZM48.7217 91.6302H48.2298H48.7217ZM48.7969 90.1547L49.2863 90.2041L49.2913 90.1547L49.2863 90.1052L48.7969 90.1547ZM48.7217 88.6791H48.2298V88.6791L48.7217 88.6791ZM48.7969 87.2025L49.2863 87.2519L49.2913 87.2025L49.2863 87.1531L48.7969 87.2025ZM48.7217 85.7279H48.2298V85.7279L48.7217 85.7279ZM68.6113 68.7572L68.6113 69.2491C79.4 69.2493 88.0081 76.6976 88.0081 85.7279H88.5H88.9919C88.9919 76.0136 79.7912 68.2655 68.6113 68.2653L68.6113 68.7572ZM88.5 85.7279L88.0081 85.7279C88.0081 86.2069 87.982 86.682 87.9344 87.1531L88.4238 87.2025L88.9132 87.2519C88.9638 86.7509 88.9919 86.2427 88.9919 85.7279L88.5 85.7279ZM88.4238 87.2025L87.9344 87.252C87.9821 87.7235 88.0081 88.1994 88.0081 88.6791H88.5H88.9919C88.9919 88.1638 88.9639 87.6548 88.9132 87.1531L88.4238 87.2025ZM88.5 88.6791L88.0081 88.6791C88.0081 89.1584 87.982 89.6339 87.9344 90.1052L88.4238 90.1547L88.9132 90.2041C88.9639 89.7027 88.9919 89.1941 88.9919 88.6791L88.5 88.6791ZM88.4238 90.1547L87.9344 90.2041C87.982 90.6754 88.0081 91.1509 88.0081 91.6302H88.5H88.9919C88.9919 91.1152 88.9639 90.6066 88.9132 90.1053L88.4238 90.1547ZM88.5 91.6302H88.0081C88.0081 100.661 79.3993 108.109 68.6104 108.109V108.601V109.093C79.7904 109.093 88.9919 101.345 88.9919 91.6302H88.5ZM68.6104 108.601L68.6104 108.109C57.8216 108.109 49.2136 100.661 49.2136 91.6302H48.7217H48.2298C48.2298 101.345 57.4305 109.093 68.6103 109.093L68.6104 108.601ZM48.7217 91.6302H49.2136C49.2136 91.1503 49.2388 90.6747 49.2863 90.2041L48.7969 90.1547L48.3075 90.1053C48.2568 90.6073 48.2298 91.1158 48.2298 91.6302H48.7217ZM48.7969 90.1547L49.2863 90.1052C49.2388 89.6346 49.2136 89.159 49.2136 88.6791L48.7217 88.6791L48.2298 88.6791C48.2298 89.1935 48.2568 89.7021 48.3075 90.2041L48.7969 90.1547ZM48.7217 88.6791H49.2136C49.2136 88.1988 49.2387 87.7228 49.2863 87.2519L48.7969 87.2025L48.3075 87.1531C48.2567 87.6554 48.2298 88.1645 48.2298 88.6791H48.7217ZM48.7969 87.2025L49.2863 87.1531C49.2388 86.6827 49.2136 86.2075 49.2136 85.7279L48.7217 85.7279L48.2298 85.7279C48.2298 86.242 48.2568 86.7503 48.3075 87.2519L48.7969 87.2025ZM48.7217 85.7279H49.2136C49.2136 76.6975 57.8224 69.2491 68.6113 69.2491V68.7572V68.2653C57.4313 68.2653 48.2298 76.0135 48.2298 85.7279H48.7217Z" fill="#BED3E2" mask="url(#path-178-inside-1_506_9687)"/>
    </mask>
    <g mask="url(#mask5_506_9687)">
      <path d="M68.6113 74.906C79.4978 74.9062 88.2539 82.4293 88.2539 91.6306C88.2536 100.832 79.4977 108.354 68.6113 108.354C57.7248 108.354 48.968 100.832 48.9678 91.6306C48.9678 82.4292 57.7246 74.906 68.6113 74.906Z" fill="#254839" stroke="#E4EBE1" stroke-width="0.491892"/>
      <path d="M68.6113 71.9547C79.4978 71.9549 88.2539 79.478 88.2539 88.6793C88.2536 97.8804 79.4977 105.403 68.6113 105.403C57.7248 105.403 48.968 97.8806 48.9678 88.6793C48.9678 79.4779 57.7246 71.9547 68.6113 71.9547Z" fill="#254839" stroke="#E4EBE1" stroke-width="0.491892"/>
      <path d="M68.6113 69.0033C79.4978 69.0035 88.2539 76.5266 88.2539 85.7279C88.2536 94.929 79.4977 102.451 68.6113 102.452C57.7248 102.452 48.968 94.9291 48.9678 85.7279C48.9678 76.5265 57.7246 69.0033 68.6113 69.0033Z" fill="#254839" stroke="#E4EBE1" stroke-width="0.491892"/>
      <g opacity="0.7">
        <path d="M86.9082 81.0546V130.244" stroke="#E4EBE1" stroke-width="0.491892"/>
        <path d="M85.8477 81.0546V125.817" stroke="#E4EBE1" stroke-width="0.491892"/>
        <path d="M84.7871 83.0222V124.341" stroke="#E4EBE1" stroke-width="0.491892"/>
        <path d="M83.7261 86.4653V122.373" stroke="#E4EBE1" stroke-width="0.491892"/>
        <path d="M82.6655 89.9084V120.406" stroke="#E4EBE1" stroke-width="0.491892"/>
        <path d="M81.6045 91.3843L81.6045 118.438" stroke="#E4EBE1" stroke-width="0.245946"/>
        <path d="M77.3618 89.4166L77.3618 109.092" stroke="#E4EBE1" stroke-width="0.0983784"/>
        <path d="M73.1187 88.433L73.1187 98.7627" stroke="#E4EBE1" stroke-width="0.491892"/>
        <path d="M80.5439 90.8925L80.5439 115.979" stroke="#E4EBE1" stroke-width="0.245946"/>
        <path d="M76.3008 88.9248L76.3008 106.633" stroke="#E4EBE1" stroke-width="0.0983784"/>
        <path d="M72.0581 88.433L72.0581 98.7627" stroke="#E4EBE1" stroke-width="0.491892"/>
        <path d="M79.4834 91.3843L79.4834 113.519" stroke="#E4EBE1" stroke-width="0.245946"/>
        <path d="M75.2402 89.4166L75.2402 104.173" stroke="#E4EBE1" stroke-width="0.0983784"/>
        <path d="M78.4224 91.3843L78.4224 111.552" stroke="#E4EBE1" stroke-width="0.245946"/>
        <path d="M74.1797 89.4166L74.1797 101.714" stroke="#E4EBE1" stroke-width="0.0983784"/>
      </g>
      <g opacity="0.7">
        <path d="M50.313 81.0546V130.244" stroke="#E4EBE1" stroke-width="0.491892"/>
        <path d="M51.374 81.0546V125.817" stroke="#E4EBE1" stroke-width="0.491892"/>
        <path d="M52.4346 83.0222V124.341" stroke="#E4EBE1" stroke-width="0.491892"/>
        <path d="M53.4956 86.4653V122.373" stroke="#E4EBE1" stroke-width="0.491892"/>
        <path d="M54.5562 89.9084V120.406" stroke="#E4EBE1" stroke-width="0.491892"/>
        <path d="M55.6167 91.3843L55.6167 118.438" stroke="#E4EBE1" stroke-width="0.245946"/>
        <path d="M59.8599 89.4166L59.8599 109.092" stroke="#E4EBE1" stroke-width="0.0983784"/>
        <path d="M64.103 88.433L64.103 98.7627" stroke="#E4EBE1" stroke-width="0.491892"/>
        <path d="M56.6777 90.8925L56.6777 115.979" stroke="#E4EBE1" stroke-width="0.245946"/>
        <path d="M60.9204 88.9248L60.9204 106.633" stroke="#E4EBE1" stroke-width="0.0983784"/>
        <path d="M65.1636 88.433L65.1636 98.7627" stroke="#E4EBE1" stroke-width="0.491892"/>
        <path d="M57.7383 91.3843L57.7383 113.519" stroke="#E4EBE1" stroke-width="0.245946"/>
        <path d="M61.9814 89.4166L61.9814 104.173" stroke="#E4EBE1" stroke-width="0.0983784"/>
        <path d="M58.7993 91.3843L58.7993 111.552" stroke="#E4EBE1" stroke-width="0.245946"/>
        <path d="M63.042 89.4166L63.042 101.714" stroke="#E4EBE1" stroke-width="0.0983784"/>
      </g>
    </g>
    <path d="M68.6104 66.0518C79.4968 66.052 88.2529 73.5751 88.2529 82.7764C88.2527 91.9775 79.4967 99.4998 68.6104 99.5C57.7238 99.5 48.9671 91.9776 48.9668 82.7764C48.9668 73.5749 57.7236 66.0518 68.6104 66.0518Z" fill="#E4EBE1" stroke="#254839" stroke-width="0.491892"/>
    <mask id="mask6_506_9687" style="mask-type:alpha" maskUnits="userSpaceOnUse" x="48" y="65" width="41" height="35">
      <path d="M68.6104 66.0518C79.4968 66.052 88.2529 73.5751 88.2529 82.7764C88.2527 91.9775 79.4967 99.4998 68.6104 99.5C57.7238 99.5 48.9671 91.9776 48.9668 82.7764C48.9668 73.5749 57.7236 66.0518 68.6104 66.0518Z" fill="#BED3E2" stroke="#254839" stroke-width="0.491892"/>
    </mask>
    <g mask="url(#mask6_506_9687)">
      <g opacity="0.5">
        <path d="M95.394 67.2816L42.3563 67.2816" stroke="#254839" stroke-width="0.491892"/>
        <path d="M95.394 82.0383L42.3563 82.0383" stroke="#254839" stroke-width="0.491892"/>
        <path d="M95.394 96.795L42.3563 96.795" stroke="#254839" stroke-width="0.491892"/>
        <path d="M95.394 68.2653L42.3563 68.2653" stroke="#254839" stroke-width="0.491892"/>
        <path d="M95.394 83.0221L42.3563 83.0221" stroke="#254839" stroke-width="0.491892"/>
        <path d="M95.394 97.7788L42.3563 97.7788" stroke="#254839" stroke-width="0.491892"/>
        <path d="M95.394 69.2491L42.3563 69.2491" stroke="#254839" stroke-width="0.491892"/>
        <path d="M95.394 84.0059L42.3563 84.0059" stroke="#254839" stroke-width="0.491892"/>
        <path d="M95.394 98.7627L42.3563 98.7627" stroke="#254839" stroke-width="0.491892"/>
        <path d="M95.394 70.2329L42.3563 70.2329" stroke="#254839" stroke-width="0.491892"/>
        <path d="M95.394 84.9896L42.3563 84.9896" stroke="#254839" stroke-width="0.491892"/>
        <path d="M95.394 99.7465L42.3563 99.7465" stroke="#254839" stroke-width="0.491892"/>
        <path d="M95.394 74.168L42.3563 74.168" stroke="#254839" stroke-width="0.491892"/>
        <path d="M95.394 88.9248L42.3563 88.9248" stroke="#254839" stroke-width="0.491892"/>
        <path d="M95.394 71.2167L42.3563 71.2167" stroke="#254839" stroke-width="0.491892"/>
        <path d="M95.394 85.9734L42.3563 85.9734" stroke="#254839" stroke-width="0.491892"/>
        <path d="M95.394 76.1355L42.3563 76.1355" stroke="#254839" stroke-width="0.491892"/>
        <path d="M95.394 90.8923L42.3563 90.8923" stroke="#254839" stroke-width="0.491892"/>
        <path d="M95.394 72.2004L42.3563 72.2004" stroke="#254839" stroke-width="0.491892"/>
        <path d="M95.394 86.9572L42.3563 86.9572" stroke="#254839" stroke-width="0.491892"/>
        <path d="M95.394 73.1842L42.3563 73.1842" stroke="#254839" stroke-width="0.491892"/>
        <path d="M95.394 87.9409L42.3563 87.9409" stroke="#254839" stroke-width="0.491892"/>
        <path d="M95.394 75.1517L42.3563 75.1517" stroke="#254839" stroke-width="0.491892"/>
        <path d="M95.394 89.9086L42.3563 89.9086" stroke="#254839" stroke-width="0.491892"/>
        <path d="M95.394 77.1194L42.3563 77.1194" stroke="#254839" stroke-width="0.491892"/>
        <path d="M95.394 91.8761L42.3563 91.8761" stroke="#254839" stroke-width="0.491892"/>
        <path d="M95.394 78.1031L42.3563 78.1031" stroke="#254839" stroke-width="0.491892"/>
        <path d="M95.394 92.8599L42.3563 92.8599" stroke="#254839" stroke-width="0.491892"/>
        <path d="M95.394 79.0869L42.3563 79.0869" stroke="#254839" stroke-width="0.491892"/>
        <path d="M95.394 93.8439L42.3563 93.8439" stroke="#254839" stroke-width="0.491892"/>
        <path d="M95.394 80.0707L42.3563 80.0707" stroke="#254839" stroke-width="0.491892"/>
        <path d="M95.394 94.8275L42.3563 94.8275" stroke="#254839" stroke-width="0.491892"/>
        <path d="M95.394 81.0544L42.3563 81.0544" stroke="#254839" stroke-width="0.491892"/>
        <path d="M95.394 95.8113L42.3563 95.8113" stroke="#254839" stroke-width="0.491892"/>
      </g>
    </g>
    <mask id="mask7_506_9687" style="mask-type:alpha" maskUnits="userSpaceOnUse" x="52" y="68" width="33" height="16">
      <path d="M68.6113 68.757C77.5451 68.7571 84.7879 75.0333 84.7881 82.7755C84.7881 83.0231 84.7793 83.2694 84.7646 83.5138C84.3219 76.1144 77.2597 70.2326 68.6113 70.2325C59.9629 70.2325 52.8998 76.1143 52.457 83.5138C52.4424 83.2694 52.4346 83.023 52.4346 82.7755C52.4348 75.0332 59.6774 68.757 68.6113 68.757Z" fill="#BED3E2"/>
    </mask>
    <g mask="url(#mask7_506_9687)">
      <path d="M52.4346 63.8381V113.027" stroke="#254839" stroke-width="0.491892"/>
      <path d="M68.3457 63.8381V113.027" stroke="#254839" stroke-width="0.491892"/>
      <path d="M53.4951 63.8381V113.027" stroke="#254839" stroke-width="0.491892"/>
      <path d="M69.4062 63.8381V113.027" stroke="#254839" stroke-width="0.491892"/>
      <path d="M54.5562 63.8381V113.027" stroke="#254839" stroke-width="0.491892"/>
      <path d="M70.4678 63.8381V113.027" stroke="#254839" stroke-width="0.491892"/>
      <path d="M55.6167 63.8381V113.027" stroke="#254839" stroke-width="0.491892"/>
      <path d="M71.5283 63.8381V113.027" stroke="#254839" stroke-width="0.491892"/>
      <path d="M59.8599 63.8381V113.027" stroke="#254839" stroke-width="0.491892"/>
      <path d="M75.7715 63.8381V113.027" stroke="#254839" stroke-width="0.491892"/>
      <path d="M56.6777 63.8381V113.027" stroke="#254839" stroke-width="0.491892"/>
      <path d="M72.5889 63.8381V113.027" stroke="#254839" stroke-width="0.491892"/>
      <path d="M61.9814 63.8381V113.027" stroke="#254839" stroke-width="0.491892"/>
      <path d="M77.8926 63.8381V113.027" stroke="#254839" stroke-width="0.491892"/>
      <path d="M57.7383 63.8381V113.027" stroke="#254839" stroke-width="0.491892"/>
      <path d="M73.6499 63.8381V113.027" stroke="#254839" stroke-width="0.491892"/>
      <path d="M58.7988 63.8381V113.027" stroke="#254839" stroke-width="0.491892"/>
      <path d="M74.7104 63.8381V113.027" stroke="#254839" stroke-width="0.491892"/>
      <path d="M60.9204 63.8381V113.027" stroke="#254839" stroke-width="0.491892"/>
      <path d="M76.832 63.8381V113.027" stroke="#254839" stroke-width="0.491892"/>
      <path d="M63.042 63.8381V113.027" stroke="#254839" stroke-width="0.491892"/>
      <path d="M78.9536 63.8381V113.027" stroke="#254839" stroke-width="0.491892"/>
      <path d="M64.1025 63.8381V113.027" stroke="#254839" stroke-width="0.491892"/>
      <path d="M80.0142 63.8381V113.027" stroke="#254839" stroke-width="0.491892"/>
      <path d="M65.1636 63.8381V113.027" stroke="#254839" stroke-width="0.491892"/>
      <path d="M81.0747 63.8381V113.027" stroke="#254839" stroke-width="0.491892"/>
      <path d="M66.2241 63.8381V113.027" stroke="#254839" stroke-width="0.491892"/>
      <path d="M82.1357 63.8381V113.027" stroke="#254839" stroke-width="0.491892"/>
      <path d="M67.2847 63.8381V113.027" stroke="#254839" stroke-width="0.491892"/>
      <path d="M83.1963 63.8381V113.027" stroke="#254839" stroke-width="0.491892"/>
    </g>
    <path d="M68.6104 66.1978C79.4968 66.198 88.2529 73.7211 88.2529 82.9224C88.2527 92.1235 79.4967 99.6458 68.6104 99.646C57.7238 99.646 48.9671 92.1236 48.9668 82.9224C48.9668 73.7209 57.7236 66.1978 68.6104 66.1978Z" fill="#254839" stroke="#E4EBE1" stroke-width="0.491892"/>
    <mask id="mask8_506_9687" style="mask-type:alpha" maskUnits="userSpaceOnUse" x="48" y="65" width="41" height="35">
      <path d="M68.6099 66.1978C79.4964 66.198 88.2524 73.7211 88.2524 82.9224C88.2522 92.1235 79.4962 99.6458 68.6099 99.646C57.7233 99.646 48.9666 92.1236 48.9663 82.9224C48.9663 73.7209 57.7232 66.1978 68.6099 66.1978Z" fill="#7B8A9C" stroke="#BED3E2" stroke-width="0.491892"/>
    </mask>
    <g mask="url(#mask8_506_9687)">
      <g opacity="0.7">
        <path d="M86.9077 78.249V127.438" stroke="#E4EBE1" stroke-width="0.491892"/>
        <path d="M85.8477 78.249V123.011" stroke="#E4EBE1" stroke-width="0.491892"/>
        <path d="M84.7861 80.2167V121.536" stroke="#E4EBE1" stroke-width="0.491892"/>
        <path d="M83.7256 83.6598V119.568" stroke="#E4EBE1" stroke-width="0.491892"/>
        <path d="M82.6646 87.1029V117.6" stroke="#E4EBE1" stroke-width="0.491892"/>
        <path d="M81.604 88.5787L81.604 115.633" stroke="#E4EBE1" stroke-width="0.245946"/>
        <path d="M77.3613 86.6111L77.3613 106.287" stroke="#E4EBE1" stroke-width="0.0983784"/>
        <path d="M73.1182 85.6274L73.1182 95.9572" stroke="#E4EBE1" stroke-width="0.491892"/>
        <path d="M80.5435 88.0869L80.5435 113.173" stroke="#E4EBE1" stroke-width="0.245946"/>
        <path d="M76.3003 86.1193L76.3003 103.827" stroke="#E4EBE1" stroke-width="0.0983784"/>
        <path d="M72.0576 85.6274L72.0576 95.9572" stroke="#E4EBE1" stroke-width="0.491892"/>
        <path d="M79.4824 88.5787L79.4824 110.714" stroke="#E4EBE1" stroke-width="0.245946"/>
        <path d="M75.2397 86.6111L75.2397 101.368" stroke="#E4EBE1" stroke-width="0.0983784"/>
        <path d="M78.4219 88.5787L78.4219 108.746" stroke="#E4EBE1" stroke-width="0.245946"/>
        <path d="M74.1787 86.6111L74.1787 98.9084" stroke="#E4EBE1" stroke-width="0.0983784"/>
      </g>
      <g opacity="0.7">
        <path d="M50.3115 78.249V127.438" stroke="#E4EBE1" stroke-width="0.491892"/>
        <path d="M51.3721 78.249V123.011" stroke="#E4EBE1" stroke-width="0.491892"/>
        <path d="M52.4331 80.2167V121.536" stroke="#E4EBE1" stroke-width="0.491892"/>
        <path d="M53.4937 83.6598V119.568" stroke="#E4EBE1" stroke-width="0.491892"/>
        <path d="M54.5547 87.1029V117.6" stroke="#E4EBE1" stroke-width="0.491892"/>
        <path d="M55.6152 88.5787L55.6152 115.633" stroke="#E4EBE1" stroke-width="0.245946"/>
        <path d="M59.8589 86.6111L59.8589 106.287" stroke="#E4EBE1" stroke-width="0.0983784"/>
        <path d="M64.1016 85.6274L64.1016 95.9572" stroke="#E4EBE1" stroke-width="0.491892"/>
        <path d="M56.6758 88.0869L56.6758 113.173" stroke="#E4EBE1" stroke-width="0.245946"/>
        <path d="M60.9194 86.1193L60.9194 103.827" stroke="#E4EBE1" stroke-width="0.0983784"/>
        <path d="M65.1626 85.6274L65.1626 95.9572" stroke="#E4EBE1" stroke-width="0.491892"/>
        <path d="M57.7373 88.5787L57.7373 110.714" stroke="#E4EBE1" stroke-width="0.245946"/>
        <path d="M61.98 86.6111L61.98 101.368" stroke="#E4EBE1" stroke-width="0.0983784"/>
        <path d="M58.7979 88.5787L58.7979 108.746" stroke="#E4EBE1" stroke-width="0.245946"/>
        <path d="M63.041 86.6111L63.041 98.9084" stroke="#E4EBE1" stroke-width="0.0983784"/>
      </g>
    </g>
    <path d="M68.6104 63.3754C79.4455 63.3756 88.124 70.8595 88.124 79.9711C88.1238 89.0825 79.4454 96.5656 68.6104 96.5658C57.7751 96.5658 49.096 89.0826 49.0957 79.9711C49.0957 70.8594 57.7749 63.3754 68.6104 63.3754Z" fill="#E4EBE1" stroke="#254839" stroke-width="0.75"/>
    <mask id="mask9_506_9687" style="mask-type:alpha" maskUnits="userSpaceOnUse" x="52" y="65" width="33" height="16">
      <path d="M68.6108 65.9517C77.5446 65.9518 84.7874 72.228 84.7876 79.9702C84.7876 80.2178 84.7788 80.4641 84.7642 80.7085C84.3214 73.3091 77.2592 67.4273 68.6108 67.4272C59.9624 67.4272 52.8993 73.309 52.4565 80.7085C52.4419 80.4641 52.4341 80.2177 52.4341 79.9702C52.4343 72.2279 59.6769 65.9517 68.6108 65.9517Z" fill="#BED3E2"/>
    </mask>
    <g mask="url(#mask9_506_9687)">
      <path d="M52.4341 61.0327V110.222" stroke="#254839" stroke-width="0.491892"/>
      <path d="M68.3457 61.0327V110.222" stroke="#254839" stroke-width="0.737838"/>
      <path d="M53.4946 61.0327V110.222" stroke="#254839" stroke-width="0.491892"/>
      <path d="M69.4062 61.0327V110.222" stroke="#254839" stroke-width="0.737838"/>
      <path d="M54.5557 61.0327V110.222" stroke="#254839" stroke-width="0.491892"/>
      <path d="M70.4673 61.0327V110.222" stroke="#254839" stroke-width="0.737838"/>
      <path d="M55.6162 61.0327V110.222" stroke="#254839" stroke-width="0.491892"/>
      <path d="M71.5278 61.0327V110.222" stroke="#254839" stroke-width="0.737838"/>
      <path d="M59.8594 61.0327V110.222" stroke="#254839" stroke-width="0.491892"/>
      <path d="M75.771 61.0327V110.222" stroke="#254839" stroke-width="0.491892"/>
      <path d="M56.6772 61.0327V110.222" stroke="#254839" stroke-width="0.491892"/>
      <path d="M72.5884 61.0327V110.222" stroke="#254839" stroke-width="0.737838"/>
      <path d="M61.9805 61.0327V110.222" stroke="#254839" stroke-width="0.491892"/>
      <path d="M77.8921 61.0327V110.222" stroke="#254839" stroke-width="0.491892"/>
      <path d="M57.7378 61.0327V110.222" stroke="#254839" stroke-width="0.491892"/>
      <path d="M73.6494 61.0327V110.222" stroke="#254839" stroke-width="0.491892"/>
      <path d="M58.7983 61.0327V110.222" stroke="#254839" stroke-width="0.491892"/>
      <path d="M74.71 61.0327V110.222" stroke="#254839" stroke-width="0.491892"/>
      <path d="M60.9199 61.0327V110.222" stroke="#254839" stroke-width="0.491892"/>
      <path d="M76.8315 61.0327V110.222" stroke="#254839" stroke-width="0.491892"/>
      <path d="M63.0415 61.0327V110.222" stroke="#254839" stroke-width="0.491892"/>
      <path d="M78.9531 61.0327V110.222" stroke="#254839" stroke-width="0.491892"/>
      <path d="M64.1021 61.0327V110.222" stroke="#254839" stroke-width="0.737838"/>
      <path d="M80.0137 61.0327V110.222" stroke="#254839" stroke-width="0.491892"/>
      <path d="M65.1631 61.0327V110.222" stroke="#254839" stroke-width="0.737838"/>
      <path d="M81.0742 61.0327V110.222" stroke="#254839" stroke-width="0.491892"/>
      <path d="M66.2236 61.0327V110.222" stroke="#254839" stroke-width="0.737838"/>
      <path d="M82.1353 61.0327V110.222" stroke="#254839" stroke-width="0.491892"/>
      <path d="M67.2842 61.0327V110.222" stroke="#254839" stroke-width="0.737838"/>
      <path d="M83.1958 61.0327V110.222" stroke="#254839" stroke-width="0.491892"/>
      <path d="M84.2568 61.5245V110.714" stroke="#254839" stroke-width="0.491892"/>
    </g>
  </g>
  <defs>
    <clipPath id="clip0_506_9687">
      <rect width="114" height="120" fill="white"/>
    </clipPath>
  </defs>
</svg>