<svg width="300" height="300" viewBox="0 0 300 300" fill="none" xmlns="http://www.w3.org/2000/svg">
<rect width="300" height="300" rx="150" fill="#123A49"/>
<path d="M209.357 86.3066C195.264 89.0292 183.092 98.9589 176.846 112.572C173.322 120.259 173.162 122.502 172.682 167.505L172.201 214.431H182H191.26V185.763L191.58 158.216H209.998H228.416V149.408V140.599H209.998H191.58V131.791C191.58 115.295 200.709 105.525 217.685 103.924L227.615 102.963V94.1542V85.3457L222.009 85.0254C218.966 84.8652 213.201 85.5058 209.357 86.3066Z" fill="white"/>
<path d="M110.079 121.066C88.1687 124.5 71 144.611 71 166.849C71 184.181 82.2823 201.513 98.6334 209.525C105.501 212.959 108.935 213.286 135.26 213.777L164.201 214.431V185.162C164.201 158.019 163.874 155.403 160.277 147.882C151.447 128.587 131.009 117.632 110.079 121.066ZM127.738 140.687C133.952 142.976 141.31 150.007 143.926 156.384C145.397 159.654 146.215 167.83 146.215 178.131V194.482H127.902C112.041 194.482 108.608 193.992 103.866 191.049C88.1687 181.565 84.8984 162.598 96.6712 148.536C104.193 139.706 116.783 136.436 127.738 140.687Z" fill="white"/>
</svg>
