<svg width="300" height="247" viewBox="0 0 300 247" fill="none" xmlns="http://www.w3.org/2000/svg">
<g clip-path="url(#clip0_235_18)">
<path d="M263.723 2.49218C236.898 7.68788 213.73 26.6373 201.841 52.6161C195.134 67.2857 194.829 71.5661 193.916 157.448L193 247H211.651H229.277V192.291L229.886 139.721H264.943H300V122.913V106.102H264.943H229.886V89.2929C229.886 57.8126 247.262 39.1679 279.575 36.1126L298.475 34.2786V17.4682V0.65843L287.805 0.0471725C282.013 -0.258547 271.04 0.963958 263.723 2.49218Z" fill="#BCC8C0"/>
<path d="M73.7965 68.1976C32.4212 74.774 0 113.288 0 155.876C0 189.069 21.3054 222.261 52.1827 237.605C65.1514 244.181 71.6361 244.807 121.348 245.748L176 247V190.947C176 138.966 175.382 133.956 168.59 119.553C151.915 82.601 113.321 61.6212 73.7965 68.1976ZM107.144 105.774C118.878 110.157 132.773 123.622 137.713 135.835C140.491 142.097 142.035 157.755 142.035 177.482V208.796H107.453C77.5015 208.796 71.0186 207.857 62.0639 202.221C32.4212 184.059 26.2456 147.735 48.4773 120.805C62.6814 103.895 86.4562 97.6325 107.144 105.774Z" fill="#BCC8C0"/>
</g>
<defs>
<clipPath id="clip0_235_18">
<rect width="300" height="247" fill="white"/>
</clipPath>
</defs>
</svg>
