<svg width="48" height="48" viewbox="0 0 48 48" fill="none" xmlns="http://www.w3.org/2000/svg" id="img">
<path d="M48 24C48 10.7452 37.2548 0 24 0C10.7452 0 0 10.7452 0 24C0 37.2548 10.7452 48 24 48C37.2548 48 48 37.2548 48 24Z" fill="#1A108D"/>
<path d="M22 13L11 11L13 22H18.5C18.5 22 19 19 22 18.5V13Z" fill="white"/>
<path d="M26 13L37 11L35 22H29.5C29.5 22 29 19 26 18.5V13Z" fill="white"/>
<path d="M22 35L11 37L13 26H18.5C18.5 26 19 29 22 29.5V35Z" fill="white"/>
<path d="M26 35L37 37L35 26H29.5C29.5 26 29 29 26 29.5V35Z" fill="white"/>
</svg>
