<svg width="250" height="250" viewBox="0 0 250 250" fill="none" xmlns="http://www.w3.org/2000/svg">
<g clip-path="url(#clip0_235_21)">
<path d="M69.7503 145H18.5234L0 250L105.001 231.473V180.25C88.6505 174.325 75.6737 161.351 69.7503 145ZM0 0L18.5234 105H69.7503C75.6737 88.6505 88.6505 75.6756 105.001 69.7497V18.5267L0 0ZM145.001 18.5267V69.7497C161.349 75.6756 174.326 88.6505 180.25 105H231.476L250 0L145.001 18.5267ZM250 250L145.001 231.473V180.25C161.349 174.325 174.326 161.351 180.25 145H231.476L250 250Z" fill="#BCC8C0"/>
</g>
<defs>
<clipPath id="clip0_235_21">
<rect width="250" height="250" fill="white"/>
</clipPath>
</defs>
</svg>
