<svg width="202" height="50" viewBox="0 0 202 50" fill="none" xmlns="http://www.w3.org/2000/svg">
<g clip-path="url(#clip0_47_253)">
<path d="M42.4983 26.2172L15.7488 41.6365C13.9015 42.7014 13.2682 45.0593 14.3344 46.9031C15.4006 48.7468 17.7624 49.3782 19.6098 48.3134L46.3593 32.8939C48.2066 31.829 48.8398 29.4713 47.7736 27.6274C46.7074 25.7838 44.3456 25.1522 42.4983 26.2172Z" fill="#FF7829"/>
<path d="M23.9972 21.2874L3.93506 32.852C2.08777 33.9168 1.45451 36.2747 2.52068 38.1185C3.58685 39.9623 5.94873 40.5936 7.79605 39.5288L27.8581 27.9642C29.7055 26.8994 30.3387 24.5415 29.2725 22.6977C28.2063 20.854 25.8445 20.2226 23.9972 21.2874Z" fill="#FCBF22"/>
<path d="M28.9585 2.80113L2.20899 18.2205C0.361674 19.2853 -0.271556 21.6433 0.794613 23.487C1.86079 25.3308 4.22263 25.9622 6.06994 24.8973L32.8194 9.4779C34.6668 8.41307 35.3 6.05515 34.2338 4.21142C33.1677 2.36768 30.8058 1.73626 28.9585 2.80113Z" fill="#2AE5B9"/>
<path d="M88.3457 49.0061H55.6895V3.26582H87.7571V10.3234H63.4786V22.0852H85.4671V28.947H63.4786V41.9485H88.3483V49.0061H88.3457ZM105.972 49.9856C97.726 49.9856 92.9471 44.8226 92.9471 37.3087V14.3755H100.669V36.984C100.669 40.9046 103.419 43.191 107.542 43.191C112.842 43.191 115.984 39.7293 116.048 35.2854V14.3755H123.77V49.0061H117.553L116.965 43.9746C114.936 47.6993 110.813 49.9856 105.972 49.9856ZM138.171 49.0061H130.449V0H138.171V49.0061ZM160.894 49.9856C150.293 49.9856 143.028 42.4074 143.028 31.821C143.028 20.3866 150.554 13.329 160.241 13.329C169.927 13.329 176.601 20.1906 176.797 31.4292V33.2593H150.75C151.274 39.3348 155.069 43.4513 160.958 43.4513C164.95 43.4513 167.96 41.4923 169.139 38.0279H176.665C174.899 45.4773 169.075 49.9856 160.894 49.9856ZM151.078 27.8359H168.814C167.834 22.8688 164.756 19.8632 160.241 19.8632C155.725 19.8632 152.257 22.8688 151.078 27.8359ZM189.238 49.0061H181.517V14.3755H187.734L188.65 21.1702C190.875 16.466 194.934 13.9837 200.691 13.9837H202V21.4976H200.691C193.493 21.4976 189.238 25.3538 189.238 31.8854V49.0035V49.0061Z" fill="#FFFFFF"/>
</g>
<defs>
<clipPath id="clip0_47_253">
<rect width="202" height="50" fill="white"/>
</clipPath>
</defs>
</svg>
