<svg width="48" height="48" viewBox="0 0 48 48" fill="none" xmlns="http://www.w3.org/2000/svg">
<g clip-path="url(#clip0_8958_12176)">
<path d="M48 24C48 10.7452 37.2548 0 24 0C10.7452 0 0 10.7452 0 24C0 37.2548 10.7452 48 24 48C37.2548 48 48 37.2548 48 24Z" fill="white"/>
<path d="M20.7454 33.7367C15.1536 29.7113 14.4747 21.2345 20.1832 17.0366C18.2078 17.1279 16.9354 17.7408 16.6096 17.9304C14.8362 20.6828 14.4263 24.3476 15.5008 27.482C16.6266 30.9072 19.3862 33.7095 22.7535 34.9511C22.0476 34.6119 21.467 34.2698 20.7454 33.7381V33.7367Z" fill="#404040"/>
<path d="M18.4409 28.318C18.0566 26.9353 17.9698 25.0324 18.5235 23.4089H17.1771C16.864 26.063 17.7364 29.0792 19.4485 30.8296C19.4485 30.8296 18.8422 29.8475 18.4409 28.318Z" fill="#404040"/>
<path d="M16.3001 9.33547C8.29312 15.1753 7.30541 27.2841 14.2464 34.3013C19.8225 40.3022 29.8021 41.0393 36.1738 35.935C26.7337 42.6655 12.9214 37.0907 11.4868 25.384C10.3183 16.9101 17.1057 8.87932 25.7716 9.15444L27.9633 6.08269C23.8331 5.66362 19.6176 6.85098 16.3001 9.33547Z" fill="#404040"/>
<path d="M25.3347 9.77222C18.5446 9.83065 12.7294 15.4809 12.355 22.2288C11.4798 31.1917 20.3108 38.9317 29.0621 37.2097C20.2439 38.4384 11.7616 29.6979 14.4144 20.9217C15.5175 16.8451 18.9901 13.5167 23.1615 12.8397L25.3333 9.77222H25.3347Z" fill="#404040"/>
<path d="M40.8518 33.0452C30.8653 47.0596 8.82685 40.2534 8.70019 22.9448C8.70446 17.5083 11.3474 12.1915 15.7323 8.98011V6.14355C5.86373 12.5493 3.96517 26.7748 12.0661 35.3786C20.194 44.1463 34.0476 43.0201 41 33.4115L40.8506 33.0452H40.8518Z" fill="#404040"/>
</g>
<defs>
<clipPath id="clip0_8958_12176">
<rect width="48" height="48" fill="white"/>
</clipPath>
</defs>
</svg>
