<svg width="240" height="250" viewBox="0 0 240 250" fill="none" xmlns="http://www.w3.org/2000/svg">
<g clip-path="url(#clip0_235_32)">
<path d="M97.0288 195.785C57.5574 167.371 52.7656 107.535 93.0609 77.9023C79.1162 78.5466 70.1349 82.8732 67.8348 84.2113C55.3169 103.64 52.4236 129.509 60.0082 151.634C67.9552 175.812 87.4344 195.593 111.204 204.357C106.221 201.963 102.122 199.548 97.0288 195.795V195.785Z" fill="#BCC8C0"/>
<path d="M80.7597 157.538C78.047 147.777 77.4345 134.345 81.3427 122.886H71.8387C69.6283 141.62 75.7867 162.91 87.8721 175.266C87.8721 175.266 83.5923 168.334 80.7597 157.538Z" fill="#BCC8C0"/>
<path d="M65.6488 23.5444C9.12915 64.7665 2.15711 150.241 51.1524 199.774C90.5129 242.133 160.957 247.336 205.934 211.305C139.298 258.815 41.7995 219.464 31.6727 136.828C23.425 77.0123 71.3355 20.3246 132.507 22.2666L147.977 0.583703C118.823 -2.37442 89.0668 6.00691 65.6488 23.5444Z" fill="#BCC8C0"/>
<path d="M129.418 26.627C81.4879 27.0394 40.4397 66.9237 37.7975 114.556C31.6187 177.824 93.9552 232.459 155.729 220.303C93.483 228.976 33.608 167.278 52.3343 105.329C60.12 76.553 84.6324 53.0587 114.078 48.2797L129.409 26.627H129.418Z" fill="#BCC8C0"/>
<path d="M238.953 190.907C168.461 289.832 12.8953 241.789 12.0015 119.61C12.0316 81.2351 30.6874 43.7052 61.6394 21.0364V1.01367C-8.02081 46.2307 -21.4223 146.646 35.7605 207.378C93.1341 269.268 190.924 261.318 240 193.493L238.945 190.907H238.953Z" fill="#BCC8C0"/>
</g>
<defs>
<clipPath id="clip0_235_32">
<rect width="240" height="250" fill="white"/>
</clipPath>
</defs>
</svg>
