<svg width="143" height="22" viewBox="0 0 143 22" fill="none" xmlns="http://www.w3.org/2000/svg">
<path d="M13.1416 1.0519H13.1094L13.086 1.07403L3.63984 10.0078V1.13281V1.0519H3.55892H1H0.919086V1.13281V20.3247V20.4056H1H3.55892H3.63984V20.3247V13.5762L6.14853 11.2476L13.3312 20.3748L13.3555 20.4056H13.3948H16.2469H16.3278V20.3247V19.7916V19.7633L16.3101 19.7411L8.08048 9.44412L16.382 1.72518L16.4078 1.70117V1.66592V1.13281V1.0519H16.3269H13.1416Z" fill="currentColor" stroke="currentColor" stroke-width="0.161828"></path>
<path d="M36.46 20.4056H36.5409V20.3247V18.0324V17.9515H36.46H26.8117V11.556H35.3938H35.4747V11.4751V9.18276V9.10184H35.3938H26.8117V3.5061H36.3268H36.4077V3.42518V1.13281V1.0519H36.3268H24.1719H24.091V1.13281V20.3247V20.4056H24.1719H36.46Z" fill="currentColor" stroke="currentColor" stroke-width="0.161828"></path>
<path d="M44.216 1.66592V1.68567L44.2251 1.70319L50.5763 13.9406L47.5305 19.7541L47.5212 19.7717V19.7916V20.3247V20.4056H47.6021H50.1744H50.2236L50.2462 20.362L59.9355 1.70321L59.9446 1.68568V1.66592V1.13281V1.0519H59.8637H57.2248H57.1748L57.1524 1.09663L52.2211 10.9591C52.1976 11.0061 52.1797 11.0239 52.1652 11.0326C52.1506 11.0414 52.1281 11.0477 52.0803 11.0477C52.0324 11.0477 52.01 11.0414 51.9953 11.0326C51.9808 11.0239 51.9629 11.0061 51.9394 10.9591L47.0081 1.09663L46.9858 1.0519H46.9358H44.2969H44.216V1.13281V1.66592Z" fill="currentColor" stroke="currentColor" stroke-width="0.161828"></path>
<path d="M79.8193 19.7707V19.7532L79.8121 19.7373L76.4042 12.2147C77.6858 11.9428 78.7531 11.3593 79.5053 10.4604C80.2771 9.53802 80.7112 8.29046 80.7112 6.72418C80.7112 4.84124 80.081 3.41956 78.9948 2.46974C77.9102 1.52135 76.3807 1.0519 74.5966 1.0519H67.0938H67.0128V1.13281V20.3032V20.3841H67.0938H69.6122H69.6931V20.3032V12.3965H73.6777L77.1063 20.3353L77.1274 20.3841H77.1806H79.7384H79.8193V20.3032V19.7707ZM74.3342 9.94483H69.6931V3.50352H74.3342C75.5392 3.50352 76.4612 3.7419 77.0813 4.25699C77.6984 4.76954 78.031 5.56846 78.031 6.72418C78.031 7.8799 77.6984 8.67882 77.0813 9.19136C76.4612 9.70646 75.5392 9.94483 74.3342 9.94483Z" fill="currentColor" stroke="currentColor" stroke-width="0.161828"></path>
<path d="M89.63 20.3247V20.4056H89.7109H92.2699H92.3508V20.3247V1.13281V1.0519H92.2699H89.7109H89.63V1.13281V20.3247Z" fill="currentColor" stroke="currentColor" stroke-width="0.161828"></path>
<path d="M105.16 20.4056H105.241V20.3247V3.87832C105.241 3.82028 105.253 3.78891 105.266 3.77296C105.277 3.7602 105.297 3.74599 105.347 3.74599C105.411 3.74599 105.447 3.75286 105.472 3.76631C105.494 3.77797 105.516 3.79992 105.538 3.85418C105.538 3.85447 105.538 3.85477 105.538 3.85506L111.669 20.3529L111.688 20.4056H111.744H116.409H116.49V20.3247V1.13281V1.0519H116.409H113.85H113.769V1.13281V17.5792C113.769 17.6373 113.757 17.6686 113.744 17.6846C113.734 17.6973 113.713 17.7116 113.664 17.7116C113.6 17.7116 113.564 17.7047 113.539 17.6912C113.517 17.6796 113.494 17.6576 113.473 17.6034C113.472 17.6031 113.472 17.6028 113.472 17.6025L107.342 1.10463L107.323 1.0519H107.266H102.602H102.521V1.13281V20.3247V20.4056H102.602H105.16Z" fill="currentColor" stroke="currentColor" stroke-width="0.161828"></path>
<path d="M125.496 8.55539H125.413L125.415 8.47283C125.453 6.58917 126.106 4.70208 127.46 3.28524C128.816 1.86722 130.867 0.926898 133.689 0.926898C136.512 0.926898 138.818 1.93478 140.417 3.70355C142.015 5.47145 142.901 7.99225 142.901 11.0078C142.901 14.0234 142.015 16.5441 140.426 18.3119C138.837 20.0806 136.55 21.0887 133.765 21.0887C131.124 21.0887 129.078 20.3205 127.693 18.9163C126.307 17.5123 125.593 15.483 125.593 12.9811V11.5145V11.4336H125.674H134.83H134.911V11.5145V13.8078V13.8887H134.83H128.242C128.282 15.1949 128.678 16.3744 129.526 17.2326C130.392 18.1083 131.738 18.6602 133.689 18.6602C135.697 18.6602 137.341 17.9123 138.485 16.5866C139.63 15.2597 140.279 13.3467 140.279 11.0078C140.279 8.66894 139.63 6.75596 138.485 5.429C137.341 4.10328 135.697 3.35539 133.689 3.35539C131.723 3.35539 130.35 3.98872 129.45 4.94009C128.548 5.89297 128.112 7.17316 128.037 8.47914L128.033 8.55539H127.956H125.496Z" fill="currentColor" stroke="currentColor" stroke-width="0.161828"></path>
</svg>