<svg width="158" height="100" viewBox="0 0 158 100" fill="none" xmlns="http://www.w3.org/2000/svg">
<mask id="mask0_1_14" style="mask-type:alpha" maskUnits="userSpaceOnUse" x="0" y="0" width="158" height="100">
<rect width="158" height="100" fill="#D9D9D9"/>
</mask>
<g mask="url(#mask0_1_14)">
<path opacity="0.5" d="M138.357 -23.6939C124.264 -20.9712 112.092 -11.0416 105.846 2.572C102.322 10.259 102.162 12.501 101.682 57.505L101.201 104.43H111H120.26V75.762L120.58 48.216H138.998H157.416V39.407V30.599H138.998H120.58V21.79C120.58 5.29399 129.709 -4.475 146.685 -6.077L156.615 -7.038V-15.8463V-24.6548L151.009 -24.9751C147.966 -25.1353 142.201 -24.4947 138.357 -23.6939Z" fill="#EFF1EE"/>
<path opacity="0.5" d="M39.079 11.065C17.1687 14.499 0 34.611 0 56.848C0 74.181 11.2823 91.513 27.6334 99.525C34.501 102.959 37.935 103.286 64.26 103.776L93.201 104.43V75.162C93.201 48.019 92.874 45.403 89.277 37.881C80.447 18.587 60.009 7.63202 39.079 11.065ZM56.738 30.687C62.952 32.976 70.31 40.007 72.926 46.384C74.397 49.654 75.215 57.83 75.215 68.131V84.482H56.902C41.041 84.482 37.608 83.991 32.866 81.048C17.1687 71.564 13.8984 52.597 25.6712 38.535C33.193 29.706 45.783 26.435 56.738 30.687Z" fill="#EFF1EE"/>
</g>
</svg>
