<svg width="119" height="70" viewBox="0 0 119 70" fill="none" xmlns="http://www.w3.org/2000/svg">
<g clip-path="url(#clip0_354_1019)">
<path opacity="0.5" d="M45.11 45.1998H26.6685L20 83L57.8005 76.3305V57.89C51.9143 55.7568 47.2426 51.0864 45.11 45.1998ZM20 -7L26.6685 30.8002H45.11C47.2426 24.914 51.9143 20.2433 57.8005 18.1098V-0.330503L20 -7ZM72.2003 -0.330503V18.1098C78.0857 20.2433 82.7574 24.914 84.8898 30.8002H103.331L110 -7L72.2003 -0.330503ZM110 83L72.2003 76.3305V57.89C78.0857 55.7568 82.7574 51.0864 84.8898 45.1998H103.331L110 83Z" fill="#EFF1EE"/>
</g>
<defs>
<clipPath id="clip0_354_1019">
<rect width="119" height="70" fill="white"/>
</clipPath>
</defs>
</svg>
