<svg width="120" height="70" viewBox="0 0 120 70" fill="none" xmlns="http://www.w3.org/2000/svg">
<g opacity="0.5">
<path d="M83.368 118.74C60.4375 102.233 57.6536 67.4712 81.0628 50.2567C72.9621 50.6309 67.7444 53.1445 66.4082 53.9218C59.136 65.2087 57.4551 80.2372 61.8614 93.0906C66.4781 107.137 77.7944 118.628 91.603 123.72C88.7081 122.329 86.3271 120.926 83.368 118.745V118.74Z" fill="#EFF1EE"/>
<path d="M65.1382 18.678C32.3036 42.6256 28.2532 92.281 56.7166 121.057C79.5828 145.665 120.507 148.688 146.635 127.756C107.924 155.356 51.2831 132.496 45.4001 84.4892C40.6086 49.7396 68.4417 16.8074 103.979 17.9356L112.966 5.3391C96.0295 3.6206 78.7425 8.48968 65.1382 18.678Z" fill="#EFF1EE"/>
<path d="M102.185 20.469C74.3399 20.7086 50.4931 43.879 48.9581 71.5503C45.3688 108.305 81.5826 140.045 117.47 132.984C81.3083 138.022 46.5244 102.179 57.4031 66.1905C61.9264 49.4731 76.1667 35.8244 93.2728 33.0479L102.179 20.469H102.185Z" fill="#EFF1EE"/>
<path d="M165.818 115.906C124.866 173.376 34.4915 145.465 33.9721 74.4867C33.9896 52.1929 44.8275 30.3901 62.8089 17.2209V5.58887C22.3404 31.8573 14.5549 90.1926 47.7748 125.475C81.1054 161.429 137.916 156.811 166.426 117.408L165.813 115.906H165.818Z" fill="#EFF1EE"/>
</g>
</svg>
