<svg width="246" height="264" viewBox="0 0 246 264" fill="none" xmlns="http://www.w3.org/2000/svg">
<mask id="mask0_92_471260" style="mask-type:alpha" maskUnits="userSpaceOnUse" x="43" y="148" width="71" height="71">
<circle cx="78.5" cy="183.5" r="35.5" fill="#C6DECD"/>
</mask>
<g mask="url(#mask0_92_471260)">
<path d="M40.834 169H145.805" stroke="#254839"/>
<path d="M40.834 148H145.805" stroke="#254839"/>
<path d="M40.834 151H145.805" stroke="#254839"/>
<path d="M40.834 154H145.805" stroke="#254839"/>
<path d="M40.834 157H145.805" stroke="#254839"/>
<path d="M40.834 160H145.805" stroke="#254839"/>
<path d="M40.834 163H145.805" stroke="#254839"/>
<path d="M40.834 166H145.805" stroke="#254839"/>
<path d="M40.834 196H145.805" stroke="#254839"/>
<path d="M40.834 172H145.805" stroke="#254839"/>
<path d="M40.834 175H145.805" stroke="#254839"/>
<path d="M40.834 178H145.805" stroke="#254839"/>
<path d="M40.834 181H145.805" stroke="#254839"/>
<path d="M40.834 184H145.805" stroke="#254839"/>
<path d="M40.834 187H145.805" stroke="#254839"/>
<path d="M40.834 190H145.805" stroke="#254839"/>
<path d="M40.834 193H145.805" stroke="#254839"/>
<path d="M40.834 199H145.805" stroke="#254839"/>
<path d="M40.834 202H145.805" stroke="#254839"/>
<path d="M40.834 205H145.805" stroke="#254839"/>
<path d="M40.834 208H145.805" stroke="#254839"/>
<path d="M40.834 211H145.805" stroke="#254839"/>
<path d="M40.834 214H145.805" stroke="#254839"/>
<path d="M40.834 217H145.805" stroke="#254839"/>
</g>
<mask id="mask1_92_471260" style="mask-type:alpha" maskUnits="userSpaceOnUse" x="125" y="145" width="71" height="71">
<circle cx="160.5" cy="180.5" r="35.5" fill="#C6DECD"/>
</mask>
<g mask="url(#mask1_92_471260)">
<path d="M122.834 164H227.805" stroke="#254839"/>
<path d="M122.834 146H227.805" stroke="#254839"/>
<path d="M122.834 149H227.805" stroke="#254839"/>
<path d="M122.834 152H227.805" stroke="#254839"/>
<path d="M122.834 155H227.805" stroke="#254839"/>
<path d="M122.834 158H227.805" stroke="#254839"/>
<path d="M122.834 161H227.805" stroke="#254839"/>
<path d="M122.834 191H227.805" stroke="#254839"/>
<path d="M122.834 167H227.805" stroke="#254839"/>
<path d="M122.834 170H227.805" stroke="#254839"/>
<path d="M122.834 173H227.805" stroke="#254839"/>
<path d="M122.834 176H227.805" stroke="#254839"/>
<path d="M122.834 179H227.805" stroke="#254839"/>
<path d="M122.834 182H227.805" stroke="#254839"/>
<path d="M122.834 185H227.805" stroke="#254839"/>
<path d="M122.834 188H227.805" stroke="#254839"/>
<path d="M122.834 194H227.805" stroke="#254839"/>
<path d="M122.834 197H227.805" stroke="#254839"/>
<path d="M122.834 200H227.805" stroke="#254839"/>
<path d="M122.834 203H227.805" stroke="#254839"/>
<path d="M122.834 206H227.805" stroke="#254839"/>
<path d="M122.834 209H227.805" stroke="#254839"/>
<path d="M122.834 212H227.805" stroke="#254839"/>
<path d="M122.834 215H227.805" stroke="#254839"/>
</g>
<mask id="mask2_92_471260" style="mask-type:alpha" maskUnits="userSpaceOnUse" x="71" y="170" width="71" height="71">
<circle cx="106.5" cy="205.5" r="35.5" fill="#C6DECD"/>
</mask>
<g mask="url(#mask2_92_471260)">
<path d="M68.834 186H173.805" stroke="#254839"/>
<path d="M68.834 171H173.805" stroke="#254839"/>
<path d="M68.834 174H173.805" stroke="#254839"/>
<path d="M68.834 177H173.805" stroke="#254839"/>
<path d="M68.834 180H173.805" stroke="#254839"/>
<path d="M68.834 183H173.805" stroke="#254839"/>
<path d="M68.834 213H173.805" stroke="#254839"/>
<path d="M68.834 189H173.805" stroke="#254839"/>
<path d="M68.834 192H173.805" stroke="#254839"/>
<path d="M68.834 195H173.805" stroke="#254839"/>
<path d="M68.834 198H173.805" stroke="#254839"/>
<path d="M68.834 201H173.805" stroke="#254839"/>
<path d="M68.834 204H173.805" stroke="#254839"/>
<path d="M68.834 207H173.805" stroke="#254839"/>
<path d="M68.834 210H173.805" stroke="#254839"/>
<path d="M68.834 240H173.805" stroke="#254839"/>
<path d="M68.834 216H173.805" stroke="#254839"/>
<path d="M68.834 219H173.805" stroke="#254839"/>
<path d="M68.834 222H173.805" stroke="#254839"/>
<path d="M68.834 225H173.805" stroke="#254839"/>
<path d="M68.834 228H173.805" stroke="#254839"/>
<path d="M68.834 231H173.805" stroke="#254839"/>
<path d="M68.834 234H173.805" stroke="#254839"/>
<path d="M68.834 237H173.805" stroke="#254839"/>
</g>
<mask id="mask3_92_471260" style="mask-type:alpha" maskUnits="userSpaceOnUse" x="101" y="162" width="71" height="71">
<circle cx="136.5" cy="197.5" r="35.5" fill="#C6DECD"/>
</mask>
<g mask="url(#mask3_92_471260)">
<path d="M98.8359 178H203.807" stroke="#254839"/>
<path d="M98.8359 163H203.807" stroke="#254839"/>
<path d="M98.8359 166H203.807" stroke="#254839"/>
<path d="M98.8359 169H203.807" stroke="#254839"/>
<path d="M98.8359 172H203.807" stroke="#254839"/>
<path d="M98.8359 175H203.807" stroke="#254839"/>
<path d="M98.8359 205H203.807" stroke="#254839"/>
<path d="M98.8359 181H203.807" stroke="#254839"/>
<path d="M98.8359 184H203.807" stroke="#254839"/>
<path d="M98.8359 187H203.807" stroke="#254839"/>
<path d="M98.8359 190H203.807" stroke="#254839"/>
<path d="M98.8359 193H203.807" stroke="#254839"/>
<path d="M98.8359 196H203.807" stroke="#254839"/>
<path d="M98.8359 199H203.807" stroke="#254839"/>
<path d="M98.8359 202H203.807" stroke="#254839"/>
<path d="M98.8359 232H203.807" stroke="#254839"/>
<path d="M98.8359 208H203.807" stroke="#254839"/>
<path d="M98.8359 211H203.807" stroke="#254839"/>
<path d="M98.8359 214H203.807" stroke="#254839"/>
<path d="M98.8359 217H203.807" stroke="#254839"/>
<path d="M98.8359 220H203.807" stroke="#254839"/>
<path d="M98.8359 223H203.807" stroke="#254839"/>
<path d="M98.8359 226H203.807" stroke="#254839"/>
<path d="M98.8359 229H203.807" stroke="#254839"/>
</g>
<path d="M202.5 170.5C202.5 189.239 185.975 204.5 165.5 204.5C145.025 204.5 128.5 189.239 128.5 170.5C128.5 151.761 145.025 136.5 165.5 136.5C185.975 136.5 202.5 151.761 202.5 170.5Z" fill="#254839" stroke="#E5EBEE"/>
<path d="M202.5 164.5C202.5 183.239 185.975 198.5 165.5 198.5C145.025 198.5 128.5 183.239 128.5 164.5C128.5 145.761 145.025 130.5 165.5 130.5C185.975 130.5 202.5 145.761 202.5 164.5Z" fill="#254839" stroke="#E5EBEE"/>
<path d="M202.5 158.5C202.5 177.239 185.975 192.5 165.5 192.5C145.025 192.5 128.5 177.239 128.5 158.5C128.5 139.761 145.025 124.5 165.5 124.5C185.975 124.5 202.5 139.761 202.5 158.5Z" fill="#254839" stroke="#E5EBEE"/>
<path d="M202.5 152.5C202.5 171.239 185.975 186.5 165.5 186.5C145.025 186.5 128.5 171.239 128.5 152.5C128.5 133.761 145.025 118.5 165.5 118.5C185.975 118.5 202.5 133.761 202.5 152.5Z" fill="#254839" stroke="#E5EBEE"/>
<path d="M202.5 146.5C202.5 165.239 185.975 180.5 165.5 180.5C145.025 180.5 128.5 165.239 128.5 146.5C128.5 127.761 145.025 112.5 165.5 112.5C185.975 112.5 202.5 127.761 202.5 146.5Z" fill="#254839" stroke="#E5EBEE"/>
<path d="M202.5 140.5C202.5 159.239 185.975 174.5 165.5 174.5C145.025 174.5 128.5 159.239 128.5 140.5C128.5 121.761 145.025 106.5 165.5 106.5C185.975 106.5 202.5 121.761 202.5 140.5Z" fill="#254839" stroke="#E5EBEE"/>
<path d="M202.5 134.5C202.5 153.239 185.975 168.5 165.5 168.5C145.025 168.5 128.5 153.239 128.5 134.5C128.5 115.761 145.025 100.5 165.5 100.5C185.975 100.5 202.5 115.761 202.5 134.5Z" fill="#254839" stroke="#E5EBEE"/>
<mask id="mask4_92_471260" style="mask-type:alpha" maskUnits="userSpaceOnUse" x="128" y="100" width="75" height="105">
<mask id="path-108-inside-1_92_471260" fill="white">
<path fill-rule="evenodd" clip-rule="evenodd" d="M202.86 137.5C202.953 136.511 203 135.511 203 134.5C203 115.446 186.211 100 165.5 100C144.789 100 128 115.446 128 134.5C128 135.511 128.047 136.511 128.14 137.5C128.047 138.489 128 139.489 128 140.5C128 141.511 128.047 142.511 128.14 143.5C128.047 144.489 128 145.489 128 146.5C128 147.511 128.047 148.511 128.14 149.5C128.047 150.489 128 151.489 128 152.5C128 153.511 128.047 154.511 128.14 155.5C128.047 156.489 128 157.489 128 158.5C128 159.511 128.047 160.511 128.14 161.5C128.047 162.489 128 163.489 128 164.5C128 165.511 128.047 166.511 128.14 167.5C128.047 168.489 128 169.489 128 170.5C128 189.554 144.789 205 165.5 205C186.211 205 203 189.554 203 170.5C203 169.489 202.953 168.489 202.86 167.5C202.953 166.511 203 165.511 203 164.5C203 163.489 202.953 162.489 202.86 161.5C202.953 160.511 203 159.511 203 158.5C203 157.489 202.953 156.489 202.86 155.5C202.953 154.511 203 153.511 203 152.5C203 151.489 202.953 150.489 202.86 149.5C202.953 148.511 203 147.511 203 146.5C203 145.489 202.953 144.489 202.86 143.5C202.953 142.511 203 141.511 203 140.5C203 139.489 202.953 138.489 202.86 137.5Z"/>
</mask>
<path fill-rule="evenodd" clip-rule="evenodd" d="M202.86 137.5C202.953 136.511 203 135.511 203 134.5C203 115.446 186.211 100 165.5 100C144.789 100 128 115.446 128 134.5C128 135.511 128.047 136.511 128.14 137.5C128.047 138.489 128 139.489 128 140.5C128 141.511 128.047 142.511 128.14 143.5C128.047 144.489 128 145.489 128 146.5C128 147.511 128.047 148.511 128.14 149.5C128.047 150.489 128 151.489 128 152.5C128 153.511 128.047 154.511 128.14 155.5C128.047 156.489 128 157.489 128 158.5C128 159.511 128.047 160.511 128.14 161.5C128.047 162.489 128 163.489 128 164.5C128 165.511 128.047 166.511 128.14 167.5C128.047 168.489 128 169.489 128 170.5C128 189.554 144.789 205 165.5 205C186.211 205 203 189.554 203 170.5C203 169.489 202.953 168.489 202.86 167.5C202.953 166.511 203 165.511 203 164.5C203 163.489 202.953 162.489 202.86 161.5C202.953 160.511 203 159.511 203 158.5C203 157.489 202.953 156.489 202.86 155.5C202.953 154.511 203 153.511 203 152.5C203 151.489 202.953 150.489 202.86 149.5C202.953 148.511 203 147.511 203 146.5C203 145.489 202.953 144.489 202.86 143.5C202.953 142.511 203 141.511 203 140.5C203 139.489 202.953 138.489 202.86 137.5Z" fill="#254839"/>
<path d="M202.86 137.5L201.865 137.407L201.856 137.5L201.865 137.593L202.86 137.5ZM128.14 137.5L129.135 137.593L129.144 137.5L129.135 137.407L128.14 137.5ZM128.14 143.5L129.135 143.593L129.144 143.5L129.135 143.407L128.14 143.5ZM128.14 149.5L129.135 149.593L129.144 149.5L129.135 149.407L128.14 149.5ZM128.14 155.5L129.135 155.593L129.144 155.5L129.135 155.407L128.14 155.5ZM128.14 161.5L129.135 161.593L129.144 161.5L129.135 161.407L128.14 161.5ZM128.14 167.5L129.135 167.593L129.144 167.5L129.135 167.407L128.14 167.5ZM202.86 167.5L201.865 167.407L201.856 167.5L201.865 167.593L202.86 167.5ZM202.86 161.5L201.865 161.407L201.856 161.5L201.865 161.593L202.86 161.5ZM202.86 155.5L201.865 155.407L201.856 155.5L201.865 155.593L202.86 155.5ZM202.86 149.5L201.865 149.407L201.856 149.5L201.865 149.593L202.86 149.5ZM202.86 143.5L201.865 143.407L201.856 143.5L201.865 143.593L202.86 143.5ZM202 134.5C202 135.48 201.954 136.449 201.865 137.407L203.856 137.593C203.951 136.574 204 135.542 204 134.5H202ZM165.5 101C185.739 101 202 116.075 202 134.5H204C204 114.817 186.683 99 165.5 99V101ZM129 134.5C129 116.075 145.261 101 165.5 101V99C144.317 99 127 114.817 127 134.5H129ZM129.135 137.407C129.046 136.449 129 135.48 129 134.5H127C127 135.542 127.049 136.574 127.144 137.593L129.135 137.407ZM127.144 137.407C127.049 138.426 127 139.458 127 140.5H129C129 139.52 129.046 138.551 129.135 137.593L127.144 137.407ZM127 140.5C127 141.542 127.049 142.574 127.144 143.593L129.135 143.407C129.046 142.449 129 141.48 129 140.5H127ZM127.144 143.407C127.049 144.426 127 145.458 127 146.5H129C129 145.52 129.046 144.551 129.135 143.593L127.144 143.407ZM127 146.5C127 147.542 127.049 148.574 127.144 149.593L129.135 149.407C129.046 148.449 129 147.48 129 146.5H127ZM127.144 149.407C127.049 150.426 127 151.458 127 152.5H129C129 151.52 129.046 150.551 129.135 149.593L127.144 149.407ZM127 152.5C127 153.542 127.049 154.574 127.144 155.593L129.135 155.407C129.046 154.449 129 153.48 129 152.5H127ZM127.144 155.407C127.049 156.426 127 157.458 127 158.5H129C129 157.52 129.046 156.551 129.135 155.593L127.144 155.407ZM127 158.5C127 159.542 127.049 160.574 127.144 161.593L129.135 161.407C129.046 160.449 129 159.48 129 158.5H127ZM127.144 161.407C127.049 162.426 127 163.458 127 164.5H129C129 163.52 129.046 162.551 129.135 161.593L127.144 161.407ZM127 164.5C127 165.542 127.049 166.574 127.144 167.593L129.135 167.407C129.046 166.449 129 165.48 129 164.5H127ZM127.144 167.407C127.049 168.426 127 169.458 127 170.5H129C129 169.52 129.046 168.551 129.135 167.593L127.144 167.407ZM127 170.5C127 190.183 144.317 206 165.5 206V204C145.261 204 129 188.925 129 170.5H127ZM165.5 206C186.683 206 204 190.183 204 170.5H202C202 188.925 185.739 204 165.5 204V206ZM204 170.5C204 169.458 203.951 168.426 203.856 167.407L201.865 167.593C201.954 168.551 202 169.52 202 170.5H204ZM203.856 167.593C203.951 166.574 204 165.542 204 164.5H202C202 165.48 201.954 166.449 201.865 167.407L203.856 167.593ZM204 164.5C204 163.458 203.951 162.426 203.856 161.407L201.865 161.593C201.954 162.551 202 163.52 202 164.5H204ZM203.856 161.593C203.951 160.574 204 159.542 204 158.5H202C202 159.48 201.954 160.449 201.865 161.407L203.856 161.593ZM204 158.5C204 157.458 203.951 156.426 203.856 155.407L201.865 155.593C201.954 156.551 202 157.52 202 158.5H204ZM203.856 155.593C203.951 154.574 204 153.542 204 152.5H202C202 153.48 201.954 154.449 201.865 155.407L203.856 155.593ZM204 152.5C204 151.458 203.951 150.426 203.856 149.407L201.865 149.593C201.954 150.551 202 151.52 202 152.5H204ZM203.856 149.593C203.951 148.574 204 147.542 204 146.5H202C202 147.48 201.954 148.449 201.865 149.407L203.856 149.593ZM204 146.5C204 145.458 203.951 144.426 203.856 143.407L201.865 143.593C201.954 144.551 202 145.52 202 146.5H204ZM203.856 143.593C203.951 142.574 204 141.542 204 140.5H202C202 141.48 201.954 142.449 201.865 143.407L203.856 143.593ZM204 140.5C204 139.458 203.951 138.426 203.856 137.407L201.865 137.593C201.954 138.551 202 139.52 202 140.5H204Z" fill="#BED3E2" mask="url(#path-108-inside-1_92_471260)"/>
</mask>
<g mask="url(#mask4_92_471260)">
<path d="M200 108V208" stroke="#E5EBEE"/>
<path d="M198 108V199" stroke="#E5EBEE"/>
<path d="M196 112V196" stroke="#E5EBEE"/>
<path d="M194 119V192" stroke="#E5EBEE" stroke-width="0.5"/>
<path d="M192 126V188" stroke="#E5EBEE" stroke-width="0.5"/>
<path d="M190 129L190 184" stroke="#E5EBEE" stroke-width="0.5"/>
<path d="M182 125L182 165" stroke="#E5EBEE" stroke-width="0.2"/>
<path d="M174 123L174 144" stroke="#E5EBEE"/>
<path d="M188 128L188 179" stroke="#E5EBEE" stroke-width="0.2"/>
<path d="M180 124L180 160" stroke="#E5EBEE"/>
<path d="M172 123L172 144" stroke="#E5EBEE"/>
<path d="M186 129L186 174" stroke="#E5EBEE" stroke-width="0.2"/>
<path d="M178 125L178 155" stroke="#E5EBEE"/>
<path d="M184 129L184 170" stroke="#E5EBEE" stroke-width="0.2"/>
<path d="M176 124L176 149" stroke="#E5EBEE"/>
</g>
<path d="M202.5 128.5C202.5 147.239 185.975 162.5 165.5 162.5C145.025 162.5 128.5 147.239 128.5 128.5C128.5 109.761 145.025 94.5 165.5 94.5C185.975 94.5 202.5 109.761 202.5 128.5Z" fill="#E5EBEE" stroke="#254839"/>
<mask id="mask5_92_471260" style="mask-type:alpha" maskUnits="userSpaceOnUse" x="135" y="100" width="62" height="30">
<path fill-rule="evenodd" clip-rule="evenodd" d="M195.96 130C195.988 129.503 196.002 129.003 196.002 128.5C196.002 112.76 182.347 100 165.502 100C148.657 100 135.002 112.76 135.002 128.5C135.002 129.003 135.016 129.503 135.043 130C135.878 114.957 149.196 103 165.502 103C181.808 103 195.126 114.957 195.96 130Z" fill="#BED3E2"/>
</mask>
<g mask="url(#mask5_92_471260)">
<path d="M135.002 90V190" stroke="#254839"/>
<path d="M165.002 90V190" stroke="#254839" stroke-width="1.5"/>
<path d="M137.002 90V190" stroke="#254839"/>
<path d="M167.002 90V190" stroke="#254839" stroke-width="1.5"/>
<path d="M139.002 90V190" stroke="#254839"/>
<path d="M169.002 90V190" stroke="#254839" stroke-width="1.5"/>
<path d="M141.002 90V190" stroke="#254839"/>
<path d="M171.002 90V190" stroke="#254839" stroke-width="1.5"/>
<path d="M149.002 90V190" stroke="#254839"/>
<path d="M179.002 90V190" stroke="#254839"/>
<path d="M143.002 90V190" stroke="#254839"/>
<path d="M173.002 90V190" stroke="#254839" stroke-width="1.5"/>
<path d="M153.002 90V190" stroke="#254839"/>
<path d="M183.002 90V190" stroke="#254839"/>
<path d="M145.002 90V190" stroke="#254839"/>
<path d="M175.002 90V190" stroke="#254839" stroke-width="1.5"/>
<path d="M147.002 90V190" stroke="#254839"/>
<path d="M177.002 90V190" stroke="#254839"/>
<path d="M151.002 90V190" stroke="#254839"/>
<path d="M181.002 90V190" stroke="#254839"/>
<path d="M155.002 90V190" stroke="#254839"/>
<path d="M185.002 90V190" stroke="#254839"/>
<path d="M157.002 90V190" stroke="#254839" stroke-width="1.5"/>
<path d="M187.002 90V190" stroke="#254839"/>
<path d="M159.002 90V190" stroke="#254839" stroke-width="1.5"/>
<path d="M189.002 90V190" stroke="#254839"/>
<path d="M161.002 90V190" stroke="#254839" stroke-width="1.5"/>
<path d="M191.002 90V190" stroke="#254839"/>
<path d="M163.002 90V190" stroke="#254839" stroke-width="1.5"/>
<path d="M193.002 90V190" stroke="#254839"/>
<path d="M195.002 90V190" stroke="#254839"/>
</g>
<path d="M123.5 170.5C123.5 189.239 106.975 204.5 86.5 204.5C66.0254 204.5 49.5 189.239 49.5 170.5C49.5 151.761 66.0254 136.5 86.5 136.5C106.975 136.5 123.5 151.761 123.5 170.5Z" fill="#254839" stroke="#E5EBEE"/>
<path d="M123.5 164.5C123.5 183.239 106.975 198.5 86.5 198.5C66.0254 198.5 49.5 183.239 49.5 164.5C49.5 145.761 66.0254 130.5 86.5 130.5C106.975 130.5 123.5 145.761 123.5 164.5Z" fill="#254839" stroke="#E5EBEE"/>
<path d="M123.5 158.5C123.5 177.239 106.975 192.5 86.5 192.5C66.0254 192.5 49.5 177.239 49.5 158.5C49.5 139.761 66.0254 124.5 86.5 124.5C106.975 124.5 123.5 139.761 123.5 158.5Z" fill="#254839" stroke="#E5EBEE"/>
<path d="M123.5 152.5C123.5 171.239 106.975 186.5 86.5 186.5C66.0254 186.5 49.5 171.239 49.5 152.5C49.5 133.761 66.0254 118.5 86.5 118.5C106.975 118.5 123.5 133.761 123.5 152.5Z" fill="#254839" stroke="#E5EBEE"/>
<path d="M123.5 146.5C123.5 165.239 106.975 180.5 86.5 180.5C66.0254 180.5 49.5 165.239 49.5 146.5C49.5 127.761 66.0254 112.5 86.5 112.5C106.975 112.5 123.5 127.761 123.5 146.5Z" fill="#254839" stroke="#E5EBEE"/>
<path d="M123.5 140.5C123.5 159.239 106.975 174.5 86.5 174.5C66.0254 174.5 49.5 159.239 49.5 140.5C49.5 121.761 66.0254 106.5 86.5 106.5C106.975 106.5 123.5 121.761 123.5 140.5Z" fill="#254839" stroke="#E5EBEE"/>
<path d="M123.5 134.5C123.5 153.239 106.975 168.5 86.5 168.5C66.0254 168.5 49.5 153.239 49.5 134.5C49.5 115.761 66.0254 100.5 86.5 100.5C106.975 100.5 123.5 115.761 123.5 134.5Z" fill="#254839" stroke="#E5EBEE"/>
<path d="M123.5 128.5C123.5 147.239 106.975 162.5 86.5 162.5C66.0254 162.5 49.5 147.239 49.5 128.5C49.5 109.761 66.0254 94.5 86.5 94.5C106.975 94.5 123.5 109.761 123.5 128.5Z" fill="#254839" stroke="#E5EBEE"/>
<path d="M123.5 122.5C123.5 141.239 106.975 156.5 86.5 156.5C66.0254 156.5 49.5 141.239 49.5 122.5C49.5 103.761 66.0254 88.5 86.5 88.5C106.975 88.5 123.5 103.761 123.5 122.5Z" fill="#254839" stroke="#E5EBEE"/>
<path d="M123.5 116.5C123.5 135.239 106.975 150.5 86.5 150.5C66.0254 150.5 49.5 135.239 49.5 116.5C49.5 97.7608 66.0254 82.5 86.5 82.5C106.975 82.5 123.5 97.7608 123.5 116.5Z" fill="#254839" stroke="#E5EBEE"/>
<path d="M123.5 110.5C123.5 129.239 106.975 144.5 86.5 144.5C66.0254 144.5 49.5 129.239 49.5 110.5C49.5 91.7608 66.0254 76.5 86.5 76.5C106.975 76.5 123.5 91.7608 123.5 110.5Z" fill="#254839" stroke="#E5EBEE"/>
<path d="M123.5 104.5C123.5 123.239 106.975 138.5 86.5 138.5C66.0254 138.5 49.5 123.239 49.5 104.5C49.5 85.7608 66.0254 70.5 86.5 70.5C106.975 70.5 123.5 85.7608 123.5 104.5Z" fill="#254839" stroke="#E5EBEE"/>
<path d="M123.5 98.5C123.5 117.239 106.975 132.5 86.5 132.5C66.0254 132.5 49.5 117.239 49.5 98.5C49.5 79.7608 66.0254 64.5 86.5 64.5C106.975 64.5 123.5 79.7608 123.5 98.5Z" fill="#254839" stroke="#E5EBEE"/>
<path d="M123.5 92.5C123.5 111.239 106.975 126.5 86.5 126.5C66.0254 126.5 49.5 111.239 49.5 92.5C49.5 73.7608 66.0254 58.5 86.5 58.5C106.975 58.5 123.5 73.7608 123.5 92.5Z" fill="#254839" stroke="#E5EBEE"/>
<path d="M53 94V185" stroke="#E5EBEE"/>
<path d="M55 91V182" stroke="#E5EBEE"/>
<path d="M57 95V179" stroke="#E5EBEE"/>
<path d="M59 102V175" stroke="#E5EBEE"/>
<path d="M61 109V171" stroke="#E5EBEE"/>
<path d="M63 112L63 167" stroke="#E5EBEE"/>
<path d="M71 108L71 148" stroke="#E5EBEE" stroke-width="0.5"/>
<path d="M79 106L79 127" stroke="#E5EBEE" stroke-width="0.2"/>
<path d="M65 111L65 162" stroke="#E5EBEE" stroke-width="0.5"/>
<path d="M73 107L73 143" stroke="#E5EBEE" stroke-width="0.2"/>
<path d="M81 106L81 127" stroke="#E5EBEE" stroke-width="0.2"/>
<path d="M67 112L67 157" stroke="#E5EBEE" stroke-width="0.5"/>
<path d="M75 108L75 138" stroke="#E5EBEE" stroke-width="0.2"/>
<path d="M69 112L69 153" stroke="#E5EBEE" stroke-width="0.5"/>
<path d="M77 107L77 132" stroke="#E5EBEE" stroke-width="0.2"/>
<path d="M123.5 87.5C123.5 106.239 106.975 121.5 86.5 121.5C66.0254 121.5 49.5 106.239 49.5 87.5C49.5 68.7608 66.0254 53.5 86.5 53.5C106.975 53.5 123.5 68.7608 123.5 87.5Z" fill="#E5EBEE" stroke="#254839"/>
<mask id="mask6_92_471260" style="mask-type:alpha" maskUnits="userSpaceOnUse" x="49" y="53" width="75" height="69">
<path d="M123.5 87.5C123.5 106.239 106.975 121.5 86.5 121.5C66.0254 121.5 49.5 106.239 49.5 87.5C49.5 68.7608 66.0254 53.5 86.5 53.5C106.975 53.5 123.5 68.7608 123.5 87.5Z" fill="#BED3E2" stroke="#254839"/>
</mask>
<g mask="url(#mask6_92_471260)">
<g opacity="0.5">
<path d="M137 56L37 56" stroke="#254839"/>
<path d="M137 86L37 86" stroke="#254839"/>
<path d="M137 116L37 116" stroke="#254839"/>
<path d="M137 58L37 58" stroke="#254839"/>
<path d="M137 88L37 88" stroke="#254839"/>
<path d="M137 118L37 118" stroke="#254839"/>
<path d="M137 60L37 60" stroke="#254839"/>
<path d="M137 90L37 90" stroke="#254839"/>
<path d="M137 120L37 120" stroke="#254839"/>
<path d="M137 62L37 62" stroke="#254839"/>
<path d="M137 92L37 92" stroke="#254839"/>
<path d="M137 122L37 122" stroke="#254839"/>
<path d="M137 70L37 70" stroke="#254839"/>
<path d="M137 100L37 100" stroke="#254839"/>
<path d="M137 64L37 64" stroke="#254839"/>
<path d="M137 94L37 94" stroke="#254839"/>
<path d="M137 74L37 74" stroke="#254839"/>
<path d="M137 104L37 104" stroke="#254839"/>
<path d="M137 66L37 66" stroke="#254839"/>
<path d="M137 96L37 96" stroke="#254839"/>
<path d="M137 68L37 68" stroke="#254839"/>
<path d="M137 98L37 98" stroke="#254839"/>
<path d="M137 72L37 72" stroke="#254839"/>
<path d="M137 102L37 102" stroke="#254839"/>
<path d="M137 76L37 76" stroke="#254839"/>
<path d="M137 106L37 106" stroke="#254839"/>
<path d="M137 78L37 78" stroke="#254839"/>
<path d="M137 108L37 108" stroke="#254839"/>
<path d="M137 80L37 80" stroke="#254839"/>
<path d="M137 110L37 110" stroke="#254839"/>
<path d="M137 82L37 82" stroke="#254839"/>
<path d="M137 112L37 112" stroke="#254839"/>
<path d="M137 84L37 84" stroke="#254839"/>
<path d="M137 114L37 114" stroke="#254839"/>
</g>
</g>
<path d="M123.5 87.5C123.5 106.239 106.975 121.5 86.5 121.5C66.0254 121.5 49.5 106.239 49.5 87.5C49.5 68.7608 66.0254 53.5 86.5 53.5C106.975 53.5 123.5 68.7608 123.5 87.5Z" stroke="#254839"/>
<mask id="mask7_92_471260" style="mask-type:alpha" maskUnits="userSpaceOnUse" x="56" y="59" width="62" height="30">
<path fill-rule="evenodd" clip-rule="evenodd" d="M116.96 89C116.988 88.5033 117.002 88.0032 117.002 87.5C117.002 71.7599 103.347 59 86.502 59C69.6573 59 56.002 71.7599 56.002 87.5C56.002 88.0032 56.0159 88.5033 56.0435 89C56.8782 73.9572 70.1957 62 86.502 62C102.808 62 116.126 73.9572 116.96 89Z" fill="#BED3E2"/>
</mask>
<g mask="url(#mask7_92_471260)">
<path d="M56.002 49V149" stroke="#254839"/>
<path d="M86.002 49V149" stroke="#254839"/>
<path d="M58.002 49V149" stroke="#254839"/>
<path d="M88.002 49V149" stroke="#254839"/>
<path d="M60.002 49V149" stroke="#254839"/>
<path d="M90.002 49V149" stroke="#254839"/>
<path d="M62.002 49V149" stroke="#254839"/>
<path d="M92.002 49V149" stroke="#254839"/>
<path d="M70.002 49V149" stroke="#254839"/>
<path d="M100.002 49V149" stroke="#254839"/>
<path d="M64.002 49V149" stroke="#254839"/>
<path d="M94.002 49V149" stroke="#254839"/>
<path d="M74.002 49V149" stroke="#254839"/>
<path d="M104.002 49V149" stroke="#254839"/>
<path d="M66.002 49V149" stroke="#254839"/>
<path d="M96.002 49V149" stroke="#254839"/>
<path d="M68.002 49V149" stroke="#254839"/>
<path d="M98.002 49V149" stroke="#254839"/>
<path d="M72.002 49V149" stroke="#254839"/>
<path d="M102.002 49V149" stroke="#254839"/>
<path d="M76.002 49V149" stroke="#254839"/>
<path d="M106.002 49V149" stroke="#254839"/>
<path d="M78.002 49V149" stroke="#254839"/>
<path d="M108.002 49V149" stroke="#254839"/>
<path d="M80.002 49V149" stroke="#254839"/>
<path d="M110.002 49V149" stroke="#254839"/>
<path d="M82.002 49V149" stroke="#254839"/>
<path d="M112.002 49V149" stroke="#254839"/>
<path d="M84.002 49V149" stroke="#254839"/>
<path d="M114.002 49V149" stroke="#254839"/>
</g>
<path d="M49.5 65.5C49.5 84.2393 66.0254 99.5 86.5 99.5C106.975 99.5 123.5 84.2393 123.5 65.5C123.5 46.7608 106.975 31.5 86.5 31.5C66.0254 31.5 49.5 46.7608 49.5 65.5Z" fill="#254839" stroke="#E5EBEE"/>
<mask id="mask8_92_471260" style="mask-type:alpha" maskUnits="userSpaceOnUse" x="49" y="31" width="75" height="69">
<path d="M49.5 65.5C49.5 84.2393 66.0254 99.5 86.5 99.5C106.975 99.5 123.5 84.2393 123.5 65.5C123.5 46.7608 106.975 31.5 86.5 31.5C66.0254 31.5 49.5 46.7608 49.5 65.5Z" fill="#7B8A9C" stroke="#BED3E2"/>
</mask>
<g mask="url(#mask8_92_471260)">
<path d="M52 56V156" stroke="#E5EBEE"/>
<path d="M54 56V147" stroke="#E5EBEE"/>
<path d="M56 60V144" stroke="#E5EBEE"/>
<path d="M58 67V140" stroke="#E5EBEE"/>
<path d="M60 74V136" stroke="#E5EBEE"/>
<path d="M62 77L62 132" stroke="#E5EBEE"/>
<path d="M70 73L70 113" stroke="#E5EBEE" stroke-width="0.5"/>
<path d="M78 71L78 92" stroke="#E5EBEE"/>
<path d="M64 76L64 127" stroke="#E5EBEE" stroke-width="0.5"/>
<path d="M72 72L72 108" stroke="#E5EBEE" stroke-width="0.2"/>
<path d="M80 71L80 92" stroke="#E5EBEE"/>
<path d="M66 77L66 122" stroke="#E5EBEE" stroke-width="0.5"/>
<path d="M74 73L74 103" stroke="#E5EBEE" stroke-width="0.2"/>
<path d="M68 77L68 118" stroke="#E5EBEE" stroke-width="0.5"/>
<path d="M76 73L76 98" stroke="#E5EBEE" stroke-width="0.2"/>
</g>
<path d="M49.5 59.5C49.5 78.2393 66.0254 93.5 86.5 93.5C106.975 93.5 123.5 78.2393 123.5 59.5C123.5 40.7608 106.975 25.5 86.5 25.5C66.0254 25.5 49.5 40.7608 49.5 59.5Z" fill="#E5EBEE" stroke="#254839"/>
<mask id="mask9_92_471260" style="mask-type:alpha" maskUnits="userSpaceOnUse" x="56" y="31" width="61" height="30">
<path fill-rule="evenodd" clip-rule="evenodd" d="M56.0415 61C56.014 60.5033 56 60.0032 56 59.5C56 43.7599 69.6553 31 86.5 31C103.345 31 117 43.7599 117 59.5C117 60.0032 116.986 60.5033 116.958 61C116.124 45.9572 102.806 34 86.5 34C70.1938 34 56.8763 45.9572 56.0415 61Z" fill="#BED3E2"/>
</mask>
<g mask="url(#mask9_92_471260)">
<path d="M117 21V121" stroke="#254839"/>
<path d="M87 21V121" stroke="#254839" stroke-width="1.5"/>
<path d="M115 21V121" stroke="#254839"/>
<path d="M85 21V121" stroke="#254839" stroke-width="1.5"/>
<path d="M113 21V121" stroke="#254839"/>
<path d="M83 21V121" stroke="#254839" stroke-width="1.5"/>
<path d="M111 21V121" stroke="#254839"/>
<path d="M81 21V121" stroke="#254839" stroke-width="1.5"/>
<path d="M103 21V121" stroke="#254839"/>
<path d="M73 21V121" stroke="#254839"/>
<path d="M109 21V121" stroke="#254839"/>
<path d="M79 21V121" stroke="#254839" stroke-width="1.5"/>
<path d="M99 21V121" stroke="#254839"/>
<path d="M69 21V121" stroke="#254839"/>
<path d="M107 21V121" stroke="#254839"/>
<path d="M77 21V121" stroke="#254839"/>
<path d="M105 21V121" stroke="#254839"/>
<path d="M75 21V121" stroke="#254839"/>
<path d="M101 21V121" stroke="#254839"/>
<path d="M71 21V121" stroke="#254839"/>
<path d="M97 21V121" stroke="#254839"/>
<path d="M67 21V121" stroke="#254839"/>
<path d="M95 21V121" stroke="#254839" stroke-width="1.5"/>
<path d="M65 21V121" stroke="#254839"/>
<path d="M93 21V121" stroke="#254839" stroke-width="1.5"/>
<path d="M63 21V121" stroke="#254839"/>
<path d="M91 21V121" stroke="#254839" stroke-width="1.5"/>
<path d="M61 21V121" stroke="#254839"/>
<path d="M89 21V121" stroke="#254839" stroke-width="1.5"/>
<path d="M59 21V121" stroke="#254839"/>
<path d="M57 22V122" stroke="#254839"/>
</g>
<mask id="mask10_92_471260" style="mask-type:alpha" maskUnits="userSpaceOnUse" x="87" y="159" width="76" height="81">
<mask id="path-305-inside-2_92_471260" fill="white">
<path fill-rule="evenodd" clip-rule="evenodd" d="M161.862 196.5C161.955 195.511 162.002 194.511 162.002 193.5C162.002 174.446 145.213 159 124.502 159C103.791 159 87.002 174.446 87.002 193.5C87.002 194.511 87.0492 195.511 87.1418 196.5C87.0492 197.489 87.002 198.489 87.002 199.5C87.002 200.511 87.0492 201.511 87.1418 202.5C87.0492 203.489 87.002 204.489 87.002 205.5C87.002 224.554 103.791 240 124.502 240C145.213 240 162.002 224.554 162.002 205.5C162.002 204.489 161.955 203.489 161.862 202.5C161.955 201.511 162.002 200.511 162.002 199.5C162.002 198.489 161.955 197.489 161.862 196.5Z"/>
</mask>
<path fill-rule="evenodd" clip-rule="evenodd" d="M161.862 196.5C161.955 195.511 162.002 194.511 162.002 193.5C162.002 174.446 145.213 159 124.502 159C103.791 159 87.002 174.446 87.002 193.5C87.002 194.511 87.0492 195.511 87.1418 196.5C87.0492 197.489 87.002 198.489 87.002 199.5C87.002 200.511 87.0492 201.511 87.1418 202.5C87.0492 203.489 87.002 204.489 87.002 205.5C87.002 224.554 103.791 240 124.502 240C145.213 240 162.002 224.554 162.002 205.5C162.002 204.489 161.955 203.489 161.862 202.5C161.955 201.511 162.002 200.511 162.002 199.5C162.002 198.489 161.955 197.489 161.862 196.5Z" fill="#254839"/>
<path d="M161.862 196.5L160.866 196.407L160.858 196.5L160.866 196.593L161.862 196.5ZM87.1418 196.5L88.1374 196.593L88.1461 196.5L88.1374 196.407L87.1418 196.5ZM87.1418 202.5L88.1374 202.593L88.1461 202.5L88.1374 202.407L87.1418 202.5ZM161.862 202.5L160.866 202.407L160.858 202.5L160.866 202.593L161.862 202.5ZM161.002 193.5C161.002 194.48 160.956 195.449 160.866 196.407L162.858 196.593C162.953 195.574 163.002 194.542 163.002 193.5H161.002ZM124.502 160C144.74 160 161.002 175.075 161.002 193.5H163.002C163.002 173.817 145.685 158 124.502 158V160ZM88.002 193.5C88.002 175.075 104.263 160 124.502 160V158C103.319 158 86.002 173.817 86.002 193.5H88.002ZM88.1374 196.407C88.0477 195.449 88.002 194.48 88.002 193.5H86.002C86.002 194.542 86.0507 195.574 86.1461 196.593L88.1374 196.407ZM86.1461 196.407C86.0507 197.426 86.002 198.458 86.002 199.5H88.002C88.002 198.52 88.0477 197.551 88.1374 196.593L86.1461 196.407ZM86.002 199.5C86.002 200.542 86.0507 201.574 86.1461 202.593L88.1374 202.407C88.0477 201.449 88.002 200.48 88.002 199.5H86.002ZM86.1461 202.407C86.0507 203.426 86.002 204.458 86.002 205.5H88.002C88.002 204.52 88.0477 203.551 88.1374 202.593L86.1461 202.407ZM86.002 205.5C86.002 225.183 103.319 241 124.502 241V239C104.263 239 88.002 223.925 88.002 205.5H86.002ZM124.502 241C145.685 241 163.002 225.183 163.002 205.5H161.002C161.002 223.925 144.74 239 124.502 239V241ZM163.002 205.5C163.002 204.458 162.953 203.426 162.858 202.407L160.866 202.593C160.956 203.551 161.002 204.52 161.002 205.5H163.002ZM162.858 202.593C162.953 201.574 163.002 200.542 163.002 199.5H161.002C161.002 200.48 160.956 201.449 160.866 202.407L162.858 202.593ZM163.002 199.5C163.002 198.458 162.953 197.426 162.858 196.407L160.866 196.593C160.956 197.551 161.002 198.52 161.002 199.5H163.002Z" fill="#BED3E2" mask="url(#path-305-inside-2_92_471260)"/>
</mask>
<g mask="url(#mask10_92_471260)">
<path d="M161.502 205.5C161.502 224.239 144.977 239.5 124.502 239.5C104.027 239.5 87.502 224.239 87.502 205.5C87.502 186.761 104.027 171.5 124.502 171.5C144.977 171.5 161.502 186.761 161.502 205.5Z" fill="#254839" stroke="#E5EBEE"/>
<path d="M161.502 199.5C161.502 218.239 144.977 233.5 124.502 233.5C104.027 233.5 87.502 218.239 87.502 199.5C87.502 180.761 104.027 165.5 124.502 165.5C144.977 165.5 161.502 180.761 161.502 199.5Z" fill="#254839" stroke="#E5EBEE"/>
<path d="M161.502 193.5C161.502 212.239 144.977 227.5 124.502 227.5C104.027 227.5 87.502 212.239 87.502 193.5C87.502 174.761 104.027 159.5 124.502 159.5C144.977 159.5 161.502 174.761 161.502 193.5Z" fill="#254839" stroke="#E5EBEE"/>
<path d="M159.002 184V284" stroke="#E5EBEE"/>
<path d="M157.002 184V275" stroke="#E5EBEE"/>
<path d="M155.002 188V272" stroke="#E5EBEE"/>
<path d="M153.002 195V268" stroke="#E5EBEE"/>
<path d="M151.002 202V264" stroke="#E5EBEE"/>
<path d="M149.002 205L149.002 260" stroke="#E5EBEE" stroke-width="0.5"/>
<path d="M141.002 201L141.002 241" stroke="#E5EBEE" stroke-width="0.2"/>
<path d="M133.002 199L133.002 220" stroke="#E5EBEE"/>
<path d="M147.002 204L147.002 255" stroke="#E5EBEE" stroke-width="0.5"/>
<path d="M139.002 200L139.002 236" stroke="#E5EBEE" stroke-width="0.2"/>
<path d="M131.002 199L131.002 220" stroke="#E5EBEE"/>
<path d="M145.002 205L145.002 250" stroke="#E5EBEE" stroke-width="0.5"/>
<path d="M137.002 201L137.002 231" stroke="#E5EBEE" stroke-width="0.2"/>
<path d="M143.002 205L143.002 246" stroke="#E5EBEE" stroke-width="0.5"/>
<path d="M135.002 201L135.002 226" stroke="#E5EBEE" stroke-width="0.2"/>
<path d="M90.002 184V284" stroke="#E5EBEE"/>
<path d="M92.002 184V275" stroke="#E5EBEE"/>
<path d="M94.002 188V272" stroke="#E5EBEE"/>
<path d="M96.002 195V268" stroke="#E5EBEE"/>
<path d="M98.002 202V264" stroke="#E5EBEE"/>
<path d="M100.002 205L100.002 260" stroke="#E5EBEE" stroke-width="0.5"/>
<path d="M108.002 201L108.002 241" stroke="#E5EBEE" stroke-width="0.2"/>
<path d="M116.002 199L116.002 220" stroke="#E5EBEE"/>
<path d="M102.002 204L102.002 255" stroke="#E5EBEE" stroke-width="0.5"/>
<path d="M110.002 200L110.002 236" stroke="#E5EBEE" stroke-width="0.2"/>
<path d="M118.002 199L118.002 220" stroke="#E5EBEE"/>
<path d="M104.002 205L104.002 250" stroke="#E5EBEE" stroke-width="0.5"/>
<path d="M112.002 201L112.002 231" stroke="#E5EBEE" stroke-width="0.2"/>
<path d="M106.002 205L106.002 246" stroke="#E5EBEE" stroke-width="0.5"/>
<path d="M114.002 201L114.002 226" stroke="#E5EBEE" stroke-width="0.2"/>
</g>
<path d="M161.5 187.5C161.5 206.239 144.975 221.5 124.5 221.5C104.025 221.5 87.5 206.239 87.5 187.5C87.5 168.761 104.025 153.5 124.5 153.5C144.975 153.5 161.5 168.761 161.5 187.5Z" fill="#E5EBEE" stroke="#254839"/>
<mask id="mask11_92_471260" style="mask-type:alpha" maskUnits="userSpaceOnUse" x="87" y="153" width="75" height="69">
<path d="M161.5 187.5C161.5 206.239 144.975 221.5 124.5 221.5C104.025 221.5 87.5 206.239 87.5 187.5C87.5 168.761 104.025 153.5 124.5 153.5C144.975 153.5 161.5 168.761 161.5 187.5Z" fill="#BED3E2" stroke="#254839"/>
</mask>
<g mask="url(#mask11_92_471260)">
<g opacity="0.5">
<path d="M175 156L75 156" stroke="#254839"/>
<path d="M175 186L75 186" stroke="#254839"/>
<path d="M175 216L75 216" stroke="#254839"/>
<path d="M175 158L75 158" stroke="#254839"/>
<path d="M175 188L75 188" stroke="#254839"/>
<path d="M175 218L75 218" stroke="#254839"/>
<path d="M175 160L75 160" stroke="#254839"/>
<path d="M175 190L75 190" stroke="#254839"/>
<path d="M175 220L75 220" stroke="#254839"/>
<path d="M175 162L75 162" stroke="#254839"/>
<path d="M175 192L75 192" stroke="#254839"/>
<path d="M175 222L75 222" stroke="#254839"/>
<path d="M175 170L75 170" stroke="#254839"/>
<path d="M175 200L75 200" stroke="#254839"/>
<path d="M175 164L75 164" stroke="#254839"/>
<path d="M175 194L75 194" stroke="#254839"/>
<path d="M175 174L75 174" stroke="#254839"/>
<path d="M175 204L75 204" stroke="#254839"/>
<path d="M175 166L75 166" stroke="#254839"/>
<path d="M175 196L75 196" stroke="#254839"/>
<path d="M175 168L75 168" stroke="#254839"/>
<path d="M175 198L75 198" stroke="#254839"/>
<path d="M175 172L75 172" stroke="#254839"/>
<path d="M175 202L75 202" stroke="#254839"/>
<path d="M175 176L75 176" stroke="#254839"/>
<path d="M175 206L75 206" stroke="#254839"/>
<path d="M175 178L75 178" stroke="#254839"/>
<path d="M175 208L75 208" stroke="#254839"/>
<path d="M175 180L75 180" stroke="#254839"/>
<path d="M175 210L75 210" stroke="#254839"/>
<path d="M175 182L75 182" stroke="#254839"/>
<path d="M175 212L75 212" stroke="#254839"/>
<path d="M175 184L75 184" stroke="#254839"/>
<path d="M175 214L75 214" stroke="#254839"/>
</g>
</g>
<mask id="mask12_92_471260" style="mask-type:alpha" maskUnits="userSpaceOnUse" x="94" y="159" width="62" height="30">
<path fill-rule="evenodd" clip-rule="evenodd" d="M154.96 189C154.988 188.503 155.002 188.003 155.002 187.5C155.002 171.76 141.347 159 124.502 159C107.657 159 94.002 171.76 94.002 187.5C94.002 188.003 94.0159 188.503 94.0435 189C94.8782 173.957 108.196 162 124.502 162C140.808 162 154.126 173.957 154.96 189Z" fill="#BED3E2"/>
</mask>
<g mask="url(#mask12_92_471260)">
<path d="M94.002 149V249" stroke="#254839"/>
<path d="M124.002 149V249" stroke="#254839"/>
<path d="M96.002 149V249" stroke="#254839"/>
<path d="M126.002 149V249" stroke="#254839"/>
<path d="M98.002 149V249" stroke="#254839"/>
<path d="M128.002 149V249" stroke="#254839"/>
<path d="M100.002 149V249" stroke="#254839"/>
<path d="M130.002 149V249" stroke="#254839"/>
<path d="M108.002 149V249" stroke="#254839"/>
<path d="M138.002 149V249" stroke="#254839"/>
<path d="M102.002 149V249" stroke="#254839"/>
<path d="M132.002 149V249" stroke="#254839"/>
<path d="M112.002 149V249" stroke="#254839"/>
<path d="M142.002 149V249" stroke="#254839"/>
<path d="M104.002 149V249" stroke="#254839"/>
<path d="M134.002 149V249" stroke="#254839"/>
<path d="M106.002 149V249" stroke="#254839"/>
<path d="M136.002 149V249" stroke="#254839"/>
<path d="M110.002 149V249" stroke="#254839"/>
<path d="M140.002 149V249" stroke="#254839"/>
<path d="M114.002 149V249" stroke="#254839"/>
<path d="M144.002 149V249" stroke="#254839"/>
<path d="M116.002 149V249" stroke="#254839"/>
<path d="M146.002 149V249" stroke="#254839"/>
<path d="M118.002 149V249" stroke="#254839"/>
<path d="M148.002 149V249" stroke="#254839"/>
<path d="M120.002 149V249" stroke="#254839"/>
<path d="M150.002 149V249" stroke="#254839"/>
<path d="M122.002 149V249" stroke="#254839"/>
<path d="M152.002 149V249" stroke="#254839"/>
</g>
<path d="M161.5 169.5C161.5 188.239 144.975 203.5 124.5 203.5C104.025 203.5 87.5 188.239 87.5 169.5C87.5 150.761 104.025 135.5 124.5 135.5C144.975 135.5 161.5 150.761 161.5 169.5Z" fill="#254839" stroke="#E5EBEE"/>
<mask id="mask13_92_471260" style="mask-type:alpha" maskUnits="userSpaceOnUse" x="87" y="135" width="75" height="69">
<path d="M161.5 169.5C161.5 188.239 144.975 203.5 124.5 203.5C104.025 203.5 87.5 188.239 87.5 169.5C87.5 150.761 104.025 135.5 124.5 135.5C144.975 135.5 161.5 150.761 161.5 169.5Z" fill="#7B8A9C" stroke="#BED3E2"/>
</mask>
<g mask="url(#mask13_92_471260)">
<path d="M159 160V260" stroke="#E5EBEE"/>
<path d="M157 160V251" stroke="#E5EBEE"/>
<path d="M155 164V248" stroke="#E5EBEE"/>
<path d="M153 171V244" stroke="#E5EBEE"/>
<path d="M151 178V240" stroke="#E5EBEE"/>
<path d="M149 181L149 236" stroke="#E5EBEE" stroke-width="0.5"/>
<path d="M141 177L141 217" stroke="#E5EBEE" stroke-width="0.2"/>
<path d="M133 175L133 196" stroke="#E5EBEE"/>
<path d="M147 180L147 231" stroke="#E5EBEE" stroke-width="0.5"/>
<path d="M139 176L139 212" stroke="#E5EBEE" stroke-width="0.2"/>
<path d="M131 175L131 196" stroke="#E5EBEE"/>
<path d="M145 181L145 226" stroke="#E5EBEE" stroke-width="0.5"/>
<path d="M137 177L137 207" stroke="#E5EBEE" stroke-width="0.2"/>
<path d="M143 181L143 222" stroke="#E5EBEE" stroke-width="0.5"/>
<path d="M135 177L135 202" stroke="#E5EBEE" stroke-width="0.2"/>
<path d="M90 160V260" stroke="#E5EBEE"/>
<path d="M92 160V251" stroke="#E5EBEE"/>
<path d="M94 164V248" stroke="#E5EBEE"/>
<path d="M96 171V244" stroke="#E5EBEE"/>
<path d="M98 178V240" stroke="#E5EBEE"/>
<path d="M100 181L100 236" stroke="#E5EBEE" stroke-width="0.5"/>
<path d="M108 177L108 217" stroke="#E5EBEE" stroke-width="0.2"/>
<path d="M116 175L116 196" stroke="#E5EBEE"/>
<path d="M102 180L102 231" stroke="#E5EBEE" stroke-width="0.5"/>
<path d="M110 176L110 212" stroke="#E5EBEE" stroke-width="0.2"/>
<path d="M118 175L118 196" stroke="#E5EBEE"/>
<path d="M104 181L104 226" stroke="#E5EBEE" stroke-width="0.5"/>
<path d="M112 177L112 207" stroke="#E5EBEE" stroke-width="0.2"/>
<path d="M106 181L106 222" stroke="#E5EBEE" stroke-width="0.5"/>
<path d="M114 177L114 202" stroke="#E5EBEE" stroke-width="0.2"/>
</g>
<path d="M161.5 163.5C161.5 182.239 144.975 197.5 124.5 197.5C104.025 197.5 87.5 182.239 87.5 163.5C87.5 144.761 104.025 129.5 124.5 129.5C144.975 129.5 161.5 144.761 161.5 163.5Z" fill="#E5EBEE" stroke="#254839"/>
<mask id="mask14_92_471260" style="mask-type:alpha" maskUnits="userSpaceOnUse" x="94" y="135" width="62" height="30">
<path fill-rule="evenodd" clip-rule="evenodd" d="M154.96 165C154.988 164.503 155.002 164.003 155.002 163.5C155.002 147.76 141.347 135 124.502 135C107.657 135 94.002 147.76 94.002 163.5C94.002 164.003 94.0159 164.503 94.0435 165C94.8782 149.957 108.196 138 124.502 138C140.808 138 154.126 149.957 154.96 165Z" fill="#BED3E2"/>
</mask>
<g mask="url(#mask14_92_471260)">
<path d="M94.002 125V225" stroke="#254839"/>
<path d="M124.002 125V225" stroke="#254839" stroke-width="1.5"/>
<path d="M96.002 125V225" stroke="#254839"/>
<path d="M126.002 125V225" stroke="#254839" stroke-width="1.5"/>
<path d="M98.002 125V225" stroke="#254839"/>
<path d="M128.002 125V225" stroke="#254839" stroke-width="1.5"/>
<path d="M100.002 125V225" stroke="#254839"/>
<path d="M130.002 125V225" stroke="#254839" stroke-width="1.5"/>
<path d="M108.002 125V225" stroke="#254839"/>
<path d="M138.002 125V225" stroke="#254839"/>
<path d="M102.002 125V225" stroke="#254839"/>
<path d="M132.002 125V225" stroke="#254839" stroke-width="1.5"/>
<path d="M112.002 125V225" stroke="#254839"/>
<path d="M142.002 125V225" stroke="#254839"/>
<path d="M104.002 125V225" stroke="#254839"/>
<path d="M134.002 125V225" stroke="#254839"/>
<path d="M106.002 125V225" stroke="#254839"/>
<path d="M136.002 125V225" stroke="#254839"/>
<path d="M110.002 125V225" stroke="#254839"/>
<path d="M140.002 125V225" stroke="#254839"/>
<path d="M114.002 125V225" stroke="#254839"/>
<path d="M144.002 125V225" stroke="#254839"/>
<path d="M116.002 125V225" stroke="#254839" stroke-width="1.5"/>
<path d="M146.002 125V225" stroke="#254839"/>
<path d="M118.002 125V225" stroke="#254839" stroke-width="1.5"/>
<path d="M148.002 125V225" stroke="#254839"/>
<path d="M120.002 125V225" stroke="#254839" stroke-width="1.5"/>
<path d="M150.002 125V225" stroke="#254839"/>
<path d="M122.002 125V225" stroke="#254839" stroke-width="1.5"/>
<path d="M152.002 125V225" stroke="#254839"/>
<path d="M154.002 126V226" stroke="#254839"/>
</g>
<path d="M148.841 56.6119C145.775 56.6119 143.05 55.9873 140.665 54.7382C138.28 53.4323 136.407 51.6721 135.044 49.4577C133.681 47.1865 133 44.6314 133 41.7925C133 38.9535 133.681 36.4268 135.044 34.2124C136.407 31.9412 138.28 30.1811 140.665 28.9319C143.05 27.626 145.775 26.973 148.841 26.973C151.964 26.973 154.69 27.626 157.018 28.9319C159.402 30.1811 161.276 31.9128 162.639 34.1272C164.002 36.3416 164.683 38.8967 164.683 41.7925C164.683 44.6314 164.002 47.1865 162.639 49.4577C161.276 51.6721 159.402 53.4323 157.018 54.7382C154.69 55.9873 151.964 56.6119 148.841 56.6119ZM148.841 52.9496C149.409 52.9496 149.864 52.6941 150.204 52.1831C150.602 51.6153 150.914 50.5365 151.141 48.9467C151.368 47.3001 151.482 44.9153 151.482 41.7925C151.482 38.6128 151.368 36.2565 151.141 34.7234C150.914 33.1336 150.602 32.0832 150.204 31.5722C149.864 31.0611 149.409 30.8056 148.841 30.8056C148.33 30.8056 147.876 31.0611 147.479 31.5722C147.081 32.0832 146.769 33.1336 146.542 34.7234C146.315 36.2565 146.201 38.6128 146.201 41.7925C146.201 44.9153 146.315 47.3001 146.542 48.9467C146.769 50.5365 147.081 51.6153 147.479 52.1831C147.876 52.6941 148.33 52.9496 148.841 52.9496ZM179.758 89.1466C176.692 89.1466 173.966 88.522 171.582 87.2729C169.197 85.967 167.323 84.2068 165.961 81.9924C164.598 79.7212 163.916 77.1661 163.916 74.3272C163.916 71.4882 164.598 68.9615 165.961 66.7471C167.323 64.4759 169.197 62.7157 171.582 61.4666C173.966 60.1606 176.692 59.5077 179.758 59.5077C182.881 59.5077 185.606 60.1606 187.934 61.4666C190.319 62.7157 192.193 64.4475 193.555 66.6619C194.918 68.8763 195.599 71.4314 195.599 74.3272C195.599 77.1661 194.918 79.7212 193.555 81.9924C192.193 84.2068 190.319 85.967 187.934 87.2729C185.606 88.522 182.881 89.1466 179.758 89.1466ZM136.236 88.2949L136.258 85.3227L185.549 27.8247L192.278 24.8857V27.8247L142.965 88.2949H136.236ZM179.758 85.4843C180.326 85.4843 180.78 85.2288 181.121 84.7178C181.518 84.15 181.83 83.0712 182.058 81.4814C182.285 79.8348 182.398 77.45 182.398 74.3272C182.398 71.1475 182.285 68.7911 182.058 67.2581C181.83 65.6683 181.518 64.6178 181.121 64.1068C180.78 63.5958 180.326 63.3403 179.758 63.3403C179.247 63.3403 178.793 63.5958 178.395 64.1068C177.998 64.6178 177.685 65.6683 177.458 67.2581C177.231 68.7911 177.118 71.1475 177.118 74.3272C177.118 77.45 177.231 79.8348 177.458 81.4814C177.685 83.0712 177.998 84.15 178.395 84.7178C178.793 85.2288 179.247 85.4843 179.758 85.4843Z" fill="#254839"/>
<path d="M135.47 31.5014L135.47 31.5015L135.473 31.4966C136.787 29.3056 138.592 27.6091 140.897 26.4018L140.897 26.4019L140.905 26.3974C143.208 25.1368 145.848 24.5 148.841 24.5C151.893 24.5 154.532 25.1376 156.773 26.395L156.779 26.3985L156.786 26.4018C159.094 27.6108 160.899 29.2813 162.213 31.4163C163.522 33.5431 164.183 36.0054 164.183 38.8195C164.183 41.5736 163.523 44.0378 162.212 46.2251C160.897 48.3604 159.09 50.06 156.78 51.3256C154.537 52.5286 151.896 53.1389 148.841 53.1389C145.847 53.1389 143.204 52.5297 140.901 51.3245C138.592 50.059 136.786 48.3597 135.471 46.225C134.16 44.0378 133.5 41.5736 133.5 38.8195C133.5 36.0642 134.16 33.6299 135.47 31.5014ZM151.636 46.0444L151.636 46.042L151.141 31.7504L151.636 31.6797C151.636 31.6792 151.636 31.6787 151.636 31.6782C151.52 30.8697 151.381 30.1842 151.216 29.6277C151.055 29.0866 150.859 28.6331 150.61 28.3069C150.186 27.6797 149.586 27.3326 148.841 27.3326C148.136 27.3326 147.549 27.695 147.084 28.2922C146.83 28.6193 146.631 29.0784 146.467 29.6277C146.302 30.1843 146.163 30.8699 146.047 31.6786C145.814 33.2498 145.701 35.6361 145.701 38.8195C145.701 41.9491 145.815 44.361 146.047 46.042L146.047 46.0444C146.274 47.6352 146.597 48.8222 147.069 49.4968L147.076 49.5072L147.084 49.5171C147.549 50.1142 148.136 50.4766 148.841 50.4766C149.59 50.4766 150.193 50.1258 150.617 49.4921C151.088 48.8167 151.409 47.6315 151.636 46.0444ZM166.386 64.0361L166.386 64.0361L166.389 64.0313C167.704 61.8403 169.509 60.1437 171.814 58.9365L171.814 58.9366L171.822 58.9321C174.124 57.6714 176.765 57.0347 179.758 57.0347C182.81 57.0347 185.448 57.6723 187.69 58.9296L187.696 58.9331L187.702 58.9365C190.01 60.1454 191.816 61.816 193.13 63.9509C194.438 66.0778 195.099 68.5401 195.099 71.3541C195.099 74.1081 194.44 76.5723 193.128 78.7595C191.814 80.895 190.006 82.5948 187.696 83.8604C185.453 85.0633 182.812 85.6736 179.758 85.6736C176.763 85.6736 174.121 85.0644 171.818 83.8591C169.508 82.5936 167.702 80.8942 166.388 78.7595C165.076 76.5723 164.416 74.1081 164.416 71.3541C164.416 68.5989 165.077 66.1645 166.386 64.0361ZM182.552 78.5791L182.553 78.5767C182.785 76.8957 182.898 74.4837 182.898 71.3541C182.898 68.1708 182.785 65.7845 182.552 64.2133C182.437 63.4046 182.298 62.7189 182.132 62.1624C181.971 61.6213 181.776 61.1678 181.527 60.8416C181.103 60.2143 180.503 59.8673 179.758 59.8673C179.052 59.8673 178.465 60.2297 178.001 60.8268C177.746 61.154 177.547 61.6131 177.384 62.1624C177.218 62.7189 177.079 63.4046 176.964 64.2133C176.731 65.7845 176.618 68.1708 176.618 71.3541C176.618 74.4837 176.731 76.8957 176.963 78.5767L176.963 78.5791C177.191 80.1699 177.513 81.3569 177.986 82.0315L177.993 82.0418L178.001 82.0518C178.465 82.6489 179.052 83.0113 179.758 83.0113C180.507 83.0113 181.109 82.6605 181.534 82.0269C182.004 81.3515 182.326 80.1662 182.552 78.5791ZM137.289 84.8219L185.787 25.3517H191.225L142.727 84.8219H137.289Z" fill="#E5EBEE" stroke="#254839"/>
<mask id="mask15_92_471260" style="mask-type:alpha" maskUnits="userSpaceOnUse" x="133" y="24" width="63" height="63">
<path d="M135.47 31.5014L135.47 31.5015L135.473 31.4966C136.787 29.3056 138.592 27.6091 140.897 26.4018L140.897 26.4019L140.905 26.3974C143.208 25.1368 145.848 24.5 148.841 24.5C151.893 24.5 154.532 25.1376 156.773 26.395L156.779 26.3985L156.786 26.4018C159.094 27.6108 160.899 29.2813 162.213 31.4163C163.522 33.5431 164.183 36.0054 164.183 38.8195C164.183 41.5736 163.523 44.0378 162.212 46.2251C160.897 48.3604 159.09 50.06 156.78 51.3256C154.537 52.5286 151.896 53.1389 148.841 53.1389C145.847 53.1389 143.204 52.5297 140.901 51.3245C138.592 50.059 136.786 48.3597 135.471 46.225C134.16 44.0378 133.5 41.5736 133.5 38.8195C133.5 36.0642 134.16 33.6299 135.47 31.5014ZM151.636 46.0444L151.636 46.042L151.141 31.7504L151.636 31.6797C151.636 31.6792 151.636 31.6787 151.636 31.6782C151.52 30.8697 151.381 30.1842 151.216 29.6277C151.055 29.0866 150.859 28.6331 150.61 28.3069C150.186 27.6797 149.586 27.3326 148.841 27.3326C148.136 27.3326 147.549 27.695 147.084 28.2922C146.83 28.6193 146.631 29.0784 146.467 29.6277C146.302 30.1843 146.163 30.8699 146.047 31.6786C145.814 33.2498 145.701 35.6361 145.701 38.8195C145.701 41.9491 145.815 44.361 146.047 46.042L146.047 46.0444C146.274 47.6352 146.597 48.8222 147.069 49.4968L147.076 49.5072L147.084 49.5171C147.549 50.1142 148.136 50.4766 148.841 50.4766C149.59 50.4766 150.193 50.1258 150.617 49.4921C151.088 48.8167 151.409 47.6315 151.636 46.0444ZM166.386 64.0361L166.386 64.0361L166.389 64.0313C167.704 61.8403 169.509 60.1437 171.814 58.9365L171.814 58.9366L171.822 58.9321C174.124 57.6714 176.765 57.0347 179.758 57.0347C182.81 57.0347 185.448 57.6723 187.69 58.9296L187.696 58.9331L187.702 58.9365C190.01 60.1454 191.816 61.816 193.13 63.9509C194.438 66.0778 195.099 68.5401 195.099 71.3541C195.099 74.1081 194.44 76.5723 193.128 78.7595C191.814 80.895 190.006 82.5948 187.696 83.8604C185.453 85.0633 182.812 85.6736 179.758 85.6736C176.763 85.6736 174.121 85.0644 171.818 83.8591C169.508 82.5936 167.702 80.8942 166.388 78.7595C165.076 76.5723 164.416 74.1081 164.416 71.3541C164.416 68.5989 165.077 66.1645 166.386 64.0361ZM182.552 78.5791L182.553 78.5767C182.785 76.8957 182.898 74.4837 182.898 71.3541C182.898 68.1708 182.785 65.7845 182.552 64.2133C182.437 63.4046 182.298 62.7189 182.132 62.1624C181.971 61.6213 181.776 61.1678 181.527 60.8416C181.103 60.2143 180.503 59.8673 179.758 59.8673C179.052 59.8673 178.465 60.2297 178.001 60.8268C177.746 61.154 177.547 61.6131 177.384 62.1624C177.218 62.7189 177.079 63.4046 176.964 64.2133C176.731 65.7845 176.618 68.1708 176.618 71.3541C176.618 74.4837 176.731 76.8957 176.963 78.5767L176.963 78.5791C177.191 80.1699 177.513 81.3569 177.986 82.0315L177.993 82.0418L178.001 82.0518C178.465 82.6489 179.052 83.0113 179.758 83.0113C180.507 83.0113 181.109 82.6605 181.534 82.0269C182.004 81.3515 182.326 80.1662 182.552 78.5791ZM137.289 84.8219L185.787 25.3517H191.225L142.727 84.8219H137.289Z" fill="#BED3E2" stroke="#254839"/>
</mask>
<g mask="url(#mask15_92_471260)">
<g opacity="0.5">
<path d="M135 5L135 105" stroke="#254839"/>
<path d="M165 5L165 105" stroke="#254839"/>
<path d="M137 5L137 105" stroke="#254839"/>
<path d="M167 5L167 105" stroke="#254839"/>
<path d="M139 5L139 105" stroke="#254839"/>
<path d="M169 5L169 105" stroke="#254839"/>
<path d="M141 5L141 105" stroke="#254839"/>
<path d="M171 5L171 105" stroke="#254839"/>
<path d="M149 5L149 105" stroke="#254839"/>
<path d="M179 5L179 105" stroke="#254839"/>
<path d="M143 5L143 105" stroke="#254839"/>
<path d="M173 5L173 105" stroke="#254839"/>
<path d="M153 5L153 105" stroke="#254839"/>
<path d="M183 5L183 105" stroke="#254839"/>
<path d="M145 5L145 105" stroke="#254839"/>
<path d="M175 5L175 105" stroke="#254839"/>
<path d="M147 5L147 105" stroke="#254839"/>
<path d="M177 5L177 105" stroke="#254839"/>
<path d="M151 5L151 105" stroke="#254839"/>
<path d="M181 5L181 105" stroke="#254839"/>
<path d="M155 5L155 105" stroke="#254839"/>
<path d="M185 5L185 105" stroke="#254839"/>
<path d="M157 5L157 105" stroke="#254839"/>
<path d="M187 5L187 105" stroke="#254839"/>
<path d="M159 5L159 105" stroke="#254839"/>
<path d="M189 5L189 105" stroke="#254839"/>
<path d="M161 5L161 105" stroke="#254839"/>
<path d="M191 5L191 105" stroke="#254839"/>
<path d="M163 5L163 105" stroke="#254839"/>
<path d="M193 5L193 105" stroke="#254839"/>
<path d="M195 5L195 105" stroke="#254839"/>
<path d="M165 5L165 105" stroke="#254839"/>
</g>
</g>
</svg>
