<svg width="169" height="48" viewBox="0 0 169 48" fill="none" xmlns="http://www.w3.org/2000/svg">
<path d="M97.6496 27.8193C97.3392 28.0882 96.9826 28.2632 96.6316 28.438C96.2739 28.6128 95.8762 28.7471 95.4317 28.8345C94.9861 28.9219 94.5411 28.9691 94.0155 28.9691C93.1733 28.9691 92.4173 28.8345 91.7098 28.5253C91.0017 28.2161 90.422 27.8196 89.8891 27.2885C89.3562 26.7575 88.959 26.1389 88.6892 25.4331C88.4193 24.7272 88.2441 23.9274 88.2441 23.1342C88.2441 22.3342 88.3788 21.5411 88.6892 20.8353C88.9996 20.1294 89.3967 19.5108 89.8891 18.9798C90.422 18.4487 91.0017 18.0053 91.7098 17.6961C92.4173 17.3869 93.1733 17.2119 94.0155 17.2119C94.5478 17.2119 94.9929 17.2591 95.4317 17.3465C95.8289 17.4339 96.2271 17.5682 96.5843 17.7026C96.942 17.8371 97.2918 18.0589 97.5617 18.2741C97.8315 18.4959 98.1419 18.7582 98.4517 19.027L97.5617 19.9546C97.0761 19.5109 96.5437 19.1145 95.9641 18.8455C95.3912 18.5833 94.723 18.4017 93.9214 18.4017C93.3006 18.4017 92.721 18.5361 92.148 18.7579C91.6157 18.9797 91.1301 19.3294 90.7318 19.7328C90.3347 20.1293 90.0243 20.6606 89.8018 21.2386C89.5792 21.81 89.444 22.435 89.444 23.0938C89.444 23.7593 89.5319 24.3779 89.8018 24.9493C90.0716 25.5206 90.3347 26.0111 90.7318 26.4549C91.1301 26.8985 91.5751 27.2079 92.148 27.47C92.6804 27.7322 93.2601 27.8262 93.9214 27.8262C94.7168 27.8262 95.3844 27.6916 95.9641 27.3824C96.537 27.0732 97.0761 26.6767 97.6496 26.186L98.4923 27.0263C98.2703 27.3355 97.96 27.5975 97.6496 27.8193Z" fill="#BCC8C0"/>
<path d="M112.645 28.791L109.321 24.3678H106.038V28.791H104.75V17.3838H109.671C110.292 17.3838 110.872 17.4709 111.405 17.6457C111.938 17.8204 112.335 18.0424 112.692 18.3517C113.05 18.6609 113.313 19.0169 113.535 19.4135C113.71 19.8101 113.845 20.3008 113.845 20.7849C113.845 21.2688 113.757 21.6723 113.623 22.0689C113.487 22.4655 113.265 22.7748 112.956 23.0437C112.645 23.3126 112.335 23.5276 111.978 23.7494C111.58 23.9241 111.182 24.0586 110.737 24.1459L114.243 28.791H112.645ZM111.755 19.1919C111.222 18.7954 110.515 18.5732 109.585 18.5732H106.038V23.2183H109.544C109.988 23.2183 110.387 23.1714 110.744 23.0437C111.101 22.9092 111.411 22.7814 111.674 22.5596C111.944 22.3377 112.16 22.1158 112.294 21.8066C112.429 21.4974 112.517 21.1884 112.517 20.8321C112.51 20.1666 112.24 19.5953 111.755 19.1919Z" fill="#BCC8C0"/>
<path d="M128.744 18.5766H121.78V22.4687H128.03V23.6181H121.78V27.5979H128.832V28.7475H120.492V17.3398H128.744V18.5766Z" fill="#BCC8C0"/>
<path d="M144.934 25.3449C144.623 26.0507 144.225 26.6287 143.693 27.1597C143.16 27.6437 142.493 28.0875 141.744 28.3564C140.989 28.6253 140.193 28.8001 139.304 28.8001H135.359V17.3926H139.304C140.193 17.3926 141.037 17.5272 141.744 17.8363C142.452 18.1455 143.12 18.5421 143.693 19.0327C144.225 19.5167 144.623 20.142 144.934 20.8478C145.243 21.5536 145.378 22.3066 145.378 23.0998C145.378 23.8931 145.243 24.6794 144.934 25.3449ZM143.733 21.3655C143.511 20.8344 143.2 20.3505 142.803 19.9068C142.405 19.4631 141.913 19.2009 141.293 18.9319C140.672 18.6631 140.053 18.5756 139.344 18.5756H136.681V27.5969H139.344C140.053 27.5969 140.719 27.4622 141.293 27.2404C141.872 27.0186 142.358 26.7094 142.803 26.3128C143.248 25.9162 143.511 25.4254 143.733 24.9011C143.955 24.3701 144.09 23.7517 144.09 23.1333C144.09 22.5149 143.955 21.9369 143.733 21.3655Z" fill="#BCC8C0"/>
<path d="M153.45 17.4277H152.162V28.8353H153.45V17.4277Z" fill="#BCC8C0"/>
<path d="M165.024 28.791H163.736V18.5732H159.92V17.3838H168.88V18.5732H165.07L165.024 28.791Z" fill="#BCC8C0"/>
<path d="M54.804 25.6922H54.7568L50.5901 19.595V28.791H49.3496V17.3838H50.6778L54.8512 23.6149L59.0178 17.3838H60.3461V28.791H59.0651V19.5481L54.804 25.6922Z" fill="#BCC8C0"/>
<path d="M69.0422 17.3838H70.0128V28.8783H68.7318V18.7547L66.554 19.4135L66.2441 18.3517L69.0422 17.3838Z" fill="#BCC8C0"/>
<path d="M78.8445 17.3838H79.7746V28.8783H78.4868V18.7547L76.3163 19.4135L76.0059 18.3517L78.8445 17.3838Z" fill="#BCC8C0"/>
<path d="M37.1797 6.4248V40.1242H37.8557V6.4248H37.1797Z" fill="#BCC8C0"/>
<path d="M8.94523 14.2126L8.17245 16.8074L2.80657 15.1432V36.7588H0V11.8213H1.99677L8.94523 14.2126Z" fill="#BCC8C0"/>
<path d="M24.2376 11.8213H26.2285V36.7588H23.422V15.1432L18.0559 16.8074L17.2832 14.2126L24.2376 11.8213Z" fill="#BCC8C0"/>
</svg>
