<svg  viewBox="0 0 51 52" fill="none" xmlns="http://www.w3.org/2000/svg">
<path d="M7.54826 37.3006C5.11353 33.6888 3.69229 29.3373 3.69229 24.6538C3.69229 12.1425 13.8348 2 26.3461 2C38.8575 2 49 12.1425 49 24.6538C49 37.1652 38.8575 47.3077 26.3461 47.3077C20.3877 47.3077 14.9665 45.0073 10.9222 41.2461L10.2692 40.7308" stroke="#2F5144" stroke-width="2.2036"/>
<path d="M11.7305 40.7305L3.32662 50.5959" stroke="#2F5144" stroke-width="2.2036"/>
<mask id="mask0_145_1904" style="mask-type:alpha" maskUnits="userSpaceOnUse" x="19" y="16" width="16" height="16">
<ellipse cx="7.47541" cy="7.47541" rx="7.47541" ry="7.47541" transform="matrix(-1 0 0 1 34.3379 16.6748)" fill="#D9D9D9"/>
</mask>
<g mask="url(#mask0_145_1904)">
<path d="M18.501 20.1279L20.001 21.6279L18.501 23.1279L17.001 21.6279L18.501 20.1279Z" fill="#2F5144"/>
<path d="M30.501 20.1279L32.001 21.6279L30.501 23.1279L29.001 21.6279L30.501 20.1279Z" fill="#2F5144"/>
<path d="M26.501 20.1279L28.001 21.6279L26.501 23.1279L25.001 21.6279L26.501 20.1279Z" fill="#2F5144"/>
<path d="M22.501 20.1279L24.001 21.6279L22.501 23.1279L21.001 21.6279L22.501 20.1279Z" fill="#2F5144"/>
<path d="M34.501 20.1279L36.001 21.6279L34.501 23.1279L33.001 21.6279L34.501 20.1279Z" fill="#2F5144"/>
<path d="M20.501 22.1279L22.001 23.6279L20.501 25.1279L19.001 23.6279L20.501 22.1279Z" fill="#2F5144"/>
<path d="M32.501 22.1279L34.001 23.6279L32.501 25.1279L31.001 23.6279L32.501 22.1279Z" fill="#2F5144"/>
<path d="M28.501 22.1279L30.001 23.6279L28.501 25.1279L27.001 23.6279L28.501 22.1279Z" fill="#2F5144"/>
<path d="M24.501 22.1279L26.001 23.6279L24.501 25.1279L23.001 23.6279L24.501 22.1279Z" fill="#2F5144"/>
<path d="M18.501 24.1279L20.001 25.6279L18.501 27.1279L17.001 25.6279L18.501 24.1279Z" fill="#2F5144"/>
<path d="M30.501 24.1279L32.001 25.6279L30.501 27.1279L29.001 25.6279L30.501 24.1279Z" fill="#2F5144"/>
<path d="M26.501 24.1279L28.001 25.6279L26.501 27.1279L25.001 25.6279L26.501 24.1279Z" fill="#2F5144"/>
<path d="M22.501 24.1279L24.001 25.6279L22.501 27.1279L21.001 25.6279L22.501 24.1279Z" fill="#2F5144"/>
<path d="M34.501 24.1279L36.001 25.6279L34.501 27.1279L33.001 25.6279L34.501 24.1279Z" fill="#2F5144"/>
<path d="M20.501 14.1279L22.001 15.6279L20.501 17.1279L19.001 15.6279L20.501 14.1279Z" fill="#2F5144"/>
<path d="M32.501 14.1279L34.001 15.6279L32.501 17.1279L31.001 15.6279L32.501 14.1279Z" fill="#2F5144"/>
<path d="M28.501 14.1279L30.001 15.6279L28.501 17.1279L27.001 15.6279L28.501 14.1279Z" fill="#2F5144"/>
<path d="M24.501 14.1279L26.001 15.6279L24.501 17.1279L23.001 15.6279L24.501 14.1279Z" fill="#2F5144"/>
<path d="M20.501 26.1279L22.001 27.6279L20.501 29.1279L19.001 27.6279L20.501 26.1279Z" fill="#2F5144"/>
<path d="M32.501 26.1279L34.001 27.6279L32.501 29.1279L31.001 27.6279L32.501 26.1279Z" fill="#2F5144"/>
<path d="M28.501 26.1279L30.001 27.6279L28.501 29.1279L27.001 27.6279L28.501 26.1279Z" fill="#2F5144"/>
<path d="M24.501 26.1279L26.001 27.6279L24.501 29.1279L23.001 27.6279L24.501 26.1279Z" fill="#2F5144"/>
<path d="M18.501 16.1279L20.001 17.6279L18.501 19.1279L17.001 17.6279L18.501 16.1279Z" fill="#2F5144"/>
<path d="M30.501 16.1279L32.001 17.6279L30.501 19.1279L29.001 17.6279L30.501 16.1279Z" fill="#2F5144"/>
<path d="M26.501 16.1279L28.001 17.6279L26.501 19.1279L25.001 17.6279L26.501 16.1279Z" fill="#2F5144"/>
<path d="M22.501 16.1279L24.001 17.6279L22.501 19.1279L21.001 17.6279L22.501 16.1279Z" fill="#2F5144"/>
<path d="M34.501 16.1279L36.001 17.6279L34.501 19.1279L33.001 17.6279L34.501 16.1279Z" fill="#2F5144"/>
<path d="M18.501 28.1279L20.001 29.6279L18.501 31.1279L17.001 29.6279L18.501 28.1279Z" fill="#2F5144"/>
<path d="M30.501 28.1279L32.001 29.6279L30.501 31.1279L29.001 29.6279L30.501 28.1279Z" fill="#2F5144"/>
<path d="M26.501 28.1279L28.001 29.6279L26.501 31.1279L25.001 29.6279L26.501 28.1279Z" fill="#2F5144"/>
<path d="M22.501 28.1279L24.001 29.6279L22.501 31.1279L21.001 29.6279L22.501 28.1279Z" fill="#2F5144"/>
<path d="M34.501 28.1279L36.001 29.6279L34.501 31.1279L33.001 29.6279L34.501 28.1279Z" fill="#2F5144"/>
<path d="M20.501 18.1279L22.001 19.6279L20.501 21.1279L19.001 19.6279L20.501 18.1279Z" fill="#2F5144"/>
<path d="M32.501 18.1279L34.001 19.6279L32.501 21.1279L31.001 19.6279L32.501 18.1279Z" fill="#2F5144"/>
<path d="M28.501 18.1279L30.001 19.6279L28.501 21.1279L27.001 19.6279L28.501 18.1279Z" fill="#2F5144"/>
<path d="M24.501 18.1279L26.001 19.6279L24.501 21.1279L23.001 19.6279L24.501 18.1279Z" fill="#2F5144"/>
<path d="M20.501 30.1279L22.001 31.6279L20.501 33.1279L19.001 31.6279L20.501 30.1279Z" fill="#2F5144"/>
<path d="M32.501 30.1279L34.001 31.6279L32.501 33.1279L31.001 31.6279L32.501 30.1279Z" fill="#2F5144"/>
<path d="M28.501 30.1279L30.001 31.6279L28.501 33.1279L27.001 31.6279L28.501 30.1279Z" fill="#2F5144"/>
<path d="M24.501 30.1279L26.001 31.6279L24.501 33.1279L23.001 31.6279L24.501 30.1279Z" fill="#2F5144"/>
</g>
<path d="M16.2609 24.2281C16.2609 30.0089 20.9472 34.6951 26.728 34.6951C32.5088 34.6951 37.1951 30.0089 37.1951 24.2281C37.1951 18.4473 32.5088 13.761 26.728 13.761C20.9472 13.761 16.2609 18.4473 16.2609 24.2281Z" stroke="#2F5144" stroke-width="2.2036"/>
<path d="M47.5723 31.3898C43.9212 31.3898 40.9615 28.1834 40.9615 24.2281C40.9615 20.2728 43.9212 17.0664 47.5723 17.0664" stroke="#2F5144" stroke-width="2.2036"/>
<path d="M4.87305 31.3898C9.13259 31.3898 12.5856 28.1834 12.5856 24.2281C12.5856 20.2728 9.13259 17.0664 4.87305 17.0664" stroke="#2F5144" stroke-width="2.2036"/>
</svg>
