<svg viewBox="0 0 50 50" fill="none" xmlns="http://www.w3.org/2000/svg">
<path d="M19.7756 32.2046L18.0127 30.8604L29.9562 17.0879L31.7191 18.4101L19.7756 32.2046ZM20.5909 24.0733C19.9445 24.0733 19.3422 23.9117 18.7839 23.5885C18.2404 23.2653 17.807 22.8393 17.4838 22.3104C17.1606 21.7816 16.999 21.1939 16.999 20.5475C16.999 19.8718 17.1606 19.2695 17.4838 18.7406C17.807 18.2117 18.2404 17.7931 18.7839 17.4845C19.3422 17.1614 19.9445 16.9998 20.5909 16.9998C21.2667 16.9998 21.8763 17.1614 22.4199 17.4845C22.9634 17.8077 23.3968 18.2338 23.72 18.7626C24.0432 19.2915 24.2048 19.8865 24.2048 20.5475C24.2048 21.1939 24.0432 21.7816 23.72 22.3104C23.3968 22.8393 22.9561 23.2653 22.3978 23.5885C21.8543 23.9117 21.252 24.0733 20.5909 24.0733ZM20.5909 21.8477C20.9728 21.8477 21.2887 21.7301 21.5384 21.4951C21.7882 21.2454 21.913 20.9295 21.913 20.5475C21.913 20.1509 21.7882 19.8277 21.5384 19.578C21.2887 19.3282 20.9728 19.2034 20.5909 19.2034C20.2236 19.2034 19.9151 19.3282 19.6654 19.578C19.4303 19.8277 19.3128 20.1509 19.3128 20.5475C19.3128 20.9295 19.4303 21.2454 19.6654 21.4951C19.9151 21.7301 20.2236 21.8477 20.5909 21.8477ZM29.207 32.1825C28.5459 32.1825 27.9436 32.0283 27.4 31.7198C26.8564 31.3966 26.4157 30.9706 26.0778 30.4417C25.7547 29.9128 25.5931 29.3179 25.5931 28.6568C25.5931 27.9957 25.7547 27.4007 26.0778 26.8719C26.4157 26.3283 26.8564 25.9023 27.4 25.5938C27.9436 25.2853 28.5459 25.131 29.207 25.131C29.868 25.131 30.4703 25.2853 31.0139 25.5938C31.5721 25.9023 32.0129 26.3283 32.3361 26.8719C32.6593 27.4154 32.8209 28.0104 32.8209 28.6568C32.8209 29.3179 32.6519 29.9128 32.314 30.4417C31.9908 30.9706 31.5575 31.3966 31.0139 31.7198C30.4703 32.0283 29.868 32.1825 29.207 32.1825ZM29.207 29.9789C29.5742 29.9789 29.8827 29.8614 30.1325 29.6264C30.3822 29.3766 30.5071 29.0534 30.5071 28.6568C30.5071 28.2601 30.3822 27.9443 30.1325 27.7092C29.8827 27.4595 29.5742 27.3346 29.207 27.3346C28.825 27.3346 28.5091 27.4595 28.2594 27.7092C28.0244 27.9443 27.9068 28.2601 27.9068 28.6568C27.9068 29.0534 28.0244 29.3766 28.2594 29.6264C28.5091 29.8614 28.825 29.9789 29.207 29.9789Z" fill="#2F5144"/>
<mask id="path-2-inside-1_145_1704" fill="white">
<path d="M47.7741 28.2853C47.0525 33.507 44.6319 38.3459 40.886 42.0547C37.1402 45.7635 32.2775 48.1359 27.0489 48.8055C21.8203 49.4752 16.5167 48.4048 11.9571 45.7598C7.39744 43.1147 3.83547 39.042 1.82123 34.1707C-0.193004 29.2994 -0.547458 23.9005 0.812608 18.8077C2.17268 13.7149 5.1716 9.21146 9.34627 5.99295C13.5209 2.77444 18.6391 1.01986 23.9104 1.00017C29.1816 0.980479 34.3128 2.69678 38.5113 5.88401L31.9812 14.4862C29.672 12.7332 26.8499 11.7893 23.9507 11.8001C21.0515 11.8109 18.2365 12.7759 15.9404 14.5461C13.6444 16.3163 11.995 18.7932 11.2469 21.5942C10.4989 24.3953 10.6938 27.3647 11.8017 30.0439C12.9095 32.7231 14.8686 34.9631 17.3764 36.4179C19.8842 37.8727 22.8012 38.4614 25.6769 38.0931C28.5526 37.7247 31.2271 36.4199 33.2873 34.3801C35.3475 32.3402 36.6789 29.6788 37.0757 26.8069L47.7741 28.2853Z"/>
</mask>
<path d="M47.7741 28.2853C47.0525 33.507 44.6319 38.3459 40.886 42.0547C37.1402 45.7635 32.2775 48.1359 27.0489 48.8055C21.8203 49.4752 16.5167 48.4048 11.9571 45.7598C7.39744 43.1147 3.83547 39.042 1.82123 34.1707C-0.193004 29.2994 -0.547458 23.9005 0.812608 18.8077C2.17268 13.7149 5.1716 9.21146 9.34627 5.99295C13.5209 2.77444 18.6391 1.01986 23.9104 1.00017C29.1816 0.980479 34.3128 2.69678 38.5113 5.88401L31.9812 14.4862C29.672 12.7332 26.8499 11.7893 23.9507 11.8001C21.0515 11.8109 18.2365 12.7759 15.9404 14.5461C13.6444 16.3163 11.995 18.7932 11.2469 21.5942C10.4989 24.3953 10.6938 27.3647 11.8017 30.0439C12.9095 32.7231 14.8686 34.9631 17.3764 36.4179C19.8842 37.8727 22.8012 38.4614 25.6769 38.0931C28.5526 37.7247 31.2271 36.4199 33.2873 34.3801C35.3475 32.3402 36.6789 29.6788 37.0757 26.8069L47.7741 28.2853Z" stroke="#2F5144" stroke-width="4.40719" mask="url(#path-2-inside-1_145_1704)"/>
<path d="M36.2519 14.3063L42.6597 7.89852C46.4173 12.0195 48.6158 17.3272 48.8728 22.8983L39.8108 22.8983C39.5751 19.7276 38.3272 16.7149 36.2519 14.3063Z" stroke="#2F5144" stroke-width="2.2036"/>
<mask id="mask0_145_1704" style="mask-type:alpha" maskUnits="userSpaceOnUse" x="38" y="10" width="9" height="11">
<path d="M41 20.9998C41 18.7071 39.898 16.0819 38.5 14.4998L42.5 10.4998C44.5 12.9998 47 16.7373 47 20.9998L41 20.9998Z" fill="#D9D9D9"/>
</mask>
<g mask="url(#mask0_145_1704)">
<path d="M44.2969 9.20288L45.7969 10.7029L44.2969 12.2029L42.7969 10.7029L44.2969 9.20288Z" fill="#2F5144"/>
<path d="M40.2969 9.20288L41.7969 10.7029L40.2969 12.2029L38.7969 10.7029L40.2969 9.20288Z" fill="#2F5144"/>
<path d="M48.2969 9.20288L49.7969 10.7029L48.2969 12.2029L46.7969 10.7029L48.2969 9.20288Z" fill="#2F5144"/>
<path d="M46.2969 11.2029L47.7969 12.7029L46.2969 14.2029L44.7969 12.7029L46.2969 11.2029Z" fill="#2F5144"/>
<path d="M42.2969 11.2029L43.7969 12.7029L42.2969 14.2029L40.7969 12.7029L42.2969 11.2029Z" fill="#2F5144"/>
<path d="M38.2969 11.2029L39.7969 12.7029L38.2969 14.2029L36.7969 12.7029L38.2969 11.2029Z" fill="#2F5144"/>
<path d="M44.2969 13.2029L45.7969 14.7029L44.2969 16.2029L42.7969 14.7029L44.2969 13.2029Z" fill="#2F5144"/>
<path d="M40.2969 13.2029L41.7969 14.7029L40.2969 16.2029L38.7969 14.7029L40.2969 13.2029Z" fill="#2F5144"/>
<path d="M48.2969 13.2029L49.7969 14.7029L48.2969 16.2029L46.7969 14.7029L48.2969 13.2029Z" fill="#2F5144"/>
<path d="M46.2969 15.2029L47.7969 16.7029L46.2969 18.2029L44.7969 16.7029L46.2969 15.2029Z" fill="#2F5144"/>
<path d="M42.2969 15.2029L43.7969 16.7029L42.2969 18.2029L40.7969 16.7029L42.2969 15.2029Z" fill="#2F5144"/>
<path d="M38.2969 15.2029L39.7969 16.7029L38.2969 18.2029L36.7969 16.7029L38.2969 15.2029Z" fill="#2F5144"/>
<path d="M44.2969 17.2029L45.7969 18.7029L44.2969 20.2029L42.7969 18.7029L44.2969 17.2029Z" fill="#2F5144"/>
<path d="M40.2969 17.2029L41.7969 18.7029L40.2969 20.2029L38.7969 18.7029L40.2969 17.2029Z" fill="#2F5144"/>
<path d="M48.2969 17.2029L49.7969 18.7029L48.2969 20.2029L46.7969 18.7029L48.2969 17.2029Z" fill="#2F5144"/>
<path d="M46.2969 19.2029L47.7969 20.7029L46.2969 22.2029L44.7969 20.7029L46.2969 19.2029Z" fill="#2F5144"/>
<path d="M42.2969 19.2029L43.7969 20.7029L42.2969 22.2029L40.7969 20.7029L42.2969 19.2029Z" fill="#2F5144"/>
<path d="M38.2969 19.2029L39.7969 20.7029L38.2969 22.2029L36.7969 20.7029L38.2969 19.2029Z" fill="#2F5144"/>
</g>
</svg>
